%FSLAX34Y34*%
G04 Gerber Fmt 3.4, Leading zero omitted, Abs format*
G04 (created by PCBNEW (2014-02-28 BZR 4729)-product) date man 03 mar 2014 19:53:33 CET*
%MOIN*%
G01*
G70*
G90*
G04 APERTURE LIST*
%ADD10C,0.005906*%
%ADD11O,0.064961X0.100000*%
%ADD12O,0.100000X0.065000*%
%ADD13R,0.035433X0.031496*%
%ADD14R,0.050000X0.031496*%
%ADD15R,0.031496X0.050000*%
%ADD16R,0.035433X0.027559*%
%ADD17R,0.031496X0.035433*%
%ADD18R,0.062992X0.011811*%
%ADD19R,0.020000X0.050000*%
%ADD20R,0.051181X0.043307*%
%ADD21R,0.066929X0.051181*%
%ADD22O,0.065000X0.100000*%
%ADD23R,0.093701X0.021969*%
%ADD24R,0.070866X0.059055*%
%ADD25R,0.062992X0.059055*%
%ADD26C,0.035000*%
%ADD27C,0.009843*%
%ADD28C,0.010000*%
G04 APERTURE END LIST*
G54D10*
G54D11*
X6342Y5937D03*
X7342Y5937D03*
X8342Y5937D03*
X9342Y5937D03*
X10342Y5937D03*
X11342Y5937D03*
X12342Y5937D03*
X13342Y5937D03*
X13342Y1937D03*
X12342Y1937D03*
X11342Y1937D03*
X10342Y1937D03*
X9342Y1937D03*
X8342Y1937D03*
X7342Y1937D03*
X6342Y1937D03*
G54D12*
X590Y2830D03*
X590Y3830D03*
X590Y4830D03*
X590Y5830D03*
G54D13*
X15118Y5944D03*
X15826Y5944D03*
X5472Y5354D03*
X4763Y5354D03*
G54D14*
X7714Y4527D03*
X6616Y4152D03*
X6616Y4902D03*
G54D15*
X9370Y6812D03*
X8995Y7911D03*
X9745Y7911D03*
X11338Y6812D03*
X10963Y7911D03*
X11713Y7911D03*
X13346Y6812D03*
X12971Y7911D03*
X13721Y7911D03*
G54D13*
X14055Y5236D03*
G54D16*
X14763Y5236D03*
G54D13*
X14055Y4763D03*
X14763Y4763D03*
X14055Y4291D03*
X14763Y4291D03*
X14055Y3818D03*
X14763Y3818D03*
X14055Y3346D03*
X14763Y3346D03*
X14055Y2874D03*
X14763Y2874D03*
X14055Y2401D03*
X14763Y2401D03*
X14055Y1889D03*
X14763Y1889D03*
X5275Y4527D03*
X5984Y4527D03*
G54D17*
X8464Y7677D03*
X8464Y6968D03*
X10354Y6968D03*
X10354Y7677D03*
X12322Y6968D03*
X12322Y7677D03*
X1377Y2677D03*
X1377Y3385D03*
G54D18*
X4960Y5777D03*
X4960Y6033D03*
X4960Y6289D03*
X4960Y6545D03*
X4960Y6801D03*
X4960Y7057D03*
X4960Y7312D03*
X4960Y7568D03*
X4960Y7824D03*
X4960Y8080D03*
X2755Y8080D03*
X2755Y7824D03*
X2755Y7568D03*
X2755Y7312D03*
X2755Y7057D03*
X2755Y6801D03*
X2755Y6545D03*
X2755Y6289D03*
X2755Y6033D03*
X2755Y5777D03*
G54D19*
X15926Y7675D03*
X15176Y7675D03*
X15926Y6576D03*
X15551Y7675D03*
X15176Y6576D03*
G54D20*
X14606Y6830D03*
X14606Y7736D03*
G54D21*
X16574Y6309D03*
X16574Y7706D03*
G54D13*
X10629Y2677D03*
X9921Y2677D03*
G54D17*
X7952Y6968D03*
X7952Y7677D03*
G54D22*
X14842Y9251D03*
X13842Y9251D03*
X12842Y9251D03*
X11842Y9251D03*
X10842Y9251D03*
X9842Y9251D03*
X8842Y9251D03*
X7842Y9251D03*
X6842Y9251D03*
X5842Y9251D03*
X4842Y9251D03*
G54D23*
X15620Y4781D03*
X15620Y4281D03*
X15620Y3781D03*
X15620Y3281D03*
X15620Y2781D03*
X15620Y2281D03*
X15620Y1781D03*
X15620Y1281D03*
X17450Y1281D03*
X17450Y1781D03*
X17450Y2281D03*
X17450Y2781D03*
X17450Y3281D03*
X17450Y3781D03*
X17450Y4281D03*
X17450Y4781D03*
G54D24*
X1811Y5472D03*
X1811Y6653D03*
G54D17*
X3228Y3385D03*
X3228Y2677D03*
G54D25*
X2322Y590D03*
X2322Y3582D03*
G54D12*
X19094Y2330D03*
X19094Y3330D03*
X19094Y4330D03*
X19094Y5330D03*
X19094Y6330D03*
G54D11*
X13342Y13748D03*
X12342Y13748D03*
X11342Y13748D03*
X10342Y13748D03*
X9342Y13748D03*
X8342Y13748D03*
X7342Y13748D03*
X6342Y13748D03*
X6342Y17748D03*
X7342Y17748D03*
X8342Y17748D03*
X9342Y17748D03*
X10342Y17748D03*
X11342Y17748D03*
X12342Y17748D03*
X13342Y17748D03*
G54D12*
X19094Y16854D03*
X19094Y15854D03*
X19094Y14854D03*
X19094Y13854D03*
G54D13*
X4566Y13740D03*
X3858Y13740D03*
X14212Y14330D03*
X14921Y14330D03*
G54D14*
X11970Y15157D03*
X13068Y15532D03*
X13068Y14782D03*
G54D15*
X10314Y12872D03*
X10689Y11773D03*
X9939Y11773D03*
X8346Y12872D03*
X8721Y11773D03*
X7971Y11773D03*
X6338Y12872D03*
X6713Y11773D03*
X5963Y11773D03*
G54D13*
X5629Y14448D03*
G54D16*
X4921Y14448D03*
G54D13*
X5629Y14921D03*
X4921Y14921D03*
X5629Y15393D03*
X4921Y15393D03*
X5629Y15866D03*
X4921Y15866D03*
X5629Y16338D03*
X4921Y16338D03*
X5629Y16811D03*
X4921Y16811D03*
X5629Y17283D03*
X4921Y17283D03*
X5629Y17795D03*
X4921Y17795D03*
X14409Y15157D03*
X13700Y15157D03*
G54D17*
X11220Y12007D03*
X11220Y12716D03*
X9330Y12716D03*
X9330Y12007D03*
X7362Y12716D03*
X7362Y12007D03*
X18307Y17007D03*
X18307Y16299D03*
G54D18*
X14724Y13907D03*
X14724Y13651D03*
X14724Y13395D03*
X14724Y13139D03*
X14724Y12883D03*
X14724Y12627D03*
X14724Y12372D03*
X14724Y12116D03*
X14724Y11860D03*
X14724Y11604D03*
X16929Y11604D03*
X16929Y11860D03*
X16929Y12116D03*
X16929Y12372D03*
X16929Y12627D03*
X16929Y12883D03*
X16929Y13139D03*
X16929Y13395D03*
X16929Y13651D03*
X16929Y13907D03*
G54D19*
X3758Y12009D03*
X4508Y12009D03*
X3758Y13108D03*
X4133Y12009D03*
X4508Y13108D03*
G54D20*
X5078Y12854D03*
X5078Y11948D03*
G54D21*
X3110Y13375D03*
X3110Y11978D03*
G54D13*
X9055Y17007D03*
X9763Y17007D03*
G54D17*
X11732Y12716D03*
X11732Y12007D03*
G54D22*
X4842Y10433D03*
X5842Y10433D03*
X6842Y10433D03*
X7842Y10433D03*
X8842Y10433D03*
X9842Y10433D03*
X10842Y10433D03*
X11842Y10433D03*
X12842Y10433D03*
X13842Y10433D03*
X14842Y10433D03*
G54D23*
X4064Y14903D03*
X4064Y15403D03*
X4064Y15903D03*
X4064Y16403D03*
X4064Y16903D03*
X4064Y17403D03*
X4064Y17903D03*
X4064Y18403D03*
X2234Y18403D03*
X2234Y17903D03*
X2234Y17403D03*
X2234Y16903D03*
X2234Y16403D03*
X2234Y15903D03*
X2234Y15403D03*
X2234Y14903D03*
G54D24*
X17874Y14212D03*
X17874Y13031D03*
G54D17*
X16456Y16299D03*
X16456Y17007D03*
G54D25*
X17362Y19094D03*
X17362Y16102D03*
G54D12*
X590Y17354D03*
X590Y16354D03*
X590Y15354D03*
X590Y14354D03*
X590Y13354D03*
G54D26*
X7401Y7598D03*
X6181Y7244D03*
X12283Y12086D03*
X13503Y12440D03*
X3818Y4448D03*
X2086Y8267D03*
X15866Y15236D03*
X17598Y11417D03*
X2322Y2677D03*
X16771Y3149D03*
X14803Y1338D03*
X3228Y5748D03*
X10196Y2992D03*
X5078Y4094D03*
X2519Y5511D03*
X15944Y8307D03*
X15551Y6299D03*
X17362Y17007D03*
X2913Y16535D03*
X4881Y18346D03*
X16456Y13937D03*
X9488Y16692D03*
X14606Y15590D03*
X17165Y14173D03*
X3740Y11377D03*
X4133Y13385D03*
X8858Y6771D03*
X3740Y7007D03*
X10826Y12913D03*
X15944Y12677D03*
X3346Y7874D03*
X10787Y6692D03*
X16338Y11811D03*
X8897Y12992D03*
X2086Y7716D03*
X11850Y6692D03*
X17598Y11968D03*
X7834Y12992D03*
X7165Y4685D03*
X5748Y8188D03*
X12519Y15000D03*
X13937Y11496D03*
X18149Y4803D03*
X18110Y1889D03*
X4566Y3110D03*
X6023Y5236D03*
X8503Y5157D03*
X1535Y14881D03*
X1574Y17795D03*
X15118Y16574D03*
X13661Y14448D03*
X11181Y14527D03*
G54D27*
X14055Y2874D02*
X11338Y2874D01*
X8342Y2043D02*
X8342Y1937D01*
X9842Y3543D02*
X8342Y2043D01*
X10669Y3543D02*
X9842Y3543D01*
X11338Y2874D02*
X10669Y3543D01*
X5629Y16811D02*
X8346Y16811D01*
X11342Y17641D02*
X11342Y17748D01*
X9842Y16141D02*
X11342Y17641D01*
X9015Y16141D02*
X9842Y16141D01*
X8346Y16811D02*
X9015Y16141D01*
X14055Y3818D02*
X11023Y3818D01*
X8342Y3937D02*
X6342Y1937D01*
X10905Y3937D02*
X8342Y3937D01*
X11023Y3818D02*
X10905Y3937D01*
X5629Y15866D02*
X8661Y15866D01*
X11342Y15748D02*
X13342Y17748D01*
X8779Y15748D02*
X11342Y15748D01*
X8661Y15866D02*
X8779Y15748D01*
X14055Y2401D02*
X13740Y2401D01*
X9342Y2728D02*
X9342Y1937D01*
X9960Y3346D02*
X9342Y2728D01*
X10551Y3346D02*
X9960Y3346D01*
X11299Y2598D02*
X10551Y3346D01*
X13543Y2598D02*
X11299Y2598D01*
X13740Y2401D02*
X13543Y2598D01*
X5629Y17283D02*
X5944Y17283D01*
X10342Y16956D02*
X10342Y17748D01*
X9724Y16338D02*
X10342Y16956D01*
X9133Y16338D02*
X9724Y16338D01*
X8385Y17086D02*
X9133Y16338D01*
X6141Y17086D02*
X8385Y17086D01*
X5944Y17283D02*
X6141Y17086D01*
X14055Y4291D02*
X8740Y4291D01*
X7992Y5586D02*
X8342Y5937D01*
X7992Y5039D02*
X7992Y5586D01*
X8740Y4291D02*
X7992Y5039D01*
X5629Y15393D02*
X10944Y15393D01*
X11692Y14098D02*
X11342Y13748D01*
X11692Y14645D02*
X11692Y14098D01*
X10944Y15393D02*
X11692Y14645D01*
X14055Y5236D02*
X13043Y5236D01*
X13043Y5236D02*
X12342Y5937D01*
X5629Y14448D02*
X6641Y14448D01*
X6641Y14448D02*
X7342Y13748D01*
X6850Y5429D02*
X6972Y5429D01*
X6342Y5937D02*
X6850Y5429D01*
X7517Y4883D02*
X7517Y4566D01*
X6972Y5429D02*
X7517Y4883D01*
X12834Y14255D02*
X12712Y14255D01*
X13342Y13748D02*
X12834Y14255D01*
X12167Y14801D02*
X12167Y15118D01*
X12712Y14255D02*
X12167Y14801D01*
X9370Y6812D02*
X9370Y7165D01*
X9212Y7322D02*
X8700Y7322D01*
X9370Y7165D02*
X9212Y7322D01*
X7342Y7027D02*
X7342Y5937D01*
X8700Y7322D02*
X7637Y7322D01*
X7637Y7322D02*
X7342Y7027D01*
X10314Y12872D02*
X10314Y12519D01*
X10472Y12362D02*
X10984Y12362D01*
X10314Y12519D02*
X10472Y12362D01*
X12342Y12657D02*
X12342Y13748D01*
X10984Y12362D02*
X12047Y12362D01*
X12047Y12362D02*
X12342Y12657D01*
X11338Y6812D02*
X11338Y5940D01*
X11338Y5940D02*
X11342Y5937D01*
X8346Y12872D02*
X8346Y13744D01*
X8346Y13744D02*
X8342Y13748D01*
X13346Y6812D02*
X13346Y5940D01*
X13346Y5940D02*
X13342Y5937D01*
X6338Y12872D02*
X6338Y13744D01*
X6338Y13744D02*
X6342Y13748D01*
X14055Y4763D02*
X11515Y4763D01*
X11515Y4763D02*
X10342Y5937D01*
X5629Y14921D02*
X8169Y14921D01*
X8169Y14921D02*
X9342Y13748D01*
X14055Y1889D02*
X14055Y1771D01*
X12019Y1259D02*
X11342Y1937D01*
X13543Y1259D02*
X12019Y1259D01*
X14055Y1771D02*
X13543Y1259D01*
X5629Y17795D02*
X5629Y17913D01*
X7665Y18425D02*
X8342Y17748D01*
X6141Y18425D02*
X7665Y18425D01*
X5629Y17913D02*
X6141Y18425D01*
X14055Y3346D02*
X11181Y3346D01*
X9145Y3740D02*
X7342Y1937D01*
X10787Y3740D02*
X9145Y3740D01*
X11181Y3346D02*
X10787Y3740D01*
X5629Y16338D02*
X8503Y16338D01*
X10539Y15944D02*
X12342Y17748D01*
X8897Y15944D02*
X10539Y15944D01*
X8503Y16338D02*
X8897Y15944D01*
X7440Y7952D02*
X7282Y7952D01*
X6770Y7283D02*
X6770Y7282D01*
X6770Y7440D02*
X6770Y7283D01*
X7282Y7952D02*
X6770Y7440D01*
X6594Y6830D02*
X6771Y7007D01*
X5619Y6289D02*
X5944Y6614D01*
X4960Y6289D02*
X5619Y6289D01*
X6102Y6614D02*
X5944Y6614D01*
X5944Y6614D02*
X5944Y6614D01*
X5944Y6614D02*
X5944Y6614D01*
X9921Y8385D02*
X10787Y9251D01*
X10787Y9251D02*
X10842Y9251D01*
X8582Y8385D02*
X8386Y8189D01*
X8386Y8189D02*
X7677Y8189D01*
X7677Y8189D02*
X7440Y7952D01*
X9921Y8385D02*
X8582Y8385D01*
X6770Y7282D02*
X6771Y7283D01*
X6594Y6830D02*
X6377Y6614D01*
X6377Y6614D02*
X6102Y6614D01*
X6771Y7007D02*
X6771Y7283D01*
X12244Y11732D02*
X12402Y11732D01*
X12914Y12401D02*
X12914Y12402D01*
X12914Y12244D02*
X12914Y12401D01*
X12402Y11732D02*
X12914Y12244D01*
X13090Y12854D02*
X12913Y12677D01*
X14065Y13395D02*
X13740Y13070D01*
X14724Y13395D02*
X14065Y13395D01*
X13582Y13070D02*
X13740Y13070D01*
X13740Y13070D02*
X13740Y13070D01*
X13740Y13070D02*
X13740Y13070D01*
X9763Y11299D02*
X8897Y10433D01*
X8897Y10433D02*
X8842Y10433D01*
X11102Y11299D02*
X11298Y11495D01*
X11298Y11495D02*
X12007Y11495D01*
X12007Y11495D02*
X12244Y11732D01*
X9763Y11299D02*
X11102Y11299D01*
X12914Y12402D02*
X12913Y12401D01*
X13090Y12854D02*
X13307Y13070D01*
X13307Y13070D02*
X13582Y13070D01*
X12913Y12677D02*
X12913Y12401D01*
X5826Y6811D02*
X6260Y6811D01*
X6574Y7125D02*
X6574Y7559D01*
X6260Y6811D02*
X6574Y7125D01*
X7589Y8385D02*
X7571Y8385D01*
X8464Y8582D02*
X9173Y8582D01*
X8267Y8385D02*
X8464Y8582D01*
X9842Y9251D02*
X9173Y8582D01*
X7589Y8385D02*
X8267Y8385D01*
X7164Y8150D02*
X7164Y8149D01*
X7335Y8150D02*
X7164Y8150D01*
X7571Y8385D02*
X7335Y8150D01*
X5560Y6545D02*
X5826Y6811D01*
X6574Y7559D02*
X7164Y8149D01*
X7164Y8149D02*
X7164Y8149D01*
X4960Y6545D02*
X5560Y6545D01*
X13858Y12873D02*
X13424Y12873D01*
X13110Y12559D02*
X13110Y12125D01*
X13424Y12873D02*
X13110Y12559D01*
X12095Y11299D02*
X12114Y11299D01*
X11220Y11102D02*
X10511Y11102D01*
X11417Y11299D02*
X11220Y11102D01*
X9842Y10433D02*
X10511Y11102D01*
X12095Y11299D02*
X11417Y11299D01*
X12520Y11534D02*
X12520Y11535D01*
X12349Y11534D02*
X12520Y11534D01*
X12114Y11299D02*
X12349Y11534D01*
X14124Y13139D02*
X13858Y12873D01*
X13110Y12125D02*
X12520Y11535D01*
X12520Y11535D02*
X12520Y11535D01*
X14724Y13139D02*
X14124Y13139D01*
X6181Y7244D02*
X6377Y7440D01*
X6377Y7440D02*
X6377Y7677D01*
X5807Y7106D02*
X6043Y7106D01*
X7480Y7677D02*
X7952Y7677D01*
X7401Y7598D02*
X7480Y7677D01*
X6043Y7106D02*
X6181Y7244D01*
X8181Y8590D02*
X7488Y8590D01*
X8181Y8590D02*
X8842Y9251D01*
X6377Y7677D02*
X7047Y8346D01*
X7047Y8346D02*
X7244Y8346D01*
X7488Y8590D02*
X7244Y8346D01*
X4960Y6801D02*
X5501Y6801D01*
X5501Y6801D02*
X5807Y7106D01*
X13503Y12440D02*
X13307Y12244D01*
X13307Y12244D02*
X13307Y12007D01*
X13877Y12578D02*
X13641Y12578D01*
X12204Y12007D02*
X11732Y12007D01*
X12283Y12086D02*
X12204Y12007D01*
X13641Y12578D02*
X13503Y12440D01*
X11503Y11094D02*
X12196Y11094D01*
X11503Y11094D02*
X10842Y10433D01*
X13307Y12007D02*
X12637Y11338D01*
X12637Y11338D02*
X12440Y11338D01*
X12196Y11094D02*
X12440Y11338D01*
X14724Y12883D02*
X14183Y12883D01*
X14183Y12883D02*
X13877Y12578D01*
X4960Y7057D02*
X5403Y7057D01*
X7133Y8543D02*
X7842Y9251D01*
X6889Y8543D02*
X7133Y8543D01*
X5403Y7057D02*
X6889Y8543D01*
X14724Y12627D02*
X14281Y12627D01*
X12551Y11141D02*
X11842Y10433D01*
X12795Y11141D02*
X12551Y11141D01*
X14281Y12627D02*
X12795Y11141D01*
X4960Y7312D02*
X5344Y7312D01*
X6842Y8811D02*
X6842Y9251D01*
X5344Y7312D02*
X6842Y8811D01*
X14724Y12372D02*
X14340Y12372D01*
X12842Y10874D02*
X12842Y10433D01*
X14340Y12372D02*
X12842Y10874D01*
X4645Y8700D02*
X4015Y8700D01*
X3700Y8385D02*
X3700Y7755D01*
X4015Y8700D02*
X3700Y8385D01*
X2755Y7312D02*
X3257Y7312D01*
X3257Y7312D02*
X3700Y7755D01*
X4842Y8897D02*
X4842Y9251D01*
X4645Y8700D02*
X4842Y8897D01*
X15039Y10984D02*
X15669Y10984D01*
X15984Y11299D02*
X15984Y11929D01*
X15669Y10984D02*
X15984Y11299D01*
X16929Y12372D02*
X16427Y12372D01*
X16427Y12372D02*
X15984Y11929D01*
X14842Y10787D02*
X14842Y10433D01*
X15039Y10984D02*
X14842Y10787D01*
X4763Y8503D02*
X4133Y8503D01*
X3897Y8267D02*
X3897Y7637D01*
X4133Y8503D02*
X3897Y8267D01*
X2755Y7057D02*
X3316Y7057D01*
X3316Y7057D02*
X3897Y7637D01*
X5094Y8503D02*
X5842Y9251D01*
X4763Y8503D02*
X5094Y8503D01*
X14921Y11181D02*
X15551Y11181D01*
X15787Y11417D02*
X15787Y12047D01*
X15551Y11181D02*
X15787Y11417D01*
X16929Y12627D02*
X16368Y12627D01*
X16368Y12627D02*
X15787Y12047D01*
X14590Y11181D02*
X13842Y10433D01*
X14921Y11181D02*
X14590Y11181D01*
X3228Y3385D02*
X2480Y3385D01*
X1377Y3385D02*
X1232Y3385D01*
X1232Y3385D02*
X590Y4027D01*
X2755Y6801D02*
X3159Y6801D01*
X3159Y6801D02*
X3425Y6535D01*
X3425Y6535D02*
X3779Y6181D01*
X3779Y5393D02*
X3425Y5039D01*
X3779Y6181D02*
X3779Y5393D01*
X3425Y5039D02*
X2933Y4547D01*
X2283Y3582D02*
X2283Y3897D01*
X2283Y3897D02*
X2519Y4133D01*
X1377Y3385D02*
X2086Y3385D01*
X2086Y3385D02*
X2283Y3582D01*
X2480Y3385D02*
X2283Y3582D01*
X2913Y4527D02*
X2519Y4133D01*
X2933Y4547D02*
X2913Y4527D01*
X16456Y16299D02*
X17204Y16299D01*
X18307Y16299D02*
X18452Y16299D01*
X18452Y16299D02*
X19094Y15657D01*
X16929Y12883D02*
X16525Y12883D01*
X16525Y12883D02*
X16259Y13149D01*
X16259Y13149D02*
X15905Y13503D01*
X15905Y14291D02*
X16259Y14645D01*
X15905Y13503D02*
X15905Y14291D01*
X16259Y14645D02*
X16751Y15137D01*
X17401Y16102D02*
X17401Y15787D01*
X17401Y15787D02*
X17165Y15551D01*
X18307Y16299D02*
X17598Y16299D01*
X17598Y16299D02*
X17401Y16102D01*
X17204Y16299D02*
X17401Y16102D01*
X16771Y15157D02*
X17165Y15551D01*
X16751Y15137D02*
X16771Y15157D01*
X18425Y2992D02*
X18228Y2795D01*
X17990Y2281D02*
X18228Y2519D01*
X18228Y2519D02*
X18228Y2795D01*
X17450Y2281D02*
X17990Y2281D01*
X18425Y2992D02*
X18425Y3661D01*
X18425Y3661D02*
X19094Y4330D01*
X3385Y4330D02*
X3385Y4252D01*
X3622Y4016D02*
X3622Y2755D01*
X3385Y4252D02*
X3622Y4016D01*
X3385Y4685D02*
X3385Y4330D01*
X3976Y5275D02*
X3385Y4685D01*
X16927Y2281D02*
X17450Y2281D01*
X16653Y2007D02*
X16927Y2281D01*
X16653Y866D02*
X16653Y2007D01*
X16377Y590D02*
X16653Y866D01*
X5787Y590D02*
X16377Y590D01*
X3622Y2755D02*
X5787Y590D01*
X3976Y5826D02*
X3976Y5275D01*
X4960Y7568D02*
X4576Y7568D01*
X4488Y6338D02*
X4448Y6299D01*
X4488Y7480D02*
X4488Y6338D01*
X4576Y7568D02*
X4488Y7480D01*
X4448Y6299D02*
X3976Y5826D01*
X1259Y16692D02*
X1456Y16889D01*
X1694Y17403D02*
X1456Y17165D01*
X1456Y17165D02*
X1456Y16889D01*
X2234Y17403D02*
X1694Y17403D01*
X1259Y16692D02*
X1259Y16023D01*
X1259Y16023D02*
X590Y15354D01*
X16299Y15354D02*
X16299Y15432D01*
X16062Y15668D02*
X16062Y16929D01*
X16299Y15432D02*
X16062Y15668D01*
X16299Y15000D02*
X16299Y15354D01*
X15708Y14409D02*
X16299Y15000D01*
X2757Y17403D02*
X2234Y17403D01*
X3031Y17677D02*
X2757Y17403D01*
X3031Y18818D02*
X3031Y17677D01*
X3307Y19094D02*
X3031Y18818D01*
X13897Y19094D02*
X3307Y19094D01*
X16062Y16929D02*
X13897Y19094D01*
X15708Y13858D02*
X15708Y14409D01*
X14724Y12116D02*
X15108Y12116D01*
X15196Y13346D02*
X15236Y13385D01*
X15196Y12204D02*
X15196Y13346D01*
X15108Y12116D02*
X15196Y12204D01*
X15236Y13385D02*
X15708Y13858D01*
X4173Y4803D02*
X4173Y2913D01*
X4537Y6033D02*
X4173Y5669D01*
X4960Y6033D02*
X4537Y6033D01*
X4173Y5669D02*
X4173Y4803D01*
X16852Y3781D02*
X17450Y3781D01*
X16259Y3188D02*
X16852Y3781D01*
X16259Y1102D02*
X16259Y3188D01*
X16141Y984D02*
X16259Y1102D01*
X6102Y984D02*
X16141Y984D01*
X4173Y2913D02*
X6102Y984D01*
X15511Y14881D02*
X15511Y16771D01*
X15147Y13651D02*
X15511Y14015D01*
X14724Y13651D02*
X15147Y13651D01*
X15511Y14015D02*
X15511Y14881D01*
X2832Y15903D02*
X2234Y15903D01*
X3425Y16496D02*
X2832Y15903D01*
X3425Y18582D02*
X3425Y16496D01*
X3543Y18700D02*
X3425Y18582D01*
X13582Y18700D02*
X3543Y18700D01*
X15511Y16771D02*
X13582Y18700D01*
X17450Y2781D02*
X17900Y2781D01*
X19094Y5196D02*
X19094Y5330D01*
X18228Y4330D02*
X19094Y5196D01*
X18228Y3109D02*
X18228Y4330D01*
X17900Y2781D02*
X18228Y3109D01*
X3818Y4448D02*
X3818Y2913D01*
X2755Y8080D02*
X2273Y8080D01*
X2273Y8080D02*
X2086Y8267D01*
X16915Y2781D02*
X17450Y2781D01*
X16455Y2322D02*
X16915Y2781D01*
X16455Y983D02*
X16455Y2322D01*
X16259Y787D02*
X16455Y983D01*
X5944Y787D02*
X16259Y787D01*
X3818Y2913D02*
X5944Y787D01*
X2234Y16903D02*
X1784Y16903D01*
X590Y14488D02*
X590Y14354D01*
X1456Y15354D02*
X590Y14488D01*
X1456Y16575D02*
X1456Y15354D01*
X1784Y16903D02*
X1456Y16575D01*
X15866Y15236D02*
X15866Y16771D01*
X16929Y11604D02*
X17411Y11604D01*
X17411Y11604D02*
X17598Y11417D01*
X2769Y16903D02*
X2234Y16903D01*
X3229Y17362D02*
X2769Y16903D01*
X3229Y18701D02*
X3229Y17362D01*
X3425Y18897D02*
X3229Y18701D01*
X13740Y18897D02*
X3425Y18897D01*
X15866Y16771D02*
X13740Y18897D01*
X17450Y1281D02*
X17974Y1281D01*
X18425Y2661D02*
X19094Y3330D01*
X18425Y2244D02*
X18425Y2661D01*
X18464Y2204D02*
X18425Y2244D01*
X18464Y1771D02*
X18464Y2204D01*
X17974Y1281D02*
X18464Y1771D01*
X2234Y18403D02*
X1710Y18403D01*
X1259Y17023D02*
X590Y16354D01*
X1259Y17440D02*
X1259Y17023D01*
X1220Y17480D02*
X1259Y17440D01*
X1220Y17913D02*
X1220Y17480D01*
X1710Y18403D02*
X1220Y17913D01*
X2795Y4724D02*
X893Y4724D01*
X893Y4724D02*
X590Y5027D01*
X893Y4724D02*
X590Y5027D01*
X2913Y4842D02*
X2795Y4724D01*
X3100Y6545D02*
X3582Y6062D01*
X3582Y6062D02*
X3582Y5511D01*
X3582Y5511D02*
X2913Y4842D01*
X2755Y6545D02*
X3100Y6545D01*
X893Y4724D02*
X590Y5027D01*
X16889Y14960D02*
X18791Y14960D01*
X18791Y14960D02*
X19094Y14657D01*
X18791Y14960D02*
X19094Y14657D01*
X16771Y14842D02*
X16889Y14960D01*
X16584Y13139D02*
X16102Y13622D01*
X16102Y13622D02*
X16102Y14173D01*
X16102Y14173D02*
X16771Y14842D01*
X16929Y13139D02*
X16584Y13139D01*
X18791Y14960D02*
X19094Y14657D01*
X15176Y7675D02*
X15176Y7461D01*
X15926Y7382D02*
X15926Y7675D01*
X15708Y7165D02*
X15926Y7382D01*
X15472Y7165D02*
X15708Y7165D01*
X15176Y7461D02*
X15472Y7165D01*
X15176Y7675D02*
X15176Y7400D01*
X15176Y7400D02*
X14606Y6830D01*
X15176Y7675D02*
X15176Y8918D01*
X15176Y8918D02*
X14842Y9251D01*
X4508Y12009D02*
X4508Y12223D01*
X3758Y12302D02*
X3758Y12009D01*
X3976Y12519D02*
X3758Y12302D01*
X4212Y12519D02*
X3976Y12519D01*
X4508Y12223D02*
X4212Y12519D01*
X4508Y12009D02*
X4508Y12284D01*
X4508Y12284D02*
X5078Y12854D01*
X4508Y12009D02*
X4508Y10766D01*
X4508Y10766D02*
X4842Y10433D01*
X2755Y6033D02*
X2332Y6033D01*
X1889Y5590D02*
X1889Y5472D01*
X2332Y6033D02*
X1889Y5590D01*
X16929Y13651D02*
X17352Y13651D01*
X17795Y14094D02*
X17795Y14212D01*
X17352Y13651D02*
X17795Y14094D01*
X2755Y6289D02*
X2253Y6289D01*
X2253Y6289D02*
X1889Y6653D01*
X16929Y13395D02*
X17431Y13395D01*
X17431Y13395D02*
X17795Y13031D01*
X2322Y2677D02*
X2322Y629D01*
X2322Y629D02*
X2283Y590D01*
X3228Y2677D02*
X2322Y2677D01*
X17450Y3281D02*
X16824Y3281D01*
X16824Y3281D02*
X16771Y3149D01*
X15620Y1281D02*
X14860Y1281D01*
X14860Y1281D02*
X14803Y1338D01*
X3228Y5748D02*
X3228Y5629D01*
X3198Y5777D02*
X3228Y5748D01*
X2755Y5777D02*
X3198Y5777D01*
X1259Y5358D02*
X590Y6027D01*
X1259Y5039D02*
X1259Y5358D01*
X1338Y4960D02*
X1259Y5039D01*
X2559Y4960D02*
X1338Y4960D01*
X3228Y5629D02*
X2559Y4960D01*
X9921Y2677D02*
X9921Y2716D01*
X9921Y2716D02*
X10196Y2992D01*
X4763Y5354D02*
X4763Y4409D01*
X5061Y4112D02*
X5078Y4094D01*
X4763Y4409D02*
X5078Y4094D01*
X2755Y5777D02*
X2755Y5748D01*
X2755Y5748D02*
X2519Y5511D01*
X15944Y8307D02*
X15905Y8307D01*
X16545Y7706D02*
X15944Y8307D01*
X16574Y7706D02*
X16545Y7706D01*
X15551Y7952D02*
X15551Y7675D01*
X15905Y8307D02*
X15551Y7952D01*
X15826Y5944D02*
X15826Y6023D01*
X15826Y6023D02*
X15551Y6299D01*
X13842Y9251D02*
X13842Y9188D01*
X14606Y8425D02*
X14606Y7736D01*
X13842Y9188D02*
X14606Y8425D01*
X17362Y17007D02*
X17362Y19055D01*
X17362Y19055D02*
X17401Y19094D01*
X16456Y17007D02*
X17362Y17007D01*
X2234Y16403D02*
X2860Y16403D01*
X2860Y16403D02*
X2913Y16535D01*
X4064Y18403D02*
X4824Y18403D01*
X4824Y18403D02*
X4881Y18346D01*
X16456Y13937D02*
X16456Y14055D01*
X16486Y13907D02*
X16456Y13937D01*
X16929Y13907D02*
X16486Y13907D01*
X18425Y14326D02*
X19094Y13657D01*
X18425Y14645D02*
X18425Y14326D01*
X18346Y14724D02*
X18425Y14645D01*
X17125Y14724D02*
X18346Y14724D01*
X16456Y14055D02*
X17125Y14724D01*
X9763Y17007D02*
X9763Y16968D01*
X9763Y16968D02*
X9488Y16692D01*
X14921Y14330D02*
X14921Y15275D01*
X14624Y15572D02*
X14606Y15590D01*
X14921Y15275D02*
X14606Y15590D01*
X16929Y13907D02*
X16929Y13937D01*
X16929Y13937D02*
X17165Y14173D01*
X3740Y11377D02*
X3779Y11377D01*
X3139Y11978D02*
X3740Y11377D01*
X3110Y11978D02*
X3139Y11978D01*
X4133Y11732D02*
X4133Y12009D01*
X3779Y11377D02*
X4133Y11732D01*
X3858Y13740D02*
X3858Y13661D01*
X3858Y13661D02*
X4133Y13385D01*
X5842Y10433D02*
X5842Y10496D01*
X5078Y11259D02*
X5078Y11948D01*
X5842Y10496D02*
X5078Y11259D01*
X15176Y6576D02*
X15176Y6002D01*
X15176Y6002D02*
X15118Y5944D01*
X4508Y13108D02*
X4508Y13682D01*
X4508Y13682D02*
X4566Y13740D01*
X10629Y2677D02*
X10629Y2224D01*
X10629Y2224D02*
X10342Y1937D01*
X9055Y17007D02*
X9055Y17460D01*
X9055Y17460D02*
X9342Y17748D01*
X8543Y6614D02*
X8818Y6338D01*
X8944Y5937D02*
X9342Y5937D01*
X8818Y6062D02*
X8944Y5937D01*
X8818Y6338D02*
X8818Y6062D01*
X7952Y6968D02*
X7952Y6771D01*
X8110Y6614D02*
X8543Y6614D01*
X7952Y6771D02*
X8110Y6614D01*
X11141Y13070D02*
X10866Y13346D01*
X10740Y13748D02*
X10342Y13748D01*
X10866Y13622D02*
X10740Y13748D01*
X10866Y13346D02*
X10866Y13622D01*
X11732Y12716D02*
X11732Y12913D01*
X11574Y13070D02*
X11141Y13070D01*
X11732Y12913D02*
X11574Y13070D01*
X5275Y4527D02*
X5708Y4094D01*
X6558Y4094D02*
X6616Y4152D01*
X5708Y4094D02*
X6558Y4094D01*
X14409Y15157D02*
X13976Y15590D01*
X13126Y15590D02*
X13068Y15532D01*
X13976Y15590D02*
X13126Y15590D01*
X8995Y7911D02*
X8698Y7911D01*
X8698Y7911D02*
X8464Y7677D01*
X10689Y11773D02*
X10986Y11773D01*
X10986Y11773D02*
X11220Y12007D01*
X10963Y7911D02*
X10588Y7911D01*
X10588Y7911D02*
X10354Y7677D01*
X8721Y11773D02*
X9096Y11773D01*
X9096Y11773D02*
X9330Y12007D01*
X12971Y7911D02*
X12557Y7911D01*
X12557Y7911D02*
X12322Y7677D01*
X6713Y11773D02*
X7127Y11773D01*
X7127Y11773D02*
X7362Y12007D01*
X17450Y4281D02*
X17017Y4281D01*
X16062Y5236D02*
X14763Y5236D01*
X17017Y4281D02*
X16062Y5236D01*
X2234Y15403D02*
X2667Y15403D01*
X3622Y14448D02*
X4921Y14448D01*
X2667Y15403D02*
X3622Y14448D01*
X8661Y6968D02*
X8464Y6968D01*
X8858Y6771D02*
X8661Y6968D01*
X4094Y7559D02*
X4094Y7519D01*
X3740Y7165D02*
X3740Y7007D01*
X4094Y7519D02*
X3740Y7165D01*
X4094Y7480D02*
X4094Y7559D01*
X4094Y7559D02*
X4094Y7835D01*
X4094Y7835D02*
X4133Y7874D01*
X4960Y8080D02*
X4339Y8080D01*
X4339Y8080D02*
X4133Y7874D01*
X11023Y12716D02*
X11220Y12716D01*
X10826Y12913D02*
X11023Y12716D01*
X15590Y12125D02*
X15590Y12165D01*
X15944Y12519D02*
X15944Y12677D01*
X15590Y12165D02*
X15944Y12519D01*
X15590Y12204D02*
X15590Y12125D01*
X15590Y12125D02*
X15590Y11849D01*
X15590Y11849D02*
X15551Y11810D01*
X14724Y11604D02*
X15345Y11604D01*
X15345Y11604D02*
X15551Y11810D01*
X3297Y7824D02*
X3346Y7874D01*
X2755Y7824D02*
X3297Y7824D01*
X10511Y6968D02*
X10354Y6968D01*
X10787Y6692D02*
X10511Y6968D01*
X16387Y11860D02*
X16338Y11811D01*
X16929Y11860D02*
X16387Y11860D01*
X9173Y12716D02*
X9330Y12716D01*
X8897Y12992D02*
X9173Y12716D01*
X2755Y7568D02*
X2234Y7568D01*
X2234Y7568D02*
X2086Y7716D01*
X12125Y6968D02*
X12322Y6968D01*
X11850Y6692D02*
X12125Y6968D01*
X16929Y12116D02*
X17450Y12116D01*
X17450Y12116D02*
X17598Y11968D01*
X7559Y12716D02*
X7362Y12716D01*
X7834Y12992D02*
X7559Y12716D01*
X15620Y4781D02*
X14781Y4781D01*
X14781Y4781D02*
X14763Y4763D01*
X4064Y14903D02*
X4903Y14903D01*
X4903Y14903D02*
X4921Y14921D01*
X15620Y4281D02*
X14773Y4281D01*
X14773Y4281D02*
X14763Y4291D01*
X4064Y15403D02*
X4911Y15403D01*
X4911Y15403D02*
X4921Y15393D01*
X15620Y3781D02*
X14801Y3781D01*
X14801Y3781D02*
X14763Y3818D01*
X4064Y15903D02*
X4883Y15903D01*
X4883Y15903D02*
X4921Y15866D01*
X15620Y3281D02*
X14828Y3281D01*
X14828Y3281D02*
X14763Y3346D01*
X4064Y16403D02*
X4856Y16403D01*
X4856Y16403D02*
X4921Y16338D01*
X15620Y2781D02*
X14856Y2781D01*
X14856Y2781D02*
X14763Y2874D01*
X4064Y16903D02*
X4828Y16903D01*
X4828Y16903D02*
X4921Y16811D01*
X15620Y2281D02*
X14883Y2281D01*
X14883Y2281D02*
X14763Y2401D01*
X4064Y17403D02*
X4801Y17403D01*
X4801Y17403D02*
X4921Y17283D01*
X15620Y1781D02*
X14872Y1781D01*
X14872Y1781D02*
X14763Y1889D01*
X4064Y17903D02*
X4812Y17903D01*
X4812Y17903D02*
X4921Y17795D01*
X4960Y7824D02*
X5383Y7824D01*
X6023Y4566D02*
X5984Y4527D01*
X7047Y4566D02*
X6023Y4566D01*
X7165Y4685D02*
X7047Y4566D01*
X5383Y7824D02*
X5748Y8188D01*
X14724Y11860D02*
X14301Y11860D01*
X13661Y15118D02*
X13700Y15157D01*
X12637Y15118D02*
X13661Y15118D01*
X12519Y15000D02*
X12637Y15118D01*
X14301Y11860D02*
X13937Y11496D01*
X18149Y4803D02*
X18127Y4781D01*
X17450Y4781D02*
X18127Y4781D01*
X17450Y1781D02*
X18001Y1781D01*
X18001Y1781D02*
X18110Y1889D01*
X18110Y1889D02*
X18080Y1860D01*
X1377Y2677D02*
X940Y2677D01*
X940Y2677D02*
X590Y3027D01*
X4960Y5777D02*
X4595Y5777D01*
X4369Y3307D02*
X4566Y3110D01*
X4369Y5551D02*
X4369Y3307D01*
X4595Y5777D02*
X4369Y5551D01*
X17450Y4781D02*
X17450Y5433D01*
X17450Y5433D02*
X16574Y6309D01*
X6023Y5236D02*
X6125Y5236D01*
X6125Y5236D02*
X6419Y4941D01*
X5472Y5354D02*
X5383Y5354D01*
X5383Y5354D02*
X4960Y5777D01*
X9745Y7911D02*
X9745Y6396D01*
X5787Y5354D02*
X5472Y5354D01*
X6023Y5236D02*
X5787Y5354D01*
X9527Y5157D02*
X8503Y5157D01*
X9842Y5472D02*
X9527Y5157D01*
X9842Y6299D02*
X9842Y5472D01*
X9745Y6396D02*
X9842Y6299D01*
X14094Y6417D02*
X14094Y7538D01*
X16574Y6102D02*
X16062Y5590D01*
X16062Y5590D02*
X14921Y5590D01*
X14921Y5590D02*
X14094Y6417D01*
X16574Y6309D02*
X16574Y6102D01*
X14094Y7538D02*
X13721Y7911D01*
X11692Y8384D02*
X11692Y9102D01*
X11692Y9102D02*
X11842Y9251D01*
X11692Y8384D02*
X11692Y7932D01*
X11692Y7932D02*
X11713Y7911D01*
X13721Y7911D02*
X13663Y7911D01*
X13663Y7911D02*
X13189Y8384D01*
X13189Y8384D02*
X11692Y8384D01*
X10218Y8384D02*
X9745Y7911D01*
X11692Y8384D02*
X10218Y8384D01*
X15926Y6576D02*
X16307Y6576D01*
X16307Y6576D02*
X16574Y6309D01*
X1535Y14881D02*
X1557Y14903D01*
X2234Y14903D02*
X1557Y14903D01*
X2234Y17903D02*
X1683Y17903D01*
X1683Y17903D02*
X1574Y17795D01*
X1574Y17795D02*
X1604Y17824D01*
X18307Y17007D02*
X18744Y17007D01*
X18744Y17007D02*
X19094Y16657D01*
X14724Y13907D02*
X15089Y13907D01*
X15315Y16377D02*
X15118Y16574D01*
X15315Y14133D02*
X15315Y16377D01*
X15089Y13907D02*
X15315Y14133D01*
X2234Y14903D02*
X2234Y14251D01*
X2234Y14251D02*
X3110Y13375D01*
X13661Y14448D02*
X13560Y14448D01*
X13560Y14448D02*
X13265Y14743D01*
X14212Y14330D02*
X14301Y14330D01*
X14301Y14330D02*
X14724Y13907D01*
X9939Y11773D02*
X9939Y13288D01*
X13897Y14330D02*
X14212Y14330D01*
X13661Y14448D02*
X13897Y14330D01*
X10157Y14527D02*
X11181Y14527D01*
X9842Y14212D02*
X10157Y14527D01*
X9842Y13385D02*
X9842Y14212D01*
X9939Y13288D02*
X9842Y13385D01*
X5590Y13267D02*
X5590Y12146D01*
X3110Y13582D02*
X3622Y14094D01*
X3622Y14094D02*
X4763Y14094D01*
X4763Y14094D02*
X5590Y13267D01*
X3110Y13375D02*
X3110Y13582D01*
X5590Y12146D02*
X5963Y11773D01*
X7992Y11300D02*
X7992Y10582D01*
X7992Y10582D02*
X7842Y10433D01*
X7992Y11300D02*
X7992Y11752D01*
X7992Y11752D02*
X7971Y11773D01*
X5963Y11773D02*
X6021Y11773D01*
X6021Y11773D02*
X6495Y11300D01*
X6495Y11300D02*
X7992Y11300D01*
X9466Y11300D02*
X9939Y11773D01*
X7992Y11300D02*
X9466Y11300D01*
X3758Y13108D02*
X3377Y13108D01*
X3377Y13108D02*
X3110Y13375D01*
G54D10*
G36*
X2306Y7186D02*
X1238Y7186D01*
X1238Y6047D01*
X1143Y6194D01*
X975Y6311D01*
X775Y6355D01*
X600Y6355D01*
X600Y5840D01*
X608Y5840D01*
X608Y5820D01*
X600Y5820D01*
X600Y5812D01*
X580Y5812D01*
X580Y5820D01*
X572Y5820D01*
X572Y5840D01*
X580Y5840D01*
X580Y6355D01*
X405Y6355D01*
X205Y6311D01*
X179Y6293D01*
X179Y7664D01*
X242Y7510D01*
X423Y7330D01*
X659Y7232D01*
X914Y7231D01*
X1150Y7329D01*
X1331Y7509D01*
X1429Y7745D01*
X1429Y8001D01*
X1331Y8237D01*
X1151Y8417D01*
X997Y8481D01*
X1841Y8481D01*
X1811Y8452D01*
X1761Y8332D01*
X1761Y8203D01*
X1810Y8083D01*
X1902Y7992D01*
X1902Y7992D01*
X1811Y7900D01*
X1761Y7781D01*
X1761Y7652D01*
X1810Y7532D01*
X1902Y7441D01*
X2021Y7391D01*
X2148Y7391D01*
X2158Y7384D01*
X2234Y7369D01*
X2290Y7369D01*
X2290Y7342D01*
X2290Y7224D01*
X2306Y7186D01*
X2306Y7186D01*
G37*
G54D28*
X2306Y7186D02*
X1238Y7186D01*
X1238Y6047D01*
X1143Y6194D01*
X975Y6311D01*
X775Y6355D01*
X600Y6355D01*
X600Y5840D01*
X608Y5840D01*
X608Y5820D01*
X600Y5820D01*
X600Y5812D01*
X580Y5812D01*
X580Y5820D01*
X572Y5820D01*
X572Y5840D01*
X580Y5840D01*
X580Y6355D01*
X405Y6355D01*
X205Y6311D01*
X179Y6293D01*
X179Y7664D01*
X242Y7510D01*
X423Y7330D01*
X659Y7232D01*
X914Y7231D01*
X1150Y7329D01*
X1331Y7509D01*
X1429Y7745D01*
X1429Y8001D01*
X1331Y8237D01*
X1151Y8417D01*
X997Y8481D01*
X1841Y8481D01*
X1811Y8452D01*
X1761Y8332D01*
X1761Y8203D01*
X1810Y8083D01*
X1902Y7992D01*
X1902Y7992D01*
X1811Y7900D01*
X1761Y7781D01*
X1761Y7652D01*
X1810Y7532D01*
X1902Y7441D01*
X2021Y7391D01*
X2148Y7391D01*
X2158Y7384D01*
X2234Y7369D01*
X2290Y7369D01*
X2290Y7342D01*
X2290Y7224D01*
X2306Y7186D01*
G54D10*
G36*
X3383Y5594D02*
X2772Y4983D01*
X2712Y4923D01*
X1234Y4923D01*
X1217Y5012D01*
X1114Y5166D01*
X960Y5269D01*
X778Y5305D01*
X775Y5305D01*
X975Y5349D01*
X1143Y5466D01*
X1238Y5614D01*
X1238Y4978D01*
X2482Y4978D01*
X2551Y5047D01*
X3022Y5518D01*
X3031Y5518D01*
X3110Y5518D01*
X3184Y5548D01*
X3204Y5569D01*
X3210Y5569D01*
X3210Y5575D01*
X3240Y5605D01*
X3270Y5678D01*
X3270Y5717D01*
X3220Y5767D01*
X3210Y5767D01*
X3210Y5787D01*
X3220Y5787D01*
X3270Y5837D01*
X3270Y5876D01*
X3240Y5949D01*
X3220Y5969D01*
X3220Y6004D01*
X3220Y6122D01*
X3210Y6148D01*
X3210Y6153D01*
X3383Y5980D01*
X3383Y5594D01*
X3383Y5594D01*
G37*
G54D28*
X3383Y5594D02*
X2772Y4983D01*
X2712Y4923D01*
X1234Y4923D01*
X1217Y5012D01*
X1114Y5166D01*
X960Y5269D01*
X778Y5305D01*
X775Y5305D01*
X975Y5349D01*
X1143Y5466D01*
X1238Y5614D01*
X1238Y4978D01*
X2482Y4978D01*
X2551Y5047D01*
X3022Y5518D01*
X3031Y5518D01*
X3110Y5518D01*
X3184Y5548D01*
X3204Y5569D01*
X3210Y5569D01*
X3210Y5575D01*
X3240Y5605D01*
X3270Y5678D01*
X3270Y5717D01*
X3220Y5767D01*
X3210Y5767D01*
X3210Y5787D01*
X3220Y5787D01*
X3270Y5837D01*
X3270Y5876D01*
X3240Y5949D01*
X3220Y5969D01*
X3220Y6004D01*
X3220Y6122D01*
X3210Y6148D01*
X3210Y6153D01*
X3383Y5980D01*
X3383Y5594D01*
G54D10*
G36*
X10631Y2984D02*
X10422Y2984D01*
X10367Y2961D01*
X10325Y2919D01*
X10302Y2864D01*
X10302Y2804D01*
X10302Y2591D01*
X10298Y2590D01*
X10298Y2617D01*
X10248Y2667D01*
X9931Y2667D01*
X9931Y2659D01*
X9911Y2659D01*
X9911Y2667D01*
X9903Y2667D01*
X9903Y2687D01*
X9911Y2687D01*
X9911Y2695D01*
X9931Y2695D01*
X9931Y2687D01*
X10248Y2687D01*
X10298Y2737D01*
X10298Y2794D01*
X10298Y2874D01*
X10267Y2947D01*
X10211Y3004D01*
X10138Y3034D01*
X9981Y3034D01*
X9931Y2984D01*
X9931Y3034D01*
X9930Y3034D01*
X10043Y3147D01*
X10468Y3147D01*
X10631Y2984D01*
X10631Y2984D01*
G37*
G54D28*
X10631Y2984D02*
X10422Y2984D01*
X10367Y2961D01*
X10325Y2919D01*
X10302Y2864D01*
X10302Y2804D01*
X10302Y2591D01*
X10298Y2590D01*
X10298Y2617D01*
X10248Y2667D01*
X9931Y2667D01*
X9931Y2659D01*
X9911Y2659D01*
X9911Y2667D01*
X9903Y2667D01*
X9903Y2687D01*
X9911Y2687D01*
X9911Y2695D01*
X9931Y2695D01*
X9931Y2687D01*
X10248Y2687D01*
X10298Y2737D01*
X10298Y2794D01*
X10298Y2874D01*
X10267Y2947D01*
X10211Y3004D01*
X10138Y3034D01*
X9981Y3034D01*
X9931Y2984D01*
X9931Y3034D01*
X9930Y3034D01*
X10043Y3147D01*
X10468Y3147D01*
X10631Y2984D01*
G54D10*
G36*
X11814Y1183D02*
X6184Y1183D01*
X4583Y2785D01*
X4631Y2785D01*
X4750Y2834D01*
X4842Y2925D01*
X4891Y3045D01*
X4891Y3174D01*
X4842Y3294D01*
X4751Y3385D01*
X4631Y3435D01*
X4568Y3435D01*
X4568Y4996D01*
X4703Y4996D01*
X4753Y5046D01*
X4753Y5344D01*
X4745Y5344D01*
X4745Y5364D01*
X4753Y5364D01*
X4753Y5372D01*
X4773Y5372D01*
X4773Y5364D01*
X4781Y5364D01*
X4781Y5344D01*
X4773Y5344D01*
X4773Y5046D01*
X4823Y4996D01*
X4980Y4996D01*
X5054Y5027D01*
X5110Y5083D01*
X5140Y5157D01*
X5140Y5236D01*
X5140Y5294D01*
X5090Y5344D01*
X5112Y5344D01*
X5145Y5311D01*
X5145Y5167D01*
X5168Y5111D01*
X5210Y5069D01*
X5265Y5046D01*
X5325Y5046D01*
X5679Y5046D01*
X5734Y5069D01*
X5738Y5074D01*
X5747Y5052D01*
X5839Y4960D01*
X5958Y4911D01*
X6087Y4911D01*
X6144Y4934D01*
X6216Y4863D01*
X6216Y4824D01*
X6191Y4835D01*
X6131Y4835D01*
X5777Y4835D01*
X5722Y4812D01*
X5679Y4770D01*
X5657Y4714D01*
X5657Y4655D01*
X5657Y4427D01*
X5602Y4482D01*
X5602Y4714D01*
X5579Y4770D01*
X5537Y4812D01*
X5482Y4835D01*
X5422Y4835D01*
X5140Y4835D01*
X5068Y4835D01*
X5013Y4812D01*
X4971Y4770D01*
X4948Y4714D01*
X4948Y4655D01*
X4948Y4340D01*
X4971Y4285D01*
X5013Y4242D01*
X5068Y4220D01*
X5128Y4220D01*
X5301Y4220D01*
X5567Y3953D01*
X5632Y3910D01*
X5708Y3895D01*
X6253Y3895D01*
X6281Y3867D01*
X6336Y3845D01*
X6395Y3845D01*
X6895Y3845D01*
X6951Y3867D01*
X6993Y3910D01*
X7016Y3965D01*
X7016Y4024D01*
X7016Y4339D01*
X7004Y4367D01*
X7047Y4367D01*
X7070Y4372D01*
X7100Y4360D01*
X7229Y4359D01*
X7314Y4395D01*
X7314Y4340D01*
X7337Y4285D01*
X7379Y4242D01*
X7434Y4220D01*
X7494Y4220D01*
X7994Y4220D01*
X8049Y4242D01*
X8091Y4285D01*
X8114Y4340D01*
X8114Y4399D01*
X8114Y4635D01*
X8599Y4150D01*
X8620Y4136D01*
X8342Y4136D01*
X8266Y4121D01*
X8201Y4077D01*
X6622Y2498D01*
X6524Y2563D01*
X6342Y2599D01*
X6160Y2563D01*
X6006Y2460D01*
X5903Y2306D01*
X5867Y2124D01*
X5867Y1749D01*
X5903Y1567D01*
X6006Y1413D01*
X6160Y1310D01*
X6342Y1274D01*
X6524Y1310D01*
X6678Y1413D01*
X6781Y1567D01*
X6817Y1749D01*
X6817Y2124D01*
X6816Y2129D01*
X6881Y2194D01*
X6867Y2124D01*
X6867Y1749D01*
X6903Y1567D01*
X7006Y1413D01*
X7160Y1310D01*
X7342Y1274D01*
X7524Y1310D01*
X7678Y1413D01*
X7781Y1567D01*
X7817Y1749D01*
X7817Y2124D01*
X7816Y2129D01*
X7881Y2194D01*
X7867Y2124D01*
X7867Y1749D01*
X7903Y1567D01*
X8006Y1413D01*
X8160Y1310D01*
X8342Y1274D01*
X8524Y1310D01*
X8678Y1413D01*
X8781Y1567D01*
X8817Y1749D01*
X8817Y2124D01*
X8798Y2217D01*
X8936Y2355D01*
X8903Y2306D01*
X8867Y2124D01*
X8867Y1749D01*
X8903Y1567D01*
X9006Y1413D01*
X9160Y1310D01*
X9342Y1274D01*
X9524Y1310D01*
X9678Y1413D01*
X9781Y1567D01*
X9817Y1749D01*
X9817Y2124D01*
X9781Y2306D01*
X9772Y2319D01*
X9861Y2319D01*
X9911Y2369D01*
X9911Y2319D01*
X9912Y2319D01*
X9903Y2306D01*
X9867Y2124D01*
X9867Y1749D01*
X9903Y1567D01*
X10006Y1413D01*
X10160Y1310D01*
X10342Y1274D01*
X10524Y1310D01*
X10678Y1413D01*
X10781Y1567D01*
X10817Y1749D01*
X10817Y2124D01*
X10812Y2146D01*
X10813Y2148D01*
X10829Y2224D01*
X10829Y2369D01*
X10836Y2369D01*
X10892Y2392D01*
X10934Y2434D01*
X10957Y2489D01*
X10957Y2549D01*
X10957Y2658D01*
X11095Y2520D01*
X11006Y2460D01*
X10903Y2306D01*
X10867Y2124D01*
X10867Y1749D01*
X10903Y1567D01*
X11006Y1413D01*
X11160Y1310D01*
X11342Y1274D01*
X11524Y1310D01*
X11622Y1375D01*
X11814Y1183D01*
X11814Y1183D01*
G37*
G54D28*
X11814Y1183D02*
X6184Y1183D01*
X4583Y2785D01*
X4631Y2785D01*
X4750Y2834D01*
X4842Y2925D01*
X4891Y3045D01*
X4891Y3174D01*
X4842Y3294D01*
X4751Y3385D01*
X4631Y3435D01*
X4568Y3435D01*
X4568Y4996D01*
X4703Y4996D01*
X4753Y5046D01*
X4753Y5344D01*
X4745Y5344D01*
X4745Y5364D01*
X4753Y5364D01*
X4753Y5372D01*
X4773Y5372D01*
X4773Y5364D01*
X4781Y5364D01*
X4781Y5344D01*
X4773Y5344D01*
X4773Y5046D01*
X4823Y4996D01*
X4980Y4996D01*
X5054Y5027D01*
X5110Y5083D01*
X5140Y5157D01*
X5140Y5236D01*
X5140Y5294D01*
X5090Y5344D01*
X5112Y5344D01*
X5145Y5311D01*
X5145Y5167D01*
X5168Y5111D01*
X5210Y5069D01*
X5265Y5046D01*
X5325Y5046D01*
X5679Y5046D01*
X5734Y5069D01*
X5738Y5074D01*
X5747Y5052D01*
X5839Y4960D01*
X5958Y4911D01*
X6087Y4911D01*
X6144Y4934D01*
X6216Y4863D01*
X6216Y4824D01*
X6191Y4835D01*
X6131Y4835D01*
X5777Y4835D01*
X5722Y4812D01*
X5679Y4770D01*
X5657Y4714D01*
X5657Y4655D01*
X5657Y4427D01*
X5602Y4482D01*
X5602Y4714D01*
X5579Y4770D01*
X5537Y4812D01*
X5482Y4835D01*
X5422Y4835D01*
X5140Y4835D01*
X5068Y4835D01*
X5013Y4812D01*
X4971Y4770D01*
X4948Y4714D01*
X4948Y4655D01*
X4948Y4340D01*
X4971Y4285D01*
X5013Y4242D01*
X5068Y4220D01*
X5128Y4220D01*
X5301Y4220D01*
X5567Y3953D01*
X5632Y3910D01*
X5708Y3895D01*
X6253Y3895D01*
X6281Y3867D01*
X6336Y3845D01*
X6395Y3845D01*
X6895Y3845D01*
X6951Y3867D01*
X6993Y3910D01*
X7016Y3965D01*
X7016Y4024D01*
X7016Y4339D01*
X7004Y4367D01*
X7047Y4367D01*
X7070Y4372D01*
X7100Y4360D01*
X7229Y4359D01*
X7314Y4395D01*
X7314Y4340D01*
X7337Y4285D01*
X7379Y4242D01*
X7434Y4220D01*
X7494Y4220D01*
X7994Y4220D01*
X8049Y4242D01*
X8091Y4285D01*
X8114Y4340D01*
X8114Y4399D01*
X8114Y4635D01*
X8599Y4150D01*
X8620Y4136D01*
X8342Y4136D01*
X8266Y4121D01*
X8201Y4077D01*
X6622Y2498D01*
X6524Y2563D01*
X6342Y2599D01*
X6160Y2563D01*
X6006Y2460D01*
X5903Y2306D01*
X5867Y2124D01*
X5867Y1749D01*
X5903Y1567D01*
X6006Y1413D01*
X6160Y1310D01*
X6342Y1274D01*
X6524Y1310D01*
X6678Y1413D01*
X6781Y1567D01*
X6817Y1749D01*
X6817Y2124D01*
X6816Y2129D01*
X6881Y2194D01*
X6867Y2124D01*
X6867Y1749D01*
X6903Y1567D01*
X7006Y1413D01*
X7160Y1310D01*
X7342Y1274D01*
X7524Y1310D01*
X7678Y1413D01*
X7781Y1567D01*
X7817Y1749D01*
X7817Y2124D01*
X7816Y2129D01*
X7881Y2194D01*
X7867Y2124D01*
X7867Y1749D01*
X7903Y1567D01*
X8006Y1413D01*
X8160Y1310D01*
X8342Y1274D01*
X8524Y1310D01*
X8678Y1413D01*
X8781Y1567D01*
X8817Y1749D01*
X8817Y2124D01*
X8798Y2217D01*
X8936Y2355D01*
X8903Y2306D01*
X8867Y2124D01*
X8867Y1749D01*
X8903Y1567D01*
X9006Y1413D01*
X9160Y1310D01*
X9342Y1274D01*
X9524Y1310D01*
X9678Y1413D01*
X9781Y1567D01*
X9817Y1749D01*
X9817Y2124D01*
X9781Y2306D01*
X9772Y2319D01*
X9861Y2319D01*
X9911Y2369D01*
X9911Y2319D01*
X9912Y2319D01*
X9903Y2306D01*
X9867Y2124D01*
X9867Y1749D01*
X9903Y1567D01*
X10006Y1413D01*
X10160Y1310D01*
X10342Y1274D01*
X10524Y1310D01*
X10678Y1413D01*
X10781Y1567D01*
X10817Y1749D01*
X10817Y2124D01*
X10812Y2146D01*
X10813Y2148D01*
X10829Y2224D01*
X10829Y2369D01*
X10836Y2369D01*
X10892Y2392D01*
X10934Y2434D01*
X10957Y2489D01*
X10957Y2549D01*
X10957Y2658D01*
X11095Y2520D01*
X11006Y2460D01*
X10903Y2306D01*
X10867Y2124D01*
X10867Y1749D01*
X10903Y1567D01*
X11006Y1413D01*
X11160Y1310D01*
X11342Y1274D01*
X11524Y1310D01*
X11622Y1375D01*
X11814Y1183D01*
G54D10*
G36*
X14976Y8120D02*
X14975Y8122D01*
X14901Y8152D01*
X14822Y8152D01*
X14666Y8152D01*
X14616Y8102D01*
X14616Y7746D01*
X14624Y7746D01*
X14624Y7726D01*
X14616Y7726D01*
X14616Y7369D01*
X14666Y7319D01*
X14813Y7319D01*
X14691Y7197D01*
X14320Y7197D01*
X14293Y7186D01*
X14293Y7326D01*
X14310Y7319D01*
X14390Y7319D01*
X14546Y7319D01*
X14596Y7369D01*
X14596Y7726D01*
X14588Y7726D01*
X14588Y7746D01*
X14596Y7746D01*
X14596Y8102D01*
X14546Y8152D01*
X14390Y8152D01*
X14310Y8152D01*
X14237Y8122D01*
X14180Y8066D01*
X14150Y7992D01*
X14150Y7796D01*
X14200Y7746D01*
X14168Y7746D01*
X14028Y7885D01*
X14028Y8191D01*
X14006Y8246D01*
X13963Y8288D01*
X13908Y8311D01*
X13849Y8311D01*
X13545Y8311D01*
X13330Y8525D01*
X13266Y8569D01*
X13189Y8584D01*
X13020Y8584D01*
X13034Y8588D01*
X13206Y8698D01*
X13323Y8866D01*
X13342Y8952D01*
X13361Y8866D01*
X13478Y8698D01*
X13650Y8588D01*
X13750Y8560D01*
X13832Y8602D01*
X13832Y9241D01*
X13367Y9241D01*
X13317Y9241D01*
X12852Y9241D01*
X12852Y9234D01*
X12832Y9234D01*
X12832Y9241D01*
X12317Y9241D01*
X12317Y9261D01*
X12832Y9261D01*
X12832Y9269D01*
X12852Y9269D01*
X12852Y9261D01*
X13317Y9261D01*
X13367Y9261D01*
X13832Y9261D01*
X13832Y9269D01*
X13852Y9269D01*
X13852Y9261D01*
X13860Y9261D01*
X13860Y9241D01*
X13852Y9241D01*
X13852Y8602D01*
X13934Y8560D01*
X14034Y8588D01*
X14206Y8698D01*
X14323Y8866D01*
X14367Y9066D01*
X14367Y9064D01*
X14403Y8882D01*
X14506Y8728D01*
X14660Y8625D01*
X14842Y8589D01*
X14976Y8615D01*
X14976Y8120D01*
X14976Y8120D01*
G37*
G54D28*
X14976Y8120D02*
X14975Y8122D01*
X14901Y8152D01*
X14822Y8152D01*
X14666Y8152D01*
X14616Y8102D01*
X14616Y7746D01*
X14624Y7746D01*
X14624Y7726D01*
X14616Y7726D01*
X14616Y7369D01*
X14666Y7319D01*
X14813Y7319D01*
X14691Y7197D01*
X14320Y7197D01*
X14293Y7186D01*
X14293Y7326D01*
X14310Y7319D01*
X14390Y7319D01*
X14546Y7319D01*
X14596Y7369D01*
X14596Y7726D01*
X14588Y7726D01*
X14588Y7746D01*
X14596Y7746D01*
X14596Y8102D01*
X14546Y8152D01*
X14390Y8152D01*
X14310Y8152D01*
X14237Y8122D01*
X14180Y8066D01*
X14150Y7992D01*
X14150Y7796D01*
X14200Y7746D01*
X14168Y7746D01*
X14028Y7885D01*
X14028Y8191D01*
X14006Y8246D01*
X13963Y8288D01*
X13908Y8311D01*
X13849Y8311D01*
X13545Y8311D01*
X13330Y8525D01*
X13266Y8569D01*
X13189Y8584D01*
X13020Y8584D01*
X13034Y8588D01*
X13206Y8698D01*
X13323Y8866D01*
X13342Y8952D01*
X13361Y8866D01*
X13478Y8698D01*
X13650Y8588D01*
X13750Y8560D01*
X13832Y8602D01*
X13832Y9241D01*
X13367Y9241D01*
X13317Y9241D01*
X12852Y9241D01*
X12852Y9234D01*
X12832Y9234D01*
X12832Y9241D01*
X12317Y9241D01*
X12317Y9261D01*
X12832Y9261D01*
X12832Y9269D01*
X12852Y9269D01*
X12852Y9261D01*
X13317Y9261D01*
X13367Y9261D01*
X13832Y9261D01*
X13832Y9269D01*
X13852Y9269D01*
X13852Y9261D01*
X13860Y9261D01*
X13860Y9241D01*
X13852Y9241D01*
X13852Y8602D01*
X13934Y8560D01*
X14034Y8588D01*
X14206Y8698D01*
X14323Y8866D01*
X14367Y9066D01*
X14367Y9064D01*
X14403Y8882D01*
X14506Y8728D01*
X14660Y8625D01*
X14842Y8589D01*
X14976Y8615D01*
X14976Y8120D01*
G54D10*
G36*
X15637Y1271D02*
X15630Y1271D01*
X15630Y1263D01*
X15610Y1263D01*
X15610Y1271D01*
X15001Y1271D01*
X14951Y1221D01*
X14951Y1183D01*
X13748Y1183D01*
X14147Y1582D01*
X14262Y1582D01*
X14317Y1605D01*
X14359Y1647D01*
X14382Y1702D01*
X14382Y1762D01*
X14382Y2077D01*
X14359Y2132D01*
X14345Y2145D01*
X14359Y2159D01*
X14382Y2214D01*
X14382Y2273D01*
X14382Y2588D01*
X14362Y2637D01*
X14382Y2686D01*
X14382Y2746D01*
X14382Y3061D01*
X14362Y3110D01*
X14382Y3159D01*
X14382Y3218D01*
X14382Y3533D01*
X14362Y3582D01*
X14382Y3631D01*
X14382Y3691D01*
X14382Y4006D01*
X14362Y4055D01*
X14382Y4104D01*
X14382Y4163D01*
X14382Y4478D01*
X14362Y4527D01*
X14382Y4576D01*
X14382Y4636D01*
X14382Y4951D01*
X14362Y5000D01*
X14382Y5048D01*
X14382Y5108D01*
X14382Y5423D01*
X14359Y5478D01*
X14317Y5520D01*
X14262Y5543D01*
X14202Y5543D01*
X13848Y5543D01*
X13792Y5520D01*
X13750Y5478D01*
X13732Y5435D01*
X13693Y5435D01*
X13781Y5567D01*
X13817Y5749D01*
X13817Y6124D01*
X13781Y6306D01*
X13678Y6460D01*
X13635Y6489D01*
X13653Y6533D01*
X13653Y6592D01*
X13653Y7092D01*
X13631Y7147D01*
X13588Y7190D01*
X13533Y7212D01*
X13474Y7212D01*
X13159Y7212D01*
X13104Y7190D01*
X13061Y7147D01*
X13038Y7092D01*
X13038Y7033D01*
X13038Y6533D01*
X13055Y6493D01*
X13006Y6460D01*
X12903Y6306D01*
X12867Y6124D01*
X12867Y5749D01*
X12881Y5679D01*
X12816Y5744D01*
X12817Y5749D01*
X12817Y6124D01*
X12781Y6306D01*
X12678Y6460D01*
X12524Y6563D01*
X12342Y6599D01*
X12160Y6563D01*
X12143Y6552D01*
X12175Y6627D01*
X12175Y6641D01*
X12195Y6641D01*
X12510Y6641D01*
X12565Y6664D01*
X12607Y6706D01*
X12630Y6761D01*
X12630Y6821D01*
X12630Y7175D01*
X12607Y7230D01*
X12565Y7272D01*
X12510Y7295D01*
X12450Y7295D01*
X12135Y7295D01*
X12080Y7272D01*
X12038Y7230D01*
X12015Y7175D01*
X12015Y7129D01*
X11985Y7109D01*
X11893Y7017D01*
X11786Y7017D01*
X11666Y6968D01*
X11646Y6948D01*
X11646Y7092D01*
X11623Y7147D01*
X11581Y7190D01*
X11525Y7212D01*
X11466Y7212D01*
X11151Y7212D01*
X11096Y7190D01*
X11053Y7147D01*
X11031Y7092D01*
X11031Y7033D01*
X11031Y6908D01*
X10971Y6968D01*
X10852Y7017D01*
X10744Y7017D01*
X10661Y7100D01*
X10661Y7175D01*
X10638Y7230D01*
X10596Y7272D01*
X10541Y7295D01*
X10481Y7295D01*
X10167Y7295D01*
X10111Y7272D01*
X10069Y7230D01*
X10046Y7175D01*
X10046Y7115D01*
X10046Y6761D01*
X10069Y6706D01*
X10111Y6664D01*
X10167Y6641D01*
X10226Y6641D01*
X10462Y6641D01*
X10462Y6628D01*
X10486Y6571D01*
X10342Y6599D01*
X10160Y6563D01*
X10006Y6460D01*
X9988Y6432D01*
X9983Y6440D01*
X9944Y6479D01*
X9944Y7516D01*
X9987Y7534D01*
X10029Y7576D01*
X10046Y7617D01*
X10046Y7470D01*
X10069Y7415D01*
X10111Y7372D01*
X10167Y7350D01*
X10226Y7350D01*
X10541Y7350D01*
X10596Y7372D01*
X10638Y7415D01*
X10661Y7470D01*
X10661Y7529D01*
X10661Y7617D01*
X10678Y7576D01*
X10721Y7534D01*
X10776Y7511D01*
X10835Y7511D01*
X11150Y7511D01*
X11206Y7534D01*
X11248Y7576D01*
X11271Y7631D01*
X11271Y7691D01*
X11271Y8185D01*
X11406Y8185D01*
X11406Y8131D01*
X11406Y7631D01*
X11428Y7576D01*
X11471Y7534D01*
X11526Y7511D01*
X11585Y7511D01*
X11900Y7511D01*
X11956Y7534D01*
X11998Y7576D01*
X12015Y7617D01*
X12015Y7470D01*
X12038Y7415D01*
X12080Y7372D01*
X12135Y7350D01*
X12195Y7350D01*
X12510Y7350D01*
X12565Y7372D01*
X12607Y7415D01*
X12630Y7470D01*
X12630Y7529D01*
X12630Y7702D01*
X12639Y7712D01*
X12663Y7712D01*
X12663Y7631D01*
X12686Y7576D01*
X12729Y7534D01*
X12784Y7511D01*
X12843Y7511D01*
X13158Y7511D01*
X13213Y7534D01*
X13256Y7576D01*
X13278Y7631D01*
X13278Y7691D01*
X13278Y8014D01*
X13413Y7879D01*
X13413Y7631D01*
X13436Y7576D01*
X13479Y7534D01*
X13534Y7511D01*
X13593Y7511D01*
X13839Y7511D01*
X13895Y7455D01*
X13895Y6417D01*
X13910Y6341D01*
X13953Y6276D01*
X14706Y5524D01*
X14556Y5524D01*
X14501Y5501D01*
X14459Y5458D01*
X14436Y5403D01*
X14436Y5344D01*
X14436Y5068D01*
X14459Y5013D01*
X14463Y5009D01*
X14459Y5006D01*
X14436Y4951D01*
X14436Y4891D01*
X14436Y4576D01*
X14456Y4527D01*
X14436Y4478D01*
X14436Y4418D01*
X14436Y4104D01*
X14456Y4055D01*
X14436Y4006D01*
X14436Y3946D01*
X14436Y3631D01*
X14456Y3582D01*
X14436Y3533D01*
X14436Y3474D01*
X14436Y3159D01*
X14456Y3110D01*
X14436Y3061D01*
X14436Y3001D01*
X14436Y2686D01*
X14456Y2637D01*
X14436Y2588D01*
X14436Y2529D01*
X14436Y2214D01*
X14459Y2159D01*
X14472Y2145D01*
X14459Y2132D01*
X14436Y2077D01*
X14436Y2017D01*
X14436Y1702D01*
X14459Y1647D01*
X14501Y1605D01*
X14556Y1582D01*
X14616Y1582D01*
X14872Y1582D01*
X14970Y1582D01*
X15028Y1582D01*
X15046Y1564D01*
X15038Y1560D01*
X14982Y1504D01*
X14951Y1431D01*
X14951Y1341D01*
X15001Y1291D01*
X15610Y1291D01*
X15610Y1299D01*
X15630Y1299D01*
X15630Y1291D01*
X15637Y1291D01*
X15637Y1271D01*
X15637Y1271D01*
G37*
G54D28*
X15637Y1271D02*
X15630Y1271D01*
X15630Y1263D01*
X15610Y1263D01*
X15610Y1271D01*
X15001Y1271D01*
X14951Y1221D01*
X14951Y1183D01*
X13748Y1183D01*
X14147Y1582D01*
X14262Y1582D01*
X14317Y1605D01*
X14359Y1647D01*
X14382Y1702D01*
X14382Y1762D01*
X14382Y2077D01*
X14359Y2132D01*
X14345Y2145D01*
X14359Y2159D01*
X14382Y2214D01*
X14382Y2273D01*
X14382Y2588D01*
X14362Y2637D01*
X14382Y2686D01*
X14382Y2746D01*
X14382Y3061D01*
X14362Y3110D01*
X14382Y3159D01*
X14382Y3218D01*
X14382Y3533D01*
X14362Y3582D01*
X14382Y3631D01*
X14382Y3691D01*
X14382Y4006D01*
X14362Y4055D01*
X14382Y4104D01*
X14382Y4163D01*
X14382Y4478D01*
X14362Y4527D01*
X14382Y4576D01*
X14382Y4636D01*
X14382Y4951D01*
X14362Y5000D01*
X14382Y5048D01*
X14382Y5108D01*
X14382Y5423D01*
X14359Y5478D01*
X14317Y5520D01*
X14262Y5543D01*
X14202Y5543D01*
X13848Y5543D01*
X13792Y5520D01*
X13750Y5478D01*
X13732Y5435D01*
X13693Y5435D01*
X13781Y5567D01*
X13817Y5749D01*
X13817Y6124D01*
X13781Y6306D01*
X13678Y6460D01*
X13635Y6489D01*
X13653Y6533D01*
X13653Y6592D01*
X13653Y7092D01*
X13631Y7147D01*
X13588Y7190D01*
X13533Y7212D01*
X13474Y7212D01*
X13159Y7212D01*
X13104Y7190D01*
X13061Y7147D01*
X13038Y7092D01*
X13038Y7033D01*
X13038Y6533D01*
X13055Y6493D01*
X13006Y6460D01*
X12903Y6306D01*
X12867Y6124D01*
X12867Y5749D01*
X12881Y5679D01*
X12816Y5744D01*
X12817Y5749D01*
X12817Y6124D01*
X12781Y6306D01*
X12678Y6460D01*
X12524Y6563D01*
X12342Y6599D01*
X12160Y6563D01*
X12143Y6552D01*
X12175Y6627D01*
X12175Y6641D01*
X12195Y6641D01*
X12510Y6641D01*
X12565Y6664D01*
X12607Y6706D01*
X12630Y6761D01*
X12630Y6821D01*
X12630Y7175D01*
X12607Y7230D01*
X12565Y7272D01*
X12510Y7295D01*
X12450Y7295D01*
X12135Y7295D01*
X12080Y7272D01*
X12038Y7230D01*
X12015Y7175D01*
X12015Y7129D01*
X11985Y7109D01*
X11893Y7017D01*
X11786Y7017D01*
X11666Y6968D01*
X11646Y6948D01*
X11646Y7092D01*
X11623Y7147D01*
X11581Y7190D01*
X11525Y7212D01*
X11466Y7212D01*
X11151Y7212D01*
X11096Y7190D01*
X11053Y7147D01*
X11031Y7092D01*
X11031Y7033D01*
X11031Y6908D01*
X10971Y6968D01*
X10852Y7017D01*
X10744Y7017D01*
X10661Y7100D01*
X10661Y7175D01*
X10638Y7230D01*
X10596Y7272D01*
X10541Y7295D01*
X10481Y7295D01*
X10167Y7295D01*
X10111Y7272D01*
X10069Y7230D01*
X10046Y7175D01*
X10046Y7115D01*
X10046Y6761D01*
X10069Y6706D01*
X10111Y6664D01*
X10167Y6641D01*
X10226Y6641D01*
X10462Y6641D01*
X10462Y6628D01*
X10486Y6571D01*
X10342Y6599D01*
X10160Y6563D01*
X10006Y6460D01*
X9988Y6432D01*
X9983Y6440D01*
X9944Y6479D01*
X9944Y7516D01*
X9987Y7534D01*
X10029Y7576D01*
X10046Y7617D01*
X10046Y7470D01*
X10069Y7415D01*
X10111Y7372D01*
X10167Y7350D01*
X10226Y7350D01*
X10541Y7350D01*
X10596Y7372D01*
X10638Y7415D01*
X10661Y7470D01*
X10661Y7529D01*
X10661Y7617D01*
X10678Y7576D01*
X10721Y7534D01*
X10776Y7511D01*
X10835Y7511D01*
X11150Y7511D01*
X11206Y7534D01*
X11248Y7576D01*
X11271Y7631D01*
X11271Y7691D01*
X11271Y8185D01*
X11406Y8185D01*
X11406Y8131D01*
X11406Y7631D01*
X11428Y7576D01*
X11471Y7534D01*
X11526Y7511D01*
X11585Y7511D01*
X11900Y7511D01*
X11956Y7534D01*
X11998Y7576D01*
X12015Y7617D01*
X12015Y7470D01*
X12038Y7415D01*
X12080Y7372D01*
X12135Y7350D01*
X12195Y7350D01*
X12510Y7350D01*
X12565Y7372D01*
X12607Y7415D01*
X12630Y7470D01*
X12630Y7529D01*
X12630Y7702D01*
X12639Y7712D01*
X12663Y7712D01*
X12663Y7631D01*
X12686Y7576D01*
X12729Y7534D01*
X12784Y7511D01*
X12843Y7511D01*
X13158Y7511D01*
X13213Y7534D01*
X13256Y7576D01*
X13278Y7631D01*
X13278Y7691D01*
X13278Y8014D01*
X13413Y7879D01*
X13413Y7631D01*
X13436Y7576D01*
X13479Y7534D01*
X13534Y7511D01*
X13593Y7511D01*
X13839Y7511D01*
X13895Y7455D01*
X13895Y6417D01*
X13910Y6341D01*
X13953Y6276D01*
X14706Y5524D01*
X14556Y5524D01*
X14501Y5501D01*
X14459Y5458D01*
X14436Y5403D01*
X14436Y5344D01*
X14436Y5068D01*
X14459Y5013D01*
X14463Y5009D01*
X14459Y5006D01*
X14436Y4951D01*
X14436Y4891D01*
X14436Y4576D01*
X14456Y4527D01*
X14436Y4478D01*
X14436Y4418D01*
X14436Y4104D01*
X14456Y4055D01*
X14436Y4006D01*
X14436Y3946D01*
X14436Y3631D01*
X14456Y3582D01*
X14436Y3533D01*
X14436Y3474D01*
X14436Y3159D01*
X14456Y3110D01*
X14436Y3061D01*
X14436Y3001D01*
X14436Y2686D01*
X14456Y2637D01*
X14436Y2588D01*
X14436Y2529D01*
X14436Y2214D01*
X14459Y2159D01*
X14472Y2145D01*
X14459Y2132D01*
X14436Y2077D01*
X14436Y2017D01*
X14436Y1702D01*
X14459Y1647D01*
X14501Y1605D01*
X14556Y1582D01*
X14616Y1582D01*
X14872Y1582D01*
X14970Y1582D01*
X15028Y1582D01*
X15046Y1564D01*
X15038Y1560D01*
X14982Y1504D01*
X14951Y1431D01*
X14951Y1341D01*
X15001Y1291D01*
X15610Y1291D01*
X15610Y1299D01*
X15630Y1299D01*
X15630Y1291D01*
X15637Y1291D01*
X15637Y1271D01*
G54D10*
G36*
X17468Y3271D02*
X17460Y3271D01*
X17460Y3263D01*
X17440Y3263D01*
X17440Y3271D01*
X16832Y3271D01*
X16782Y3221D01*
X16782Y3131D01*
X16812Y3058D01*
X16868Y3002D01*
X16877Y2998D01*
X16855Y2976D01*
X16851Y2968D01*
X16839Y2965D01*
X16774Y2922D01*
X16459Y2606D01*
X16459Y3106D01*
X16782Y3429D01*
X16782Y3341D01*
X16832Y3291D01*
X17440Y3291D01*
X17440Y3299D01*
X17460Y3299D01*
X17460Y3291D01*
X17468Y3291D01*
X17468Y3271D01*
X17468Y3271D01*
G37*
G54D28*
X17468Y3271D02*
X17460Y3271D01*
X17460Y3263D01*
X17440Y3263D01*
X17440Y3271D01*
X16832Y3271D01*
X16782Y3221D01*
X16782Y3131D01*
X16812Y3058D01*
X16868Y3002D01*
X16877Y2998D01*
X16855Y2976D01*
X16851Y2968D01*
X16839Y2965D01*
X16774Y2922D01*
X16459Y2606D01*
X16459Y3106D01*
X16782Y3429D01*
X16782Y3341D01*
X16832Y3291D01*
X17440Y3291D01*
X17440Y3299D01*
X17460Y3299D01*
X17460Y3291D01*
X17468Y3291D01*
X17468Y3271D01*
G54D10*
G36*
X19505Y6793D02*
X19479Y6811D01*
X19279Y6855D01*
X19104Y6855D01*
X19104Y6340D01*
X19112Y6340D01*
X19112Y6320D01*
X19104Y6320D01*
X19104Y6312D01*
X19084Y6312D01*
X19084Y6320D01*
X19084Y6340D01*
X19084Y6855D01*
X18909Y6855D01*
X18709Y6811D01*
X18541Y6694D01*
X18430Y6522D01*
X18402Y6422D01*
X18444Y6340D01*
X19084Y6340D01*
X19084Y6320D01*
X18444Y6320D01*
X18402Y6238D01*
X18430Y6139D01*
X18541Y5966D01*
X18709Y5849D01*
X18909Y5805D01*
X18906Y5805D01*
X18724Y5769D01*
X18570Y5666D01*
X18467Y5512D01*
X18431Y5330D01*
X18467Y5148D01*
X18570Y4994D01*
X18594Y4978D01*
X18474Y4858D01*
X18474Y4867D01*
X18425Y4987D01*
X18333Y5078D01*
X18214Y5128D01*
X18085Y5128D01*
X17965Y5078D01*
X17928Y5041D01*
X17889Y5041D01*
X17650Y5041D01*
X17650Y5433D01*
X17634Y5509D01*
X17591Y5573D01*
X17109Y6056D01*
X17109Y7411D01*
X17109Y7646D01*
X17109Y7766D01*
X17109Y8002D01*
X17079Y8075D01*
X17022Y8132D01*
X16949Y8162D01*
X16869Y8162D01*
X16634Y8162D01*
X16584Y8112D01*
X16584Y7716D01*
X17059Y7716D01*
X17109Y7766D01*
X17109Y7646D01*
X17059Y7696D01*
X16584Y7696D01*
X16584Y7300D01*
X16634Y7250D01*
X16869Y7250D01*
X16949Y7250D01*
X17022Y7281D01*
X17079Y7337D01*
X17109Y7411D01*
X17109Y6056D01*
X17059Y6106D01*
X17059Y6594D01*
X17036Y6649D01*
X16994Y6692D01*
X16939Y6714D01*
X16879Y6714D01*
X16450Y6714D01*
X16447Y6717D01*
X16383Y6760D01*
X16307Y6775D01*
X16176Y6775D01*
X16176Y6856D01*
X16153Y6911D01*
X16111Y6953D01*
X16056Y6976D01*
X15996Y6976D01*
X15796Y6976D01*
X15741Y6953D01*
X15699Y6911D01*
X15676Y6856D01*
X15676Y6796D01*
X15676Y6302D01*
X15609Y6302D01*
X15536Y6271D01*
X15480Y6215D01*
X15449Y6142D01*
X15449Y6062D01*
X15449Y6004D01*
X15499Y5954D01*
X15816Y5954D01*
X15816Y5962D01*
X15836Y5962D01*
X15836Y5954D01*
X15844Y5954D01*
X15844Y5934D01*
X15836Y5934D01*
X15836Y5927D01*
X15816Y5927D01*
X15816Y5934D01*
X15499Y5934D01*
X15449Y5884D01*
X15449Y5827D01*
X15449Y5789D01*
X15445Y5789D01*
X15445Y5817D01*
X15445Y6132D01*
X15422Y6187D01*
X15385Y6224D01*
X15403Y6241D01*
X15426Y6296D01*
X15426Y6356D01*
X15426Y6856D01*
X15403Y6911D01*
X15361Y6953D01*
X15306Y6976D01*
X15246Y6976D01*
X15046Y6976D01*
X15025Y6968D01*
X15206Y7149D01*
X15331Y7024D01*
X15396Y6981D01*
X15396Y6981D01*
X15472Y6966D01*
X15708Y6966D01*
X15784Y6981D01*
X15849Y7024D01*
X16067Y7242D01*
X16101Y7294D01*
X16110Y7297D01*
X16126Y7281D01*
X16200Y7250D01*
X16279Y7250D01*
X16514Y7250D01*
X16564Y7300D01*
X16564Y7696D01*
X16556Y7696D01*
X16556Y7716D01*
X16564Y7716D01*
X16564Y8112D01*
X16514Y8162D01*
X16279Y8162D01*
X16200Y8162D01*
X16126Y8132D01*
X16070Y8075D01*
X16068Y8070D01*
X16056Y8075D01*
X15996Y8075D01*
X15796Y8075D01*
X15787Y8071D01*
X15764Y8094D01*
X15690Y8125D01*
X15611Y8125D01*
X15561Y8075D01*
X15561Y7685D01*
X15569Y7685D01*
X15569Y7665D01*
X15561Y7665D01*
X15561Y7657D01*
X15541Y7657D01*
X15541Y7665D01*
X15533Y7665D01*
X15533Y7685D01*
X15541Y7685D01*
X15541Y8075D01*
X15491Y8125D01*
X15411Y8125D01*
X15375Y8110D01*
X15375Y8918D01*
X15360Y8994D01*
X15317Y9059D01*
X15316Y9059D01*
X15317Y9064D01*
X15317Y9348D01*
X15388Y9348D01*
X15435Y9112D01*
X15461Y9047D01*
X15632Y8792D01*
X15682Y8742D01*
X15937Y8572D01*
X16002Y8545D01*
X16303Y8485D01*
X16321Y8485D01*
X16338Y8481D01*
X18687Y8481D01*
X18534Y8418D01*
X18353Y8238D01*
X18255Y8002D01*
X18255Y7746D01*
X18353Y7510D01*
X18533Y7330D01*
X18769Y7232D01*
X19024Y7231D01*
X19260Y7329D01*
X19441Y7509D01*
X19505Y7663D01*
X19505Y6793D01*
X19505Y6793D01*
G37*
G54D28*
X19505Y6793D02*
X19479Y6811D01*
X19279Y6855D01*
X19104Y6855D01*
X19104Y6340D01*
X19112Y6340D01*
X19112Y6320D01*
X19104Y6320D01*
X19104Y6312D01*
X19084Y6312D01*
X19084Y6320D01*
X19084Y6340D01*
X19084Y6855D01*
X18909Y6855D01*
X18709Y6811D01*
X18541Y6694D01*
X18430Y6522D01*
X18402Y6422D01*
X18444Y6340D01*
X19084Y6340D01*
X19084Y6320D01*
X18444Y6320D01*
X18402Y6238D01*
X18430Y6139D01*
X18541Y5966D01*
X18709Y5849D01*
X18909Y5805D01*
X18906Y5805D01*
X18724Y5769D01*
X18570Y5666D01*
X18467Y5512D01*
X18431Y5330D01*
X18467Y5148D01*
X18570Y4994D01*
X18594Y4978D01*
X18474Y4858D01*
X18474Y4867D01*
X18425Y4987D01*
X18333Y5078D01*
X18214Y5128D01*
X18085Y5128D01*
X17965Y5078D01*
X17928Y5041D01*
X17889Y5041D01*
X17650Y5041D01*
X17650Y5433D01*
X17634Y5509D01*
X17591Y5573D01*
X17109Y6056D01*
X17109Y7411D01*
X17109Y7646D01*
X17109Y7766D01*
X17109Y8002D01*
X17079Y8075D01*
X17022Y8132D01*
X16949Y8162D01*
X16869Y8162D01*
X16634Y8162D01*
X16584Y8112D01*
X16584Y7716D01*
X17059Y7716D01*
X17109Y7766D01*
X17109Y7646D01*
X17059Y7696D01*
X16584Y7696D01*
X16584Y7300D01*
X16634Y7250D01*
X16869Y7250D01*
X16949Y7250D01*
X17022Y7281D01*
X17079Y7337D01*
X17109Y7411D01*
X17109Y6056D01*
X17059Y6106D01*
X17059Y6594D01*
X17036Y6649D01*
X16994Y6692D01*
X16939Y6714D01*
X16879Y6714D01*
X16450Y6714D01*
X16447Y6717D01*
X16383Y6760D01*
X16307Y6775D01*
X16176Y6775D01*
X16176Y6856D01*
X16153Y6911D01*
X16111Y6953D01*
X16056Y6976D01*
X15996Y6976D01*
X15796Y6976D01*
X15741Y6953D01*
X15699Y6911D01*
X15676Y6856D01*
X15676Y6796D01*
X15676Y6302D01*
X15609Y6302D01*
X15536Y6271D01*
X15480Y6215D01*
X15449Y6142D01*
X15449Y6062D01*
X15449Y6004D01*
X15499Y5954D01*
X15816Y5954D01*
X15816Y5962D01*
X15836Y5962D01*
X15836Y5954D01*
X15844Y5954D01*
X15844Y5934D01*
X15836Y5934D01*
X15836Y5927D01*
X15816Y5927D01*
X15816Y5934D01*
X15499Y5934D01*
X15449Y5884D01*
X15449Y5827D01*
X15449Y5789D01*
X15445Y5789D01*
X15445Y5817D01*
X15445Y6132D01*
X15422Y6187D01*
X15385Y6224D01*
X15403Y6241D01*
X15426Y6296D01*
X15426Y6356D01*
X15426Y6856D01*
X15403Y6911D01*
X15361Y6953D01*
X15306Y6976D01*
X15246Y6976D01*
X15046Y6976D01*
X15025Y6968D01*
X15206Y7149D01*
X15331Y7024D01*
X15396Y6981D01*
X15396Y6981D01*
X15472Y6966D01*
X15708Y6966D01*
X15784Y6981D01*
X15849Y7024D01*
X16067Y7242D01*
X16101Y7294D01*
X16110Y7297D01*
X16126Y7281D01*
X16200Y7250D01*
X16279Y7250D01*
X16514Y7250D01*
X16564Y7300D01*
X16564Y7696D01*
X16556Y7696D01*
X16556Y7716D01*
X16564Y7716D01*
X16564Y8112D01*
X16514Y8162D01*
X16279Y8162D01*
X16200Y8162D01*
X16126Y8132D01*
X16070Y8075D01*
X16068Y8070D01*
X16056Y8075D01*
X15996Y8075D01*
X15796Y8075D01*
X15787Y8071D01*
X15764Y8094D01*
X15690Y8125D01*
X15611Y8125D01*
X15561Y8075D01*
X15561Y7685D01*
X15569Y7685D01*
X15569Y7665D01*
X15561Y7665D01*
X15561Y7657D01*
X15541Y7657D01*
X15541Y7665D01*
X15533Y7665D01*
X15533Y7685D01*
X15541Y7685D01*
X15541Y8075D01*
X15491Y8125D01*
X15411Y8125D01*
X15375Y8110D01*
X15375Y8918D01*
X15360Y8994D01*
X15317Y9059D01*
X15316Y9059D01*
X15317Y9064D01*
X15317Y9348D01*
X15388Y9348D01*
X15435Y9112D01*
X15461Y9047D01*
X15632Y8792D01*
X15682Y8742D01*
X15937Y8572D01*
X16002Y8545D01*
X16303Y8485D01*
X16321Y8485D01*
X16338Y8481D01*
X18687Y8481D01*
X18534Y8418D01*
X18353Y8238D01*
X18255Y8002D01*
X18255Y7746D01*
X18353Y7510D01*
X18533Y7330D01*
X18769Y7232D01*
X19024Y7231D01*
X19260Y7329D01*
X19441Y7509D01*
X19505Y7663D01*
X19505Y6793D01*
G54D10*
G36*
X19505Y997D02*
X19442Y1150D01*
X19261Y1331D01*
X19025Y1429D01*
X18770Y1429D01*
X18534Y1331D01*
X18353Y1151D01*
X18255Y915D01*
X18255Y660D01*
X18353Y424D01*
X18533Y243D01*
X18687Y179D01*
X3218Y179D01*
X3218Y2350D01*
X3218Y2667D01*
X3218Y2687D01*
X3218Y3004D01*
X3168Y3054D01*
X3110Y3054D01*
X3031Y3054D01*
X2957Y3023D01*
X2901Y2967D01*
X2870Y2894D01*
X2870Y2737D01*
X2920Y2687D01*
X3218Y2687D01*
X3218Y2667D01*
X2920Y2667D01*
X2870Y2617D01*
X2870Y2460D01*
X2901Y2386D01*
X2957Y2330D01*
X3031Y2300D01*
X3110Y2300D01*
X3168Y2300D01*
X3218Y2350D01*
X3218Y179D01*
X2804Y179D01*
X2807Y181D01*
X2837Y255D01*
X2837Y530D01*
X2837Y650D01*
X2837Y925D01*
X2807Y999D01*
X2751Y1055D01*
X2677Y1085D01*
X2598Y1085D01*
X2382Y1085D01*
X2332Y1035D01*
X2332Y600D01*
X2787Y600D01*
X2837Y650D01*
X2837Y530D01*
X2787Y580D01*
X2332Y580D01*
X2332Y572D01*
X2312Y572D01*
X2312Y580D01*
X2312Y600D01*
X2312Y1035D01*
X2262Y1085D01*
X2047Y1085D01*
X1968Y1085D01*
X1894Y1055D01*
X1838Y999D01*
X1807Y925D01*
X1807Y650D01*
X1857Y600D01*
X2312Y600D01*
X2312Y580D01*
X1857Y580D01*
X1807Y530D01*
X1807Y255D01*
X1838Y181D01*
X1840Y179D01*
X997Y179D01*
X1150Y242D01*
X1331Y423D01*
X1429Y659D01*
X1429Y914D01*
X1331Y1150D01*
X1151Y1331D01*
X915Y1429D01*
X660Y1429D01*
X424Y1331D01*
X243Y1151D01*
X179Y997D01*
X179Y2419D01*
X221Y2391D01*
X402Y2355D01*
X778Y2355D01*
X960Y2391D01*
X1071Y2466D01*
X1093Y2415D01*
X1135Y2372D01*
X1190Y2350D01*
X1250Y2350D01*
X1565Y2350D01*
X1620Y2372D01*
X1662Y2415D01*
X1685Y2470D01*
X1685Y2529D01*
X1685Y2884D01*
X1662Y2939D01*
X1620Y2981D01*
X1565Y3004D01*
X1505Y3004D01*
X1218Y3004D01*
X1217Y3012D01*
X1184Y3061D01*
X1190Y3058D01*
X1250Y3058D01*
X1565Y3058D01*
X1620Y3081D01*
X1662Y3123D01*
X1685Y3178D01*
X1685Y3186D01*
X1896Y3186D01*
X1922Y3160D01*
X1978Y3137D01*
X2037Y3137D01*
X2667Y3137D01*
X2722Y3160D01*
X2749Y3186D01*
X2920Y3186D01*
X2920Y3178D01*
X2943Y3123D01*
X2985Y3081D01*
X3041Y3058D01*
X3100Y3058D01*
X3415Y3058D01*
X3422Y3061D01*
X3422Y3054D01*
X3346Y3054D01*
X3288Y3054D01*
X3238Y3004D01*
X3238Y2687D01*
X3246Y2687D01*
X3246Y2667D01*
X3238Y2667D01*
X3238Y2350D01*
X3288Y2300D01*
X3346Y2300D01*
X3425Y2300D01*
X3499Y2330D01*
X3555Y2386D01*
X3585Y2460D01*
X3585Y2510D01*
X5646Y449D01*
X5711Y406D01*
X5711Y406D01*
X5787Y391D01*
X16377Y391D01*
X16454Y406D01*
X16518Y449D01*
X16794Y725D01*
X16837Y789D01*
X16852Y866D01*
X16852Y1092D01*
X16855Y1086D01*
X16897Y1044D01*
X16952Y1021D01*
X17012Y1021D01*
X17949Y1021D01*
X18004Y1044D01*
X18046Y1086D01*
X18051Y1097D01*
X18115Y1140D01*
X18605Y1630D01*
X18648Y1695D01*
X18663Y1771D01*
X18663Y1932D01*
X18724Y1891D01*
X18906Y1855D01*
X19282Y1855D01*
X19463Y1891D01*
X19505Y1919D01*
X19505Y997D01*
X19505Y997D01*
G37*
G54D28*
X19505Y997D02*
X19442Y1150D01*
X19261Y1331D01*
X19025Y1429D01*
X18770Y1429D01*
X18534Y1331D01*
X18353Y1151D01*
X18255Y915D01*
X18255Y660D01*
X18353Y424D01*
X18533Y243D01*
X18687Y179D01*
X3218Y179D01*
X3218Y2350D01*
X3218Y2667D01*
X3218Y2687D01*
X3218Y3004D01*
X3168Y3054D01*
X3110Y3054D01*
X3031Y3054D01*
X2957Y3023D01*
X2901Y2967D01*
X2870Y2894D01*
X2870Y2737D01*
X2920Y2687D01*
X3218Y2687D01*
X3218Y2667D01*
X2920Y2667D01*
X2870Y2617D01*
X2870Y2460D01*
X2901Y2386D01*
X2957Y2330D01*
X3031Y2300D01*
X3110Y2300D01*
X3168Y2300D01*
X3218Y2350D01*
X3218Y179D01*
X2804Y179D01*
X2807Y181D01*
X2837Y255D01*
X2837Y530D01*
X2837Y650D01*
X2837Y925D01*
X2807Y999D01*
X2751Y1055D01*
X2677Y1085D01*
X2598Y1085D01*
X2382Y1085D01*
X2332Y1035D01*
X2332Y600D01*
X2787Y600D01*
X2837Y650D01*
X2837Y530D01*
X2787Y580D01*
X2332Y580D01*
X2332Y572D01*
X2312Y572D01*
X2312Y580D01*
X2312Y600D01*
X2312Y1035D01*
X2262Y1085D01*
X2047Y1085D01*
X1968Y1085D01*
X1894Y1055D01*
X1838Y999D01*
X1807Y925D01*
X1807Y650D01*
X1857Y600D01*
X2312Y600D01*
X2312Y580D01*
X1857Y580D01*
X1807Y530D01*
X1807Y255D01*
X1838Y181D01*
X1840Y179D01*
X997Y179D01*
X1150Y242D01*
X1331Y423D01*
X1429Y659D01*
X1429Y914D01*
X1331Y1150D01*
X1151Y1331D01*
X915Y1429D01*
X660Y1429D01*
X424Y1331D01*
X243Y1151D01*
X179Y997D01*
X179Y2419D01*
X221Y2391D01*
X402Y2355D01*
X778Y2355D01*
X960Y2391D01*
X1071Y2466D01*
X1093Y2415D01*
X1135Y2372D01*
X1190Y2350D01*
X1250Y2350D01*
X1565Y2350D01*
X1620Y2372D01*
X1662Y2415D01*
X1685Y2470D01*
X1685Y2529D01*
X1685Y2884D01*
X1662Y2939D01*
X1620Y2981D01*
X1565Y3004D01*
X1505Y3004D01*
X1218Y3004D01*
X1217Y3012D01*
X1184Y3061D01*
X1190Y3058D01*
X1250Y3058D01*
X1565Y3058D01*
X1620Y3081D01*
X1662Y3123D01*
X1685Y3178D01*
X1685Y3186D01*
X1896Y3186D01*
X1922Y3160D01*
X1978Y3137D01*
X2037Y3137D01*
X2667Y3137D01*
X2722Y3160D01*
X2749Y3186D01*
X2920Y3186D01*
X2920Y3178D01*
X2943Y3123D01*
X2985Y3081D01*
X3041Y3058D01*
X3100Y3058D01*
X3415Y3058D01*
X3422Y3061D01*
X3422Y3054D01*
X3346Y3054D01*
X3288Y3054D01*
X3238Y3004D01*
X3238Y2687D01*
X3246Y2687D01*
X3246Y2667D01*
X3238Y2667D01*
X3238Y2350D01*
X3288Y2300D01*
X3346Y2300D01*
X3425Y2300D01*
X3499Y2330D01*
X3555Y2386D01*
X3585Y2460D01*
X3585Y2510D01*
X5646Y449D01*
X5711Y406D01*
X5711Y406D01*
X5787Y391D01*
X16377Y391D01*
X16454Y406D01*
X16518Y449D01*
X16794Y725D01*
X16837Y789D01*
X16852Y866D01*
X16852Y1092D01*
X16855Y1086D01*
X16897Y1044D01*
X16952Y1021D01*
X17012Y1021D01*
X17949Y1021D01*
X18004Y1044D01*
X18046Y1086D01*
X18051Y1097D01*
X18115Y1140D01*
X18605Y1630D01*
X18648Y1695D01*
X18663Y1771D01*
X18663Y1932D01*
X18724Y1891D01*
X18906Y1855D01*
X19282Y1855D01*
X19463Y1891D01*
X19505Y1919D01*
X19505Y997D01*
G54D10*
G36*
X3225Y16578D02*
X2902Y16255D01*
X2902Y16343D01*
X2852Y16393D01*
X2244Y16393D01*
X2244Y16385D01*
X2224Y16385D01*
X2224Y16393D01*
X2216Y16393D01*
X2216Y16413D01*
X2224Y16413D01*
X2224Y16421D01*
X2244Y16421D01*
X2244Y16413D01*
X2852Y16413D01*
X2902Y16463D01*
X2902Y16553D01*
X2872Y16626D01*
X2816Y16682D01*
X2807Y16686D01*
X2829Y16708D01*
X2833Y16716D01*
X2845Y16719D01*
X2910Y16762D01*
X3225Y17078D01*
X3225Y16578D01*
X3225Y16578D01*
G37*
G54D28*
X3225Y16578D02*
X2902Y16255D01*
X2902Y16343D01*
X2852Y16393D01*
X2244Y16393D01*
X2244Y16385D01*
X2224Y16385D01*
X2224Y16393D01*
X2216Y16393D01*
X2216Y16413D01*
X2224Y16413D01*
X2224Y16421D01*
X2244Y16421D01*
X2244Y16413D01*
X2852Y16413D01*
X2902Y16463D01*
X2902Y16553D01*
X2872Y16626D01*
X2816Y16682D01*
X2807Y16686D01*
X2829Y16708D01*
X2833Y16716D01*
X2845Y16719D01*
X2910Y16762D01*
X3225Y17078D01*
X3225Y16578D01*
G54D10*
G36*
X4659Y12716D02*
X4478Y12535D01*
X4353Y12660D01*
X4288Y12703D01*
X4212Y12718D01*
X3976Y12718D01*
X3900Y12703D01*
X3835Y12660D01*
X3617Y12443D01*
X3583Y12390D01*
X3574Y12387D01*
X3558Y12403D01*
X3484Y12434D01*
X3405Y12434D01*
X3170Y12434D01*
X3120Y12384D01*
X3120Y11988D01*
X3128Y11988D01*
X3128Y11968D01*
X3120Y11968D01*
X3120Y11572D01*
X3170Y11522D01*
X3405Y11522D01*
X3484Y11522D01*
X3558Y11552D01*
X3614Y11609D01*
X3616Y11614D01*
X3629Y11609D01*
X3688Y11609D01*
X3888Y11609D01*
X3897Y11613D01*
X3920Y11590D01*
X3994Y11559D01*
X4073Y11559D01*
X4123Y11609D01*
X4123Y11999D01*
X4115Y11999D01*
X4115Y12019D01*
X4123Y12019D01*
X4123Y12027D01*
X4143Y12027D01*
X4143Y12019D01*
X4151Y12019D01*
X4151Y11999D01*
X4143Y11999D01*
X4143Y11609D01*
X4193Y11559D01*
X4273Y11559D01*
X4309Y11574D01*
X4309Y10766D01*
X4324Y10690D01*
X4367Y10625D01*
X4368Y10625D01*
X4367Y10620D01*
X4367Y10336D01*
X4297Y10336D01*
X4249Y10572D01*
X4223Y10637D01*
X4052Y10892D01*
X4002Y10942D01*
X3747Y11112D01*
X3682Y11139D01*
X3381Y11199D01*
X3363Y11199D01*
X3346Y11203D01*
X3100Y11203D01*
X3100Y11572D01*
X3100Y11968D01*
X3100Y11988D01*
X3100Y12384D01*
X3050Y12434D01*
X2815Y12434D01*
X2735Y12434D01*
X2662Y12403D01*
X2606Y12347D01*
X2575Y12274D01*
X2575Y12038D01*
X2625Y11988D01*
X3100Y11988D01*
X3100Y11968D01*
X2625Y11968D01*
X2575Y11918D01*
X2575Y11682D01*
X2606Y11609D01*
X2662Y11552D01*
X2735Y11522D01*
X2815Y11522D01*
X3050Y11522D01*
X3100Y11572D01*
X3100Y11203D01*
X997Y11203D01*
X1150Y11266D01*
X1331Y11446D01*
X1429Y11682D01*
X1429Y11938D01*
X1331Y12174D01*
X1282Y12223D01*
X1282Y13262D01*
X1240Y13344D01*
X600Y13344D01*
X600Y12829D01*
X775Y12829D01*
X975Y12873D01*
X1143Y12990D01*
X1254Y13162D01*
X1282Y13262D01*
X1282Y12223D01*
X1151Y12354D01*
X915Y12452D01*
X660Y12453D01*
X424Y12355D01*
X243Y12175D01*
X179Y12021D01*
X179Y12891D01*
X205Y12873D01*
X405Y12829D01*
X580Y12829D01*
X580Y13344D01*
X572Y13344D01*
X572Y13364D01*
X580Y13364D01*
X580Y13879D01*
X600Y13879D01*
X600Y13364D01*
X1240Y13364D01*
X1282Y13446D01*
X1254Y13546D01*
X1143Y13718D01*
X975Y13835D01*
X775Y13879D01*
X778Y13879D01*
X960Y13915D01*
X1114Y14018D01*
X1217Y14172D01*
X1253Y14354D01*
X1217Y14536D01*
X1114Y14690D01*
X1090Y14706D01*
X1210Y14826D01*
X1210Y14817D01*
X1259Y14698D01*
X1351Y14606D01*
X1470Y14556D01*
X1599Y14556D01*
X1719Y14606D01*
X1756Y14643D01*
X1795Y14643D01*
X2035Y14643D01*
X2035Y14251D01*
X2050Y14175D01*
X2093Y14111D01*
X2625Y13578D01*
X2625Y13090D01*
X2648Y13035D01*
X2690Y12992D01*
X2745Y12970D01*
X2805Y12970D01*
X3234Y12970D01*
X3237Y12967D01*
X3301Y12924D01*
X3377Y12909D01*
X3508Y12909D01*
X3508Y12828D01*
X3531Y12773D01*
X3573Y12731D01*
X3629Y12708D01*
X3688Y12708D01*
X3888Y12708D01*
X3943Y12731D01*
X3986Y12773D01*
X4008Y12828D01*
X4008Y12888D01*
X4008Y13382D01*
X4075Y13382D01*
X4148Y13413D01*
X4204Y13469D01*
X4235Y13542D01*
X4235Y13622D01*
X4235Y13680D01*
X4185Y13730D01*
X3868Y13730D01*
X3868Y13722D01*
X3848Y13722D01*
X3848Y13730D01*
X3840Y13730D01*
X3840Y13750D01*
X3848Y13750D01*
X3848Y13758D01*
X3868Y13758D01*
X3868Y13750D01*
X4185Y13750D01*
X4235Y13800D01*
X4235Y13857D01*
X4235Y13895D01*
X4239Y13895D01*
X4239Y13867D01*
X4239Y13552D01*
X4262Y13497D01*
X4299Y13460D01*
X4281Y13443D01*
X4258Y13388D01*
X4258Y13328D01*
X4258Y12828D01*
X4281Y12773D01*
X4323Y12731D01*
X4379Y12708D01*
X4438Y12708D01*
X4638Y12708D01*
X4659Y12716D01*
X4659Y12716D01*
G37*
G54D28*
X4659Y12716D02*
X4478Y12535D01*
X4353Y12660D01*
X4288Y12703D01*
X4212Y12718D01*
X3976Y12718D01*
X3900Y12703D01*
X3835Y12660D01*
X3617Y12443D01*
X3583Y12390D01*
X3574Y12387D01*
X3558Y12403D01*
X3484Y12434D01*
X3405Y12434D01*
X3170Y12434D01*
X3120Y12384D01*
X3120Y11988D01*
X3128Y11988D01*
X3128Y11968D01*
X3120Y11968D01*
X3120Y11572D01*
X3170Y11522D01*
X3405Y11522D01*
X3484Y11522D01*
X3558Y11552D01*
X3614Y11609D01*
X3616Y11614D01*
X3629Y11609D01*
X3688Y11609D01*
X3888Y11609D01*
X3897Y11613D01*
X3920Y11590D01*
X3994Y11559D01*
X4073Y11559D01*
X4123Y11609D01*
X4123Y11999D01*
X4115Y11999D01*
X4115Y12019D01*
X4123Y12019D01*
X4123Y12027D01*
X4143Y12027D01*
X4143Y12019D01*
X4151Y12019D01*
X4151Y11999D01*
X4143Y11999D01*
X4143Y11609D01*
X4193Y11559D01*
X4273Y11559D01*
X4309Y11574D01*
X4309Y10766D01*
X4324Y10690D01*
X4367Y10625D01*
X4368Y10625D01*
X4367Y10620D01*
X4367Y10336D01*
X4297Y10336D01*
X4249Y10572D01*
X4223Y10637D01*
X4052Y10892D01*
X4002Y10942D01*
X3747Y11112D01*
X3682Y11139D01*
X3381Y11199D01*
X3363Y11199D01*
X3346Y11203D01*
X3100Y11203D01*
X3100Y11572D01*
X3100Y11968D01*
X3100Y11988D01*
X3100Y12384D01*
X3050Y12434D01*
X2815Y12434D01*
X2735Y12434D01*
X2662Y12403D01*
X2606Y12347D01*
X2575Y12274D01*
X2575Y12038D01*
X2625Y11988D01*
X3100Y11988D01*
X3100Y11968D01*
X2625Y11968D01*
X2575Y11918D01*
X2575Y11682D01*
X2606Y11609D01*
X2662Y11552D01*
X2735Y11522D01*
X2815Y11522D01*
X3050Y11522D01*
X3100Y11572D01*
X3100Y11203D01*
X997Y11203D01*
X1150Y11266D01*
X1331Y11446D01*
X1429Y11682D01*
X1429Y11938D01*
X1331Y12174D01*
X1282Y12223D01*
X1282Y13262D01*
X1240Y13344D01*
X600Y13344D01*
X600Y12829D01*
X775Y12829D01*
X975Y12873D01*
X1143Y12990D01*
X1254Y13162D01*
X1282Y13262D01*
X1282Y12223D01*
X1151Y12354D01*
X915Y12452D01*
X660Y12453D01*
X424Y12355D01*
X243Y12175D01*
X179Y12021D01*
X179Y12891D01*
X205Y12873D01*
X405Y12829D01*
X580Y12829D01*
X580Y13344D01*
X572Y13344D01*
X572Y13364D01*
X580Y13364D01*
X580Y13879D01*
X600Y13879D01*
X600Y13364D01*
X1240Y13364D01*
X1282Y13446D01*
X1254Y13546D01*
X1143Y13718D01*
X975Y13835D01*
X775Y13879D01*
X778Y13879D01*
X960Y13915D01*
X1114Y14018D01*
X1217Y14172D01*
X1253Y14354D01*
X1217Y14536D01*
X1114Y14690D01*
X1090Y14706D01*
X1210Y14826D01*
X1210Y14817D01*
X1259Y14698D01*
X1351Y14606D01*
X1470Y14556D01*
X1599Y14556D01*
X1719Y14606D01*
X1756Y14643D01*
X1795Y14643D01*
X2035Y14643D01*
X2035Y14251D01*
X2050Y14175D01*
X2093Y14111D01*
X2625Y13578D01*
X2625Y13090D01*
X2648Y13035D01*
X2690Y12992D01*
X2745Y12970D01*
X2805Y12970D01*
X3234Y12970D01*
X3237Y12967D01*
X3301Y12924D01*
X3377Y12909D01*
X3508Y12909D01*
X3508Y12828D01*
X3531Y12773D01*
X3573Y12731D01*
X3629Y12708D01*
X3688Y12708D01*
X3888Y12708D01*
X3943Y12731D01*
X3986Y12773D01*
X4008Y12828D01*
X4008Y12888D01*
X4008Y13382D01*
X4075Y13382D01*
X4148Y13413D01*
X4204Y13469D01*
X4235Y13542D01*
X4235Y13622D01*
X4235Y13680D01*
X4185Y13730D01*
X3868Y13730D01*
X3868Y13722D01*
X3848Y13722D01*
X3848Y13730D01*
X3840Y13730D01*
X3840Y13750D01*
X3848Y13750D01*
X3848Y13758D01*
X3868Y13758D01*
X3868Y13750D01*
X4185Y13750D01*
X4235Y13800D01*
X4235Y13857D01*
X4235Y13895D01*
X4239Y13895D01*
X4239Y13867D01*
X4239Y13552D01*
X4262Y13497D01*
X4299Y13460D01*
X4281Y13443D01*
X4258Y13388D01*
X4258Y13328D01*
X4258Y12828D01*
X4281Y12773D01*
X4323Y12731D01*
X4379Y12708D01*
X4438Y12708D01*
X4638Y12708D01*
X4659Y12716D01*
G54D10*
G36*
X6860Y10423D02*
X6852Y10423D01*
X6852Y10415D01*
X6832Y10415D01*
X6832Y10423D01*
X6367Y10423D01*
X6317Y10423D01*
X5852Y10423D01*
X5852Y10415D01*
X5832Y10415D01*
X5832Y10423D01*
X5317Y10423D01*
X5317Y10443D01*
X5832Y10443D01*
X5832Y11082D01*
X5750Y11124D01*
X5650Y11096D01*
X5534Y11022D01*
X5478Y10986D01*
X5361Y10818D01*
X5317Y10618D01*
X5317Y10620D01*
X5281Y10802D01*
X5178Y10956D01*
X5024Y11059D01*
X4842Y11095D01*
X4708Y11069D01*
X4708Y11564D01*
X4709Y11562D01*
X4783Y11532D01*
X4862Y11532D01*
X5018Y11532D01*
X5068Y11582D01*
X5068Y11938D01*
X5060Y11938D01*
X5060Y11958D01*
X5068Y11958D01*
X5068Y12315D01*
X5018Y12365D01*
X4871Y12365D01*
X4993Y12487D01*
X5364Y12487D01*
X5391Y12498D01*
X5391Y12358D01*
X5374Y12365D01*
X5294Y12365D01*
X5138Y12365D01*
X5088Y12315D01*
X5088Y11958D01*
X5096Y11958D01*
X5096Y11938D01*
X5088Y11938D01*
X5088Y11582D01*
X5138Y11532D01*
X5294Y11532D01*
X5374Y11532D01*
X5447Y11562D01*
X5504Y11618D01*
X5534Y11692D01*
X5534Y11888D01*
X5484Y11938D01*
X5516Y11938D01*
X5656Y11799D01*
X5656Y11493D01*
X5678Y11438D01*
X5721Y11396D01*
X5776Y11373D01*
X5835Y11373D01*
X6139Y11373D01*
X6354Y11159D01*
X6418Y11116D01*
X6418Y11116D01*
X6495Y11100D01*
X6664Y11100D01*
X6650Y11096D01*
X6478Y10986D01*
X6361Y10818D01*
X6342Y10732D01*
X6323Y10818D01*
X6206Y10986D01*
X6034Y11096D01*
X5934Y11124D01*
X5852Y11082D01*
X5852Y10443D01*
X6317Y10443D01*
X6367Y10443D01*
X6832Y10443D01*
X6832Y10450D01*
X6852Y10450D01*
X6852Y10443D01*
X6860Y10443D01*
X6860Y10423D01*
X6860Y10423D01*
G37*
G54D28*
X6860Y10423D02*
X6852Y10423D01*
X6852Y10415D01*
X6832Y10415D01*
X6832Y10423D01*
X6367Y10423D01*
X6317Y10423D01*
X5852Y10423D01*
X5852Y10415D01*
X5832Y10415D01*
X5832Y10423D01*
X5317Y10423D01*
X5317Y10443D01*
X5832Y10443D01*
X5832Y11082D01*
X5750Y11124D01*
X5650Y11096D01*
X5534Y11022D01*
X5478Y10986D01*
X5361Y10818D01*
X5317Y10618D01*
X5317Y10620D01*
X5281Y10802D01*
X5178Y10956D01*
X5024Y11059D01*
X4842Y11095D01*
X4708Y11069D01*
X4708Y11564D01*
X4709Y11562D01*
X4783Y11532D01*
X4862Y11532D01*
X5018Y11532D01*
X5068Y11582D01*
X5068Y11938D01*
X5060Y11938D01*
X5060Y11958D01*
X5068Y11958D01*
X5068Y12315D01*
X5018Y12365D01*
X4871Y12365D01*
X4993Y12487D01*
X5364Y12487D01*
X5391Y12498D01*
X5391Y12358D01*
X5374Y12365D01*
X5294Y12365D01*
X5138Y12365D01*
X5088Y12315D01*
X5088Y11958D01*
X5096Y11958D01*
X5096Y11938D01*
X5088Y11938D01*
X5088Y11582D01*
X5138Y11532D01*
X5294Y11532D01*
X5374Y11532D01*
X5447Y11562D01*
X5504Y11618D01*
X5534Y11692D01*
X5534Y11888D01*
X5484Y11938D01*
X5516Y11938D01*
X5656Y11799D01*
X5656Y11493D01*
X5678Y11438D01*
X5721Y11396D01*
X5776Y11373D01*
X5835Y11373D01*
X6139Y11373D01*
X6354Y11159D01*
X6418Y11116D01*
X6418Y11116D01*
X6495Y11100D01*
X6664Y11100D01*
X6650Y11096D01*
X6478Y10986D01*
X6361Y10818D01*
X6342Y10732D01*
X6323Y10818D01*
X6206Y10986D01*
X6034Y11096D01*
X5934Y11124D01*
X5852Y11082D01*
X5852Y10443D01*
X6317Y10443D01*
X6367Y10443D01*
X6832Y10443D01*
X6832Y10450D01*
X6852Y10450D01*
X6852Y10443D01*
X6860Y10443D01*
X6860Y10423D01*
G54D10*
G36*
X9740Y12168D02*
X9697Y12150D01*
X9655Y12108D01*
X9638Y12067D01*
X9638Y12214D01*
X9615Y12270D01*
X9573Y12312D01*
X9518Y12335D01*
X9458Y12335D01*
X9143Y12335D01*
X9088Y12312D01*
X9046Y12270D01*
X9023Y12214D01*
X9023Y12155D01*
X9023Y12067D01*
X9006Y12108D01*
X8963Y12150D01*
X8908Y12173D01*
X8849Y12173D01*
X8534Y12173D01*
X8479Y12150D01*
X8436Y12108D01*
X8413Y12053D01*
X8413Y11993D01*
X8413Y11499D01*
X8278Y11499D01*
X8278Y11553D01*
X8278Y12053D01*
X8256Y12108D01*
X8213Y12150D01*
X8158Y12173D01*
X8099Y12173D01*
X7784Y12173D01*
X7729Y12150D01*
X7686Y12108D01*
X7669Y12067D01*
X7669Y12214D01*
X7646Y12270D01*
X7604Y12312D01*
X7549Y12335D01*
X7489Y12335D01*
X7174Y12335D01*
X7119Y12312D01*
X7077Y12270D01*
X7054Y12214D01*
X7054Y12155D01*
X7054Y11982D01*
X7045Y11972D01*
X7021Y11972D01*
X7021Y12053D01*
X6998Y12108D01*
X6956Y12150D01*
X6900Y12173D01*
X6841Y12173D01*
X6526Y12173D01*
X6471Y12150D01*
X6428Y12108D01*
X6406Y12053D01*
X6406Y11993D01*
X6406Y11670D01*
X6271Y11805D01*
X6271Y12053D01*
X6248Y12108D01*
X6206Y12150D01*
X6150Y12173D01*
X6091Y12173D01*
X5845Y12173D01*
X5789Y12229D01*
X5789Y13267D01*
X5774Y13343D01*
X5731Y13408D01*
X4978Y14161D01*
X5128Y14161D01*
X5183Y14183D01*
X5225Y14226D01*
X5248Y14281D01*
X5248Y14340D01*
X5248Y14616D01*
X5225Y14671D01*
X5221Y14675D01*
X5225Y14678D01*
X5248Y14733D01*
X5248Y14793D01*
X5248Y15108D01*
X5228Y15157D01*
X5248Y15206D01*
X5248Y15266D01*
X5248Y15581D01*
X5228Y15629D01*
X5248Y15678D01*
X5248Y15738D01*
X5248Y16053D01*
X5228Y16102D01*
X5248Y16151D01*
X5248Y16210D01*
X5248Y16525D01*
X5228Y16574D01*
X5248Y16623D01*
X5248Y16683D01*
X5248Y16998D01*
X5228Y17047D01*
X5248Y17096D01*
X5248Y17155D01*
X5248Y17470D01*
X5225Y17525D01*
X5212Y17539D01*
X5225Y17552D01*
X5248Y17607D01*
X5248Y17667D01*
X5248Y17982D01*
X5225Y18037D01*
X5183Y18079D01*
X5128Y18102D01*
X5068Y18102D01*
X4812Y18102D01*
X4714Y18102D01*
X4656Y18102D01*
X4638Y18120D01*
X4646Y18124D01*
X4703Y18180D01*
X4733Y18253D01*
X4733Y18343D01*
X4683Y18393D01*
X4074Y18393D01*
X4074Y18385D01*
X4054Y18385D01*
X4054Y18393D01*
X4047Y18393D01*
X4047Y18413D01*
X4054Y18413D01*
X4054Y18421D01*
X4074Y18421D01*
X4074Y18413D01*
X4683Y18413D01*
X4733Y18463D01*
X4733Y18501D01*
X5936Y18501D01*
X5537Y18102D01*
X5422Y18102D01*
X5367Y18079D01*
X5325Y18037D01*
X5302Y17982D01*
X5302Y17922D01*
X5302Y17607D01*
X5325Y17552D01*
X5339Y17539D01*
X5325Y17525D01*
X5302Y17470D01*
X5302Y17411D01*
X5302Y17096D01*
X5323Y17047D01*
X5302Y16998D01*
X5302Y16938D01*
X5302Y16623D01*
X5323Y16574D01*
X5302Y16525D01*
X5302Y16466D01*
X5302Y16151D01*
X5323Y16102D01*
X5302Y16053D01*
X5302Y15993D01*
X5302Y15678D01*
X5323Y15629D01*
X5302Y15581D01*
X5302Y15521D01*
X5302Y15206D01*
X5323Y15157D01*
X5302Y15108D01*
X5302Y15048D01*
X5302Y14733D01*
X5323Y14685D01*
X5302Y14636D01*
X5302Y14576D01*
X5302Y14261D01*
X5325Y14206D01*
X5367Y14164D01*
X5422Y14141D01*
X5482Y14141D01*
X5836Y14141D01*
X5892Y14164D01*
X5934Y14206D01*
X5952Y14249D01*
X5992Y14249D01*
X5903Y14117D01*
X5867Y13935D01*
X5867Y13560D01*
X5903Y13378D01*
X6006Y13224D01*
X6049Y13195D01*
X6031Y13151D01*
X6031Y13092D01*
X6031Y12592D01*
X6053Y12537D01*
X6096Y12494D01*
X6151Y12472D01*
X6210Y12472D01*
X6525Y12472D01*
X6581Y12494D01*
X6623Y12537D01*
X6646Y12592D01*
X6646Y12651D01*
X6646Y13151D01*
X6629Y13191D01*
X6678Y13224D01*
X6781Y13378D01*
X6817Y13560D01*
X6817Y13935D01*
X6803Y14005D01*
X6868Y13940D01*
X6867Y13935D01*
X6867Y13560D01*
X6903Y13378D01*
X7006Y13224D01*
X7160Y13121D01*
X7342Y13085D01*
X7524Y13121D01*
X7541Y13132D01*
X7509Y13057D01*
X7509Y13043D01*
X7489Y13043D01*
X7174Y13043D01*
X7119Y13020D01*
X7077Y12978D01*
X7054Y12923D01*
X7054Y12863D01*
X7054Y12509D01*
X7077Y12454D01*
X7119Y12412D01*
X7174Y12389D01*
X7234Y12389D01*
X7549Y12389D01*
X7604Y12412D01*
X7646Y12454D01*
X7669Y12509D01*
X7669Y12555D01*
X7699Y12575D01*
X7791Y12667D01*
X7899Y12667D01*
X8018Y12716D01*
X8038Y12736D01*
X8038Y12592D01*
X8061Y12537D01*
X8104Y12494D01*
X8159Y12472D01*
X8218Y12472D01*
X8533Y12472D01*
X8588Y12494D01*
X8631Y12537D01*
X8653Y12592D01*
X8653Y12651D01*
X8653Y12776D01*
X8713Y12716D01*
X8832Y12667D01*
X8940Y12667D01*
X9023Y12584D01*
X9023Y12509D01*
X9046Y12454D01*
X9088Y12412D01*
X9143Y12389D01*
X9203Y12389D01*
X9518Y12389D01*
X9573Y12412D01*
X9615Y12454D01*
X9638Y12509D01*
X9638Y12569D01*
X9638Y12923D01*
X9615Y12978D01*
X9573Y13020D01*
X9518Y13043D01*
X9458Y13043D01*
X9222Y13043D01*
X9222Y13056D01*
X9198Y13113D01*
X9342Y13085D01*
X9524Y13121D01*
X9678Y13224D01*
X9696Y13252D01*
X9701Y13244D01*
X9740Y13205D01*
X9740Y12168D01*
X9740Y12168D01*
G37*
G54D28*
X9740Y12168D02*
X9697Y12150D01*
X9655Y12108D01*
X9638Y12067D01*
X9638Y12214D01*
X9615Y12270D01*
X9573Y12312D01*
X9518Y12335D01*
X9458Y12335D01*
X9143Y12335D01*
X9088Y12312D01*
X9046Y12270D01*
X9023Y12214D01*
X9023Y12155D01*
X9023Y12067D01*
X9006Y12108D01*
X8963Y12150D01*
X8908Y12173D01*
X8849Y12173D01*
X8534Y12173D01*
X8479Y12150D01*
X8436Y12108D01*
X8413Y12053D01*
X8413Y11993D01*
X8413Y11499D01*
X8278Y11499D01*
X8278Y11553D01*
X8278Y12053D01*
X8256Y12108D01*
X8213Y12150D01*
X8158Y12173D01*
X8099Y12173D01*
X7784Y12173D01*
X7729Y12150D01*
X7686Y12108D01*
X7669Y12067D01*
X7669Y12214D01*
X7646Y12270D01*
X7604Y12312D01*
X7549Y12335D01*
X7489Y12335D01*
X7174Y12335D01*
X7119Y12312D01*
X7077Y12270D01*
X7054Y12214D01*
X7054Y12155D01*
X7054Y11982D01*
X7045Y11972D01*
X7021Y11972D01*
X7021Y12053D01*
X6998Y12108D01*
X6956Y12150D01*
X6900Y12173D01*
X6841Y12173D01*
X6526Y12173D01*
X6471Y12150D01*
X6428Y12108D01*
X6406Y12053D01*
X6406Y11993D01*
X6406Y11670D01*
X6271Y11805D01*
X6271Y12053D01*
X6248Y12108D01*
X6206Y12150D01*
X6150Y12173D01*
X6091Y12173D01*
X5845Y12173D01*
X5789Y12229D01*
X5789Y13267D01*
X5774Y13343D01*
X5731Y13408D01*
X4978Y14161D01*
X5128Y14161D01*
X5183Y14183D01*
X5225Y14226D01*
X5248Y14281D01*
X5248Y14340D01*
X5248Y14616D01*
X5225Y14671D01*
X5221Y14675D01*
X5225Y14678D01*
X5248Y14733D01*
X5248Y14793D01*
X5248Y15108D01*
X5228Y15157D01*
X5248Y15206D01*
X5248Y15266D01*
X5248Y15581D01*
X5228Y15629D01*
X5248Y15678D01*
X5248Y15738D01*
X5248Y16053D01*
X5228Y16102D01*
X5248Y16151D01*
X5248Y16210D01*
X5248Y16525D01*
X5228Y16574D01*
X5248Y16623D01*
X5248Y16683D01*
X5248Y16998D01*
X5228Y17047D01*
X5248Y17096D01*
X5248Y17155D01*
X5248Y17470D01*
X5225Y17525D01*
X5212Y17539D01*
X5225Y17552D01*
X5248Y17607D01*
X5248Y17667D01*
X5248Y17982D01*
X5225Y18037D01*
X5183Y18079D01*
X5128Y18102D01*
X5068Y18102D01*
X4812Y18102D01*
X4714Y18102D01*
X4656Y18102D01*
X4638Y18120D01*
X4646Y18124D01*
X4703Y18180D01*
X4733Y18253D01*
X4733Y18343D01*
X4683Y18393D01*
X4074Y18393D01*
X4074Y18385D01*
X4054Y18385D01*
X4054Y18393D01*
X4047Y18393D01*
X4047Y18413D01*
X4054Y18413D01*
X4054Y18421D01*
X4074Y18421D01*
X4074Y18413D01*
X4683Y18413D01*
X4733Y18463D01*
X4733Y18501D01*
X5936Y18501D01*
X5537Y18102D01*
X5422Y18102D01*
X5367Y18079D01*
X5325Y18037D01*
X5302Y17982D01*
X5302Y17922D01*
X5302Y17607D01*
X5325Y17552D01*
X5339Y17539D01*
X5325Y17525D01*
X5302Y17470D01*
X5302Y17411D01*
X5302Y17096D01*
X5323Y17047D01*
X5302Y16998D01*
X5302Y16938D01*
X5302Y16623D01*
X5323Y16574D01*
X5302Y16525D01*
X5302Y16466D01*
X5302Y16151D01*
X5323Y16102D01*
X5302Y16053D01*
X5302Y15993D01*
X5302Y15678D01*
X5323Y15629D01*
X5302Y15581D01*
X5302Y15521D01*
X5302Y15206D01*
X5323Y15157D01*
X5302Y15108D01*
X5302Y15048D01*
X5302Y14733D01*
X5323Y14685D01*
X5302Y14636D01*
X5302Y14576D01*
X5302Y14261D01*
X5325Y14206D01*
X5367Y14164D01*
X5422Y14141D01*
X5482Y14141D01*
X5836Y14141D01*
X5892Y14164D01*
X5934Y14206D01*
X5952Y14249D01*
X5992Y14249D01*
X5903Y14117D01*
X5867Y13935D01*
X5867Y13560D01*
X5903Y13378D01*
X6006Y13224D01*
X6049Y13195D01*
X6031Y13151D01*
X6031Y13092D01*
X6031Y12592D01*
X6053Y12537D01*
X6096Y12494D01*
X6151Y12472D01*
X6210Y12472D01*
X6525Y12472D01*
X6581Y12494D01*
X6623Y12537D01*
X6646Y12592D01*
X6646Y12651D01*
X6646Y13151D01*
X6629Y13191D01*
X6678Y13224D01*
X6781Y13378D01*
X6817Y13560D01*
X6817Y13935D01*
X6803Y14005D01*
X6868Y13940D01*
X6867Y13935D01*
X6867Y13560D01*
X6903Y13378D01*
X7006Y13224D01*
X7160Y13121D01*
X7342Y13085D01*
X7524Y13121D01*
X7541Y13132D01*
X7509Y13057D01*
X7509Y13043D01*
X7489Y13043D01*
X7174Y13043D01*
X7119Y13020D01*
X7077Y12978D01*
X7054Y12923D01*
X7054Y12863D01*
X7054Y12509D01*
X7077Y12454D01*
X7119Y12412D01*
X7174Y12389D01*
X7234Y12389D01*
X7549Y12389D01*
X7604Y12412D01*
X7646Y12454D01*
X7669Y12509D01*
X7669Y12555D01*
X7699Y12575D01*
X7791Y12667D01*
X7899Y12667D01*
X8018Y12716D01*
X8038Y12736D01*
X8038Y12592D01*
X8061Y12537D01*
X8104Y12494D01*
X8159Y12472D01*
X8218Y12472D01*
X8533Y12472D01*
X8588Y12494D01*
X8631Y12537D01*
X8653Y12592D01*
X8653Y12651D01*
X8653Y12776D01*
X8713Y12716D01*
X8832Y12667D01*
X8940Y12667D01*
X9023Y12584D01*
X9023Y12509D01*
X9046Y12454D01*
X9088Y12412D01*
X9143Y12389D01*
X9203Y12389D01*
X9518Y12389D01*
X9573Y12412D01*
X9615Y12454D01*
X9638Y12509D01*
X9638Y12569D01*
X9638Y12923D01*
X9615Y12978D01*
X9573Y13020D01*
X9518Y13043D01*
X9458Y13043D01*
X9222Y13043D01*
X9222Y13056D01*
X9198Y13113D01*
X9342Y13085D01*
X9524Y13121D01*
X9678Y13224D01*
X9696Y13252D01*
X9701Y13244D01*
X9740Y13205D01*
X9740Y12168D01*
G54D10*
G36*
X9781Y16997D02*
X9773Y16997D01*
X9773Y16990D01*
X9753Y16990D01*
X9753Y16997D01*
X9436Y16997D01*
X9386Y16947D01*
X9386Y16890D01*
X9386Y16810D01*
X9417Y16737D01*
X9473Y16680D01*
X9546Y16650D01*
X9703Y16650D01*
X9753Y16700D01*
X9753Y16650D01*
X9753Y16650D01*
X9754Y16650D01*
X9753Y16649D01*
X9641Y16537D01*
X9216Y16537D01*
X9053Y16700D01*
X9262Y16700D01*
X9317Y16723D01*
X9359Y16765D01*
X9382Y16820D01*
X9382Y16880D01*
X9382Y17093D01*
X9386Y17094D01*
X9386Y17067D01*
X9436Y17017D01*
X9753Y17017D01*
X9753Y17025D01*
X9773Y17025D01*
X9773Y17017D01*
X9781Y17017D01*
X9781Y16997D01*
X9781Y16997D01*
G37*
G54D28*
X9781Y16997D02*
X9773Y16997D01*
X9773Y16990D01*
X9753Y16990D01*
X9753Y16997D01*
X9436Y16997D01*
X9386Y16947D01*
X9386Y16890D01*
X9386Y16810D01*
X9417Y16737D01*
X9473Y16680D01*
X9546Y16650D01*
X9703Y16650D01*
X9753Y16700D01*
X9753Y16650D01*
X9753Y16650D01*
X9754Y16650D01*
X9753Y16649D01*
X9641Y16537D01*
X9216Y16537D01*
X9053Y16700D01*
X9262Y16700D01*
X9317Y16723D01*
X9359Y16765D01*
X9382Y16820D01*
X9382Y16880D01*
X9382Y17093D01*
X9386Y17094D01*
X9386Y17067D01*
X9436Y17017D01*
X9753Y17017D01*
X9753Y17025D01*
X9773Y17025D01*
X9773Y17017D01*
X9781Y17017D01*
X9781Y16997D01*
G54D10*
G36*
X15116Y14688D02*
X14981Y14688D01*
X14931Y14638D01*
X14931Y14340D01*
X14939Y14340D01*
X14939Y14320D01*
X14931Y14320D01*
X14931Y14312D01*
X14911Y14312D01*
X14911Y14320D01*
X14903Y14320D01*
X14903Y14340D01*
X14911Y14340D01*
X14911Y14638D01*
X14861Y14688D01*
X14704Y14688D01*
X14630Y14657D01*
X14574Y14601D01*
X14544Y14527D01*
X14544Y14448D01*
X14544Y14390D01*
X14594Y14340D01*
X14572Y14340D01*
X14539Y14373D01*
X14539Y14518D01*
X14516Y14573D01*
X14474Y14615D01*
X14419Y14638D01*
X14359Y14638D01*
X14005Y14638D01*
X13950Y14615D01*
X13946Y14610D01*
X13937Y14632D01*
X13845Y14724D01*
X13726Y14773D01*
X13597Y14773D01*
X13540Y14750D01*
X13468Y14821D01*
X13468Y14860D01*
X13493Y14850D01*
X13553Y14850D01*
X13907Y14850D01*
X13962Y14872D01*
X14005Y14915D01*
X14027Y14970D01*
X14027Y15029D01*
X14027Y15257D01*
X14082Y15202D01*
X14082Y14970D01*
X14105Y14915D01*
X14147Y14872D01*
X14202Y14850D01*
X14262Y14850D01*
X14616Y14850D01*
X14671Y14872D01*
X14713Y14915D01*
X14736Y14970D01*
X14736Y15029D01*
X14736Y15344D01*
X14713Y15399D01*
X14671Y15442D01*
X14616Y15464D01*
X14556Y15464D01*
X14383Y15464D01*
X14117Y15731D01*
X14052Y15774D01*
X13976Y15789D01*
X13431Y15789D01*
X13403Y15817D01*
X13348Y15839D01*
X13289Y15839D01*
X12789Y15839D01*
X12733Y15817D01*
X12691Y15774D01*
X12668Y15719D01*
X12668Y15660D01*
X12668Y15345D01*
X12680Y15317D01*
X12637Y15317D01*
X12614Y15312D01*
X12584Y15324D01*
X12455Y15325D01*
X12370Y15289D01*
X12370Y15344D01*
X12347Y15399D01*
X12305Y15442D01*
X12250Y15464D01*
X12190Y15464D01*
X11690Y15464D01*
X11635Y15442D01*
X11593Y15399D01*
X11570Y15344D01*
X11570Y15285D01*
X11570Y15049D01*
X11085Y15534D01*
X11064Y15548D01*
X11342Y15548D01*
X11418Y15563D01*
X11483Y15607D01*
X13063Y17186D01*
X13160Y17121D01*
X13342Y17085D01*
X13524Y17121D01*
X13678Y17224D01*
X13781Y17378D01*
X13817Y17560D01*
X13817Y17935D01*
X13781Y18117D01*
X13678Y18271D01*
X13524Y18374D01*
X13342Y18410D01*
X13160Y18374D01*
X13006Y18271D01*
X12903Y18117D01*
X12867Y17935D01*
X12867Y17560D01*
X12868Y17555D01*
X12803Y17490D01*
X12817Y17560D01*
X12817Y17935D01*
X12781Y18117D01*
X12678Y18271D01*
X12524Y18374D01*
X12342Y18410D01*
X12160Y18374D01*
X12006Y18271D01*
X11903Y18117D01*
X11867Y17935D01*
X11867Y17560D01*
X11868Y17555D01*
X11803Y17490D01*
X11817Y17560D01*
X11817Y17935D01*
X11781Y18117D01*
X11678Y18271D01*
X11524Y18374D01*
X11342Y18410D01*
X11160Y18374D01*
X11006Y18271D01*
X10903Y18117D01*
X10867Y17935D01*
X10867Y17560D01*
X10886Y17467D01*
X10748Y17329D01*
X10781Y17378D01*
X10817Y17560D01*
X10817Y17935D01*
X10781Y18117D01*
X10678Y18271D01*
X10524Y18374D01*
X10342Y18410D01*
X10160Y18374D01*
X10006Y18271D01*
X9903Y18117D01*
X9867Y17935D01*
X9867Y17560D01*
X9903Y17378D01*
X9912Y17365D01*
X9823Y17365D01*
X9773Y17315D01*
X9773Y17365D01*
X9772Y17365D01*
X9781Y17378D01*
X9817Y17560D01*
X9817Y17935D01*
X9781Y18117D01*
X9678Y18271D01*
X9524Y18374D01*
X9342Y18410D01*
X9160Y18374D01*
X9006Y18271D01*
X8903Y18117D01*
X8867Y17935D01*
X8867Y17560D01*
X8872Y17538D01*
X8871Y17536D01*
X8855Y17460D01*
X8855Y17315D01*
X8848Y17315D01*
X8792Y17292D01*
X8750Y17250D01*
X8727Y17195D01*
X8727Y17135D01*
X8727Y17026D01*
X8589Y17164D01*
X8678Y17224D01*
X8781Y17378D01*
X8817Y17560D01*
X8817Y17935D01*
X8781Y18117D01*
X8678Y18271D01*
X8524Y18374D01*
X8342Y18410D01*
X8160Y18374D01*
X8063Y18309D01*
X7870Y18501D01*
X13500Y18501D01*
X15101Y16899D01*
X15053Y16899D01*
X14934Y16850D01*
X14842Y16759D01*
X14793Y16639D01*
X14793Y16510D01*
X14842Y16390D01*
X14933Y16299D01*
X15053Y16249D01*
X15116Y16249D01*
X15116Y14688D01*
X15116Y14688D01*
G37*
G54D28*
X15116Y14688D02*
X14981Y14688D01*
X14931Y14638D01*
X14931Y14340D01*
X14939Y14340D01*
X14939Y14320D01*
X14931Y14320D01*
X14931Y14312D01*
X14911Y14312D01*
X14911Y14320D01*
X14903Y14320D01*
X14903Y14340D01*
X14911Y14340D01*
X14911Y14638D01*
X14861Y14688D01*
X14704Y14688D01*
X14630Y14657D01*
X14574Y14601D01*
X14544Y14527D01*
X14544Y14448D01*
X14544Y14390D01*
X14594Y14340D01*
X14572Y14340D01*
X14539Y14373D01*
X14539Y14518D01*
X14516Y14573D01*
X14474Y14615D01*
X14419Y14638D01*
X14359Y14638D01*
X14005Y14638D01*
X13950Y14615D01*
X13946Y14610D01*
X13937Y14632D01*
X13845Y14724D01*
X13726Y14773D01*
X13597Y14773D01*
X13540Y14750D01*
X13468Y14821D01*
X13468Y14860D01*
X13493Y14850D01*
X13553Y14850D01*
X13907Y14850D01*
X13962Y14872D01*
X14005Y14915D01*
X14027Y14970D01*
X14027Y15029D01*
X14027Y15257D01*
X14082Y15202D01*
X14082Y14970D01*
X14105Y14915D01*
X14147Y14872D01*
X14202Y14850D01*
X14262Y14850D01*
X14616Y14850D01*
X14671Y14872D01*
X14713Y14915D01*
X14736Y14970D01*
X14736Y15029D01*
X14736Y15344D01*
X14713Y15399D01*
X14671Y15442D01*
X14616Y15464D01*
X14556Y15464D01*
X14383Y15464D01*
X14117Y15731D01*
X14052Y15774D01*
X13976Y15789D01*
X13431Y15789D01*
X13403Y15817D01*
X13348Y15839D01*
X13289Y15839D01*
X12789Y15839D01*
X12733Y15817D01*
X12691Y15774D01*
X12668Y15719D01*
X12668Y15660D01*
X12668Y15345D01*
X12680Y15317D01*
X12637Y15317D01*
X12614Y15312D01*
X12584Y15324D01*
X12455Y15325D01*
X12370Y15289D01*
X12370Y15344D01*
X12347Y15399D01*
X12305Y15442D01*
X12250Y15464D01*
X12190Y15464D01*
X11690Y15464D01*
X11635Y15442D01*
X11593Y15399D01*
X11570Y15344D01*
X11570Y15285D01*
X11570Y15049D01*
X11085Y15534D01*
X11064Y15548D01*
X11342Y15548D01*
X11418Y15563D01*
X11483Y15607D01*
X13063Y17186D01*
X13160Y17121D01*
X13342Y17085D01*
X13524Y17121D01*
X13678Y17224D01*
X13781Y17378D01*
X13817Y17560D01*
X13817Y17935D01*
X13781Y18117D01*
X13678Y18271D01*
X13524Y18374D01*
X13342Y18410D01*
X13160Y18374D01*
X13006Y18271D01*
X12903Y18117D01*
X12867Y17935D01*
X12867Y17560D01*
X12868Y17555D01*
X12803Y17490D01*
X12817Y17560D01*
X12817Y17935D01*
X12781Y18117D01*
X12678Y18271D01*
X12524Y18374D01*
X12342Y18410D01*
X12160Y18374D01*
X12006Y18271D01*
X11903Y18117D01*
X11867Y17935D01*
X11867Y17560D01*
X11868Y17555D01*
X11803Y17490D01*
X11817Y17560D01*
X11817Y17935D01*
X11781Y18117D01*
X11678Y18271D01*
X11524Y18374D01*
X11342Y18410D01*
X11160Y18374D01*
X11006Y18271D01*
X10903Y18117D01*
X10867Y17935D01*
X10867Y17560D01*
X10886Y17467D01*
X10748Y17329D01*
X10781Y17378D01*
X10817Y17560D01*
X10817Y17935D01*
X10781Y18117D01*
X10678Y18271D01*
X10524Y18374D01*
X10342Y18410D01*
X10160Y18374D01*
X10006Y18271D01*
X9903Y18117D01*
X9867Y17935D01*
X9867Y17560D01*
X9903Y17378D01*
X9912Y17365D01*
X9823Y17365D01*
X9773Y17315D01*
X9773Y17365D01*
X9772Y17365D01*
X9781Y17378D01*
X9817Y17560D01*
X9817Y17935D01*
X9781Y18117D01*
X9678Y18271D01*
X9524Y18374D01*
X9342Y18410D01*
X9160Y18374D01*
X9006Y18271D01*
X8903Y18117D01*
X8867Y17935D01*
X8867Y17560D01*
X8872Y17538D01*
X8871Y17536D01*
X8855Y17460D01*
X8855Y17315D01*
X8848Y17315D01*
X8792Y17292D01*
X8750Y17250D01*
X8727Y17195D01*
X8727Y17135D01*
X8727Y17026D01*
X8589Y17164D01*
X8678Y17224D01*
X8781Y17378D01*
X8817Y17560D01*
X8817Y17935D01*
X8781Y18117D01*
X8678Y18271D01*
X8524Y18374D01*
X8342Y18410D01*
X8160Y18374D01*
X8063Y18309D01*
X7870Y18501D01*
X13500Y18501D01*
X15101Y16899D01*
X15053Y16899D01*
X14934Y16850D01*
X14842Y16759D01*
X14793Y16639D01*
X14793Y16510D01*
X14842Y16390D01*
X14933Y16299D01*
X15053Y16249D01*
X15116Y16249D01*
X15116Y14688D01*
G54D10*
G36*
X18909Y14379D02*
X18709Y14335D01*
X18541Y14218D01*
X18446Y14070D01*
X18446Y14706D01*
X17202Y14706D01*
X17134Y14637D01*
X16662Y14166D01*
X16653Y14166D01*
X16574Y14166D01*
X16500Y14136D01*
X16480Y14115D01*
X16474Y14115D01*
X16474Y14110D01*
X16444Y14079D01*
X16414Y14006D01*
X16414Y13967D01*
X16464Y13917D01*
X16474Y13917D01*
X16474Y13897D01*
X16464Y13897D01*
X16414Y13847D01*
X16414Y13808D01*
X16444Y13735D01*
X16464Y13715D01*
X16464Y13680D01*
X16464Y13562D01*
X16474Y13537D01*
X16474Y13531D01*
X16301Y13704D01*
X16301Y14090D01*
X16912Y14701D01*
X16972Y14761D01*
X18450Y14761D01*
X18467Y14672D01*
X18570Y14518D01*
X18724Y14415D01*
X18906Y14379D01*
X18909Y14379D01*
X18909Y14379D01*
G37*
G54D28*
X18909Y14379D02*
X18709Y14335D01*
X18541Y14218D01*
X18446Y14070D01*
X18446Y14706D01*
X17202Y14706D01*
X17134Y14637D01*
X16662Y14166D01*
X16653Y14166D01*
X16574Y14166D01*
X16500Y14136D01*
X16480Y14115D01*
X16474Y14115D01*
X16474Y14110D01*
X16444Y14079D01*
X16414Y14006D01*
X16414Y13967D01*
X16464Y13917D01*
X16474Y13917D01*
X16474Y13897D01*
X16464Y13897D01*
X16414Y13847D01*
X16414Y13808D01*
X16444Y13735D01*
X16464Y13715D01*
X16464Y13680D01*
X16464Y13562D01*
X16474Y13537D01*
X16474Y13531D01*
X16301Y13704D01*
X16301Y14090D01*
X16912Y14701D01*
X16972Y14761D01*
X18450Y14761D01*
X18467Y14672D01*
X18570Y14518D01*
X18724Y14415D01*
X18906Y14379D01*
X18909Y14379D01*
G54D10*
G36*
X19505Y17265D02*
X19463Y17293D01*
X19282Y17329D01*
X18906Y17329D01*
X18724Y17293D01*
X18613Y17218D01*
X18591Y17270D01*
X18549Y17312D01*
X18494Y17335D01*
X18434Y17335D01*
X18119Y17335D01*
X18064Y17312D01*
X18022Y17270D01*
X17999Y17214D01*
X17999Y17155D01*
X17999Y16800D01*
X18022Y16745D01*
X18064Y16703D01*
X18119Y16680D01*
X18179Y16680D01*
X18466Y16680D01*
X18467Y16672D01*
X18500Y16623D01*
X18494Y16626D01*
X18434Y16626D01*
X18119Y16626D01*
X18064Y16603D01*
X18022Y16561D01*
X17999Y16506D01*
X17999Y16498D01*
X17877Y16498D01*
X17877Y18759D01*
X17877Y19034D01*
X17827Y19084D01*
X17372Y19084D01*
X17372Y18649D01*
X17422Y18599D01*
X17637Y18599D01*
X17716Y18599D01*
X17790Y18629D01*
X17846Y18685D01*
X17877Y18759D01*
X17877Y16498D01*
X17788Y16498D01*
X17762Y16524D01*
X17707Y16547D01*
X17647Y16547D01*
X17352Y16547D01*
X17352Y18649D01*
X17352Y19084D01*
X16897Y19084D01*
X16847Y19034D01*
X16847Y18759D01*
X16877Y18685D01*
X16933Y18629D01*
X17007Y18599D01*
X17087Y18599D01*
X17302Y18599D01*
X17352Y18649D01*
X17352Y16547D01*
X17017Y16547D01*
X16962Y16524D01*
X16935Y16498D01*
X16814Y16498D01*
X16814Y16790D01*
X16814Y16947D01*
X16814Y17067D01*
X16814Y17224D01*
X16783Y17298D01*
X16727Y17354D01*
X16653Y17385D01*
X16574Y17385D01*
X16516Y17385D01*
X16466Y17335D01*
X16466Y17017D01*
X16764Y17017D01*
X16814Y17067D01*
X16814Y16947D01*
X16764Y16997D01*
X16466Y16997D01*
X16466Y16680D01*
X16516Y16630D01*
X16574Y16630D01*
X16653Y16630D01*
X16727Y16661D01*
X16783Y16717D01*
X16814Y16790D01*
X16814Y16498D01*
X16764Y16498D01*
X16764Y16506D01*
X16741Y16561D01*
X16699Y16603D01*
X16644Y16626D01*
X16584Y16626D01*
X16269Y16626D01*
X16262Y16623D01*
X16262Y16630D01*
X16338Y16630D01*
X16396Y16630D01*
X16446Y16680D01*
X16446Y16997D01*
X16438Y16997D01*
X16438Y17017D01*
X16446Y17017D01*
X16446Y17335D01*
X16396Y17385D01*
X16338Y17385D01*
X16259Y17385D01*
X16185Y17354D01*
X16129Y17298D01*
X16099Y17224D01*
X16099Y17174D01*
X14038Y19235D01*
X13973Y19278D01*
X13897Y19293D01*
X3307Y19293D01*
X3230Y19278D01*
X3166Y19235D01*
X2890Y18959D01*
X2847Y18895D01*
X2832Y18818D01*
X2832Y18592D01*
X2829Y18598D01*
X2787Y18640D01*
X2732Y18663D01*
X2672Y18663D01*
X1735Y18663D01*
X1680Y18640D01*
X1638Y18598D01*
X1634Y18587D01*
X1569Y18544D01*
X1079Y18054D01*
X1036Y17989D01*
X1021Y17913D01*
X1021Y17752D01*
X960Y17793D01*
X778Y17829D01*
X402Y17829D01*
X221Y17793D01*
X179Y17765D01*
X179Y18687D01*
X242Y18534D01*
X423Y18353D01*
X659Y18255D01*
X914Y18255D01*
X1150Y18353D01*
X1331Y18533D01*
X1429Y18769D01*
X1429Y19024D01*
X1331Y19260D01*
X1151Y19441D01*
X997Y19505D01*
X16880Y19505D01*
X16877Y19503D01*
X16847Y19429D01*
X16847Y19154D01*
X16897Y19104D01*
X17352Y19104D01*
X17352Y19112D01*
X17372Y19112D01*
X17372Y19104D01*
X17827Y19104D01*
X17877Y19154D01*
X17877Y19429D01*
X17846Y19503D01*
X17844Y19505D01*
X18687Y19505D01*
X18534Y19442D01*
X18353Y19261D01*
X18255Y19025D01*
X18255Y18770D01*
X18353Y18534D01*
X18533Y18353D01*
X18769Y18255D01*
X19024Y18255D01*
X19260Y18353D01*
X19441Y18533D01*
X19505Y18687D01*
X19505Y17265D01*
X19505Y17265D01*
G37*
G54D28*
X19505Y17265D02*
X19463Y17293D01*
X19282Y17329D01*
X18906Y17329D01*
X18724Y17293D01*
X18613Y17218D01*
X18591Y17270D01*
X18549Y17312D01*
X18494Y17335D01*
X18434Y17335D01*
X18119Y17335D01*
X18064Y17312D01*
X18022Y17270D01*
X17999Y17214D01*
X17999Y17155D01*
X17999Y16800D01*
X18022Y16745D01*
X18064Y16703D01*
X18119Y16680D01*
X18179Y16680D01*
X18466Y16680D01*
X18467Y16672D01*
X18500Y16623D01*
X18494Y16626D01*
X18434Y16626D01*
X18119Y16626D01*
X18064Y16603D01*
X18022Y16561D01*
X17999Y16506D01*
X17999Y16498D01*
X17877Y16498D01*
X17877Y18759D01*
X17877Y19034D01*
X17827Y19084D01*
X17372Y19084D01*
X17372Y18649D01*
X17422Y18599D01*
X17637Y18599D01*
X17716Y18599D01*
X17790Y18629D01*
X17846Y18685D01*
X17877Y18759D01*
X17877Y16498D01*
X17788Y16498D01*
X17762Y16524D01*
X17707Y16547D01*
X17647Y16547D01*
X17352Y16547D01*
X17352Y18649D01*
X17352Y19084D01*
X16897Y19084D01*
X16847Y19034D01*
X16847Y18759D01*
X16877Y18685D01*
X16933Y18629D01*
X17007Y18599D01*
X17087Y18599D01*
X17302Y18599D01*
X17352Y18649D01*
X17352Y16547D01*
X17017Y16547D01*
X16962Y16524D01*
X16935Y16498D01*
X16814Y16498D01*
X16814Y16790D01*
X16814Y16947D01*
X16814Y17067D01*
X16814Y17224D01*
X16783Y17298D01*
X16727Y17354D01*
X16653Y17385D01*
X16574Y17385D01*
X16516Y17385D01*
X16466Y17335D01*
X16466Y17017D01*
X16764Y17017D01*
X16814Y17067D01*
X16814Y16947D01*
X16764Y16997D01*
X16466Y16997D01*
X16466Y16680D01*
X16516Y16630D01*
X16574Y16630D01*
X16653Y16630D01*
X16727Y16661D01*
X16783Y16717D01*
X16814Y16790D01*
X16814Y16498D01*
X16764Y16498D01*
X16764Y16506D01*
X16741Y16561D01*
X16699Y16603D01*
X16644Y16626D01*
X16584Y16626D01*
X16269Y16626D01*
X16262Y16623D01*
X16262Y16630D01*
X16338Y16630D01*
X16396Y16630D01*
X16446Y16680D01*
X16446Y16997D01*
X16438Y16997D01*
X16438Y17017D01*
X16446Y17017D01*
X16446Y17335D01*
X16396Y17385D01*
X16338Y17385D01*
X16259Y17385D01*
X16185Y17354D01*
X16129Y17298D01*
X16099Y17224D01*
X16099Y17174D01*
X14038Y19235D01*
X13973Y19278D01*
X13897Y19293D01*
X3307Y19293D01*
X3230Y19278D01*
X3166Y19235D01*
X2890Y18959D01*
X2847Y18895D01*
X2832Y18818D01*
X2832Y18592D01*
X2829Y18598D01*
X2787Y18640D01*
X2732Y18663D01*
X2672Y18663D01*
X1735Y18663D01*
X1680Y18640D01*
X1638Y18598D01*
X1634Y18587D01*
X1569Y18544D01*
X1079Y18054D01*
X1036Y17989D01*
X1021Y17913D01*
X1021Y17752D01*
X960Y17793D01*
X778Y17829D01*
X402Y17829D01*
X221Y17793D01*
X179Y17765D01*
X179Y18687D01*
X242Y18534D01*
X423Y18353D01*
X659Y18255D01*
X914Y18255D01*
X1150Y18353D01*
X1331Y18533D01*
X1429Y18769D01*
X1429Y19024D01*
X1331Y19260D01*
X1151Y19441D01*
X997Y19505D01*
X16880Y19505D01*
X16877Y19503D01*
X16847Y19429D01*
X16847Y19154D01*
X16897Y19104D01*
X17352Y19104D01*
X17352Y19112D01*
X17372Y19112D01*
X17372Y19104D01*
X17827Y19104D01*
X17877Y19154D01*
X17877Y19429D01*
X17846Y19503D01*
X17844Y19505D01*
X18687Y19505D01*
X18534Y19442D01*
X18353Y19261D01*
X18255Y19025D01*
X18255Y18770D01*
X18353Y18534D01*
X18533Y18353D01*
X18769Y18255D01*
X19024Y18255D01*
X19260Y18353D01*
X19441Y18533D01*
X19505Y18687D01*
X19505Y17265D01*
G54D10*
G36*
X19505Y12021D02*
X19442Y12174D01*
X19261Y12354D01*
X19025Y12452D01*
X18770Y12453D01*
X18534Y12355D01*
X18353Y12175D01*
X18255Y11939D01*
X18255Y11683D01*
X18353Y11447D01*
X18533Y11267D01*
X18687Y11203D01*
X17843Y11203D01*
X17873Y11232D01*
X17923Y11352D01*
X17923Y11481D01*
X17874Y11601D01*
X17782Y11692D01*
X17782Y11692D01*
X17873Y11784D01*
X17923Y11903D01*
X17923Y12032D01*
X17874Y12152D01*
X17782Y12243D01*
X17663Y12293D01*
X17536Y12293D01*
X17527Y12300D01*
X17450Y12315D01*
X17394Y12315D01*
X17394Y12342D01*
X17394Y12460D01*
X17378Y12498D01*
X18446Y12498D01*
X18446Y13637D01*
X18541Y13490D01*
X18709Y13373D01*
X18909Y13329D01*
X19084Y13329D01*
X19084Y13844D01*
X19076Y13844D01*
X19076Y13864D01*
X19084Y13864D01*
X19084Y14379D01*
X19104Y14379D01*
X19104Y13864D01*
X19112Y13864D01*
X19112Y13844D01*
X19104Y13844D01*
X19104Y13329D01*
X19279Y13329D01*
X19479Y13373D01*
X19505Y13391D01*
X19505Y12021D01*
X19505Y12021D01*
G37*
G54D28*
X19505Y12021D02*
X19442Y12174D01*
X19261Y12354D01*
X19025Y12452D01*
X18770Y12453D01*
X18534Y12355D01*
X18353Y12175D01*
X18255Y11939D01*
X18255Y11683D01*
X18353Y11447D01*
X18533Y11267D01*
X18687Y11203D01*
X17843Y11203D01*
X17873Y11232D01*
X17923Y11352D01*
X17923Y11481D01*
X17874Y11601D01*
X17782Y11692D01*
X17782Y11692D01*
X17873Y11784D01*
X17923Y11903D01*
X17923Y12032D01*
X17874Y12152D01*
X17782Y12243D01*
X17663Y12293D01*
X17536Y12293D01*
X17527Y12300D01*
X17450Y12315D01*
X17394Y12315D01*
X17394Y12342D01*
X17394Y12460D01*
X17378Y12498D01*
X18446Y12498D01*
X18446Y13637D01*
X18541Y13490D01*
X18709Y13373D01*
X18909Y13329D01*
X19084Y13329D01*
X19084Y13844D01*
X19076Y13844D01*
X19076Y13864D01*
X19084Y13864D01*
X19084Y14379D01*
X19104Y14379D01*
X19104Y13864D01*
X19112Y13864D01*
X19112Y13844D01*
X19104Y13844D01*
X19104Y13329D01*
X19279Y13329D01*
X19479Y13373D01*
X19505Y13391D01*
X19505Y12021D01*
M02*
