%FSLAX34Y34*%
G04 Gerber Fmt 3.4, Leading zero omitted, Abs format*
G04 (created by PCBNEW (2014-02-28 BZR 4729)-product) date man 03 mar 2014 20:37:32 CET*
%MOIN*%
G01*
G70*
G90*
G04 APERTURE LIST*
%ADD10C,0.005906*%
%ADD11O,0.064961X0.100000*%
%ADD12O,0.100000X0.065000*%
%ADD13O,0.065000X0.100000*%
%ADD14C,0.035000*%
%ADD15C,0.009843*%
%ADD16C,0.010000*%
G04 APERTURE END LIST*
G54D10*
G54D11*
X3500Y3905D03*
X2500Y3905D03*
X1500Y3905D03*
X500Y3905D03*
X-500Y3905D03*
X-1500Y3905D03*
X-2500Y3905D03*
X-3500Y3905D03*
X-3500Y7905D03*
X-2500Y7905D03*
X-1500Y7905D03*
X-500Y7905D03*
X500Y7905D03*
X1500Y7905D03*
X2500Y7905D03*
X3500Y7905D03*
G54D12*
X9251Y7011D03*
X9251Y6011D03*
X9251Y5011D03*
X9251Y4011D03*
G54D13*
X-5000Y590D03*
X-4000Y590D03*
X-3000Y590D03*
X-2000Y590D03*
X-1000Y590D03*
X0Y590D03*
X1000Y590D03*
X2000Y590D03*
X3000Y590D03*
X4000Y590D03*
X5000Y590D03*
G54D12*
X-9251Y7511D03*
X-9251Y6511D03*
X-9251Y5511D03*
X-9251Y4511D03*
X-9251Y3511D03*
G54D14*
X2440Y2244D03*
X3661Y2598D03*
X6023Y5393D03*
X7755Y1574D03*
X7519Y7165D03*
X-6929Y6692D03*
X-4960Y8503D03*
X6614Y4094D03*
X-354Y6850D03*
X4763Y5748D03*
X7322Y4330D03*
X-6102Y1535D03*
X-5708Y3543D03*
X984Y3070D03*
X6102Y2834D03*
X6496Y1968D03*
X-944Y3149D03*
X7755Y2125D03*
X-2007Y3149D03*
X2677Y5157D03*
X4094Y1653D03*
X-8307Y5039D03*
X-8267Y7952D03*
X5275Y6732D03*
X3818Y4606D03*
X1338Y4685D03*
G54D15*
X3307Y2244D02*
X2440Y2244D01*
X3661Y2598D02*
X3307Y2244D01*
X6299Y5118D02*
X6023Y5393D01*
X8582Y4921D02*
X8385Y5118D01*
X8582Y2874D02*
X8582Y4921D01*
X8149Y2440D02*
X8582Y2874D01*
X8149Y1968D02*
X8149Y2440D01*
X7755Y1574D02*
X8149Y1968D01*
X8385Y5118D02*
X6299Y5118D01*
X984Y3110D02*
X984Y3070D01*
X1417Y5512D02*
X1417Y5511D01*
X984Y5078D02*
X984Y3110D01*
X1417Y5511D02*
X984Y5078D01*
X3857Y5512D02*
X1417Y5512D01*
X5748Y3622D02*
X3857Y5512D01*
X5748Y3188D02*
X5748Y3622D01*
X6102Y2834D02*
X5748Y3188D01*
X6496Y1968D02*
X6496Y2913D01*
X6496Y2913D02*
X5944Y3464D01*
X-1023Y3228D02*
X-944Y3149D01*
X-1023Y4606D02*
X-1023Y3228D01*
X78Y5708D02*
X-1023Y4606D01*
X3974Y5708D02*
X78Y5708D01*
X3975Y5709D02*
X3974Y5708D01*
X3975Y5708D02*
X3975Y5709D01*
X5944Y3739D02*
X3975Y5708D01*
X5944Y3464D02*
X5944Y3739D01*
X-2007Y4370D02*
X-2007Y4409D01*
X-2007Y4409D02*
X-472Y5944D01*
X7047Y2125D02*
X7047Y2755D01*
X6140Y3582D02*
X6141Y3582D01*
X6652Y3070D02*
X6140Y3582D01*
X6732Y3070D02*
X6652Y3070D01*
X7047Y2755D02*
X6732Y3070D01*
X3228Y5944D02*
X4094Y5944D01*
X6141Y3897D02*
X6141Y3582D01*
X4094Y5944D02*
X6141Y3897D01*
X3228Y5944D02*
X-472Y5944D01*
X7755Y2125D02*
X7047Y2125D01*
X-2007Y4370D02*
X-2007Y3149D01*
X2836Y5316D02*
X2677Y5157D01*
X3738Y5316D02*
X2836Y5316D01*
X5511Y3543D02*
X3738Y5316D01*
X5511Y2362D02*
X5511Y3543D01*
X5157Y2007D02*
X5511Y2362D01*
X4448Y2007D02*
X5157Y2007D01*
X4094Y1653D02*
X4448Y2007D01*
X-9251Y7511D02*
X-8708Y7511D01*
X-8708Y7511D02*
X-8267Y7952D01*
X-8307Y5039D02*
X-8307Y7913D01*
X-8307Y7913D02*
X-8267Y7952D01*
X5358Y6814D02*
X9251Y6814D01*
X5275Y6732D02*
X5358Y6814D01*
X3818Y4606D02*
X1417Y4606D01*
X1417Y4606D02*
X1338Y4685D01*
G54D10*
G36*
X8364Y2937D02*
X8322Y2895D01*
X7698Y2895D01*
X7698Y3387D01*
X7521Y3564D01*
X6871Y3564D01*
X6871Y4033D01*
X6852Y4033D01*
X7442Y4624D01*
X8364Y4624D01*
X8364Y2937D01*
X8364Y2937D01*
G37*
G54D16*
X8364Y2937D02*
X8322Y2895D01*
X7698Y2895D01*
X7698Y3387D01*
X7521Y3564D01*
X6871Y3564D01*
X6871Y4033D01*
X6852Y4033D01*
X7442Y4624D01*
X8364Y4624D01*
X8364Y2937D01*
G54D10*
G36*
X9662Y5422D02*
X9621Y5450D01*
X9439Y5486D01*
X9064Y5486D01*
X8882Y5450D01*
X8728Y5347D01*
X8625Y5193D01*
X8619Y5165D01*
X8526Y5258D01*
X8462Y5302D01*
X8385Y5317D01*
X6381Y5317D01*
X6348Y5350D01*
X6348Y5458D01*
X6299Y5577D01*
X6207Y5669D01*
X6088Y5718D01*
X5959Y5718D01*
X5839Y5669D01*
X5748Y5578D01*
X5698Y5458D01*
X5698Y5329D01*
X5747Y5209D01*
X5839Y5118D01*
X5958Y5068D01*
X6066Y5068D01*
X6158Y4977D01*
X6222Y4934D01*
X6299Y4918D01*
X8303Y4918D01*
X8358Y4863D01*
X7360Y4863D01*
X7291Y4795D01*
X6769Y4273D01*
X6632Y4273D01*
X6632Y3503D01*
X6632Y3373D01*
X6340Y3664D01*
X6340Y3897D01*
X6325Y3973D01*
X6325Y3973D01*
X6282Y4038D01*
X4235Y6085D01*
X4170Y6128D01*
X4094Y6144D01*
X3974Y6144D01*
X3974Y7717D01*
X3974Y8093D01*
X3938Y8275D01*
X3835Y8429D01*
X3681Y8532D01*
X3500Y8568D01*
X3318Y8532D01*
X3164Y8429D01*
X3061Y8275D01*
X3025Y8093D01*
X3025Y7717D01*
X3061Y7535D01*
X3164Y7381D01*
X3318Y7278D01*
X3500Y7242D01*
X3681Y7278D01*
X3835Y7381D01*
X3938Y7535D01*
X3974Y7717D01*
X3974Y6144D01*
X3228Y6144D01*
X2974Y6144D01*
X2974Y7717D01*
X2974Y8093D01*
X2938Y8275D01*
X2835Y8429D01*
X2681Y8532D01*
X2500Y8568D01*
X2318Y8532D01*
X2164Y8429D01*
X2061Y8275D01*
X2025Y8093D01*
X2025Y7717D01*
X2061Y7535D01*
X2164Y7381D01*
X2318Y7278D01*
X2500Y7242D01*
X2681Y7278D01*
X2835Y7381D01*
X2938Y7535D01*
X2974Y7717D01*
X2974Y6144D01*
X1974Y6144D01*
X1974Y7717D01*
X1974Y8093D01*
X1938Y8275D01*
X1835Y8429D01*
X1681Y8532D01*
X1500Y8568D01*
X1318Y8532D01*
X1164Y8429D01*
X1061Y8275D01*
X1025Y8093D01*
X1025Y7717D01*
X1061Y7535D01*
X1164Y7381D01*
X1318Y7278D01*
X1500Y7242D01*
X1681Y7278D01*
X1835Y7381D01*
X1938Y7535D01*
X1974Y7717D01*
X1974Y6144D01*
X974Y6144D01*
X974Y7717D01*
X974Y8093D01*
X938Y8275D01*
X835Y8429D01*
X681Y8532D01*
X500Y8568D01*
X318Y8532D01*
X164Y8429D01*
X61Y8275D01*
X25Y8093D01*
X25Y7717D01*
X61Y7535D01*
X164Y7381D01*
X318Y7278D01*
X500Y7242D01*
X681Y7278D01*
X835Y7381D01*
X938Y7535D01*
X974Y7717D01*
X974Y6144D01*
X-25Y6144D01*
X-25Y7717D01*
X-25Y8093D01*
X-61Y8275D01*
X-164Y8429D01*
X-318Y8532D01*
X-500Y8568D01*
X-681Y8532D01*
X-835Y8429D01*
X-938Y8275D01*
X-974Y8093D01*
X-974Y7717D01*
X-938Y7535D01*
X-835Y7381D01*
X-681Y7278D01*
X-500Y7242D01*
X-318Y7278D01*
X-164Y7381D01*
X-61Y7535D01*
X-25Y7717D01*
X-25Y6144D01*
X-472Y6144D01*
X-548Y6128D01*
X-613Y6085D01*
X-1025Y5673D01*
X-1025Y7717D01*
X-1025Y8093D01*
X-1061Y8275D01*
X-1164Y8429D01*
X-1318Y8532D01*
X-1500Y8568D01*
X-1681Y8532D01*
X-1835Y8429D01*
X-1938Y8275D01*
X-1974Y8093D01*
X-1974Y7717D01*
X-1938Y7535D01*
X-1835Y7381D01*
X-1681Y7278D01*
X-1500Y7242D01*
X-1318Y7278D01*
X-1164Y7381D01*
X-1061Y7535D01*
X-1025Y7717D01*
X-1025Y5673D01*
X-2025Y4673D01*
X-2025Y7717D01*
X-2025Y8093D01*
X-2061Y8275D01*
X-2164Y8429D01*
X-2318Y8532D01*
X-2500Y8568D01*
X-2681Y8532D01*
X-2835Y8429D01*
X-2938Y8275D01*
X-2974Y8093D01*
X-2974Y7717D01*
X-2938Y7535D01*
X-2835Y7381D01*
X-2681Y7278D01*
X-2500Y7242D01*
X-2318Y7278D01*
X-2164Y7381D01*
X-2061Y7535D01*
X-2025Y7717D01*
X-2025Y4673D01*
X-2148Y4550D01*
X-2191Y4485D01*
X-2198Y4452D01*
X-2318Y4532D01*
X-2500Y4568D01*
X-2681Y4532D01*
X-2835Y4429D01*
X-2938Y4275D01*
X-2974Y4093D01*
X-2974Y3717D01*
X-2938Y3535D01*
X-2835Y3381D01*
X-2681Y3278D01*
X-2500Y3242D01*
X-2318Y3278D01*
X-2301Y3290D01*
X-2332Y3214D01*
X-2332Y3085D01*
X-2283Y2965D01*
X-2192Y2874D01*
X-2072Y2824D01*
X-1943Y2824D01*
X-1824Y2873D01*
X-1732Y2965D01*
X-1682Y3084D01*
X-1682Y3213D01*
X-1720Y3304D01*
X-1681Y3278D01*
X-1500Y3242D01*
X-1318Y3278D01*
X-1222Y3342D01*
X-1222Y3327D01*
X-1269Y3214D01*
X-1269Y3085D01*
X-1220Y2965D01*
X-1129Y2874D01*
X-1009Y2824D01*
X-880Y2824D01*
X-761Y2873D01*
X-669Y2965D01*
X-619Y3084D01*
X-619Y3213D01*
X-643Y3271D01*
X-500Y3242D01*
X-318Y3278D01*
X-164Y3381D01*
X-61Y3535D01*
X-25Y3717D01*
X-25Y4093D01*
X-61Y4275D01*
X-164Y4429D01*
X-318Y4532D01*
X-500Y4568D01*
X-681Y4532D01*
X-824Y4436D01*
X-824Y4523D01*
X161Y5509D01*
X1133Y5509D01*
X843Y5219D01*
X800Y5154D01*
X785Y5078D01*
X785Y4463D01*
X681Y4532D01*
X500Y4568D01*
X318Y4532D01*
X164Y4429D01*
X61Y4275D01*
X25Y4093D01*
X25Y3717D01*
X61Y3535D01*
X164Y3381D01*
X318Y3278D01*
X500Y3242D01*
X681Y3278D01*
X785Y3347D01*
X785Y3331D01*
X708Y3255D01*
X659Y3135D01*
X659Y3006D01*
X708Y2887D01*
X799Y2795D01*
X919Y2745D01*
X1048Y2745D01*
X1168Y2795D01*
X1259Y2886D01*
X1309Y3005D01*
X1309Y3135D01*
X1259Y3254D01*
X1183Y3331D01*
X1183Y3369D01*
X1318Y3278D01*
X1500Y3242D01*
X1681Y3278D01*
X1835Y3381D01*
X1938Y3535D01*
X1974Y3717D01*
X1974Y4093D01*
X1938Y4275D01*
X1850Y4407D01*
X2149Y4407D01*
X2061Y4275D01*
X2025Y4093D01*
X2025Y3717D01*
X2061Y3535D01*
X2164Y3381D01*
X2318Y3278D01*
X2500Y3242D01*
X2681Y3278D01*
X2835Y3381D01*
X2938Y3535D01*
X2974Y3717D01*
X2974Y4093D01*
X2938Y4275D01*
X2850Y4407D01*
X3149Y4407D01*
X3061Y4275D01*
X3025Y4093D01*
X3025Y3717D01*
X3061Y3535D01*
X3164Y3381D01*
X3318Y3278D01*
X3500Y3242D01*
X3681Y3278D01*
X3835Y3381D01*
X3938Y3535D01*
X3974Y3717D01*
X3974Y4093D01*
X3938Y4275D01*
X3923Y4297D01*
X4002Y4330D01*
X4094Y4421D01*
X4143Y4541D01*
X4143Y4629D01*
X5312Y3460D01*
X5312Y2444D01*
X5074Y2207D01*
X4448Y2207D01*
X4372Y2191D01*
X4307Y2148D01*
X4137Y1978D01*
X4030Y1978D01*
X3986Y1960D01*
X3986Y2662D01*
X3937Y2782D01*
X3845Y2873D01*
X3726Y2923D01*
X3597Y2923D01*
X3477Y2874D01*
X3386Y2782D01*
X3336Y2663D01*
X3336Y2555D01*
X3224Y2443D01*
X2701Y2443D01*
X2625Y2519D01*
X2505Y2569D01*
X2376Y2569D01*
X2257Y2519D01*
X2165Y2428D01*
X2116Y2309D01*
X2115Y2179D01*
X2165Y2060D01*
X2256Y1968D01*
X2376Y1919D01*
X2505Y1919D01*
X2624Y1968D01*
X2701Y2044D01*
X3307Y2044D01*
X3383Y2060D01*
X3447Y2103D01*
X3618Y2273D01*
X3725Y2273D01*
X3845Y2322D01*
X3936Y2414D01*
X3986Y2533D01*
X3986Y2662D01*
X3986Y1960D01*
X3910Y1929D01*
X3819Y1837D01*
X3769Y1718D01*
X3769Y1589D01*
X3818Y1469D01*
X3910Y1378D01*
X4029Y1328D01*
X4158Y1328D01*
X4278Y1377D01*
X4369Y1469D01*
X4419Y1588D01*
X4419Y1696D01*
X4531Y1808D01*
X5157Y1808D01*
X5233Y1823D01*
X5298Y1867D01*
X5652Y2221D01*
X5695Y2285D01*
X5711Y2362D01*
X5711Y2944D01*
X5777Y2877D01*
X5777Y2770D01*
X5826Y2650D01*
X5918Y2559D01*
X6037Y2509D01*
X6166Y2509D01*
X6286Y2558D01*
X6296Y2569D01*
X6296Y2228D01*
X6220Y2152D01*
X6171Y2033D01*
X6171Y1904D01*
X6220Y1784D01*
X6311Y1693D01*
X6431Y1643D01*
X6560Y1643D01*
X6679Y1692D01*
X6771Y1784D01*
X6821Y1903D01*
X6821Y2032D01*
X6771Y2152D01*
X6695Y2228D01*
X6695Y2826D01*
X6848Y2673D01*
X6848Y2125D01*
X6863Y2049D01*
X6906Y1985D01*
X6971Y1941D01*
X7047Y1926D01*
X7495Y1926D01*
X7571Y1850D01*
X7572Y1850D01*
X7480Y1759D01*
X7430Y1639D01*
X7430Y1510D01*
X7480Y1390D01*
X7510Y1360D01*
X6496Y1360D01*
X6478Y1357D01*
X6461Y1357D01*
X6159Y1297D01*
X6094Y1270D01*
X5839Y1099D01*
X5790Y1050D01*
X5619Y794D01*
X5592Y730D01*
X5532Y428D01*
X5532Y411D01*
X5529Y393D01*
X5529Y179D01*
X5411Y179D01*
X5438Y221D01*
X5475Y402D01*
X5475Y778D01*
X5438Y960D01*
X5335Y1114D01*
X5181Y1217D01*
X5000Y1253D01*
X4818Y1217D01*
X4664Y1114D01*
X4561Y960D01*
X4525Y778D01*
X4525Y402D01*
X4561Y221D01*
X4588Y179D01*
X4411Y179D01*
X4438Y221D01*
X4475Y402D01*
X4475Y778D01*
X4438Y960D01*
X4335Y1114D01*
X4181Y1217D01*
X4000Y1253D01*
X3818Y1217D01*
X3664Y1114D01*
X3561Y960D01*
X3525Y778D01*
X3525Y402D01*
X3561Y221D01*
X3588Y179D01*
X3411Y179D01*
X3438Y221D01*
X3475Y402D01*
X3475Y778D01*
X3438Y960D01*
X3335Y1114D01*
X3181Y1217D01*
X3000Y1253D01*
X2818Y1217D01*
X2664Y1114D01*
X2561Y960D01*
X2525Y778D01*
X2525Y402D01*
X2561Y221D01*
X2588Y179D01*
X2411Y179D01*
X2438Y221D01*
X2475Y402D01*
X2475Y778D01*
X2438Y960D01*
X2335Y1114D01*
X2181Y1217D01*
X2000Y1253D01*
X1818Y1217D01*
X1664Y1114D01*
X1561Y960D01*
X1525Y778D01*
X1525Y402D01*
X1561Y221D01*
X1588Y179D01*
X1411Y179D01*
X1438Y221D01*
X1475Y402D01*
X1475Y778D01*
X1438Y960D01*
X1335Y1114D01*
X1181Y1217D01*
X1000Y1253D01*
X818Y1217D01*
X664Y1114D01*
X561Y960D01*
X525Y778D01*
X525Y402D01*
X561Y221D01*
X588Y179D01*
X411Y179D01*
X438Y221D01*
X475Y402D01*
X475Y778D01*
X438Y960D01*
X335Y1114D01*
X181Y1217D01*
X0Y1253D01*
X-181Y1217D01*
X-335Y1114D01*
X-438Y960D01*
X-475Y778D01*
X-475Y402D01*
X-438Y221D01*
X-411Y179D01*
X-588Y179D01*
X-561Y221D01*
X-525Y402D01*
X-525Y778D01*
X-561Y960D01*
X-664Y1114D01*
X-818Y1217D01*
X-1000Y1253D01*
X-1181Y1217D01*
X-1335Y1114D01*
X-1438Y960D01*
X-1475Y778D01*
X-1475Y402D01*
X-1438Y221D01*
X-1411Y179D01*
X-1588Y179D01*
X-1561Y221D01*
X-1525Y402D01*
X-1525Y778D01*
X-1561Y960D01*
X-1664Y1114D01*
X-1818Y1217D01*
X-2000Y1253D01*
X-2181Y1217D01*
X-2335Y1114D01*
X-2438Y960D01*
X-2475Y778D01*
X-2475Y775D01*
X-2518Y975D01*
X-2635Y1143D01*
X-2808Y1254D01*
X-2908Y1282D01*
X-2990Y1240D01*
X-2990Y600D01*
X-2982Y600D01*
X-2982Y580D01*
X-2990Y580D01*
X-2990Y572D01*
X-3010Y572D01*
X-3010Y580D01*
X-3010Y600D01*
X-3010Y1240D01*
X-3025Y1248D01*
X-3025Y3717D01*
X-3025Y4093D01*
X-3025Y7717D01*
X-3025Y8093D01*
X-3061Y8275D01*
X-3164Y8429D01*
X-3318Y8532D01*
X-3500Y8568D01*
X-3681Y8532D01*
X-3835Y8429D01*
X-3938Y8275D01*
X-3974Y8093D01*
X-3974Y7717D01*
X-3938Y7535D01*
X-3835Y7381D01*
X-3681Y7278D01*
X-3500Y7242D01*
X-3318Y7278D01*
X-3164Y7381D01*
X-3061Y7535D01*
X-3025Y7717D01*
X-3025Y4093D01*
X-3061Y4275D01*
X-3164Y4429D01*
X-3318Y4532D01*
X-3500Y4568D01*
X-3681Y4532D01*
X-3835Y4429D01*
X-3938Y4275D01*
X-3974Y4093D01*
X-3974Y3717D01*
X-3938Y3535D01*
X-3835Y3381D01*
X-3681Y3278D01*
X-3500Y3242D01*
X-3318Y3278D01*
X-3164Y3381D01*
X-3061Y3535D01*
X-3025Y3717D01*
X-3025Y1248D01*
X-3091Y1282D01*
X-3191Y1254D01*
X-3364Y1143D01*
X-3481Y975D01*
X-3500Y889D01*
X-3518Y975D01*
X-3635Y1143D01*
X-3808Y1254D01*
X-3908Y1282D01*
X-3990Y1240D01*
X-3990Y600D01*
X-3525Y600D01*
X-3475Y600D01*
X-3010Y600D01*
X-3010Y580D01*
X-3475Y580D01*
X-3525Y580D01*
X-3990Y580D01*
X-3990Y572D01*
X-4010Y572D01*
X-4010Y580D01*
X-4525Y580D01*
X-4525Y600D01*
X-4010Y600D01*
X-4010Y1240D01*
X-4091Y1282D01*
X-4191Y1254D01*
X-4364Y1143D01*
X-4481Y975D01*
X-4525Y775D01*
X-4525Y778D01*
X-4561Y960D01*
X-4664Y1114D01*
X-4818Y1217D01*
X-5000Y1253D01*
X-5181Y1217D01*
X-5335Y1114D01*
X-5438Y960D01*
X-5475Y778D01*
X-5475Y402D01*
X-5438Y221D01*
X-5411Y179D01*
X-5529Y179D01*
X-5529Y393D01*
X-5532Y411D01*
X-5532Y428D01*
X-5592Y730D01*
X-5619Y794D01*
X-5790Y1050D01*
X-5839Y1099D01*
X-6094Y1270D01*
X-6159Y1297D01*
X-6461Y1357D01*
X-6478Y1357D01*
X-6496Y1360D01*
X-8845Y1360D01*
X-8691Y1423D01*
X-8511Y1604D01*
X-8413Y1840D01*
X-8413Y2095D01*
X-8510Y2331D01*
X-8560Y2381D01*
X-8560Y3419D01*
X-8602Y3501D01*
X-9241Y3501D01*
X-9241Y2986D01*
X-9066Y2986D01*
X-8866Y3030D01*
X-8698Y3147D01*
X-8588Y3320D01*
X-8560Y3419D01*
X-8560Y2381D01*
X-8690Y2512D01*
X-8926Y2610D01*
X-9182Y2610D01*
X-9418Y2513D01*
X-9599Y2332D01*
X-9662Y2178D01*
X-9662Y3048D01*
X-9637Y3030D01*
X-9436Y2986D01*
X-9261Y2986D01*
X-9261Y3501D01*
X-9269Y3501D01*
X-9269Y3521D01*
X-9261Y3521D01*
X-9261Y4036D01*
X-9241Y4036D01*
X-9241Y3521D01*
X-8602Y3521D01*
X-8560Y3603D01*
X-8588Y3703D01*
X-8698Y3875D01*
X-8866Y3993D01*
X-9066Y4036D01*
X-9064Y4036D01*
X-8882Y4072D01*
X-8728Y4175D01*
X-8625Y4330D01*
X-8589Y4511D01*
X-8625Y4693D01*
X-8728Y4847D01*
X-8882Y4950D01*
X-9064Y4986D01*
X-9439Y4986D01*
X-9621Y4950D01*
X-9662Y4922D01*
X-9662Y5100D01*
X-9621Y5072D01*
X-9439Y5036D01*
X-9064Y5036D01*
X-8882Y5072D01*
X-8728Y5175D01*
X-8625Y5330D01*
X-8589Y5511D01*
X-8625Y5693D01*
X-8728Y5847D01*
X-8882Y5950D01*
X-9064Y5986D01*
X-9439Y5986D01*
X-9621Y5950D01*
X-9662Y5922D01*
X-9662Y6100D01*
X-9621Y6072D01*
X-9439Y6036D01*
X-9064Y6036D01*
X-8882Y6072D01*
X-8728Y6175D01*
X-8625Y6330D01*
X-8589Y6511D01*
X-8625Y6693D01*
X-8728Y6847D01*
X-8882Y6950D01*
X-9064Y6986D01*
X-9439Y6986D01*
X-9621Y6950D01*
X-9662Y6922D01*
X-9662Y7100D01*
X-9621Y7072D01*
X-9439Y7036D01*
X-9064Y7036D01*
X-8882Y7072D01*
X-8728Y7175D01*
X-8625Y7330D01*
X-8624Y7332D01*
X-8567Y7370D01*
X-8506Y7432D01*
X-8506Y5299D01*
X-8582Y5223D01*
X-8632Y5104D01*
X-8632Y4975D01*
X-8582Y4855D01*
X-8491Y4764D01*
X-8372Y4714D01*
X-8242Y4714D01*
X-8123Y4763D01*
X-8031Y4855D01*
X-7982Y4974D01*
X-7982Y5103D01*
X-8031Y5223D01*
X-8107Y5299D01*
X-8107Y7667D01*
X-8083Y7677D01*
X-7992Y7768D01*
X-7942Y7887D01*
X-7942Y8017D01*
X-7992Y8136D01*
X-8083Y8228D01*
X-8202Y8277D01*
X-8332Y8277D01*
X-8451Y8228D01*
X-8543Y8137D01*
X-8592Y8017D01*
X-8592Y7909D01*
X-8698Y7803D01*
X-8728Y7847D01*
X-8882Y7950D01*
X-9064Y7986D01*
X-9439Y7986D01*
X-9621Y7950D01*
X-9662Y7922D01*
X-9662Y8845D01*
X-9599Y8691D01*
X-9419Y8511D01*
X-9183Y8413D01*
X-8927Y8413D01*
X-8691Y8510D01*
X-8511Y8690D01*
X-8413Y8926D01*
X-8413Y9182D01*
X-8510Y9418D01*
X-8690Y9599D01*
X-8844Y9662D01*
X8845Y9662D01*
X8691Y9599D01*
X8511Y9419D01*
X8413Y9183D01*
X8413Y8927D01*
X8510Y8691D01*
X8690Y8511D01*
X8926Y8413D01*
X9182Y8413D01*
X9418Y8510D01*
X9599Y8690D01*
X9662Y8844D01*
X9662Y7422D01*
X9621Y7450D01*
X9439Y7486D01*
X9064Y7486D01*
X8882Y7450D01*
X8728Y7347D01*
X8625Y7193D01*
X8589Y7014D01*
X5444Y7014D01*
X5340Y7057D01*
X5211Y7057D01*
X5091Y7007D01*
X5000Y6916D01*
X4950Y6797D01*
X4950Y6667D01*
X4999Y6548D01*
X5091Y6456D01*
X5210Y6407D01*
X5339Y6407D01*
X5459Y6456D01*
X5550Y6547D01*
X5579Y6615D01*
X8818Y6615D01*
X8882Y6572D01*
X9064Y6536D01*
X9439Y6536D01*
X9621Y6572D01*
X9662Y6600D01*
X9662Y6422D01*
X9621Y6450D01*
X9439Y6486D01*
X9064Y6486D01*
X8882Y6450D01*
X8728Y6347D01*
X8625Y6193D01*
X8589Y6011D01*
X8625Y5830D01*
X8728Y5675D01*
X8882Y5572D01*
X9064Y5536D01*
X9439Y5536D01*
X9621Y5572D01*
X9662Y5600D01*
X9662Y5422D01*
X9662Y5422D01*
G37*
G54D16*
X9662Y5422D02*
X9621Y5450D01*
X9439Y5486D01*
X9064Y5486D01*
X8882Y5450D01*
X8728Y5347D01*
X8625Y5193D01*
X8619Y5165D01*
X8526Y5258D01*
X8462Y5302D01*
X8385Y5317D01*
X6381Y5317D01*
X6348Y5350D01*
X6348Y5458D01*
X6299Y5577D01*
X6207Y5669D01*
X6088Y5718D01*
X5959Y5718D01*
X5839Y5669D01*
X5748Y5578D01*
X5698Y5458D01*
X5698Y5329D01*
X5747Y5209D01*
X5839Y5118D01*
X5958Y5068D01*
X6066Y5068D01*
X6158Y4977D01*
X6222Y4934D01*
X6299Y4918D01*
X8303Y4918D01*
X8358Y4863D01*
X7360Y4863D01*
X7291Y4795D01*
X6769Y4273D01*
X6632Y4273D01*
X6632Y3503D01*
X6632Y3373D01*
X6340Y3664D01*
X6340Y3897D01*
X6325Y3973D01*
X6325Y3973D01*
X6282Y4038D01*
X4235Y6085D01*
X4170Y6128D01*
X4094Y6144D01*
X3974Y6144D01*
X3974Y7717D01*
X3974Y8093D01*
X3938Y8275D01*
X3835Y8429D01*
X3681Y8532D01*
X3500Y8568D01*
X3318Y8532D01*
X3164Y8429D01*
X3061Y8275D01*
X3025Y8093D01*
X3025Y7717D01*
X3061Y7535D01*
X3164Y7381D01*
X3318Y7278D01*
X3500Y7242D01*
X3681Y7278D01*
X3835Y7381D01*
X3938Y7535D01*
X3974Y7717D01*
X3974Y6144D01*
X3228Y6144D01*
X2974Y6144D01*
X2974Y7717D01*
X2974Y8093D01*
X2938Y8275D01*
X2835Y8429D01*
X2681Y8532D01*
X2500Y8568D01*
X2318Y8532D01*
X2164Y8429D01*
X2061Y8275D01*
X2025Y8093D01*
X2025Y7717D01*
X2061Y7535D01*
X2164Y7381D01*
X2318Y7278D01*
X2500Y7242D01*
X2681Y7278D01*
X2835Y7381D01*
X2938Y7535D01*
X2974Y7717D01*
X2974Y6144D01*
X1974Y6144D01*
X1974Y7717D01*
X1974Y8093D01*
X1938Y8275D01*
X1835Y8429D01*
X1681Y8532D01*
X1500Y8568D01*
X1318Y8532D01*
X1164Y8429D01*
X1061Y8275D01*
X1025Y8093D01*
X1025Y7717D01*
X1061Y7535D01*
X1164Y7381D01*
X1318Y7278D01*
X1500Y7242D01*
X1681Y7278D01*
X1835Y7381D01*
X1938Y7535D01*
X1974Y7717D01*
X1974Y6144D01*
X974Y6144D01*
X974Y7717D01*
X974Y8093D01*
X938Y8275D01*
X835Y8429D01*
X681Y8532D01*
X500Y8568D01*
X318Y8532D01*
X164Y8429D01*
X61Y8275D01*
X25Y8093D01*
X25Y7717D01*
X61Y7535D01*
X164Y7381D01*
X318Y7278D01*
X500Y7242D01*
X681Y7278D01*
X835Y7381D01*
X938Y7535D01*
X974Y7717D01*
X974Y6144D01*
X-25Y6144D01*
X-25Y7717D01*
X-25Y8093D01*
X-61Y8275D01*
X-164Y8429D01*
X-318Y8532D01*
X-500Y8568D01*
X-681Y8532D01*
X-835Y8429D01*
X-938Y8275D01*
X-974Y8093D01*
X-974Y7717D01*
X-938Y7535D01*
X-835Y7381D01*
X-681Y7278D01*
X-500Y7242D01*
X-318Y7278D01*
X-164Y7381D01*
X-61Y7535D01*
X-25Y7717D01*
X-25Y6144D01*
X-472Y6144D01*
X-548Y6128D01*
X-613Y6085D01*
X-1025Y5673D01*
X-1025Y7717D01*
X-1025Y8093D01*
X-1061Y8275D01*
X-1164Y8429D01*
X-1318Y8532D01*
X-1500Y8568D01*
X-1681Y8532D01*
X-1835Y8429D01*
X-1938Y8275D01*
X-1974Y8093D01*
X-1974Y7717D01*
X-1938Y7535D01*
X-1835Y7381D01*
X-1681Y7278D01*
X-1500Y7242D01*
X-1318Y7278D01*
X-1164Y7381D01*
X-1061Y7535D01*
X-1025Y7717D01*
X-1025Y5673D01*
X-2025Y4673D01*
X-2025Y7717D01*
X-2025Y8093D01*
X-2061Y8275D01*
X-2164Y8429D01*
X-2318Y8532D01*
X-2500Y8568D01*
X-2681Y8532D01*
X-2835Y8429D01*
X-2938Y8275D01*
X-2974Y8093D01*
X-2974Y7717D01*
X-2938Y7535D01*
X-2835Y7381D01*
X-2681Y7278D01*
X-2500Y7242D01*
X-2318Y7278D01*
X-2164Y7381D01*
X-2061Y7535D01*
X-2025Y7717D01*
X-2025Y4673D01*
X-2148Y4550D01*
X-2191Y4485D01*
X-2198Y4452D01*
X-2318Y4532D01*
X-2500Y4568D01*
X-2681Y4532D01*
X-2835Y4429D01*
X-2938Y4275D01*
X-2974Y4093D01*
X-2974Y3717D01*
X-2938Y3535D01*
X-2835Y3381D01*
X-2681Y3278D01*
X-2500Y3242D01*
X-2318Y3278D01*
X-2301Y3290D01*
X-2332Y3214D01*
X-2332Y3085D01*
X-2283Y2965D01*
X-2192Y2874D01*
X-2072Y2824D01*
X-1943Y2824D01*
X-1824Y2873D01*
X-1732Y2965D01*
X-1682Y3084D01*
X-1682Y3213D01*
X-1720Y3304D01*
X-1681Y3278D01*
X-1500Y3242D01*
X-1318Y3278D01*
X-1222Y3342D01*
X-1222Y3327D01*
X-1269Y3214D01*
X-1269Y3085D01*
X-1220Y2965D01*
X-1129Y2874D01*
X-1009Y2824D01*
X-880Y2824D01*
X-761Y2873D01*
X-669Y2965D01*
X-619Y3084D01*
X-619Y3213D01*
X-643Y3271D01*
X-500Y3242D01*
X-318Y3278D01*
X-164Y3381D01*
X-61Y3535D01*
X-25Y3717D01*
X-25Y4093D01*
X-61Y4275D01*
X-164Y4429D01*
X-318Y4532D01*
X-500Y4568D01*
X-681Y4532D01*
X-824Y4436D01*
X-824Y4523D01*
X161Y5509D01*
X1133Y5509D01*
X843Y5219D01*
X800Y5154D01*
X785Y5078D01*
X785Y4463D01*
X681Y4532D01*
X500Y4568D01*
X318Y4532D01*
X164Y4429D01*
X61Y4275D01*
X25Y4093D01*
X25Y3717D01*
X61Y3535D01*
X164Y3381D01*
X318Y3278D01*
X500Y3242D01*
X681Y3278D01*
X785Y3347D01*
X785Y3331D01*
X708Y3255D01*
X659Y3135D01*
X659Y3006D01*
X708Y2887D01*
X799Y2795D01*
X919Y2745D01*
X1048Y2745D01*
X1168Y2795D01*
X1259Y2886D01*
X1309Y3005D01*
X1309Y3135D01*
X1259Y3254D01*
X1183Y3331D01*
X1183Y3369D01*
X1318Y3278D01*
X1500Y3242D01*
X1681Y3278D01*
X1835Y3381D01*
X1938Y3535D01*
X1974Y3717D01*
X1974Y4093D01*
X1938Y4275D01*
X1850Y4407D01*
X2149Y4407D01*
X2061Y4275D01*
X2025Y4093D01*
X2025Y3717D01*
X2061Y3535D01*
X2164Y3381D01*
X2318Y3278D01*
X2500Y3242D01*
X2681Y3278D01*
X2835Y3381D01*
X2938Y3535D01*
X2974Y3717D01*
X2974Y4093D01*
X2938Y4275D01*
X2850Y4407D01*
X3149Y4407D01*
X3061Y4275D01*
X3025Y4093D01*
X3025Y3717D01*
X3061Y3535D01*
X3164Y3381D01*
X3318Y3278D01*
X3500Y3242D01*
X3681Y3278D01*
X3835Y3381D01*
X3938Y3535D01*
X3974Y3717D01*
X3974Y4093D01*
X3938Y4275D01*
X3923Y4297D01*
X4002Y4330D01*
X4094Y4421D01*
X4143Y4541D01*
X4143Y4629D01*
X5312Y3460D01*
X5312Y2444D01*
X5074Y2207D01*
X4448Y2207D01*
X4372Y2191D01*
X4307Y2148D01*
X4137Y1978D01*
X4030Y1978D01*
X3986Y1960D01*
X3986Y2662D01*
X3937Y2782D01*
X3845Y2873D01*
X3726Y2923D01*
X3597Y2923D01*
X3477Y2874D01*
X3386Y2782D01*
X3336Y2663D01*
X3336Y2555D01*
X3224Y2443D01*
X2701Y2443D01*
X2625Y2519D01*
X2505Y2569D01*
X2376Y2569D01*
X2257Y2519D01*
X2165Y2428D01*
X2116Y2309D01*
X2115Y2179D01*
X2165Y2060D01*
X2256Y1968D01*
X2376Y1919D01*
X2505Y1919D01*
X2624Y1968D01*
X2701Y2044D01*
X3307Y2044D01*
X3383Y2060D01*
X3447Y2103D01*
X3618Y2273D01*
X3725Y2273D01*
X3845Y2322D01*
X3936Y2414D01*
X3986Y2533D01*
X3986Y2662D01*
X3986Y1960D01*
X3910Y1929D01*
X3819Y1837D01*
X3769Y1718D01*
X3769Y1589D01*
X3818Y1469D01*
X3910Y1378D01*
X4029Y1328D01*
X4158Y1328D01*
X4278Y1377D01*
X4369Y1469D01*
X4419Y1588D01*
X4419Y1696D01*
X4531Y1808D01*
X5157Y1808D01*
X5233Y1823D01*
X5298Y1867D01*
X5652Y2221D01*
X5695Y2285D01*
X5711Y2362D01*
X5711Y2944D01*
X5777Y2877D01*
X5777Y2770D01*
X5826Y2650D01*
X5918Y2559D01*
X6037Y2509D01*
X6166Y2509D01*
X6286Y2558D01*
X6296Y2569D01*
X6296Y2228D01*
X6220Y2152D01*
X6171Y2033D01*
X6171Y1904D01*
X6220Y1784D01*
X6311Y1693D01*
X6431Y1643D01*
X6560Y1643D01*
X6679Y1692D01*
X6771Y1784D01*
X6821Y1903D01*
X6821Y2032D01*
X6771Y2152D01*
X6695Y2228D01*
X6695Y2826D01*
X6848Y2673D01*
X6848Y2125D01*
X6863Y2049D01*
X6906Y1985D01*
X6971Y1941D01*
X7047Y1926D01*
X7495Y1926D01*
X7571Y1850D01*
X7572Y1850D01*
X7480Y1759D01*
X7430Y1639D01*
X7430Y1510D01*
X7480Y1390D01*
X7510Y1360D01*
X6496Y1360D01*
X6478Y1357D01*
X6461Y1357D01*
X6159Y1297D01*
X6094Y1270D01*
X5839Y1099D01*
X5790Y1050D01*
X5619Y794D01*
X5592Y730D01*
X5532Y428D01*
X5532Y411D01*
X5529Y393D01*
X5529Y179D01*
X5411Y179D01*
X5438Y221D01*
X5475Y402D01*
X5475Y778D01*
X5438Y960D01*
X5335Y1114D01*
X5181Y1217D01*
X5000Y1253D01*
X4818Y1217D01*
X4664Y1114D01*
X4561Y960D01*
X4525Y778D01*
X4525Y402D01*
X4561Y221D01*
X4588Y179D01*
X4411Y179D01*
X4438Y221D01*
X4475Y402D01*
X4475Y778D01*
X4438Y960D01*
X4335Y1114D01*
X4181Y1217D01*
X4000Y1253D01*
X3818Y1217D01*
X3664Y1114D01*
X3561Y960D01*
X3525Y778D01*
X3525Y402D01*
X3561Y221D01*
X3588Y179D01*
X3411Y179D01*
X3438Y221D01*
X3475Y402D01*
X3475Y778D01*
X3438Y960D01*
X3335Y1114D01*
X3181Y1217D01*
X3000Y1253D01*
X2818Y1217D01*
X2664Y1114D01*
X2561Y960D01*
X2525Y778D01*
X2525Y402D01*
X2561Y221D01*
X2588Y179D01*
X2411Y179D01*
X2438Y221D01*
X2475Y402D01*
X2475Y778D01*
X2438Y960D01*
X2335Y1114D01*
X2181Y1217D01*
X2000Y1253D01*
X1818Y1217D01*
X1664Y1114D01*
X1561Y960D01*
X1525Y778D01*
X1525Y402D01*
X1561Y221D01*
X1588Y179D01*
X1411Y179D01*
X1438Y221D01*
X1475Y402D01*
X1475Y778D01*
X1438Y960D01*
X1335Y1114D01*
X1181Y1217D01*
X1000Y1253D01*
X818Y1217D01*
X664Y1114D01*
X561Y960D01*
X525Y778D01*
X525Y402D01*
X561Y221D01*
X588Y179D01*
X411Y179D01*
X438Y221D01*
X475Y402D01*
X475Y778D01*
X438Y960D01*
X335Y1114D01*
X181Y1217D01*
X0Y1253D01*
X-181Y1217D01*
X-335Y1114D01*
X-438Y960D01*
X-475Y778D01*
X-475Y402D01*
X-438Y221D01*
X-411Y179D01*
X-588Y179D01*
X-561Y221D01*
X-525Y402D01*
X-525Y778D01*
X-561Y960D01*
X-664Y1114D01*
X-818Y1217D01*
X-1000Y1253D01*
X-1181Y1217D01*
X-1335Y1114D01*
X-1438Y960D01*
X-1475Y778D01*
X-1475Y402D01*
X-1438Y221D01*
X-1411Y179D01*
X-1588Y179D01*
X-1561Y221D01*
X-1525Y402D01*
X-1525Y778D01*
X-1561Y960D01*
X-1664Y1114D01*
X-1818Y1217D01*
X-2000Y1253D01*
X-2181Y1217D01*
X-2335Y1114D01*
X-2438Y960D01*
X-2475Y778D01*
X-2475Y775D01*
X-2518Y975D01*
X-2635Y1143D01*
X-2808Y1254D01*
X-2908Y1282D01*
X-2990Y1240D01*
X-2990Y600D01*
X-2982Y600D01*
X-2982Y580D01*
X-2990Y580D01*
X-2990Y572D01*
X-3010Y572D01*
X-3010Y580D01*
X-3010Y600D01*
X-3010Y1240D01*
X-3025Y1248D01*
X-3025Y3717D01*
X-3025Y4093D01*
X-3025Y7717D01*
X-3025Y8093D01*
X-3061Y8275D01*
X-3164Y8429D01*
X-3318Y8532D01*
X-3500Y8568D01*
X-3681Y8532D01*
X-3835Y8429D01*
X-3938Y8275D01*
X-3974Y8093D01*
X-3974Y7717D01*
X-3938Y7535D01*
X-3835Y7381D01*
X-3681Y7278D01*
X-3500Y7242D01*
X-3318Y7278D01*
X-3164Y7381D01*
X-3061Y7535D01*
X-3025Y7717D01*
X-3025Y4093D01*
X-3061Y4275D01*
X-3164Y4429D01*
X-3318Y4532D01*
X-3500Y4568D01*
X-3681Y4532D01*
X-3835Y4429D01*
X-3938Y4275D01*
X-3974Y4093D01*
X-3974Y3717D01*
X-3938Y3535D01*
X-3835Y3381D01*
X-3681Y3278D01*
X-3500Y3242D01*
X-3318Y3278D01*
X-3164Y3381D01*
X-3061Y3535D01*
X-3025Y3717D01*
X-3025Y1248D01*
X-3091Y1282D01*
X-3191Y1254D01*
X-3364Y1143D01*
X-3481Y975D01*
X-3500Y889D01*
X-3518Y975D01*
X-3635Y1143D01*
X-3808Y1254D01*
X-3908Y1282D01*
X-3990Y1240D01*
X-3990Y600D01*
X-3525Y600D01*
X-3475Y600D01*
X-3010Y600D01*
X-3010Y580D01*
X-3475Y580D01*
X-3525Y580D01*
X-3990Y580D01*
X-3990Y572D01*
X-4010Y572D01*
X-4010Y580D01*
X-4525Y580D01*
X-4525Y600D01*
X-4010Y600D01*
X-4010Y1240D01*
X-4091Y1282D01*
X-4191Y1254D01*
X-4364Y1143D01*
X-4481Y975D01*
X-4525Y775D01*
X-4525Y778D01*
X-4561Y960D01*
X-4664Y1114D01*
X-4818Y1217D01*
X-5000Y1253D01*
X-5181Y1217D01*
X-5335Y1114D01*
X-5438Y960D01*
X-5475Y778D01*
X-5475Y402D01*
X-5438Y221D01*
X-5411Y179D01*
X-5529Y179D01*
X-5529Y393D01*
X-5532Y411D01*
X-5532Y428D01*
X-5592Y730D01*
X-5619Y794D01*
X-5790Y1050D01*
X-5839Y1099D01*
X-6094Y1270D01*
X-6159Y1297D01*
X-6461Y1357D01*
X-6478Y1357D01*
X-6496Y1360D01*
X-8845Y1360D01*
X-8691Y1423D01*
X-8511Y1604D01*
X-8413Y1840D01*
X-8413Y2095D01*
X-8510Y2331D01*
X-8560Y2381D01*
X-8560Y3419D01*
X-8602Y3501D01*
X-9241Y3501D01*
X-9241Y2986D01*
X-9066Y2986D01*
X-8866Y3030D01*
X-8698Y3147D01*
X-8588Y3320D01*
X-8560Y3419D01*
X-8560Y2381D01*
X-8690Y2512D01*
X-8926Y2610D01*
X-9182Y2610D01*
X-9418Y2513D01*
X-9599Y2332D01*
X-9662Y2178D01*
X-9662Y3048D01*
X-9637Y3030D01*
X-9436Y2986D01*
X-9261Y2986D01*
X-9261Y3501D01*
X-9269Y3501D01*
X-9269Y3521D01*
X-9261Y3521D01*
X-9261Y4036D01*
X-9241Y4036D01*
X-9241Y3521D01*
X-8602Y3521D01*
X-8560Y3603D01*
X-8588Y3703D01*
X-8698Y3875D01*
X-8866Y3993D01*
X-9066Y4036D01*
X-9064Y4036D01*
X-8882Y4072D01*
X-8728Y4175D01*
X-8625Y4330D01*
X-8589Y4511D01*
X-8625Y4693D01*
X-8728Y4847D01*
X-8882Y4950D01*
X-9064Y4986D01*
X-9439Y4986D01*
X-9621Y4950D01*
X-9662Y4922D01*
X-9662Y5100D01*
X-9621Y5072D01*
X-9439Y5036D01*
X-9064Y5036D01*
X-8882Y5072D01*
X-8728Y5175D01*
X-8625Y5330D01*
X-8589Y5511D01*
X-8625Y5693D01*
X-8728Y5847D01*
X-8882Y5950D01*
X-9064Y5986D01*
X-9439Y5986D01*
X-9621Y5950D01*
X-9662Y5922D01*
X-9662Y6100D01*
X-9621Y6072D01*
X-9439Y6036D01*
X-9064Y6036D01*
X-8882Y6072D01*
X-8728Y6175D01*
X-8625Y6330D01*
X-8589Y6511D01*
X-8625Y6693D01*
X-8728Y6847D01*
X-8882Y6950D01*
X-9064Y6986D01*
X-9439Y6986D01*
X-9621Y6950D01*
X-9662Y6922D01*
X-9662Y7100D01*
X-9621Y7072D01*
X-9439Y7036D01*
X-9064Y7036D01*
X-8882Y7072D01*
X-8728Y7175D01*
X-8625Y7330D01*
X-8624Y7332D01*
X-8567Y7370D01*
X-8506Y7432D01*
X-8506Y5299D01*
X-8582Y5223D01*
X-8632Y5104D01*
X-8632Y4975D01*
X-8582Y4855D01*
X-8491Y4764D01*
X-8372Y4714D01*
X-8242Y4714D01*
X-8123Y4763D01*
X-8031Y4855D01*
X-7982Y4974D01*
X-7982Y5103D01*
X-8031Y5223D01*
X-8107Y5299D01*
X-8107Y7667D01*
X-8083Y7677D01*
X-7992Y7768D01*
X-7942Y7887D01*
X-7942Y8017D01*
X-7992Y8136D01*
X-8083Y8228D01*
X-8202Y8277D01*
X-8332Y8277D01*
X-8451Y8228D01*
X-8543Y8137D01*
X-8592Y8017D01*
X-8592Y7909D01*
X-8698Y7803D01*
X-8728Y7847D01*
X-8882Y7950D01*
X-9064Y7986D01*
X-9439Y7986D01*
X-9621Y7950D01*
X-9662Y7922D01*
X-9662Y8845D01*
X-9599Y8691D01*
X-9419Y8511D01*
X-9183Y8413D01*
X-8927Y8413D01*
X-8691Y8510D01*
X-8511Y8690D01*
X-8413Y8926D01*
X-8413Y9182D01*
X-8510Y9418D01*
X-8690Y9599D01*
X-8844Y9662D01*
X8845Y9662D01*
X8691Y9599D01*
X8511Y9419D01*
X8413Y9183D01*
X8413Y8927D01*
X8510Y8691D01*
X8690Y8511D01*
X8926Y8413D01*
X9182Y8413D01*
X9418Y8510D01*
X9599Y8690D01*
X9662Y8844D01*
X9662Y7422D01*
X9621Y7450D01*
X9439Y7486D01*
X9064Y7486D01*
X8882Y7450D01*
X8728Y7347D01*
X8625Y7193D01*
X8589Y7014D01*
X5444Y7014D01*
X5340Y7057D01*
X5211Y7057D01*
X5091Y7007D01*
X5000Y6916D01*
X4950Y6797D01*
X4950Y6667D01*
X4999Y6548D01*
X5091Y6456D01*
X5210Y6407D01*
X5339Y6407D01*
X5459Y6456D01*
X5550Y6547D01*
X5579Y6615D01*
X8818Y6615D01*
X8882Y6572D01*
X9064Y6536D01*
X9439Y6536D01*
X9621Y6572D01*
X9662Y6600D01*
X9662Y6422D01*
X9621Y6450D01*
X9439Y6486D01*
X9064Y6486D01*
X8882Y6450D01*
X8728Y6347D01*
X8625Y6193D01*
X8589Y6011D01*
X8625Y5830D01*
X8728Y5675D01*
X8882Y5572D01*
X9064Y5536D01*
X9439Y5536D01*
X9621Y5572D01*
X9662Y5600D01*
X9662Y5422D01*
G54D10*
G36*
X9662Y2178D02*
X9599Y2331D01*
X9419Y2512D01*
X9183Y2610D01*
X8927Y2610D01*
X8691Y2513D01*
X8511Y2332D01*
X8413Y2096D01*
X8413Y1841D01*
X8510Y1605D01*
X8690Y1424D01*
X8844Y1360D01*
X8001Y1360D01*
X8031Y1390D01*
X8080Y1509D01*
X8080Y1618D01*
X8290Y1827D01*
X8333Y1892D01*
X8333Y1892D01*
X8348Y1968D01*
X8348Y2358D01*
X8723Y2733D01*
X8766Y2797D01*
X8781Y2874D01*
X8781Y3589D01*
X8866Y3530D01*
X9066Y3486D01*
X9241Y3486D01*
X9241Y4001D01*
X9234Y4001D01*
X9234Y4021D01*
X9241Y4021D01*
X9241Y4536D01*
X9261Y4536D01*
X9261Y4021D01*
X9269Y4021D01*
X9269Y4001D01*
X9261Y4001D01*
X9261Y3486D01*
X9436Y3486D01*
X9637Y3530D01*
X9662Y3548D01*
X9662Y2178D01*
X9662Y2178D01*
G37*
G54D16*
X9662Y2178D02*
X9599Y2331D01*
X9419Y2512D01*
X9183Y2610D01*
X8927Y2610D01*
X8691Y2513D01*
X8511Y2332D01*
X8413Y2096D01*
X8413Y1841D01*
X8510Y1605D01*
X8690Y1424D01*
X8844Y1360D01*
X8001Y1360D01*
X8031Y1390D01*
X8080Y1509D01*
X8080Y1618D01*
X8290Y1827D01*
X8333Y1892D01*
X8333Y1892D01*
X8348Y1968D01*
X8348Y2358D01*
X8723Y2733D01*
X8766Y2797D01*
X8781Y2874D01*
X8781Y3589D01*
X8866Y3530D01*
X9066Y3486D01*
X9241Y3486D01*
X9241Y4001D01*
X9234Y4001D01*
X9234Y4021D01*
X9241Y4021D01*
X9241Y4536D01*
X9261Y4536D01*
X9261Y4021D01*
X9269Y4021D01*
X9269Y4001D01*
X9261Y4001D01*
X9261Y3486D01*
X9436Y3486D01*
X9637Y3530D01*
X9662Y3548D01*
X9662Y2178D01*
M02*
