%FSLAX34Y34*%
G04 Gerber Fmt 3.4, Leading zero omitted, Abs format*
G04 (created by PCBNEW (2014-02-28 BZR 4729)-product) date man 03 mar 2014 20:37:32 CET*
%MOIN*%
G01*
G70*
G90*
G04 APERTURE LIST*
%ADD10C,0.005906*%
%ADD11C,0.011811*%
%ADD12O,0.064961X0.100000*%
%ADD13O,0.100000X0.065000*%
%ADD14O,0.065000X0.100000*%
G04 APERTURE END LIST*
G54D10*
G54D11*
X3624Y8906D02*
X3624Y9496D01*
X3428Y9074D01*
X3231Y9496D01*
X3231Y8906D01*
X2078Y8934D02*
X1993Y8906D01*
X1853Y8906D01*
X1796Y8934D01*
X1768Y8962D01*
X1740Y9018D01*
X1740Y9074D01*
X1768Y9131D01*
X1796Y9159D01*
X1853Y9187D01*
X1965Y9215D01*
X2021Y9243D01*
X2050Y9271D01*
X2078Y9327D01*
X2078Y9384D01*
X2050Y9440D01*
X2021Y9468D01*
X1965Y9496D01*
X1825Y9496D01*
X1740Y9468D01*
X1487Y8906D02*
X1487Y9496D01*
X1262Y9496D01*
X1206Y9468D01*
X1178Y9440D01*
X1150Y9384D01*
X1150Y9299D01*
X1178Y9243D01*
X1206Y9215D01*
X1262Y9187D01*
X1487Y9187D01*
G54D12*
X3500Y3905D03*
X2500Y3905D03*
X1500Y3905D03*
X500Y3905D03*
X-500Y3905D03*
X-1500Y3905D03*
X-2500Y3905D03*
X-3500Y3905D03*
X-3500Y7905D03*
X-2500Y7905D03*
X-1500Y7905D03*
X-500Y7905D03*
X500Y7905D03*
X1500Y7905D03*
X2500Y7905D03*
X3500Y7905D03*
G54D13*
X9251Y7011D03*
X9251Y6011D03*
X9251Y5011D03*
X9251Y4011D03*
G54D14*
X-5000Y590D03*
X-4000Y590D03*
X-3000Y590D03*
X-2000Y590D03*
X-1000Y590D03*
X0Y590D03*
X1000Y590D03*
X2000Y590D03*
X3000Y590D03*
X4000Y590D03*
X5000Y590D03*
G54D13*
X-9251Y7511D03*
X-9251Y6511D03*
X-9251Y5511D03*
X-9251Y4511D03*
X-9251Y3511D03*
M02*
