%FSLAX34Y34*%
G04 Gerber Fmt 3.4, Leading zero omitted, Abs format*
G04 (created by PCBNEW (2013-12-28 BZR 4579)-product) date ons 26 feb 2014 22:49:01 CET*
%MOIN*%
G01*
G70*
G90*
G04 APERTURE LIST*
%ADD10C,0.005906*%
%ADD11O,0.064961X0.100000*%
%ADD12O,0.100000X0.065000*%
%ADD13O,0.065000X0.100000*%
%ADD14C,0.035000*%
%ADD15C,0.009843*%
%ADD16C,0.010000*%
G04 APERTURE END LIST*
G54D10*
G54D11*
X52712Y-45307D03*
X51712Y-45307D03*
X50712Y-45307D03*
X49712Y-45307D03*
X48712Y-45307D03*
X47712Y-45307D03*
X46712Y-45307D03*
X45712Y-45307D03*
X45712Y-41307D03*
X46712Y-41307D03*
X47712Y-41307D03*
X48712Y-41307D03*
X49712Y-41307D03*
X50712Y-41307D03*
X51712Y-41307D03*
X52712Y-41307D03*
G54D12*
X58464Y-42397D03*
X58464Y-43397D03*
X58464Y-44397D03*
X58464Y-45397D03*
G54D13*
X44212Y-48622D03*
X45212Y-48622D03*
X46212Y-48622D03*
X47212Y-48622D03*
X48212Y-48622D03*
X49212Y-48622D03*
X50212Y-48622D03*
X51212Y-48622D03*
X52212Y-48622D03*
X53212Y-48622D03*
X54212Y-48622D03*
G54D14*
X51653Y-46968D03*
X52874Y-46614D03*
X55236Y-43818D03*
X56968Y-47637D03*
X56732Y-42047D03*
X42283Y-42519D03*
X44251Y-40708D03*
X55826Y-45118D03*
X48858Y-42362D03*
X53976Y-43464D03*
X56535Y-44881D03*
X43110Y-47677D03*
X43503Y-45669D03*
X50196Y-46141D03*
X55314Y-46377D03*
X55708Y-47244D03*
X48267Y-46062D03*
X56968Y-47086D03*
X47204Y-46062D03*
X51889Y-44055D03*
X53307Y-47559D03*
X54488Y-42480D03*
X53031Y-44606D03*
X50551Y-44527D03*
G54D15*
X52519Y-46968D02*
X51653Y-46968D01*
X52874Y-46614D02*
X52519Y-46968D01*
X55511Y-44094D02*
X55236Y-43818D01*
X57795Y-44291D02*
X57598Y-44094D01*
X57795Y-46338D02*
X57795Y-44291D01*
X57362Y-46771D02*
X57795Y-46338D01*
X57362Y-47244D02*
X57362Y-46771D01*
X56968Y-47637D02*
X57362Y-47244D01*
X57598Y-44094D02*
X55511Y-44094D01*
X50196Y-46102D02*
X50196Y-46141D01*
X50629Y-43700D02*
X50629Y-43700D01*
X50196Y-44133D02*
X50196Y-46102D01*
X50629Y-43700D02*
X50196Y-44133D01*
X53070Y-43700D02*
X50629Y-43700D01*
X54960Y-45590D02*
X53070Y-43700D01*
X54960Y-46023D02*
X54960Y-45590D01*
X55314Y-46377D02*
X54960Y-46023D01*
X55708Y-47244D02*
X55708Y-46299D01*
X55708Y-46299D02*
X55157Y-45748D01*
X48188Y-45984D02*
X48267Y-46062D01*
X48188Y-44606D02*
X48188Y-45984D01*
X49291Y-43503D02*
X48188Y-44606D01*
X53187Y-43503D02*
X49291Y-43503D01*
X53188Y-43503D02*
X53187Y-43503D01*
X53188Y-43503D02*
X53188Y-43503D01*
X55157Y-45473D02*
X53188Y-43503D01*
X55157Y-45748D02*
X55157Y-45473D01*
X47204Y-44842D02*
X47204Y-44803D01*
X47204Y-44803D02*
X48740Y-43267D01*
X56259Y-47086D02*
X56259Y-46456D01*
X55353Y-45629D02*
X55354Y-45629D01*
X55865Y-46141D02*
X55353Y-45629D01*
X55944Y-46141D02*
X55865Y-46141D01*
X56259Y-46456D02*
X55944Y-46141D01*
X52440Y-43267D02*
X53307Y-43267D01*
X55354Y-45314D02*
X55354Y-45629D01*
X53307Y-43267D02*
X55354Y-45314D01*
X52440Y-43267D02*
X48740Y-43267D01*
X56968Y-47086D02*
X56259Y-47086D01*
X47204Y-44842D02*
X47204Y-46062D01*
X52048Y-43896D02*
X51889Y-44055D01*
X52951Y-43896D02*
X52048Y-43896D01*
X54724Y-45669D02*
X52951Y-43896D01*
X54724Y-46850D02*
X54724Y-45669D01*
X54370Y-47204D02*
X54724Y-46850D01*
X53661Y-47204D02*
X54370Y-47204D01*
X53307Y-47559D02*
X53661Y-47204D01*
X54570Y-42397D02*
X58464Y-42397D01*
X54488Y-42480D02*
X54570Y-42397D01*
X53031Y-44606D02*
X50629Y-44606D01*
X50629Y-44606D02*
X50551Y-44527D01*
G54D10*
G36*
X57419Y-46199D02*
X56911Y-46199D01*
X56911Y-45982D01*
X56576Y-45648D01*
X56084Y-45648D01*
X56084Y-45218D01*
X56084Y-45178D01*
X56104Y-45178D01*
X56694Y-44588D01*
X57419Y-44588D01*
X57419Y-46199D01*
X57419Y-46199D01*
G37*
G54D16*
X57419Y-46199D02*
X56911Y-46199D01*
X56911Y-45982D01*
X56576Y-45648D01*
X56084Y-45648D01*
X56084Y-45218D01*
X56084Y-45178D01*
X56104Y-45178D01*
X56694Y-44588D01*
X57419Y-44588D01*
X57419Y-46199D01*
G54D10*
G36*
X58875Y-43986D02*
X58834Y-43958D01*
X58652Y-43922D01*
X58276Y-43922D01*
X58095Y-43958D01*
X57940Y-44061D01*
X57903Y-44117D01*
X57739Y-43953D01*
X57674Y-43910D01*
X57598Y-43895D01*
X55594Y-43895D01*
X55561Y-43862D01*
X55561Y-43754D01*
X55511Y-43635D01*
X55420Y-43543D01*
X55301Y-43493D01*
X55171Y-43493D01*
X55052Y-43543D01*
X54960Y-43634D01*
X54911Y-43753D01*
X54911Y-43883D01*
X54960Y-44002D01*
X55051Y-44094D01*
X55171Y-44143D01*
X55279Y-44143D01*
X55370Y-44235D01*
X55435Y-44278D01*
X55511Y-44293D01*
X57515Y-44293D01*
X57596Y-44373D01*
X57596Y-44383D01*
X57561Y-44348D01*
X56612Y-44348D01*
X56021Y-44939D01*
X55844Y-44939D01*
X55844Y-45057D01*
X55844Y-45218D01*
X55844Y-45789D01*
X55942Y-45887D01*
X56494Y-45887D01*
X56671Y-46065D01*
X56671Y-46340D01*
X56769Y-46438D01*
X57413Y-46438D01*
X57221Y-46630D01*
X57178Y-46695D01*
X57162Y-46771D01*
X57162Y-46821D01*
X57152Y-46811D01*
X57033Y-46761D01*
X56904Y-46761D01*
X56784Y-46810D01*
X56708Y-46887D01*
X56459Y-46887D01*
X56459Y-46456D01*
X56443Y-46380D01*
X56400Y-46315D01*
X56085Y-46000D01*
X56021Y-45957D01*
X55948Y-45943D01*
X55553Y-45548D01*
X55553Y-45314D01*
X55538Y-45238D01*
X55538Y-45238D01*
X55495Y-45174D01*
X53447Y-43126D01*
X53383Y-43083D01*
X53307Y-43068D01*
X53187Y-43068D01*
X53187Y-41495D01*
X53187Y-41119D01*
X53151Y-40937D01*
X53048Y-40783D01*
X52894Y-40680D01*
X52712Y-40644D01*
X52530Y-40680D01*
X52376Y-40783D01*
X52273Y-40937D01*
X52237Y-41119D01*
X52237Y-41495D01*
X52273Y-41676D01*
X52376Y-41830D01*
X52530Y-41933D01*
X52712Y-41969D01*
X52894Y-41933D01*
X53048Y-41830D01*
X53151Y-41676D01*
X53187Y-41495D01*
X53187Y-43068D01*
X52440Y-43068D01*
X52187Y-43068D01*
X52187Y-41495D01*
X52187Y-41119D01*
X52151Y-40937D01*
X52048Y-40783D01*
X51894Y-40680D01*
X51712Y-40644D01*
X51530Y-40680D01*
X51376Y-40783D01*
X51273Y-40937D01*
X51237Y-41119D01*
X51237Y-41495D01*
X51273Y-41676D01*
X51376Y-41830D01*
X51530Y-41933D01*
X51712Y-41969D01*
X51894Y-41933D01*
X52048Y-41830D01*
X52151Y-41676D01*
X52187Y-41495D01*
X52187Y-43068D01*
X51187Y-43068D01*
X51187Y-41495D01*
X51187Y-41119D01*
X51151Y-40937D01*
X51048Y-40783D01*
X50894Y-40680D01*
X50712Y-40644D01*
X50530Y-40680D01*
X50376Y-40783D01*
X50273Y-40937D01*
X50237Y-41119D01*
X50237Y-41495D01*
X50273Y-41676D01*
X50376Y-41830D01*
X50530Y-41933D01*
X50712Y-41969D01*
X50894Y-41933D01*
X51048Y-41830D01*
X51151Y-41676D01*
X51187Y-41495D01*
X51187Y-43068D01*
X50187Y-43068D01*
X50187Y-41495D01*
X50187Y-41119D01*
X50151Y-40937D01*
X50048Y-40783D01*
X49894Y-40680D01*
X49712Y-40644D01*
X49530Y-40680D01*
X49376Y-40783D01*
X49273Y-40937D01*
X49237Y-41119D01*
X49237Y-41495D01*
X49273Y-41676D01*
X49376Y-41830D01*
X49530Y-41933D01*
X49712Y-41969D01*
X49894Y-41933D01*
X50048Y-41830D01*
X50151Y-41676D01*
X50187Y-41495D01*
X50187Y-43068D01*
X49187Y-43068D01*
X49187Y-41495D01*
X49187Y-41119D01*
X49151Y-40937D01*
X49048Y-40783D01*
X48894Y-40680D01*
X48712Y-40644D01*
X48530Y-40680D01*
X48376Y-40783D01*
X48273Y-40937D01*
X48237Y-41119D01*
X48237Y-41495D01*
X48273Y-41676D01*
X48376Y-41830D01*
X48530Y-41933D01*
X48712Y-41969D01*
X48894Y-41933D01*
X49048Y-41830D01*
X49151Y-41676D01*
X49187Y-41495D01*
X49187Y-43068D01*
X48740Y-43068D01*
X48663Y-43083D01*
X48599Y-43126D01*
X48187Y-43538D01*
X48187Y-41495D01*
X48187Y-41119D01*
X48151Y-40937D01*
X48048Y-40783D01*
X47894Y-40680D01*
X47712Y-40644D01*
X47530Y-40680D01*
X47376Y-40783D01*
X47273Y-40937D01*
X47237Y-41119D01*
X47237Y-41495D01*
X47273Y-41676D01*
X47376Y-41830D01*
X47530Y-41933D01*
X47712Y-41969D01*
X47894Y-41933D01*
X48048Y-41830D01*
X48151Y-41676D01*
X48187Y-41495D01*
X48187Y-43538D01*
X47187Y-44538D01*
X47187Y-41495D01*
X47187Y-41119D01*
X47151Y-40937D01*
X47048Y-40783D01*
X46894Y-40680D01*
X46712Y-40644D01*
X46530Y-40680D01*
X46376Y-40783D01*
X46273Y-40937D01*
X46237Y-41119D01*
X46237Y-41495D01*
X46273Y-41676D01*
X46376Y-41830D01*
X46530Y-41933D01*
X46712Y-41969D01*
X46894Y-41933D01*
X47048Y-41830D01*
X47151Y-41676D01*
X47187Y-41495D01*
X47187Y-44538D01*
X47063Y-44662D01*
X47020Y-44726D01*
X47013Y-44760D01*
X46894Y-44680D01*
X46712Y-44644D01*
X46530Y-44680D01*
X46376Y-44783D01*
X46273Y-44937D01*
X46237Y-45119D01*
X46237Y-45495D01*
X46273Y-45676D01*
X46376Y-45830D01*
X46530Y-45933D01*
X46712Y-45969D01*
X46894Y-45933D01*
X46911Y-45922D01*
X46879Y-45998D01*
X46879Y-46127D01*
X46929Y-46246D01*
X47020Y-46338D01*
X47139Y-46387D01*
X47269Y-46388D01*
X47388Y-46338D01*
X47480Y-46247D01*
X47529Y-46127D01*
X47529Y-45998D01*
X47492Y-45907D01*
X47530Y-45933D01*
X47712Y-45969D01*
X47894Y-45933D01*
X47989Y-45869D01*
X47989Y-45884D01*
X47942Y-45998D01*
X47942Y-46127D01*
X47992Y-46246D01*
X48083Y-46338D01*
X48202Y-46387D01*
X48332Y-46388D01*
X48451Y-46338D01*
X48543Y-46247D01*
X48592Y-46127D01*
X48592Y-45998D01*
X48569Y-45941D01*
X48712Y-45969D01*
X48894Y-45933D01*
X49048Y-45830D01*
X49151Y-45676D01*
X49187Y-45495D01*
X49187Y-45119D01*
X49151Y-44937D01*
X49048Y-44783D01*
X48894Y-44680D01*
X48712Y-44644D01*
X48530Y-44680D01*
X48388Y-44775D01*
X48388Y-44688D01*
X49373Y-43703D01*
X50345Y-43703D01*
X50055Y-43992D01*
X50012Y-44057D01*
X49997Y-44133D01*
X49997Y-44749D01*
X49894Y-44680D01*
X49712Y-44644D01*
X49530Y-44680D01*
X49376Y-44783D01*
X49273Y-44937D01*
X49237Y-45119D01*
X49237Y-45495D01*
X49273Y-45676D01*
X49376Y-45830D01*
X49530Y-45933D01*
X49712Y-45969D01*
X49894Y-45933D01*
X49997Y-45864D01*
X49997Y-45881D01*
X49921Y-45957D01*
X49871Y-46076D01*
X49871Y-46206D01*
X49921Y-46325D01*
X50012Y-46417D01*
X50131Y-46466D01*
X50261Y-46466D01*
X50380Y-46417D01*
X50472Y-46326D01*
X50521Y-46206D01*
X50521Y-46077D01*
X50472Y-45957D01*
X50396Y-45881D01*
X50396Y-45843D01*
X50530Y-45933D01*
X50712Y-45969D01*
X50894Y-45933D01*
X51048Y-45830D01*
X51151Y-45676D01*
X51187Y-45495D01*
X51187Y-45119D01*
X51151Y-44937D01*
X51063Y-44805D01*
X51362Y-44805D01*
X51273Y-44937D01*
X51237Y-45119D01*
X51237Y-45495D01*
X51273Y-45676D01*
X51376Y-45830D01*
X51530Y-45933D01*
X51712Y-45969D01*
X51894Y-45933D01*
X52048Y-45830D01*
X52151Y-45676D01*
X52187Y-45495D01*
X52187Y-45119D01*
X52151Y-44937D01*
X52063Y-44805D01*
X52362Y-44805D01*
X52273Y-44937D01*
X52237Y-45119D01*
X52237Y-45495D01*
X52273Y-45676D01*
X52376Y-45830D01*
X52530Y-45933D01*
X52712Y-45969D01*
X52894Y-45933D01*
X53048Y-45830D01*
X53151Y-45676D01*
X53187Y-45495D01*
X53187Y-45119D01*
X53151Y-44937D01*
X53136Y-44914D01*
X53215Y-44881D01*
X53306Y-44790D01*
X53356Y-44671D01*
X53356Y-44583D01*
X54525Y-45751D01*
X54525Y-46767D01*
X54287Y-47005D01*
X53661Y-47005D01*
X53585Y-47020D01*
X53520Y-47063D01*
X53350Y-47234D01*
X53242Y-47233D01*
X53199Y-47252D01*
X53199Y-46549D01*
X53149Y-46430D01*
X53058Y-46338D01*
X52938Y-46289D01*
X52809Y-46289D01*
X52690Y-46338D01*
X52598Y-46429D01*
X52549Y-46549D01*
X52548Y-46657D01*
X52437Y-46769D01*
X51913Y-46769D01*
X51837Y-46693D01*
X51718Y-46643D01*
X51589Y-46643D01*
X51469Y-46692D01*
X51378Y-46784D01*
X51328Y-46903D01*
X51328Y-47032D01*
X51377Y-47152D01*
X51469Y-47243D01*
X51588Y-47293D01*
X51717Y-47293D01*
X51837Y-47244D01*
X51914Y-47167D01*
X52519Y-47167D01*
X52595Y-47152D01*
X52660Y-47109D01*
X52830Y-46939D01*
X52938Y-46939D01*
X53057Y-46889D01*
X53149Y-46798D01*
X53198Y-46679D01*
X53199Y-46549D01*
X53199Y-47252D01*
X53123Y-47283D01*
X53031Y-47374D01*
X52982Y-47494D01*
X52982Y-47623D01*
X53031Y-47742D01*
X53122Y-47834D01*
X53242Y-47883D01*
X53371Y-47884D01*
X53490Y-47834D01*
X53582Y-47743D01*
X53632Y-47623D01*
X53632Y-47515D01*
X53743Y-47403D01*
X54370Y-47403D01*
X54446Y-47388D01*
X54510Y-47345D01*
X54865Y-46991D01*
X54908Y-46926D01*
X54923Y-46850D01*
X54923Y-46268D01*
X54989Y-46334D01*
X54989Y-46442D01*
X55039Y-46561D01*
X55130Y-46653D01*
X55250Y-46702D01*
X55379Y-46703D01*
X55498Y-46653D01*
X55509Y-46643D01*
X55509Y-46983D01*
X55433Y-47059D01*
X55383Y-47179D01*
X55383Y-47308D01*
X55432Y-47427D01*
X55524Y-47519D01*
X55643Y-47569D01*
X55773Y-47569D01*
X55892Y-47519D01*
X55984Y-47428D01*
X56033Y-47309D01*
X56033Y-47179D01*
X55984Y-47060D01*
X55907Y-46983D01*
X55907Y-46386D01*
X56060Y-46539D01*
X56060Y-47086D01*
X56075Y-47162D01*
X56118Y-47227D01*
X56183Y-47270D01*
X56259Y-47285D01*
X56708Y-47285D01*
X56784Y-47361D01*
X56784Y-47362D01*
X56693Y-47453D01*
X56643Y-47572D01*
X56643Y-47702D01*
X56692Y-47821D01*
X56723Y-47851D01*
X55708Y-47851D01*
X55691Y-47855D01*
X55673Y-47855D01*
X55372Y-47915D01*
X55307Y-47942D01*
X55052Y-48112D01*
X55002Y-48162D01*
X54831Y-48417D01*
X54805Y-48482D01*
X54745Y-48783D01*
X54745Y-48801D01*
X54741Y-48818D01*
X54741Y-49033D01*
X54623Y-49033D01*
X54651Y-48991D01*
X54687Y-48809D01*
X54687Y-48434D01*
X54651Y-48252D01*
X54548Y-48098D01*
X54394Y-47995D01*
X54212Y-47959D01*
X54030Y-47995D01*
X53876Y-48098D01*
X53773Y-48252D01*
X53737Y-48434D01*
X53737Y-48809D01*
X53773Y-48991D01*
X53801Y-49033D01*
X53623Y-49033D01*
X53651Y-48991D01*
X53687Y-48809D01*
X53687Y-48434D01*
X53651Y-48252D01*
X53548Y-48098D01*
X53394Y-47995D01*
X53212Y-47959D01*
X53030Y-47995D01*
X52876Y-48098D01*
X52773Y-48252D01*
X52737Y-48434D01*
X52737Y-48809D01*
X52773Y-48991D01*
X52801Y-49033D01*
X52623Y-49033D01*
X52651Y-48991D01*
X52687Y-48809D01*
X52687Y-48434D01*
X52651Y-48252D01*
X52548Y-48098D01*
X52394Y-47995D01*
X52212Y-47959D01*
X52030Y-47995D01*
X51876Y-48098D01*
X51773Y-48252D01*
X51737Y-48434D01*
X51737Y-48809D01*
X51773Y-48991D01*
X51801Y-49033D01*
X51623Y-49033D01*
X51651Y-48991D01*
X51687Y-48809D01*
X51687Y-48434D01*
X51651Y-48252D01*
X51548Y-48098D01*
X51394Y-47995D01*
X51212Y-47959D01*
X51030Y-47995D01*
X50876Y-48098D01*
X50773Y-48252D01*
X50737Y-48434D01*
X50737Y-48809D01*
X50773Y-48991D01*
X50801Y-49033D01*
X50623Y-49033D01*
X50651Y-48991D01*
X50687Y-48809D01*
X50687Y-48434D01*
X50651Y-48252D01*
X50548Y-48098D01*
X50394Y-47995D01*
X50212Y-47959D01*
X50030Y-47995D01*
X49876Y-48098D01*
X49773Y-48252D01*
X49737Y-48434D01*
X49737Y-48809D01*
X49773Y-48991D01*
X49801Y-49033D01*
X49623Y-49033D01*
X49651Y-48991D01*
X49687Y-48809D01*
X49687Y-48434D01*
X49651Y-48252D01*
X49548Y-48098D01*
X49394Y-47995D01*
X49212Y-47959D01*
X49030Y-47995D01*
X48876Y-48098D01*
X48773Y-48252D01*
X48737Y-48434D01*
X48737Y-48809D01*
X48773Y-48991D01*
X48801Y-49033D01*
X48623Y-49033D01*
X48651Y-48991D01*
X48687Y-48809D01*
X48687Y-48434D01*
X48651Y-48252D01*
X48548Y-48098D01*
X48394Y-47995D01*
X48212Y-47959D01*
X48030Y-47995D01*
X47876Y-48098D01*
X47773Y-48252D01*
X47737Y-48434D01*
X47737Y-48809D01*
X47773Y-48991D01*
X47801Y-49033D01*
X47623Y-49033D01*
X47651Y-48991D01*
X47687Y-48809D01*
X47687Y-48434D01*
X47651Y-48252D01*
X47548Y-48098D01*
X47394Y-47995D01*
X47212Y-47959D01*
X47030Y-47995D01*
X46876Y-48098D01*
X46773Y-48252D01*
X46737Y-48434D01*
X46737Y-48437D01*
X46693Y-48236D01*
X46576Y-48068D01*
X46404Y-47958D01*
X46304Y-47930D01*
X46222Y-47972D01*
X46222Y-48612D01*
X46230Y-48612D01*
X46230Y-48632D01*
X46222Y-48632D01*
X46222Y-48639D01*
X46202Y-48639D01*
X46202Y-48632D01*
X46202Y-48612D01*
X46202Y-47972D01*
X46187Y-47964D01*
X46187Y-45495D01*
X46187Y-45119D01*
X46187Y-41495D01*
X46187Y-41119D01*
X46151Y-40937D01*
X46048Y-40783D01*
X45894Y-40680D01*
X45712Y-40644D01*
X45530Y-40680D01*
X45376Y-40783D01*
X45273Y-40937D01*
X45237Y-41119D01*
X45237Y-41495D01*
X45273Y-41676D01*
X45376Y-41830D01*
X45530Y-41933D01*
X45712Y-41969D01*
X45894Y-41933D01*
X46048Y-41830D01*
X46151Y-41676D01*
X46187Y-41495D01*
X46187Y-45119D01*
X46151Y-44937D01*
X46048Y-44783D01*
X45894Y-44680D01*
X45712Y-44644D01*
X45530Y-44680D01*
X45376Y-44783D01*
X45273Y-44937D01*
X45237Y-45119D01*
X45237Y-45495D01*
X45273Y-45676D01*
X45376Y-45830D01*
X45530Y-45933D01*
X45712Y-45969D01*
X45894Y-45933D01*
X46048Y-45830D01*
X46151Y-45676D01*
X46187Y-45495D01*
X46187Y-47964D01*
X46120Y-47930D01*
X46020Y-47958D01*
X45848Y-48068D01*
X45731Y-48236D01*
X45712Y-48322D01*
X45693Y-48236D01*
X45576Y-48068D01*
X45404Y-47958D01*
X45304Y-47930D01*
X45222Y-47972D01*
X45222Y-48612D01*
X45687Y-48612D01*
X45737Y-48612D01*
X46202Y-48612D01*
X46202Y-48632D01*
X45737Y-48632D01*
X45687Y-48632D01*
X45222Y-48632D01*
X45222Y-48639D01*
X45202Y-48639D01*
X45202Y-48632D01*
X44687Y-48632D01*
X44687Y-48612D01*
X45202Y-48612D01*
X45202Y-47972D01*
X45120Y-47930D01*
X45020Y-47958D01*
X44848Y-48068D01*
X44731Y-48236D01*
X44687Y-48437D01*
X44687Y-48434D01*
X44651Y-48252D01*
X44548Y-48098D01*
X44394Y-47995D01*
X44212Y-47959D01*
X44030Y-47995D01*
X43876Y-48098D01*
X43773Y-48252D01*
X43737Y-48434D01*
X43737Y-48809D01*
X43773Y-48991D01*
X43801Y-49033D01*
X43683Y-49033D01*
X43683Y-48818D01*
X43680Y-48801D01*
X43680Y-48783D01*
X43620Y-48482D01*
X43593Y-48417D01*
X43422Y-48162D01*
X43373Y-48112D01*
X43117Y-47942D01*
X43052Y-47915D01*
X42751Y-47855D01*
X42733Y-47855D01*
X42716Y-47851D01*
X40367Y-47851D01*
X40520Y-47788D01*
X40701Y-47608D01*
X40799Y-47372D01*
X40799Y-47116D01*
X40702Y-46880D01*
X40521Y-46700D01*
X40285Y-46602D01*
X40030Y-46601D01*
X39794Y-46699D01*
X39613Y-46879D01*
X39549Y-47033D01*
X39549Y-40367D01*
X39612Y-40520D01*
X39793Y-40701D01*
X40029Y-40799D01*
X40284Y-40799D01*
X40520Y-40702D01*
X40701Y-40521D01*
X40799Y-40285D01*
X40799Y-40030D01*
X40702Y-39794D01*
X40521Y-39613D01*
X40367Y-39549D01*
X58057Y-39549D01*
X57904Y-39612D01*
X57723Y-39793D01*
X57625Y-40029D01*
X57625Y-40284D01*
X57723Y-40520D01*
X57903Y-40701D01*
X58139Y-40799D01*
X58394Y-40799D01*
X58630Y-40702D01*
X58811Y-40521D01*
X58875Y-40367D01*
X58875Y-41986D01*
X58834Y-41958D01*
X58652Y-41922D01*
X58276Y-41922D01*
X58095Y-41958D01*
X57940Y-42061D01*
X57849Y-42198D01*
X54656Y-42198D01*
X54553Y-42155D01*
X54423Y-42155D01*
X54304Y-42204D01*
X54212Y-42295D01*
X54163Y-42415D01*
X54163Y-42544D01*
X54212Y-42664D01*
X54303Y-42755D01*
X54423Y-42805D01*
X54552Y-42805D01*
X54672Y-42755D01*
X54763Y-42664D01*
X54791Y-42596D01*
X57849Y-42596D01*
X57940Y-42733D01*
X58095Y-42836D01*
X58276Y-42872D01*
X58652Y-42872D01*
X58834Y-42836D01*
X58875Y-42808D01*
X58875Y-42986D01*
X58834Y-42958D01*
X58652Y-42922D01*
X58276Y-42922D01*
X58095Y-42958D01*
X57940Y-43061D01*
X57837Y-43215D01*
X57801Y-43397D01*
X57837Y-43579D01*
X57940Y-43733D01*
X58095Y-43836D01*
X58276Y-43872D01*
X58652Y-43872D01*
X58834Y-43836D01*
X58875Y-43808D01*
X58875Y-43986D01*
X58875Y-43986D01*
G37*
G54D16*
X58875Y-43986D02*
X58834Y-43958D01*
X58652Y-43922D01*
X58276Y-43922D01*
X58095Y-43958D01*
X57940Y-44061D01*
X57903Y-44117D01*
X57739Y-43953D01*
X57674Y-43910D01*
X57598Y-43895D01*
X55594Y-43895D01*
X55561Y-43862D01*
X55561Y-43754D01*
X55511Y-43635D01*
X55420Y-43543D01*
X55301Y-43493D01*
X55171Y-43493D01*
X55052Y-43543D01*
X54960Y-43634D01*
X54911Y-43753D01*
X54911Y-43883D01*
X54960Y-44002D01*
X55051Y-44094D01*
X55171Y-44143D01*
X55279Y-44143D01*
X55370Y-44235D01*
X55435Y-44278D01*
X55511Y-44293D01*
X57515Y-44293D01*
X57596Y-44373D01*
X57596Y-44383D01*
X57561Y-44348D01*
X56612Y-44348D01*
X56021Y-44939D01*
X55844Y-44939D01*
X55844Y-45057D01*
X55844Y-45218D01*
X55844Y-45789D01*
X55942Y-45887D01*
X56494Y-45887D01*
X56671Y-46065D01*
X56671Y-46340D01*
X56769Y-46438D01*
X57413Y-46438D01*
X57221Y-46630D01*
X57178Y-46695D01*
X57162Y-46771D01*
X57162Y-46821D01*
X57152Y-46811D01*
X57033Y-46761D01*
X56904Y-46761D01*
X56784Y-46810D01*
X56708Y-46887D01*
X56459Y-46887D01*
X56459Y-46456D01*
X56443Y-46380D01*
X56400Y-46315D01*
X56085Y-46000D01*
X56021Y-45957D01*
X55948Y-45943D01*
X55553Y-45548D01*
X55553Y-45314D01*
X55538Y-45238D01*
X55538Y-45238D01*
X55495Y-45174D01*
X53447Y-43126D01*
X53383Y-43083D01*
X53307Y-43068D01*
X53187Y-43068D01*
X53187Y-41495D01*
X53187Y-41119D01*
X53151Y-40937D01*
X53048Y-40783D01*
X52894Y-40680D01*
X52712Y-40644D01*
X52530Y-40680D01*
X52376Y-40783D01*
X52273Y-40937D01*
X52237Y-41119D01*
X52237Y-41495D01*
X52273Y-41676D01*
X52376Y-41830D01*
X52530Y-41933D01*
X52712Y-41969D01*
X52894Y-41933D01*
X53048Y-41830D01*
X53151Y-41676D01*
X53187Y-41495D01*
X53187Y-43068D01*
X52440Y-43068D01*
X52187Y-43068D01*
X52187Y-41495D01*
X52187Y-41119D01*
X52151Y-40937D01*
X52048Y-40783D01*
X51894Y-40680D01*
X51712Y-40644D01*
X51530Y-40680D01*
X51376Y-40783D01*
X51273Y-40937D01*
X51237Y-41119D01*
X51237Y-41495D01*
X51273Y-41676D01*
X51376Y-41830D01*
X51530Y-41933D01*
X51712Y-41969D01*
X51894Y-41933D01*
X52048Y-41830D01*
X52151Y-41676D01*
X52187Y-41495D01*
X52187Y-43068D01*
X51187Y-43068D01*
X51187Y-41495D01*
X51187Y-41119D01*
X51151Y-40937D01*
X51048Y-40783D01*
X50894Y-40680D01*
X50712Y-40644D01*
X50530Y-40680D01*
X50376Y-40783D01*
X50273Y-40937D01*
X50237Y-41119D01*
X50237Y-41495D01*
X50273Y-41676D01*
X50376Y-41830D01*
X50530Y-41933D01*
X50712Y-41969D01*
X50894Y-41933D01*
X51048Y-41830D01*
X51151Y-41676D01*
X51187Y-41495D01*
X51187Y-43068D01*
X50187Y-43068D01*
X50187Y-41495D01*
X50187Y-41119D01*
X50151Y-40937D01*
X50048Y-40783D01*
X49894Y-40680D01*
X49712Y-40644D01*
X49530Y-40680D01*
X49376Y-40783D01*
X49273Y-40937D01*
X49237Y-41119D01*
X49237Y-41495D01*
X49273Y-41676D01*
X49376Y-41830D01*
X49530Y-41933D01*
X49712Y-41969D01*
X49894Y-41933D01*
X50048Y-41830D01*
X50151Y-41676D01*
X50187Y-41495D01*
X50187Y-43068D01*
X49187Y-43068D01*
X49187Y-41495D01*
X49187Y-41119D01*
X49151Y-40937D01*
X49048Y-40783D01*
X48894Y-40680D01*
X48712Y-40644D01*
X48530Y-40680D01*
X48376Y-40783D01*
X48273Y-40937D01*
X48237Y-41119D01*
X48237Y-41495D01*
X48273Y-41676D01*
X48376Y-41830D01*
X48530Y-41933D01*
X48712Y-41969D01*
X48894Y-41933D01*
X49048Y-41830D01*
X49151Y-41676D01*
X49187Y-41495D01*
X49187Y-43068D01*
X48740Y-43068D01*
X48663Y-43083D01*
X48599Y-43126D01*
X48187Y-43538D01*
X48187Y-41495D01*
X48187Y-41119D01*
X48151Y-40937D01*
X48048Y-40783D01*
X47894Y-40680D01*
X47712Y-40644D01*
X47530Y-40680D01*
X47376Y-40783D01*
X47273Y-40937D01*
X47237Y-41119D01*
X47237Y-41495D01*
X47273Y-41676D01*
X47376Y-41830D01*
X47530Y-41933D01*
X47712Y-41969D01*
X47894Y-41933D01*
X48048Y-41830D01*
X48151Y-41676D01*
X48187Y-41495D01*
X48187Y-43538D01*
X47187Y-44538D01*
X47187Y-41495D01*
X47187Y-41119D01*
X47151Y-40937D01*
X47048Y-40783D01*
X46894Y-40680D01*
X46712Y-40644D01*
X46530Y-40680D01*
X46376Y-40783D01*
X46273Y-40937D01*
X46237Y-41119D01*
X46237Y-41495D01*
X46273Y-41676D01*
X46376Y-41830D01*
X46530Y-41933D01*
X46712Y-41969D01*
X46894Y-41933D01*
X47048Y-41830D01*
X47151Y-41676D01*
X47187Y-41495D01*
X47187Y-44538D01*
X47063Y-44662D01*
X47020Y-44726D01*
X47013Y-44760D01*
X46894Y-44680D01*
X46712Y-44644D01*
X46530Y-44680D01*
X46376Y-44783D01*
X46273Y-44937D01*
X46237Y-45119D01*
X46237Y-45495D01*
X46273Y-45676D01*
X46376Y-45830D01*
X46530Y-45933D01*
X46712Y-45969D01*
X46894Y-45933D01*
X46911Y-45922D01*
X46879Y-45998D01*
X46879Y-46127D01*
X46929Y-46246D01*
X47020Y-46338D01*
X47139Y-46387D01*
X47269Y-46388D01*
X47388Y-46338D01*
X47480Y-46247D01*
X47529Y-46127D01*
X47529Y-45998D01*
X47492Y-45907D01*
X47530Y-45933D01*
X47712Y-45969D01*
X47894Y-45933D01*
X47989Y-45869D01*
X47989Y-45884D01*
X47942Y-45998D01*
X47942Y-46127D01*
X47992Y-46246D01*
X48083Y-46338D01*
X48202Y-46387D01*
X48332Y-46388D01*
X48451Y-46338D01*
X48543Y-46247D01*
X48592Y-46127D01*
X48592Y-45998D01*
X48569Y-45941D01*
X48712Y-45969D01*
X48894Y-45933D01*
X49048Y-45830D01*
X49151Y-45676D01*
X49187Y-45495D01*
X49187Y-45119D01*
X49151Y-44937D01*
X49048Y-44783D01*
X48894Y-44680D01*
X48712Y-44644D01*
X48530Y-44680D01*
X48388Y-44775D01*
X48388Y-44688D01*
X49373Y-43703D01*
X50345Y-43703D01*
X50055Y-43992D01*
X50012Y-44057D01*
X49997Y-44133D01*
X49997Y-44749D01*
X49894Y-44680D01*
X49712Y-44644D01*
X49530Y-44680D01*
X49376Y-44783D01*
X49273Y-44937D01*
X49237Y-45119D01*
X49237Y-45495D01*
X49273Y-45676D01*
X49376Y-45830D01*
X49530Y-45933D01*
X49712Y-45969D01*
X49894Y-45933D01*
X49997Y-45864D01*
X49997Y-45881D01*
X49921Y-45957D01*
X49871Y-46076D01*
X49871Y-46206D01*
X49921Y-46325D01*
X50012Y-46417D01*
X50131Y-46466D01*
X50261Y-46466D01*
X50380Y-46417D01*
X50472Y-46326D01*
X50521Y-46206D01*
X50521Y-46077D01*
X50472Y-45957D01*
X50396Y-45881D01*
X50396Y-45843D01*
X50530Y-45933D01*
X50712Y-45969D01*
X50894Y-45933D01*
X51048Y-45830D01*
X51151Y-45676D01*
X51187Y-45495D01*
X51187Y-45119D01*
X51151Y-44937D01*
X51063Y-44805D01*
X51362Y-44805D01*
X51273Y-44937D01*
X51237Y-45119D01*
X51237Y-45495D01*
X51273Y-45676D01*
X51376Y-45830D01*
X51530Y-45933D01*
X51712Y-45969D01*
X51894Y-45933D01*
X52048Y-45830D01*
X52151Y-45676D01*
X52187Y-45495D01*
X52187Y-45119D01*
X52151Y-44937D01*
X52063Y-44805D01*
X52362Y-44805D01*
X52273Y-44937D01*
X52237Y-45119D01*
X52237Y-45495D01*
X52273Y-45676D01*
X52376Y-45830D01*
X52530Y-45933D01*
X52712Y-45969D01*
X52894Y-45933D01*
X53048Y-45830D01*
X53151Y-45676D01*
X53187Y-45495D01*
X53187Y-45119D01*
X53151Y-44937D01*
X53136Y-44914D01*
X53215Y-44881D01*
X53306Y-44790D01*
X53356Y-44671D01*
X53356Y-44583D01*
X54525Y-45751D01*
X54525Y-46767D01*
X54287Y-47005D01*
X53661Y-47005D01*
X53585Y-47020D01*
X53520Y-47063D01*
X53350Y-47234D01*
X53242Y-47233D01*
X53199Y-47252D01*
X53199Y-46549D01*
X53149Y-46430D01*
X53058Y-46338D01*
X52938Y-46289D01*
X52809Y-46289D01*
X52690Y-46338D01*
X52598Y-46429D01*
X52549Y-46549D01*
X52548Y-46657D01*
X52437Y-46769D01*
X51913Y-46769D01*
X51837Y-46693D01*
X51718Y-46643D01*
X51589Y-46643D01*
X51469Y-46692D01*
X51378Y-46784D01*
X51328Y-46903D01*
X51328Y-47032D01*
X51377Y-47152D01*
X51469Y-47243D01*
X51588Y-47293D01*
X51717Y-47293D01*
X51837Y-47244D01*
X51914Y-47167D01*
X52519Y-47167D01*
X52595Y-47152D01*
X52660Y-47109D01*
X52830Y-46939D01*
X52938Y-46939D01*
X53057Y-46889D01*
X53149Y-46798D01*
X53198Y-46679D01*
X53199Y-46549D01*
X53199Y-47252D01*
X53123Y-47283D01*
X53031Y-47374D01*
X52982Y-47494D01*
X52982Y-47623D01*
X53031Y-47742D01*
X53122Y-47834D01*
X53242Y-47883D01*
X53371Y-47884D01*
X53490Y-47834D01*
X53582Y-47743D01*
X53632Y-47623D01*
X53632Y-47515D01*
X53743Y-47403D01*
X54370Y-47403D01*
X54446Y-47388D01*
X54510Y-47345D01*
X54865Y-46991D01*
X54908Y-46926D01*
X54923Y-46850D01*
X54923Y-46268D01*
X54989Y-46334D01*
X54989Y-46442D01*
X55039Y-46561D01*
X55130Y-46653D01*
X55250Y-46702D01*
X55379Y-46703D01*
X55498Y-46653D01*
X55509Y-46643D01*
X55509Y-46983D01*
X55433Y-47059D01*
X55383Y-47179D01*
X55383Y-47308D01*
X55432Y-47427D01*
X55524Y-47519D01*
X55643Y-47569D01*
X55773Y-47569D01*
X55892Y-47519D01*
X55984Y-47428D01*
X56033Y-47309D01*
X56033Y-47179D01*
X55984Y-47060D01*
X55907Y-46983D01*
X55907Y-46386D01*
X56060Y-46539D01*
X56060Y-47086D01*
X56075Y-47162D01*
X56118Y-47227D01*
X56183Y-47270D01*
X56259Y-47285D01*
X56708Y-47285D01*
X56784Y-47361D01*
X56784Y-47362D01*
X56693Y-47453D01*
X56643Y-47572D01*
X56643Y-47702D01*
X56692Y-47821D01*
X56723Y-47851D01*
X55708Y-47851D01*
X55691Y-47855D01*
X55673Y-47855D01*
X55372Y-47915D01*
X55307Y-47942D01*
X55052Y-48112D01*
X55002Y-48162D01*
X54831Y-48417D01*
X54805Y-48482D01*
X54745Y-48783D01*
X54745Y-48801D01*
X54741Y-48818D01*
X54741Y-49033D01*
X54623Y-49033D01*
X54651Y-48991D01*
X54687Y-48809D01*
X54687Y-48434D01*
X54651Y-48252D01*
X54548Y-48098D01*
X54394Y-47995D01*
X54212Y-47959D01*
X54030Y-47995D01*
X53876Y-48098D01*
X53773Y-48252D01*
X53737Y-48434D01*
X53737Y-48809D01*
X53773Y-48991D01*
X53801Y-49033D01*
X53623Y-49033D01*
X53651Y-48991D01*
X53687Y-48809D01*
X53687Y-48434D01*
X53651Y-48252D01*
X53548Y-48098D01*
X53394Y-47995D01*
X53212Y-47959D01*
X53030Y-47995D01*
X52876Y-48098D01*
X52773Y-48252D01*
X52737Y-48434D01*
X52737Y-48809D01*
X52773Y-48991D01*
X52801Y-49033D01*
X52623Y-49033D01*
X52651Y-48991D01*
X52687Y-48809D01*
X52687Y-48434D01*
X52651Y-48252D01*
X52548Y-48098D01*
X52394Y-47995D01*
X52212Y-47959D01*
X52030Y-47995D01*
X51876Y-48098D01*
X51773Y-48252D01*
X51737Y-48434D01*
X51737Y-48809D01*
X51773Y-48991D01*
X51801Y-49033D01*
X51623Y-49033D01*
X51651Y-48991D01*
X51687Y-48809D01*
X51687Y-48434D01*
X51651Y-48252D01*
X51548Y-48098D01*
X51394Y-47995D01*
X51212Y-47959D01*
X51030Y-47995D01*
X50876Y-48098D01*
X50773Y-48252D01*
X50737Y-48434D01*
X50737Y-48809D01*
X50773Y-48991D01*
X50801Y-49033D01*
X50623Y-49033D01*
X50651Y-48991D01*
X50687Y-48809D01*
X50687Y-48434D01*
X50651Y-48252D01*
X50548Y-48098D01*
X50394Y-47995D01*
X50212Y-47959D01*
X50030Y-47995D01*
X49876Y-48098D01*
X49773Y-48252D01*
X49737Y-48434D01*
X49737Y-48809D01*
X49773Y-48991D01*
X49801Y-49033D01*
X49623Y-49033D01*
X49651Y-48991D01*
X49687Y-48809D01*
X49687Y-48434D01*
X49651Y-48252D01*
X49548Y-48098D01*
X49394Y-47995D01*
X49212Y-47959D01*
X49030Y-47995D01*
X48876Y-48098D01*
X48773Y-48252D01*
X48737Y-48434D01*
X48737Y-48809D01*
X48773Y-48991D01*
X48801Y-49033D01*
X48623Y-49033D01*
X48651Y-48991D01*
X48687Y-48809D01*
X48687Y-48434D01*
X48651Y-48252D01*
X48548Y-48098D01*
X48394Y-47995D01*
X48212Y-47959D01*
X48030Y-47995D01*
X47876Y-48098D01*
X47773Y-48252D01*
X47737Y-48434D01*
X47737Y-48809D01*
X47773Y-48991D01*
X47801Y-49033D01*
X47623Y-49033D01*
X47651Y-48991D01*
X47687Y-48809D01*
X47687Y-48434D01*
X47651Y-48252D01*
X47548Y-48098D01*
X47394Y-47995D01*
X47212Y-47959D01*
X47030Y-47995D01*
X46876Y-48098D01*
X46773Y-48252D01*
X46737Y-48434D01*
X46737Y-48437D01*
X46693Y-48236D01*
X46576Y-48068D01*
X46404Y-47958D01*
X46304Y-47930D01*
X46222Y-47972D01*
X46222Y-48612D01*
X46230Y-48612D01*
X46230Y-48632D01*
X46222Y-48632D01*
X46222Y-48639D01*
X46202Y-48639D01*
X46202Y-48632D01*
X46202Y-48612D01*
X46202Y-47972D01*
X46187Y-47964D01*
X46187Y-45495D01*
X46187Y-45119D01*
X46187Y-41495D01*
X46187Y-41119D01*
X46151Y-40937D01*
X46048Y-40783D01*
X45894Y-40680D01*
X45712Y-40644D01*
X45530Y-40680D01*
X45376Y-40783D01*
X45273Y-40937D01*
X45237Y-41119D01*
X45237Y-41495D01*
X45273Y-41676D01*
X45376Y-41830D01*
X45530Y-41933D01*
X45712Y-41969D01*
X45894Y-41933D01*
X46048Y-41830D01*
X46151Y-41676D01*
X46187Y-41495D01*
X46187Y-45119D01*
X46151Y-44937D01*
X46048Y-44783D01*
X45894Y-44680D01*
X45712Y-44644D01*
X45530Y-44680D01*
X45376Y-44783D01*
X45273Y-44937D01*
X45237Y-45119D01*
X45237Y-45495D01*
X45273Y-45676D01*
X45376Y-45830D01*
X45530Y-45933D01*
X45712Y-45969D01*
X45894Y-45933D01*
X46048Y-45830D01*
X46151Y-45676D01*
X46187Y-45495D01*
X46187Y-47964D01*
X46120Y-47930D01*
X46020Y-47958D01*
X45848Y-48068D01*
X45731Y-48236D01*
X45712Y-48322D01*
X45693Y-48236D01*
X45576Y-48068D01*
X45404Y-47958D01*
X45304Y-47930D01*
X45222Y-47972D01*
X45222Y-48612D01*
X45687Y-48612D01*
X45737Y-48612D01*
X46202Y-48612D01*
X46202Y-48632D01*
X45737Y-48632D01*
X45687Y-48632D01*
X45222Y-48632D01*
X45222Y-48639D01*
X45202Y-48639D01*
X45202Y-48632D01*
X44687Y-48632D01*
X44687Y-48612D01*
X45202Y-48612D01*
X45202Y-47972D01*
X45120Y-47930D01*
X45020Y-47958D01*
X44848Y-48068D01*
X44731Y-48236D01*
X44687Y-48437D01*
X44687Y-48434D01*
X44651Y-48252D01*
X44548Y-48098D01*
X44394Y-47995D01*
X44212Y-47959D01*
X44030Y-47995D01*
X43876Y-48098D01*
X43773Y-48252D01*
X43737Y-48434D01*
X43737Y-48809D01*
X43773Y-48991D01*
X43801Y-49033D01*
X43683Y-49033D01*
X43683Y-48818D01*
X43680Y-48801D01*
X43680Y-48783D01*
X43620Y-48482D01*
X43593Y-48417D01*
X43422Y-48162D01*
X43373Y-48112D01*
X43117Y-47942D01*
X43052Y-47915D01*
X42751Y-47855D01*
X42733Y-47855D01*
X42716Y-47851D01*
X40367Y-47851D01*
X40520Y-47788D01*
X40701Y-47608D01*
X40799Y-47372D01*
X40799Y-47116D01*
X40702Y-46880D01*
X40521Y-46700D01*
X40285Y-46602D01*
X40030Y-46601D01*
X39794Y-46699D01*
X39613Y-46879D01*
X39549Y-47033D01*
X39549Y-40367D01*
X39612Y-40520D01*
X39793Y-40701D01*
X40029Y-40799D01*
X40284Y-40799D01*
X40520Y-40702D01*
X40701Y-40521D01*
X40799Y-40285D01*
X40799Y-40030D01*
X40702Y-39794D01*
X40521Y-39613D01*
X40367Y-39549D01*
X58057Y-39549D01*
X57904Y-39612D01*
X57723Y-39793D01*
X57625Y-40029D01*
X57625Y-40284D01*
X57723Y-40520D01*
X57903Y-40701D01*
X58139Y-40799D01*
X58394Y-40799D01*
X58630Y-40702D01*
X58811Y-40521D01*
X58875Y-40367D01*
X58875Y-41986D01*
X58834Y-41958D01*
X58652Y-41922D01*
X58276Y-41922D01*
X58095Y-41958D01*
X57940Y-42061D01*
X57849Y-42198D01*
X54656Y-42198D01*
X54553Y-42155D01*
X54423Y-42155D01*
X54304Y-42204D01*
X54212Y-42295D01*
X54163Y-42415D01*
X54163Y-42544D01*
X54212Y-42664D01*
X54303Y-42755D01*
X54423Y-42805D01*
X54552Y-42805D01*
X54672Y-42755D01*
X54763Y-42664D01*
X54791Y-42596D01*
X57849Y-42596D01*
X57940Y-42733D01*
X58095Y-42836D01*
X58276Y-42872D01*
X58652Y-42872D01*
X58834Y-42836D01*
X58875Y-42808D01*
X58875Y-42986D01*
X58834Y-42958D01*
X58652Y-42922D01*
X58276Y-42922D01*
X58095Y-42958D01*
X57940Y-43061D01*
X57837Y-43215D01*
X57801Y-43397D01*
X57837Y-43579D01*
X57940Y-43733D01*
X58095Y-43836D01*
X58276Y-43872D01*
X58652Y-43872D01*
X58834Y-43836D01*
X58875Y-43808D01*
X58875Y-43986D01*
G54D10*
G36*
X58875Y-47034D02*
X58812Y-46880D01*
X58631Y-46700D01*
X58395Y-46602D01*
X58140Y-46601D01*
X57904Y-46699D01*
X57723Y-46879D01*
X57625Y-47115D01*
X57625Y-47371D01*
X57723Y-47607D01*
X57903Y-47788D01*
X58057Y-47851D01*
X57213Y-47851D01*
X57243Y-47822D01*
X57293Y-47702D01*
X57293Y-47594D01*
X57503Y-47384D01*
X57546Y-47320D01*
X57546Y-47320D01*
X57561Y-47244D01*
X57561Y-46854D01*
X57936Y-46479D01*
X57979Y-46414D01*
X57994Y-46338D01*
X57994Y-45819D01*
X58079Y-45878D01*
X58279Y-45922D01*
X58454Y-45922D01*
X58454Y-45407D01*
X58446Y-45407D01*
X58446Y-45387D01*
X58454Y-45387D01*
X58454Y-44872D01*
X58474Y-44872D01*
X58474Y-45387D01*
X58482Y-45387D01*
X58482Y-45407D01*
X58474Y-45407D01*
X58474Y-45922D01*
X58649Y-45922D01*
X58849Y-45878D01*
X58875Y-45860D01*
X58875Y-47034D01*
X58875Y-47034D01*
G37*
G54D16*
X58875Y-47034D02*
X58812Y-46880D01*
X58631Y-46700D01*
X58395Y-46602D01*
X58140Y-46601D01*
X57904Y-46699D01*
X57723Y-46879D01*
X57625Y-47115D01*
X57625Y-47371D01*
X57723Y-47607D01*
X57903Y-47788D01*
X58057Y-47851D01*
X57213Y-47851D01*
X57243Y-47822D01*
X57293Y-47702D01*
X57293Y-47594D01*
X57503Y-47384D01*
X57546Y-47320D01*
X57546Y-47320D01*
X57561Y-47244D01*
X57561Y-46854D01*
X57936Y-46479D01*
X57979Y-46414D01*
X57994Y-46338D01*
X57994Y-45819D01*
X58079Y-45878D01*
X58279Y-45922D01*
X58454Y-45922D01*
X58454Y-45407D01*
X58446Y-45407D01*
X58446Y-45387D01*
X58454Y-45387D01*
X58454Y-44872D01*
X58474Y-44872D01*
X58474Y-45387D01*
X58482Y-45387D01*
X58482Y-45407D01*
X58474Y-45407D01*
X58474Y-45922D01*
X58649Y-45922D01*
X58849Y-45878D01*
X58875Y-45860D01*
X58875Y-47034D01*
M02*
