%FSLAX34Y34*%
G04 Gerber Fmt 3.4, Leading zero omitted, Abs format*
G04 (created by PCBNEW (2014-02-28 BZR 4729)-product) date man 03 mar 2014 19:53:33 CET*
%MOIN*%
G01*
G70*
G90*
G04 APERTURE LIST*
%ADD10C,0.005906*%
%ADD11R,0.035433X0.031496*%
%ADD12R,0.050000X0.031496*%
%ADD13R,0.031496X0.050000*%
%ADD14R,0.035433X0.027559*%
%ADD15R,0.031496X0.035433*%
%ADD16R,0.062992X0.011811*%
%ADD17R,0.020000X0.050000*%
%ADD18R,0.051181X0.043307*%
%ADD19R,0.066929X0.051181*%
%ADD20R,0.093701X0.021969*%
%ADD21R,0.070866X0.059055*%
%ADD22R,0.062992X0.059055*%
G04 APERTURE END LIST*
G54D10*
G54D11*
X15118Y5944D03*
X15826Y5944D03*
X5472Y5354D03*
X4763Y5354D03*
G54D12*
X7714Y4527D03*
X6616Y4152D03*
X6616Y4902D03*
G54D13*
X9370Y6812D03*
X8995Y7911D03*
X9745Y7911D03*
X11338Y6812D03*
X10963Y7911D03*
X11713Y7911D03*
X13346Y6812D03*
X12971Y7911D03*
X13721Y7911D03*
G54D11*
X14055Y5236D03*
G54D14*
X14763Y5236D03*
G54D11*
X14055Y4763D03*
X14763Y4763D03*
X14055Y4291D03*
X14763Y4291D03*
X14055Y3818D03*
X14763Y3818D03*
X14055Y3346D03*
X14763Y3346D03*
X14055Y2874D03*
X14763Y2874D03*
X14055Y2401D03*
X14763Y2401D03*
X14055Y1889D03*
X14763Y1889D03*
X5275Y4527D03*
X5984Y4527D03*
G54D15*
X8464Y7677D03*
X8464Y6968D03*
X10354Y6968D03*
X10354Y7677D03*
X12322Y6968D03*
X12322Y7677D03*
X1377Y2677D03*
X1377Y3385D03*
G54D16*
X4960Y5777D03*
X4960Y6033D03*
X4960Y6289D03*
X4960Y6545D03*
X4960Y6801D03*
X4960Y7057D03*
X4960Y7312D03*
X4960Y7568D03*
X4960Y7824D03*
X4960Y8080D03*
X2755Y8080D03*
X2755Y7824D03*
X2755Y7568D03*
X2755Y7312D03*
X2755Y7057D03*
X2755Y6801D03*
X2755Y6545D03*
X2755Y6289D03*
X2755Y6033D03*
X2755Y5777D03*
G54D17*
X15926Y7675D03*
X15176Y7675D03*
X15926Y6576D03*
X15551Y7675D03*
X15176Y6576D03*
G54D18*
X14606Y6830D03*
X14606Y7736D03*
G54D19*
X16574Y6309D03*
X16574Y7706D03*
G54D11*
X10629Y2677D03*
X9921Y2677D03*
G54D15*
X7952Y6968D03*
X7952Y7677D03*
G54D20*
X15620Y4781D03*
X15620Y4281D03*
X15620Y3781D03*
X15620Y3281D03*
X15620Y2781D03*
X15620Y2281D03*
X15620Y1781D03*
X15620Y1281D03*
X17450Y1281D03*
X17450Y1781D03*
X17450Y2281D03*
X17450Y2781D03*
X17450Y3281D03*
X17450Y3781D03*
X17450Y4281D03*
X17450Y4781D03*
G54D21*
X1811Y5472D03*
X1811Y6653D03*
G54D15*
X3228Y3385D03*
X3228Y2677D03*
G54D22*
X2322Y590D03*
X2322Y3582D03*
G54D11*
X4566Y13740D03*
X3858Y13740D03*
X14212Y14330D03*
X14921Y14330D03*
G54D12*
X11970Y15157D03*
X13068Y15532D03*
X13068Y14782D03*
G54D13*
X10314Y12872D03*
X10689Y11773D03*
X9939Y11773D03*
X8346Y12872D03*
X8721Y11773D03*
X7971Y11773D03*
X6338Y12872D03*
X6713Y11773D03*
X5963Y11773D03*
G54D11*
X5629Y14448D03*
G54D14*
X4921Y14448D03*
G54D11*
X5629Y14921D03*
X4921Y14921D03*
X5629Y15393D03*
X4921Y15393D03*
X5629Y15866D03*
X4921Y15866D03*
X5629Y16338D03*
X4921Y16338D03*
X5629Y16811D03*
X4921Y16811D03*
X5629Y17283D03*
X4921Y17283D03*
X5629Y17795D03*
X4921Y17795D03*
X14409Y15157D03*
X13700Y15157D03*
G54D15*
X11220Y12007D03*
X11220Y12716D03*
X9330Y12716D03*
X9330Y12007D03*
X7362Y12716D03*
X7362Y12007D03*
X18307Y17007D03*
X18307Y16299D03*
G54D16*
X14724Y13907D03*
X14724Y13651D03*
X14724Y13395D03*
X14724Y13139D03*
X14724Y12883D03*
X14724Y12627D03*
X14724Y12372D03*
X14724Y12116D03*
X14724Y11860D03*
X14724Y11604D03*
X16929Y11604D03*
X16929Y11860D03*
X16929Y12116D03*
X16929Y12372D03*
X16929Y12627D03*
X16929Y12883D03*
X16929Y13139D03*
X16929Y13395D03*
X16929Y13651D03*
X16929Y13907D03*
G54D17*
X3758Y12009D03*
X4508Y12009D03*
X3758Y13108D03*
X4133Y12009D03*
X4508Y13108D03*
G54D18*
X5078Y12854D03*
X5078Y11948D03*
G54D19*
X3110Y13375D03*
X3110Y11978D03*
G54D11*
X9055Y17007D03*
X9763Y17007D03*
G54D15*
X11732Y12716D03*
X11732Y12007D03*
G54D20*
X4064Y14903D03*
X4064Y15403D03*
X4064Y15903D03*
X4064Y16403D03*
X4064Y16903D03*
X4064Y17403D03*
X4064Y17903D03*
X4064Y18403D03*
X2234Y18403D03*
X2234Y17903D03*
X2234Y17403D03*
X2234Y16903D03*
X2234Y16403D03*
X2234Y15903D03*
X2234Y15403D03*
X2234Y14903D03*
G54D21*
X17874Y14212D03*
X17874Y13031D03*
G54D15*
X16456Y16299D03*
X16456Y17007D03*
G54D22*
X17362Y19094D03*
X17362Y16102D03*
M02*
