%FSLAX34Y34*%
G04 Gerber Fmt 3.4, Leading zero omitted, Abs format*
G04 (created by PCBNEW (2014-02-28 BZR 4729)-product) date man 03 mar 2014 20:37:32 CET*
%MOIN*%
G01*
G70*
G90*
G04 APERTURE LIST*
%ADD10C,0.005906*%
%ADD11O,0.064961X0.100000*%
%ADD12O,0.100000X0.065000*%
%ADD13R,0.035433X0.031496*%
%ADD14R,0.050000X0.031496*%
%ADD15R,0.031496X0.050000*%
%ADD16R,0.035433X0.027559*%
%ADD17R,0.031496X0.035433*%
%ADD18R,0.062992X0.011811*%
%ADD19R,0.020000X0.050000*%
%ADD20R,0.051181X0.043307*%
%ADD21R,0.066929X0.051181*%
%ADD22O,0.065000X0.100000*%
%ADD23R,0.093701X0.021969*%
%ADD24R,0.070866X0.059055*%
%ADD25R,0.062992X0.059055*%
%ADD26C,0.035000*%
%ADD27C,0.009843*%
%ADD28C,0.010000*%
G04 APERTURE END LIST*
G54D10*
G54D11*
X3500Y3905D03*
X2500Y3905D03*
X1500Y3905D03*
X500Y3905D03*
X-500Y3905D03*
X-1500Y3905D03*
X-2500Y3905D03*
X-3500Y3905D03*
X-3500Y7905D03*
X-2500Y7905D03*
X-1500Y7905D03*
X-500Y7905D03*
X500Y7905D03*
X1500Y7905D03*
X2500Y7905D03*
X3500Y7905D03*
G54D12*
X9251Y7011D03*
X9251Y6011D03*
X9251Y5011D03*
X9251Y4011D03*
G54D13*
X-5275Y3897D03*
X-5984Y3897D03*
X4370Y4488D03*
X5078Y4488D03*
G54D14*
X2127Y5314D03*
X3226Y5689D03*
X3226Y4939D03*
G54D15*
X472Y3029D03*
X847Y1931D03*
X97Y1931D03*
X-1496Y3029D03*
X-1121Y1931D03*
X-1871Y1931D03*
X-3503Y3029D03*
X-3128Y1931D03*
X-3878Y1931D03*
G54D13*
X-4212Y4606D03*
G54D16*
X-4921Y4606D03*
G54D13*
X-4212Y5078D03*
X-4921Y5078D03*
X-4212Y5551D03*
X-4921Y5551D03*
X-4212Y6023D03*
X-4921Y6023D03*
X-4212Y6496D03*
X-4921Y6496D03*
X-4212Y6968D03*
X-4921Y6968D03*
X-4212Y7440D03*
X-4921Y7440D03*
X-4212Y7952D03*
X-4921Y7952D03*
X4566Y5314D03*
X3858Y5314D03*
G54D17*
X1377Y2165D03*
X1377Y2874D03*
X-511Y2874D03*
X-511Y2165D03*
X-2480Y2874D03*
X-2480Y2165D03*
X8464Y7165D03*
X8464Y6456D03*
G54D18*
X4881Y4064D03*
X4881Y3809D03*
X4881Y3553D03*
X4881Y3297D03*
X4881Y3041D03*
X4881Y2785D03*
X4881Y2529D03*
X4881Y2273D03*
X4881Y2017D03*
X4881Y1761D03*
X7086Y1761D03*
X7086Y2017D03*
X7086Y2273D03*
X7086Y2529D03*
X7086Y2785D03*
X7086Y3041D03*
X7086Y3297D03*
X7086Y3553D03*
X7086Y3809D03*
X7086Y4064D03*
G54D19*
X-6083Y2167D03*
X-5333Y2167D03*
X-6083Y3265D03*
X-5708Y2167D03*
X-5333Y3265D03*
G54D20*
X-4763Y3011D03*
X-4763Y2106D03*
G54D21*
X-6732Y3533D03*
X-6732Y2135D03*
G54D13*
X-787Y7165D03*
X-78Y7165D03*
G54D17*
X1889Y2874D03*
X1889Y2165D03*
G54D22*
X-5000Y590D03*
X-4000Y590D03*
X-3000Y590D03*
X-2000Y590D03*
X-1000Y590D03*
X0Y590D03*
X1000Y590D03*
X2000Y590D03*
X3000Y590D03*
X4000Y590D03*
X5000Y590D03*
G54D23*
X-5777Y5061D03*
X-5777Y5561D03*
X-5777Y6061D03*
X-5777Y6561D03*
X-5777Y7061D03*
X-5777Y7561D03*
X-5777Y8061D03*
X-5777Y8561D03*
X-7608Y8561D03*
X-7608Y8061D03*
X-7608Y7561D03*
X-7608Y7061D03*
X-7608Y6561D03*
X-7608Y6061D03*
X-7608Y5561D03*
X-7608Y5061D03*
G54D24*
X8031Y4370D03*
X8031Y3188D03*
G54D17*
X6614Y6456D03*
X6614Y7165D03*
G54D25*
X7519Y9251D03*
X7519Y6259D03*
G54D12*
X-9251Y7511D03*
X-9251Y6511D03*
X-9251Y5511D03*
X-9251Y4511D03*
X-9251Y3511D03*
G54D26*
X2440Y2244D03*
X3661Y2598D03*
X6023Y5393D03*
X7755Y1574D03*
X7519Y7165D03*
X-6929Y6692D03*
X-4960Y8503D03*
X6614Y4094D03*
X-354Y6850D03*
X4763Y5748D03*
X7322Y4330D03*
X-6102Y1535D03*
X-5708Y3543D03*
X984Y3070D03*
X6102Y2834D03*
X6496Y1968D03*
X-944Y3149D03*
X7755Y2125D03*
X-2007Y3149D03*
X2677Y5157D03*
X4094Y1653D03*
X-8307Y5039D03*
X-8267Y7952D03*
X5275Y6732D03*
X3818Y4606D03*
X1338Y4685D03*
G54D27*
X-4212Y6968D02*
X-1496Y6968D01*
X1500Y7799D02*
X1500Y7905D01*
X0Y6299D02*
X1500Y7799D01*
X-826Y6299D02*
X0Y6299D01*
X-1496Y6968D02*
X-826Y6299D01*
X-4212Y6023D02*
X-1181Y6023D01*
X1500Y5905D02*
X3500Y7905D01*
X-1062Y5905D02*
X1500Y5905D01*
X-1181Y6023D02*
X-1062Y5905D01*
X-4212Y7440D02*
X-3897Y7440D01*
X500Y7114D02*
X500Y7905D01*
X-118Y6496D02*
X500Y7114D01*
X-708Y6496D02*
X-118Y6496D01*
X-1456Y7244D02*
X-708Y6496D01*
X-3700Y7244D02*
X-1456Y7244D01*
X-3897Y7440D02*
X-3700Y7244D01*
X-4212Y5551D02*
X1102Y5551D01*
X1850Y4255D02*
X1500Y3905D01*
X1850Y4803D02*
X1850Y4255D01*
X1102Y5551D02*
X1850Y4803D01*
X-4212Y4606D02*
X-3200Y4606D01*
X-3200Y4606D02*
X-2500Y3905D01*
X2992Y4413D02*
X2870Y4413D01*
X3500Y3905D02*
X2992Y4413D01*
X2324Y4958D02*
X2324Y5275D01*
X2870Y4413D02*
X2324Y4958D01*
X472Y3029D02*
X472Y2677D01*
X629Y2519D02*
X1141Y2519D01*
X472Y2677D02*
X629Y2519D01*
X2500Y2814D02*
X2500Y3905D01*
X1141Y2519D02*
X2204Y2519D01*
X2204Y2519D02*
X2500Y2814D01*
X-1496Y3029D02*
X-1496Y3901D01*
X-1496Y3901D02*
X-1500Y3905D01*
X-3503Y3029D02*
X-3503Y3901D01*
X-3503Y3901D02*
X-3500Y3905D01*
X-4212Y5078D02*
X-1673Y5078D01*
X-1673Y5078D02*
X-500Y3905D01*
X-4212Y7952D02*
X-4212Y8070D01*
X-2177Y8582D02*
X-1500Y7905D01*
X-3700Y8582D02*
X-2177Y8582D01*
X-4212Y8070D02*
X-3700Y8582D01*
X-4212Y6496D02*
X-1338Y6496D01*
X696Y6102D02*
X2500Y7905D01*
X-944Y6102D02*
X696Y6102D01*
X-1338Y6496D02*
X-944Y6102D01*
X2401Y1889D02*
X2559Y1889D01*
X3071Y2559D02*
X3071Y2559D01*
X3071Y2401D02*
X3071Y2559D01*
X2559Y1889D02*
X3071Y2401D01*
X3248Y3011D02*
X3070Y2834D01*
X4223Y3553D02*
X3897Y3227D01*
X4881Y3553D02*
X4223Y3553D01*
X3740Y3228D02*
X3898Y3228D01*
X3898Y3228D02*
X3897Y3228D01*
X3897Y3228D02*
X3897Y3227D01*
X-78Y1456D02*
X-944Y590D01*
X-944Y590D02*
X-1000Y590D01*
X1259Y1456D02*
X1455Y1652D01*
X1455Y1652D02*
X2164Y1652D01*
X2164Y1652D02*
X2401Y1889D01*
X-78Y1456D02*
X1259Y1456D01*
X3071Y2559D02*
X3070Y2559D01*
X3248Y3011D02*
X3464Y3228D01*
X3464Y3228D02*
X3740Y3228D01*
X3070Y2834D02*
X3070Y2559D01*
X4016Y3031D02*
X3582Y3031D01*
X3267Y2716D02*
X3267Y2282D01*
X3582Y3031D02*
X3267Y2716D01*
X2252Y1456D02*
X2271Y1456D01*
X1377Y1259D02*
X669Y1259D01*
X1574Y1456D02*
X1377Y1259D01*
X0Y590D02*
X669Y1259D01*
X2252Y1456D02*
X1574Y1456D01*
X2677Y1692D02*
X2677Y1692D01*
X2506Y1692D02*
X2677Y1692D01*
X2271Y1456D02*
X2506Y1692D01*
X4282Y3297D02*
X4016Y3031D01*
X3267Y2282D02*
X2677Y1692D01*
X2677Y1692D02*
X2677Y1692D01*
X4881Y3297D02*
X4282Y3297D01*
X3661Y2598D02*
X3464Y2401D01*
X3464Y2401D02*
X3464Y2165D01*
X4035Y2736D02*
X3799Y2736D01*
X2362Y2165D02*
X1889Y2165D01*
X2440Y2244D02*
X2362Y2165D01*
X3799Y2736D02*
X3661Y2598D01*
X1661Y1251D02*
X2354Y1251D01*
X1661Y1251D02*
X1000Y590D01*
X3464Y2165D02*
X2795Y1496D01*
X2795Y1496D02*
X2598Y1496D01*
X2354Y1251D02*
X2598Y1496D01*
X4881Y3041D02*
X4340Y3041D01*
X4340Y3041D02*
X4035Y2736D01*
X4881Y2785D02*
X4438Y2785D01*
X2708Y1299D02*
X2000Y590D01*
X2952Y1299D02*
X2708Y1299D01*
X4438Y2785D02*
X2952Y1299D01*
X4881Y2529D02*
X4498Y2529D01*
X3000Y1031D02*
X3000Y590D01*
X4498Y2529D02*
X3000Y1031D01*
X5196Y1141D02*
X5826Y1141D01*
X6141Y1456D02*
X6141Y2086D01*
X5826Y1141D02*
X6141Y1456D01*
X7086Y2529D02*
X6584Y2529D01*
X6584Y2529D02*
X6141Y2086D01*
X5000Y944D02*
X5000Y590D01*
X5196Y1141D02*
X5000Y944D01*
X5078Y1338D02*
X5708Y1338D01*
X5944Y1574D02*
X5944Y2204D01*
X5708Y1338D02*
X5944Y1574D01*
X7086Y2785D02*
X6525Y2785D01*
X6525Y2785D02*
X5944Y2204D01*
X4748Y1338D02*
X4000Y590D01*
X5078Y1338D02*
X4748Y1338D01*
X6614Y6456D02*
X7362Y6456D01*
X8464Y6456D02*
X8610Y6456D01*
X8610Y6456D02*
X9251Y5814D01*
X7086Y3041D02*
X6683Y3041D01*
X6683Y3041D02*
X6417Y3307D01*
X6417Y3307D02*
X6062Y3661D01*
X6062Y4448D02*
X6417Y4803D01*
X6062Y3661D02*
X6062Y4448D01*
X6417Y4803D02*
X6909Y5295D01*
X7559Y6259D02*
X7559Y5944D01*
X7559Y5944D02*
X7322Y5708D01*
X8464Y6456D02*
X7755Y6456D01*
X7755Y6456D02*
X7559Y6259D01*
X7362Y6456D02*
X7559Y6259D01*
X6929Y5314D02*
X7322Y5708D01*
X6909Y5295D02*
X6929Y5314D01*
X-8582Y6850D02*
X-8385Y7047D01*
X-8147Y7561D02*
X-8385Y7322D01*
X-8385Y7322D02*
X-8385Y7047D01*
X-7608Y7561D02*
X-8147Y7561D01*
X-8582Y6850D02*
X-8582Y6181D01*
X-8582Y6181D02*
X-9251Y5511D01*
X6456Y5511D02*
X6456Y5589D01*
X6220Y5825D02*
X6220Y7086D01*
X6456Y5589D02*
X6220Y5825D01*
X6456Y5157D02*
X6456Y5511D01*
X5866Y4566D02*
X6456Y5157D01*
X-7084Y7561D02*
X-7608Y7561D01*
X-6811Y7834D02*
X-7084Y7561D01*
X-6811Y8976D02*
X-6811Y7834D01*
X-6535Y9251D02*
X-6811Y8976D01*
X4055Y9251D02*
X-6535Y9251D01*
X6220Y7086D02*
X4055Y9251D01*
X5866Y4015D02*
X5866Y4566D01*
X4881Y2273D02*
X5265Y2273D01*
X5354Y3503D02*
X5393Y3543D01*
X5354Y2362D02*
X5354Y3503D01*
X5265Y2273D02*
X5354Y2362D01*
X5393Y3543D02*
X5866Y4015D01*
X5669Y5038D02*
X5669Y6929D01*
X5305Y3809D02*
X5669Y4173D01*
X4881Y3809D02*
X5305Y3809D01*
X5669Y4173D02*
X5669Y5038D01*
X-7009Y6061D02*
X-7608Y6061D01*
X-6417Y6653D02*
X-7009Y6061D01*
X-6417Y8740D02*
X-6417Y6653D01*
X-6299Y8858D02*
X-6417Y8740D01*
X3740Y8858D02*
X-6299Y8858D01*
X5669Y6929D02*
X3740Y8858D01*
X-7608Y7061D02*
X-8057Y7061D01*
X-9251Y4645D02*
X-9251Y4511D01*
X-8385Y5511D02*
X-9251Y4645D01*
X-8385Y6733D02*
X-8385Y5511D01*
X-8057Y7061D02*
X-8385Y6733D01*
X6023Y5393D02*
X6023Y6929D01*
X7086Y1761D02*
X7568Y1761D01*
X7568Y1761D02*
X7755Y1574D01*
X-7072Y7061D02*
X-7608Y7061D01*
X-6613Y7520D02*
X-7072Y7061D01*
X-6613Y8859D02*
X-6613Y7520D01*
X-6417Y9055D02*
X-6613Y8859D01*
X3897Y9055D02*
X-6417Y9055D01*
X6023Y6929D02*
X3897Y9055D01*
X-7608Y8561D02*
X-8131Y8561D01*
X-8582Y7181D02*
X-9251Y6511D01*
X-8582Y7598D02*
X-8582Y7181D01*
X-8622Y7637D02*
X-8582Y7598D01*
X-8622Y8070D02*
X-8622Y7637D01*
X-8131Y8561D02*
X-8622Y8070D01*
X7047Y5118D02*
X8948Y5118D01*
X8948Y5118D02*
X9251Y4814D01*
X8948Y5118D02*
X9251Y4814D01*
X6929Y5000D02*
X7047Y5118D01*
X6742Y3297D02*
X6259Y3779D01*
X6259Y3779D02*
X6259Y4330D01*
X6259Y4330D02*
X6929Y5000D01*
X7086Y3297D02*
X6742Y3297D01*
X8948Y5118D02*
X9251Y4814D01*
X-5333Y2167D02*
X-5333Y2380D01*
X-6083Y2459D02*
X-6083Y2167D01*
X-5866Y2677D02*
X-6083Y2459D01*
X-5629Y2677D02*
X-5866Y2677D01*
X-5333Y2380D02*
X-5629Y2677D01*
X-5333Y2167D02*
X-5333Y2441D01*
X-5333Y2441D02*
X-4763Y3011D01*
X-5333Y2167D02*
X-5333Y924D01*
X-5333Y924D02*
X-5000Y590D01*
X7086Y3809D02*
X7509Y3809D01*
X7952Y4251D02*
X7952Y4370D01*
X7509Y3809D02*
X7952Y4251D01*
X7086Y3553D02*
X7588Y3553D01*
X7588Y3553D02*
X7952Y3188D01*
X7519Y7165D02*
X7519Y9212D01*
X7519Y9212D02*
X7559Y9251D01*
X6614Y7165D02*
X7519Y7165D01*
X-7608Y6561D02*
X-6982Y6561D01*
X-6982Y6561D02*
X-6929Y6692D01*
X-5777Y8561D02*
X-5017Y8561D01*
X-5017Y8561D02*
X-4960Y8503D01*
X6614Y4094D02*
X6614Y4212D01*
X6643Y4064D02*
X6614Y4094D01*
X7086Y4064D02*
X6643Y4064D01*
X8582Y4484D02*
X9251Y3814D01*
X8582Y4803D02*
X8582Y4484D01*
X8503Y4881D02*
X8582Y4803D01*
X7283Y4881D02*
X8503Y4881D01*
X6614Y4212D02*
X7283Y4881D01*
X-78Y7165D02*
X-78Y7125D01*
X-78Y7125D02*
X-354Y6850D01*
X5078Y4488D02*
X5078Y5433D01*
X4781Y5730D02*
X4763Y5748D01*
X5078Y5433D02*
X4763Y5748D01*
X7086Y4064D02*
X7086Y4094D01*
X7086Y4094D02*
X7322Y4330D01*
X-6102Y1535D02*
X-6062Y1535D01*
X-6702Y2135D02*
X-6102Y1535D01*
X-6732Y2135D02*
X-6702Y2135D01*
X-5708Y1889D02*
X-5708Y2167D01*
X-6062Y1535D02*
X-5708Y1889D01*
X-5984Y3897D02*
X-5984Y3818D01*
X-5984Y3818D02*
X-5708Y3543D01*
X-4000Y590D02*
X-4000Y653D01*
X-4763Y1417D02*
X-4763Y2106D01*
X-4000Y653D02*
X-4763Y1417D01*
X-5333Y3265D02*
X-5333Y3839D01*
X-5333Y3839D02*
X-5275Y3897D01*
X-787Y7165D02*
X-787Y7618D01*
X-787Y7618D02*
X-500Y7905D01*
X1299Y3228D02*
X1023Y3503D01*
X897Y3905D02*
X500Y3905D01*
X1023Y3779D02*
X897Y3905D01*
X1023Y3503D02*
X1023Y3779D01*
X1889Y2874D02*
X1889Y3070D01*
X1732Y3228D02*
X1299Y3228D01*
X1889Y3070D02*
X1732Y3228D01*
X4566Y5314D02*
X4133Y5748D01*
X3284Y5748D02*
X3226Y5689D01*
X4133Y5748D02*
X3284Y5748D01*
X847Y1931D02*
X1143Y1931D01*
X1143Y1931D02*
X1377Y2165D01*
X-1121Y1931D02*
X-746Y1931D01*
X-746Y1931D02*
X-511Y2165D01*
X-3128Y1931D02*
X-2714Y1931D01*
X-2714Y1931D02*
X-2480Y2165D01*
X-7608Y5561D02*
X-7175Y5561D01*
X-6220Y4606D02*
X-4921Y4606D01*
X-7175Y5561D02*
X-6220Y4606D01*
X1181Y2874D02*
X1377Y2874D01*
X984Y3070D02*
X1181Y2874D01*
X5748Y2283D02*
X5748Y2322D01*
X6102Y2677D02*
X6102Y2834D01*
X5748Y2322D02*
X6102Y2677D01*
X5748Y2362D02*
X5748Y2283D01*
X5748Y2283D02*
X5748Y2007D01*
X5748Y2007D02*
X5708Y1967D01*
X4881Y1761D02*
X5502Y1761D01*
X5502Y1761D02*
X5708Y1967D01*
X6545Y2017D02*
X6496Y1968D01*
X7086Y2017D02*
X6545Y2017D01*
X-669Y2874D02*
X-511Y2874D01*
X-944Y3149D02*
X-669Y2874D01*
X7086Y2273D02*
X7608Y2273D01*
X7608Y2273D02*
X7755Y2125D01*
X-2283Y2874D02*
X-2480Y2874D01*
X-2007Y3149D02*
X-2283Y2874D01*
X-5777Y5061D02*
X-4938Y5061D01*
X-4938Y5061D02*
X-4921Y5078D01*
X-5777Y5561D02*
X-4931Y5561D01*
X-4931Y5561D02*
X-4921Y5551D01*
X-5777Y6061D02*
X-4958Y6061D01*
X-4958Y6061D02*
X-4921Y6023D01*
X-5777Y6561D02*
X-4986Y6561D01*
X-4986Y6561D02*
X-4921Y6496D01*
X-5777Y7061D02*
X-5013Y7061D01*
X-5013Y7061D02*
X-4921Y6968D01*
X-5777Y7561D02*
X-5041Y7561D01*
X-5041Y7561D02*
X-4921Y7440D01*
X-5777Y8061D02*
X-5029Y8061D01*
X-5029Y8061D02*
X-4921Y7952D01*
X4881Y2017D02*
X4458Y2017D01*
X3818Y5275D02*
X3858Y5314D01*
X2795Y5275D02*
X3818Y5275D01*
X2677Y5157D02*
X2795Y5275D01*
X4458Y2017D02*
X4094Y1653D01*
X-8307Y5039D02*
X-8285Y5061D01*
X-7608Y5061D02*
X-8285Y5061D01*
X-7608Y8061D02*
X-8159Y8061D01*
X-8159Y8061D02*
X-8267Y7952D01*
X-8267Y7952D02*
X-8238Y7982D01*
X8464Y7165D02*
X8901Y7165D01*
X8901Y7165D02*
X9251Y6814D01*
X4881Y4064D02*
X5246Y4064D01*
X5473Y6534D02*
X5275Y6732D01*
X5473Y4291D02*
X5473Y6534D01*
X5246Y4064D02*
X5473Y4291D01*
X-7608Y5061D02*
X-7608Y4409D01*
X-7608Y4409D02*
X-6732Y3533D01*
X3818Y4606D02*
X3717Y4606D01*
X3717Y4606D02*
X3423Y4900D01*
X4370Y4488D02*
X4458Y4488D01*
X4458Y4488D02*
X4881Y4064D01*
X97Y1931D02*
X97Y3445D01*
X4055Y4488D02*
X4370Y4488D01*
X3818Y4606D02*
X4055Y4488D01*
X314Y4685D02*
X1338Y4685D01*
X0Y4370D02*
X314Y4685D01*
X0Y3543D02*
X0Y4370D01*
X97Y3445D02*
X0Y3543D01*
X-4251Y3425D02*
X-4251Y2304D01*
X-6732Y3740D02*
X-6220Y4251D01*
X-6220Y4251D02*
X-5078Y4251D01*
X-5078Y4251D02*
X-4251Y3425D01*
X-6732Y3533D02*
X-6732Y3740D01*
X-4251Y2304D02*
X-3878Y1931D01*
X-1850Y1457D02*
X-1850Y740D01*
X-1850Y740D02*
X-2000Y590D01*
X-1850Y1457D02*
X-1850Y1910D01*
X-1850Y1910D02*
X-1871Y1931D01*
X-3878Y1931D02*
X-3820Y1931D01*
X-3820Y1931D02*
X-3347Y1457D01*
X-3347Y1457D02*
X-1850Y1457D01*
X-376Y1457D02*
X97Y1931D01*
X-1850Y1457D02*
X-376Y1457D01*
X-6083Y3265D02*
X-6464Y3265D01*
X-6464Y3265D02*
X-6732Y3533D01*
G54D10*
G36*
X-6616Y6736D02*
X-6939Y6412D01*
X-6939Y6501D01*
X-6989Y6551D01*
X-7598Y6551D01*
X-7598Y6543D01*
X-7618Y6543D01*
X-7618Y6551D01*
X-7626Y6551D01*
X-7626Y6571D01*
X-7618Y6571D01*
X-7618Y6578D01*
X-7598Y6578D01*
X-7598Y6571D01*
X-6989Y6571D01*
X-6939Y6621D01*
X-6939Y6710D01*
X-6970Y6784D01*
X-7026Y6840D01*
X-7034Y6843D01*
X-7012Y6866D01*
X-7009Y6874D01*
X-6996Y6876D01*
X-6931Y6920D01*
X-6616Y7235D01*
X-6616Y6736D01*
X-6616Y6736D01*
G37*
G54D28*
X-6616Y6736D02*
X-6939Y6412D01*
X-6939Y6501D01*
X-6989Y6551D01*
X-7598Y6551D01*
X-7598Y6543D01*
X-7618Y6543D01*
X-7618Y6551D01*
X-7626Y6551D01*
X-7626Y6571D01*
X-7618Y6571D01*
X-7618Y6578D01*
X-7598Y6578D01*
X-7598Y6571D01*
X-6989Y6571D01*
X-6939Y6621D01*
X-6939Y6710D01*
X-6970Y6784D01*
X-7026Y6840D01*
X-7034Y6843D01*
X-7012Y6866D01*
X-7009Y6874D01*
X-6996Y6876D01*
X-6931Y6920D01*
X-6616Y7235D01*
X-6616Y6736D01*
G54D10*
G36*
X-5182Y2874D02*
X-5364Y2693D01*
X-5489Y2818D01*
X-5553Y2861D01*
X-5629Y2876D01*
X-5866Y2876D01*
X-5942Y2861D01*
X-6007Y2818D01*
X-6224Y2600D01*
X-6259Y2548D01*
X-6267Y2544D01*
X-6284Y2561D01*
X-6357Y2591D01*
X-6437Y2591D01*
X-6672Y2591D01*
X-6722Y2541D01*
X-6722Y2145D01*
X-6714Y2145D01*
X-6714Y2125D01*
X-6722Y2125D01*
X-6722Y1729D01*
X-6672Y1679D01*
X-6437Y1679D01*
X-6357Y1679D01*
X-6284Y1710D01*
X-6228Y1766D01*
X-6225Y1772D01*
X-6213Y1767D01*
X-6153Y1767D01*
X-5953Y1767D01*
X-5945Y1770D01*
X-5921Y1747D01*
X-5848Y1717D01*
X-5768Y1717D01*
X-5718Y1767D01*
X-5718Y2157D01*
X-5726Y2157D01*
X-5726Y2177D01*
X-5718Y2177D01*
X-5718Y2185D01*
X-5698Y2185D01*
X-5698Y2177D01*
X-5690Y2177D01*
X-5690Y2157D01*
X-5698Y2157D01*
X-5698Y1767D01*
X-5648Y1717D01*
X-5568Y1717D01*
X-5532Y1732D01*
X-5532Y924D01*
X-5517Y847D01*
X-5474Y783D01*
X-5474Y782D01*
X-5475Y778D01*
X-5475Y402D01*
X-5438Y221D01*
X-5411Y179D01*
X-5529Y179D01*
X-5529Y393D01*
X-5532Y411D01*
X-5532Y428D01*
X-5592Y730D01*
X-5619Y794D01*
X-5790Y1050D01*
X-5839Y1099D01*
X-6094Y1270D01*
X-6159Y1297D01*
X-6461Y1357D01*
X-6478Y1357D01*
X-6496Y1360D01*
X-6742Y1360D01*
X-6742Y1729D01*
X-6742Y2125D01*
X-6742Y2145D01*
X-6742Y2541D01*
X-6792Y2591D01*
X-7027Y2591D01*
X-7106Y2591D01*
X-7180Y2561D01*
X-7236Y2505D01*
X-7266Y2431D01*
X-7266Y2195D01*
X-7216Y2145D01*
X-6742Y2145D01*
X-6742Y2125D01*
X-7216Y2125D01*
X-7266Y2075D01*
X-7266Y1840D01*
X-7236Y1766D01*
X-7180Y1710D01*
X-7106Y1679D01*
X-7027Y1679D01*
X-6792Y1679D01*
X-6742Y1729D01*
X-6742Y1360D01*
X-8845Y1360D01*
X-8691Y1423D01*
X-8511Y1604D01*
X-8413Y1840D01*
X-8413Y2095D01*
X-8510Y2331D01*
X-8560Y2381D01*
X-8560Y3419D01*
X-8602Y3501D01*
X-9241Y3501D01*
X-9241Y2986D01*
X-9066Y2986D01*
X-8866Y3030D01*
X-8698Y3147D01*
X-8588Y3320D01*
X-8560Y3419D01*
X-8560Y2381D01*
X-8690Y2512D01*
X-8926Y2610D01*
X-9182Y2610D01*
X-9418Y2513D01*
X-9599Y2332D01*
X-9662Y2178D01*
X-9662Y3048D01*
X-9637Y3030D01*
X-9436Y2986D01*
X-9261Y2986D01*
X-9261Y3501D01*
X-9269Y3501D01*
X-9269Y3521D01*
X-9261Y3521D01*
X-9261Y4036D01*
X-9241Y4036D01*
X-9241Y3521D01*
X-8602Y3521D01*
X-8560Y3603D01*
X-8588Y3703D01*
X-8698Y3875D01*
X-8866Y3993D01*
X-9066Y4036D01*
X-9064Y4036D01*
X-8882Y4072D01*
X-8728Y4175D01*
X-8625Y4330D01*
X-8589Y4511D01*
X-8625Y4693D01*
X-8728Y4847D01*
X-8752Y4863D01*
X-8632Y4983D01*
X-8632Y4975D01*
X-8582Y4855D01*
X-8491Y4764D01*
X-8372Y4714D01*
X-8242Y4714D01*
X-8123Y4763D01*
X-8085Y4801D01*
X-8046Y4801D01*
X-7807Y4801D01*
X-7807Y4409D01*
X-7792Y4333D01*
X-7749Y4268D01*
X-7216Y3736D01*
X-7216Y3247D01*
X-7194Y3192D01*
X-7151Y3150D01*
X-7096Y3127D01*
X-7037Y3127D01*
X-6608Y3127D01*
X-6605Y3124D01*
X-6540Y3081D01*
X-6464Y3066D01*
X-6333Y3066D01*
X-6333Y2985D01*
X-6310Y2930D01*
X-6268Y2888D01*
X-6213Y2865D01*
X-6153Y2865D01*
X-5953Y2865D01*
X-5898Y2888D01*
X-5856Y2930D01*
X-5833Y2985D01*
X-5833Y3045D01*
X-5833Y3540D01*
X-5767Y3540D01*
X-5693Y3570D01*
X-5637Y3626D01*
X-5607Y3700D01*
X-5607Y3779D01*
X-5607Y3837D01*
X-5657Y3887D01*
X-5974Y3887D01*
X-5974Y3879D01*
X-5994Y3879D01*
X-5994Y3887D01*
X-6002Y3887D01*
X-6002Y3907D01*
X-5994Y3907D01*
X-5994Y3915D01*
X-5974Y3915D01*
X-5974Y3907D01*
X-5657Y3907D01*
X-5607Y3957D01*
X-5607Y4015D01*
X-5607Y4052D01*
X-5602Y4052D01*
X-5602Y4025D01*
X-5602Y3710D01*
X-5579Y3655D01*
X-5543Y3618D01*
X-5560Y3600D01*
X-5583Y3545D01*
X-5583Y3485D01*
X-5583Y2985D01*
X-5560Y2930D01*
X-5518Y2888D01*
X-5463Y2865D01*
X-5403Y2865D01*
X-5203Y2865D01*
X-5182Y2874D01*
X-5182Y2874D01*
G37*
G54D28*
X-5182Y2874D02*
X-5364Y2693D01*
X-5489Y2818D01*
X-5553Y2861D01*
X-5629Y2876D01*
X-5866Y2876D01*
X-5942Y2861D01*
X-6007Y2818D01*
X-6224Y2600D01*
X-6259Y2548D01*
X-6267Y2544D01*
X-6284Y2561D01*
X-6357Y2591D01*
X-6437Y2591D01*
X-6672Y2591D01*
X-6722Y2541D01*
X-6722Y2145D01*
X-6714Y2145D01*
X-6714Y2125D01*
X-6722Y2125D01*
X-6722Y1729D01*
X-6672Y1679D01*
X-6437Y1679D01*
X-6357Y1679D01*
X-6284Y1710D01*
X-6228Y1766D01*
X-6225Y1772D01*
X-6213Y1767D01*
X-6153Y1767D01*
X-5953Y1767D01*
X-5945Y1770D01*
X-5921Y1747D01*
X-5848Y1717D01*
X-5768Y1717D01*
X-5718Y1767D01*
X-5718Y2157D01*
X-5726Y2157D01*
X-5726Y2177D01*
X-5718Y2177D01*
X-5718Y2185D01*
X-5698Y2185D01*
X-5698Y2177D01*
X-5690Y2177D01*
X-5690Y2157D01*
X-5698Y2157D01*
X-5698Y1767D01*
X-5648Y1717D01*
X-5568Y1717D01*
X-5532Y1732D01*
X-5532Y924D01*
X-5517Y847D01*
X-5474Y783D01*
X-5474Y782D01*
X-5475Y778D01*
X-5475Y402D01*
X-5438Y221D01*
X-5411Y179D01*
X-5529Y179D01*
X-5529Y393D01*
X-5532Y411D01*
X-5532Y428D01*
X-5592Y730D01*
X-5619Y794D01*
X-5790Y1050D01*
X-5839Y1099D01*
X-6094Y1270D01*
X-6159Y1297D01*
X-6461Y1357D01*
X-6478Y1357D01*
X-6496Y1360D01*
X-6742Y1360D01*
X-6742Y1729D01*
X-6742Y2125D01*
X-6742Y2145D01*
X-6742Y2541D01*
X-6792Y2591D01*
X-7027Y2591D01*
X-7106Y2591D01*
X-7180Y2561D01*
X-7236Y2505D01*
X-7266Y2431D01*
X-7266Y2195D01*
X-7216Y2145D01*
X-6742Y2145D01*
X-6742Y2125D01*
X-7216Y2125D01*
X-7266Y2075D01*
X-7266Y1840D01*
X-7236Y1766D01*
X-7180Y1710D01*
X-7106Y1679D01*
X-7027Y1679D01*
X-6792Y1679D01*
X-6742Y1729D01*
X-6742Y1360D01*
X-8845Y1360D01*
X-8691Y1423D01*
X-8511Y1604D01*
X-8413Y1840D01*
X-8413Y2095D01*
X-8510Y2331D01*
X-8560Y2381D01*
X-8560Y3419D01*
X-8602Y3501D01*
X-9241Y3501D01*
X-9241Y2986D01*
X-9066Y2986D01*
X-8866Y3030D01*
X-8698Y3147D01*
X-8588Y3320D01*
X-8560Y3419D01*
X-8560Y2381D01*
X-8690Y2512D01*
X-8926Y2610D01*
X-9182Y2610D01*
X-9418Y2513D01*
X-9599Y2332D01*
X-9662Y2178D01*
X-9662Y3048D01*
X-9637Y3030D01*
X-9436Y2986D01*
X-9261Y2986D01*
X-9261Y3501D01*
X-9269Y3501D01*
X-9269Y3521D01*
X-9261Y3521D01*
X-9261Y4036D01*
X-9241Y4036D01*
X-9241Y3521D01*
X-8602Y3521D01*
X-8560Y3603D01*
X-8588Y3703D01*
X-8698Y3875D01*
X-8866Y3993D01*
X-9066Y4036D01*
X-9064Y4036D01*
X-8882Y4072D01*
X-8728Y4175D01*
X-8625Y4330D01*
X-8589Y4511D01*
X-8625Y4693D01*
X-8728Y4847D01*
X-8752Y4863D01*
X-8632Y4983D01*
X-8632Y4975D01*
X-8582Y4855D01*
X-8491Y4764D01*
X-8372Y4714D01*
X-8242Y4714D01*
X-8123Y4763D01*
X-8085Y4801D01*
X-8046Y4801D01*
X-7807Y4801D01*
X-7807Y4409D01*
X-7792Y4333D01*
X-7749Y4268D01*
X-7216Y3736D01*
X-7216Y3247D01*
X-7194Y3192D01*
X-7151Y3150D01*
X-7096Y3127D01*
X-7037Y3127D01*
X-6608Y3127D01*
X-6605Y3124D01*
X-6540Y3081D01*
X-6464Y3066D01*
X-6333Y3066D01*
X-6333Y2985D01*
X-6310Y2930D01*
X-6268Y2888D01*
X-6213Y2865D01*
X-6153Y2865D01*
X-5953Y2865D01*
X-5898Y2888D01*
X-5856Y2930D01*
X-5833Y2985D01*
X-5833Y3045D01*
X-5833Y3540D01*
X-5767Y3540D01*
X-5693Y3570D01*
X-5637Y3626D01*
X-5607Y3700D01*
X-5607Y3779D01*
X-5607Y3837D01*
X-5657Y3887D01*
X-5974Y3887D01*
X-5974Y3879D01*
X-5994Y3879D01*
X-5994Y3887D01*
X-6002Y3887D01*
X-6002Y3907D01*
X-5994Y3907D01*
X-5994Y3915D01*
X-5974Y3915D01*
X-5974Y3907D01*
X-5657Y3907D01*
X-5607Y3957D01*
X-5607Y4015D01*
X-5607Y4052D01*
X-5602Y4052D01*
X-5602Y4025D01*
X-5602Y3710D01*
X-5579Y3655D01*
X-5543Y3618D01*
X-5560Y3600D01*
X-5583Y3545D01*
X-5583Y3485D01*
X-5583Y2985D01*
X-5560Y2930D01*
X-5518Y2888D01*
X-5463Y2865D01*
X-5403Y2865D01*
X-5203Y2865D01*
X-5182Y2874D01*
G54D10*
G36*
X-2982Y580D02*
X-2990Y580D01*
X-2990Y572D01*
X-3010Y572D01*
X-3010Y580D01*
X-3475Y580D01*
X-3525Y580D01*
X-3990Y580D01*
X-3990Y572D01*
X-4010Y572D01*
X-4010Y580D01*
X-4525Y580D01*
X-4525Y600D01*
X-4010Y600D01*
X-4010Y1240D01*
X-4091Y1282D01*
X-4191Y1254D01*
X-4307Y1179D01*
X-4364Y1143D01*
X-4481Y975D01*
X-4525Y775D01*
X-4525Y778D01*
X-4561Y960D01*
X-4664Y1114D01*
X-4818Y1217D01*
X-5000Y1253D01*
X-5134Y1226D01*
X-5134Y1721D01*
X-5132Y1720D01*
X-5059Y1689D01*
X-4979Y1689D01*
X-4823Y1689D01*
X-4773Y1739D01*
X-4773Y2096D01*
X-4781Y2096D01*
X-4781Y2116D01*
X-4773Y2116D01*
X-4773Y2472D01*
X-4823Y2522D01*
X-4971Y2522D01*
X-4848Y2645D01*
X-4478Y2645D01*
X-4451Y2656D01*
X-4451Y2515D01*
X-4468Y2522D01*
X-4547Y2522D01*
X-4703Y2522D01*
X-4753Y2472D01*
X-4753Y2116D01*
X-4745Y2116D01*
X-4745Y2096D01*
X-4753Y2096D01*
X-4753Y1739D01*
X-4703Y1689D01*
X-4547Y1689D01*
X-4468Y1689D01*
X-4394Y1720D01*
X-4338Y1776D01*
X-4307Y1849D01*
X-4307Y2046D01*
X-4357Y2096D01*
X-4325Y2096D01*
X-4186Y1956D01*
X-4186Y1651D01*
X-4163Y1596D01*
X-4121Y1553D01*
X-4066Y1531D01*
X-4006Y1531D01*
X-3702Y1531D01*
X-3488Y1316D01*
X-3423Y1273D01*
X-3423Y1273D01*
X-3347Y1258D01*
X-3177Y1258D01*
X-3191Y1254D01*
X-3364Y1143D01*
X-3481Y975D01*
X-3500Y889D01*
X-3518Y975D01*
X-3635Y1143D01*
X-3808Y1254D01*
X-3908Y1282D01*
X-3990Y1240D01*
X-3990Y600D01*
X-3525Y600D01*
X-3475Y600D01*
X-3010Y600D01*
X-3010Y608D01*
X-2990Y608D01*
X-2990Y600D01*
X-2982Y600D01*
X-2982Y580D01*
X-2982Y580D01*
G37*
G54D28*
X-2982Y580D02*
X-2990Y580D01*
X-2990Y572D01*
X-3010Y572D01*
X-3010Y580D01*
X-3475Y580D01*
X-3525Y580D01*
X-3990Y580D01*
X-3990Y572D01*
X-4010Y572D01*
X-4010Y580D01*
X-4525Y580D01*
X-4525Y600D01*
X-4010Y600D01*
X-4010Y1240D01*
X-4091Y1282D01*
X-4191Y1254D01*
X-4307Y1179D01*
X-4364Y1143D01*
X-4481Y975D01*
X-4525Y775D01*
X-4525Y778D01*
X-4561Y960D01*
X-4664Y1114D01*
X-4818Y1217D01*
X-5000Y1253D01*
X-5134Y1226D01*
X-5134Y1721D01*
X-5132Y1720D01*
X-5059Y1689D01*
X-4979Y1689D01*
X-4823Y1689D01*
X-4773Y1739D01*
X-4773Y2096D01*
X-4781Y2096D01*
X-4781Y2116D01*
X-4773Y2116D01*
X-4773Y2472D01*
X-4823Y2522D01*
X-4971Y2522D01*
X-4848Y2645D01*
X-4478Y2645D01*
X-4451Y2656D01*
X-4451Y2515D01*
X-4468Y2522D01*
X-4547Y2522D01*
X-4703Y2522D01*
X-4753Y2472D01*
X-4753Y2116D01*
X-4745Y2116D01*
X-4745Y2096D01*
X-4753Y2096D01*
X-4753Y1739D01*
X-4703Y1689D01*
X-4547Y1689D01*
X-4468Y1689D01*
X-4394Y1720D01*
X-4338Y1776D01*
X-4307Y1849D01*
X-4307Y2046D01*
X-4357Y2096D01*
X-4325Y2096D01*
X-4186Y1956D01*
X-4186Y1651D01*
X-4163Y1596D01*
X-4121Y1553D01*
X-4066Y1531D01*
X-4006Y1531D01*
X-3702Y1531D01*
X-3488Y1316D01*
X-3423Y1273D01*
X-3423Y1273D01*
X-3347Y1258D01*
X-3177Y1258D01*
X-3191Y1254D01*
X-3364Y1143D01*
X-3481Y975D01*
X-3500Y889D01*
X-3518Y975D01*
X-3635Y1143D01*
X-3808Y1254D01*
X-3908Y1282D01*
X-3990Y1240D01*
X-3990Y600D01*
X-3525Y600D01*
X-3475Y600D01*
X-3010Y600D01*
X-3010Y608D01*
X-2990Y608D01*
X-2990Y600D01*
X-2982Y600D01*
X-2982Y580D01*
G54D10*
G36*
X-101Y2326D02*
X-145Y2308D01*
X-187Y2266D01*
X-204Y2224D01*
X-204Y2372D01*
X-227Y2427D01*
X-269Y2469D01*
X-324Y2492D01*
X-384Y2492D01*
X-699Y2492D01*
X-754Y2469D01*
X-796Y2427D01*
X-819Y2372D01*
X-819Y2312D01*
X-819Y2224D01*
X-836Y2266D01*
X-878Y2308D01*
X-933Y2331D01*
X-993Y2331D01*
X-1308Y2331D01*
X-1363Y2308D01*
X-1405Y2266D01*
X-1428Y2210D01*
X-1428Y2151D01*
X-1428Y1656D01*
X-1563Y1656D01*
X-1563Y1710D01*
X-1563Y2210D01*
X-1586Y2266D01*
X-1628Y2308D01*
X-1683Y2331D01*
X-1743Y2331D01*
X-2058Y2331D01*
X-2113Y2308D01*
X-2155Y2266D01*
X-2172Y2224D01*
X-2172Y2372D01*
X-2195Y2427D01*
X-2237Y2469D01*
X-2292Y2492D01*
X-2352Y2492D01*
X-2667Y2492D01*
X-2722Y2469D01*
X-2764Y2427D01*
X-2787Y2372D01*
X-2787Y2312D01*
X-2787Y2139D01*
X-2797Y2130D01*
X-2821Y2130D01*
X-2821Y2210D01*
X-2844Y2266D01*
X-2886Y2308D01*
X-2941Y2331D01*
X-3001Y2331D01*
X-3316Y2331D01*
X-3371Y2308D01*
X-3413Y2266D01*
X-3436Y2210D01*
X-3436Y2151D01*
X-3436Y1828D01*
X-3571Y1963D01*
X-3571Y2210D01*
X-3594Y2266D01*
X-3636Y2308D01*
X-3691Y2331D01*
X-3751Y2331D01*
X-3997Y2331D01*
X-4052Y2386D01*
X-4052Y3425D01*
X-4067Y3501D01*
X-4111Y3566D01*
X-4863Y4318D01*
X-4714Y4318D01*
X-4659Y4341D01*
X-4616Y4383D01*
X-4594Y4438D01*
X-4594Y4498D01*
X-4594Y4773D01*
X-4616Y4829D01*
X-4620Y4832D01*
X-4616Y4836D01*
X-4594Y4891D01*
X-4594Y4951D01*
X-4594Y5266D01*
X-4614Y5314D01*
X-4594Y5363D01*
X-4594Y5423D01*
X-4594Y5738D01*
X-4614Y5787D01*
X-4594Y5836D01*
X-4594Y5895D01*
X-4594Y6210D01*
X-4614Y6259D01*
X-4594Y6308D01*
X-4594Y6368D01*
X-4594Y6683D01*
X-4614Y6732D01*
X-4594Y6781D01*
X-4594Y6840D01*
X-4594Y7155D01*
X-4614Y7204D01*
X-4594Y7253D01*
X-4594Y7313D01*
X-4594Y7628D01*
X-4616Y7683D01*
X-4630Y7696D01*
X-4616Y7710D01*
X-4594Y7765D01*
X-4594Y7825D01*
X-4594Y8140D01*
X-4616Y8195D01*
X-4659Y8237D01*
X-4714Y8260D01*
X-4773Y8260D01*
X-5029Y8260D01*
X-5128Y8260D01*
X-5186Y8260D01*
X-5204Y8278D01*
X-5195Y8281D01*
X-5139Y8337D01*
X-5109Y8411D01*
X-5109Y8501D01*
X-5159Y8551D01*
X-5767Y8551D01*
X-5767Y8543D01*
X-5787Y8543D01*
X-5787Y8551D01*
X-5795Y8551D01*
X-5795Y8571D01*
X-5787Y8571D01*
X-5787Y8578D01*
X-5767Y8578D01*
X-5767Y8571D01*
X-5159Y8571D01*
X-5109Y8621D01*
X-5109Y8659D01*
X-3906Y8659D01*
X-4304Y8260D01*
X-4419Y8260D01*
X-4474Y8237D01*
X-4516Y8195D01*
X-4539Y8140D01*
X-4539Y8080D01*
X-4539Y7765D01*
X-4516Y7710D01*
X-4503Y7696D01*
X-4516Y7683D01*
X-4539Y7628D01*
X-4539Y7568D01*
X-4539Y7253D01*
X-4519Y7204D01*
X-4539Y7155D01*
X-4539Y7096D01*
X-4539Y6781D01*
X-4519Y6732D01*
X-4539Y6683D01*
X-4539Y6623D01*
X-4539Y6308D01*
X-4519Y6259D01*
X-4539Y6210D01*
X-4539Y6151D01*
X-4539Y5836D01*
X-4519Y5787D01*
X-4539Y5738D01*
X-4539Y5678D01*
X-4539Y5363D01*
X-4519Y5314D01*
X-4539Y5266D01*
X-4539Y5206D01*
X-4539Y4891D01*
X-4519Y4842D01*
X-4539Y4793D01*
X-4539Y4733D01*
X-4539Y4418D01*
X-4516Y4363D01*
X-4474Y4321D01*
X-4419Y4298D01*
X-4359Y4298D01*
X-4005Y4298D01*
X-3950Y4321D01*
X-3908Y4363D01*
X-3890Y4407D01*
X-3850Y4407D01*
X-3938Y4275D01*
X-3974Y4093D01*
X-3974Y3717D01*
X-3938Y3535D01*
X-3835Y3381D01*
X-3793Y3353D01*
X-3811Y3309D01*
X-3811Y3249D01*
X-3811Y2749D01*
X-3788Y2694D01*
X-3746Y2652D01*
X-3691Y2629D01*
X-3631Y2629D01*
X-3316Y2629D01*
X-3261Y2652D01*
X-3219Y2694D01*
X-3196Y2749D01*
X-3196Y2809D01*
X-3196Y3309D01*
X-3212Y3349D01*
X-3164Y3381D01*
X-3061Y3535D01*
X-3025Y3717D01*
X-3025Y4093D01*
X-3038Y4162D01*
X-2973Y4097D01*
X-2974Y4093D01*
X-2974Y3717D01*
X-2938Y3535D01*
X-2835Y3381D01*
X-2681Y3278D01*
X-2500Y3242D01*
X-2318Y3278D01*
X-2301Y3290D01*
X-2332Y3214D01*
X-2332Y3201D01*
X-2352Y3201D01*
X-2667Y3201D01*
X-2722Y3178D01*
X-2764Y3136D01*
X-2787Y3081D01*
X-2787Y3021D01*
X-2787Y2667D01*
X-2764Y2611D01*
X-2722Y2569D01*
X-2667Y2546D01*
X-2607Y2546D01*
X-2292Y2546D01*
X-2237Y2569D01*
X-2195Y2611D01*
X-2172Y2667D01*
X-2172Y2712D01*
X-2142Y2733D01*
X-2051Y2824D01*
X-1943Y2824D01*
X-1824Y2873D01*
X-1803Y2894D01*
X-1803Y2749D01*
X-1780Y2694D01*
X-1738Y2652D01*
X-1683Y2629D01*
X-1623Y2629D01*
X-1308Y2629D01*
X-1253Y2652D01*
X-1211Y2694D01*
X-1188Y2749D01*
X-1188Y2809D01*
X-1188Y2933D01*
X-1129Y2874D01*
X-1009Y2824D01*
X-901Y2824D01*
X-819Y2742D01*
X-819Y2667D01*
X-796Y2611D01*
X-754Y2569D01*
X-699Y2546D01*
X-639Y2546D01*
X-324Y2546D01*
X-269Y2569D01*
X-227Y2611D01*
X-204Y2667D01*
X-204Y2726D01*
X-204Y3081D01*
X-227Y3136D01*
X-269Y3178D01*
X-324Y3201D01*
X-384Y3201D01*
X-619Y3201D01*
X-619Y3213D01*
X-643Y3271D01*
X-500Y3242D01*
X-318Y3278D01*
X-164Y3381D01*
X-145Y3409D01*
X-140Y3402D01*
X-101Y3363D01*
X-101Y2326D01*
X-101Y2326D01*
G37*
G54D28*
X-101Y2326D02*
X-145Y2308D01*
X-187Y2266D01*
X-204Y2224D01*
X-204Y2372D01*
X-227Y2427D01*
X-269Y2469D01*
X-324Y2492D01*
X-384Y2492D01*
X-699Y2492D01*
X-754Y2469D01*
X-796Y2427D01*
X-819Y2372D01*
X-819Y2312D01*
X-819Y2224D01*
X-836Y2266D01*
X-878Y2308D01*
X-933Y2331D01*
X-993Y2331D01*
X-1308Y2331D01*
X-1363Y2308D01*
X-1405Y2266D01*
X-1428Y2210D01*
X-1428Y2151D01*
X-1428Y1656D01*
X-1563Y1656D01*
X-1563Y1710D01*
X-1563Y2210D01*
X-1586Y2266D01*
X-1628Y2308D01*
X-1683Y2331D01*
X-1743Y2331D01*
X-2058Y2331D01*
X-2113Y2308D01*
X-2155Y2266D01*
X-2172Y2224D01*
X-2172Y2372D01*
X-2195Y2427D01*
X-2237Y2469D01*
X-2292Y2492D01*
X-2352Y2492D01*
X-2667Y2492D01*
X-2722Y2469D01*
X-2764Y2427D01*
X-2787Y2372D01*
X-2787Y2312D01*
X-2787Y2139D01*
X-2797Y2130D01*
X-2821Y2130D01*
X-2821Y2210D01*
X-2844Y2266D01*
X-2886Y2308D01*
X-2941Y2331D01*
X-3001Y2331D01*
X-3316Y2331D01*
X-3371Y2308D01*
X-3413Y2266D01*
X-3436Y2210D01*
X-3436Y2151D01*
X-3436Y1828D01*
X-3571Y1963D01*
X-3571Y2210D01*
X-3594Y2266D01*
X-3636Y2308D01*
X-3691Y2331D01*
X-3751Y2331D01*
X-3997Y2331D01*
X-4052Y2386D01*
X-4052Y3425D01*
X-4067Y3501D01*
X-4111Y3566D01*
X-4863Y4318D01*
X-4714Y4318D01*
X-4659Y4341D01*
X-4616Y4383D01*
X-4594Y4438D01*
X-4594Y4498D01*
X-4594Y4773D01*
X-4616Y4829D01*
X-4620Y4832D01*
X-4616Y4836D01*
X-4594Y4891D01*
X-4594Y4951D01*
X-4594Y5266D01*
X-4614Y5314D01*
X-4594Y5363D01*
X-4594Y5423D01*
X-4594Y5738D01*
X-4614Y5787D01*
X-4594Y5836D01*
X-4594Y5895D01*
X-4594Y6210D01*
X-4614Y6259D01*
X-4594Y6308D01*
X-4594Y6368D01*
X-4594Y6683D01*
X-4614Y6732D01*
X-4594Y6781D01*
X-4594Y6840D01*
X-4594Y7155D01*
X-4614Y7204D01*
X-4594Y7253D01*
X-4594Y7313D01*
X-4594Y7628D01*
X-4616Y7683D01*
X-4630Y7696D01*
X-4616Y7710D01*
X-4594Y7765D01*
X-4594Y7825D01*
X-4594Y8140D01*
X-4616Y8195D01*
X-4659Y8237D01*
X-4714Y8260D01*
X-4773Y8260D01*
X-5029Y8260D01*
X-5128Y8260D01*
X-5186Y8260D01*
X-5204Y8278D01*
X-5195Y8281D01*
X-5139Y8337D01*
X-5109Y8411D01*
X-5109Y8501D01*
X-5159Y8551D01*
X-5767Y8551D01*
X-5767Y8543D01*
X-5787Y8543D01*
X-5787Y8551D01*
X-5795Y8551D01*
X-5795Y8571D01*
X-5787Y8571D01*
X-5787Y8578D01*
X-5767Y8578D01*
X-5767Y8571D01*
X-5159Y8571D01*
X-5109Y8621D01*
X-5109Y8659D01*
X-3906Y8659D01*
X-4304Y8260D01*
X-4419Y8260D01*
X-4474Y8237D01*
X-4516Y8195D01*
X-4539Y8140D01*
X-4539Y8080D01*
X-4539Y7765D01*
X-4516Y7710D01*
X-4503Y7696D01*
X-4516Y7683D01*
X-4539Y7628D01*
X-4539Y7568D01*
X-4539Y7253D01*
X-4519Y7204D01*
X-4539Y7155D01*
X-4539Y7096D01*
X-4539Y6781D01*
X-4519Y6732D01*
X-4539Y6683D01*
X-4539Y6623D01*
X-4539Y6308D01*
X-4519Y6259D01*
X-4539Y6210D01*
X-4539Y6151D01*
X-4539Y5836D01*
X-4519Y5787D01*
X-4539Y5738D01*
X-4539Y5678D01*
X-4539Y5363D01*
X-4519Y5314D01*
X-4539Y5266D01*
X-4539Y5206D01*
X-4539Y4891D01*
X-4519Y4842D01*
X-4539Y4793D01*
X-4539Y4733D01*
X-4539Y4418D01*
X-4516Y4363D01*
X-4474Y4321D01*
X-4419Y4298D01*
X-4359Y4298D01*
X-4005Y4298D01*
X-3950Y4321D01*
X-3908Y4363D01*
X-3890Y4407D01*
X-3850Y4407D01*
X-3938Y4275D01*
X-3974Y4093D01*
X-3974Y3717D01*
X-3938Y3535D01*
X-3835Y3381D01*
X-3793Y3353D01*
X-3811Y3309D01*
X-3811Y3249D01*
X-3811Y2749D01*
X-3788Y2694D01*
X-3746Y2652D01*
X-3691Y2629D01*
X-3631Y2629D01*
X-3316Y2629D01*
X-3261Y2652D01*
X-3219Y2694D01*
X-3196Y2749D01*
X-3196Y2809D01*
X-3196Y3309D01*
X-3212Y3349D01*
X-3164Y3381D01*
X-3061Y3535D01*
X-3025Y3717D01*
X-3025Y4093D01*
X-3038Y4162D01*
X-2973Y4097D01*
X-2974Y4093D01*
X-2974Y3717D01*
X-2938Y3535D01*
X-2835Y3381D01*
X-2681Y3278D01*
X-2500Y3242D01*
X-2318Y3278D01*
X-2301Y3290D01*
X-2332Y3214D01*
X-2332Y3201D01*
X-2352Y3201D01*
X-2667Y3201D01*
X-2722Y3178D01*
X-2764Y3136D01*
X-2787Y3081D01*
X-2787Y3021D01*
X-2787Y2667D01*
X-2764Y2611D01*
X-2722Y2569D01*
X-2667Y2546D01*
X-2607Y2546D01*
X-2292Y2546D01*
X-2237Y2569D01*
X-2195Y2611D01*
X-2172Y2667D01*
X-2172Y2712D01*
X-2142Y2733D01*
X-2051Y2824D01*
X-1943Y2824D01*
X-1824Y2873D01*
X-1803Y2894D01*
X-1803Y2749D01*
X-1780Y2694D01*
X-1738Y2652D01*
X-1683Y2629D01*
X-1623Y2629D01*
X-1308Y2629D01*
X-1253Y2652D01*
X-1211Y2694D01*
X-1188Y2749D01*
X-1188Y2809D01*
X-1188Y2933D01*
X-1129Y2874D01*
X-1009Y2824D01*
X-901Y2824D01*
X-819Y2742D01*
X-819Y2667D01*
X-796Y2611D01*
X-754Y2569D01*
X-699Y2546D01*
X-639Y2546D01*
X-324Y2546D01*
X-269Y2569D01*
X-227Y2611D01*
X-204Y2667D01*
X-204Y2726D01*
X-204Y3081D01*
X-227Y3136D01*
X-269Y3178D01*
X-324Y3201D01*
X-384Y3201D01*
X-619Y3201D01*
X-619Y3213D01*
X-643Y3271D01*
X-500Y3242D01*
X-318Y3278D01*
X-164Y3381D01*
X-145Y3409D01*
X-140Y3402D01*
X-101Y3363D01*
X-101Y2326D01*
G54D10*
G36*
X-60Y7155D02*
X-68Y7155D01*
X-68Y7147D01*
X-88Y7147D01*
X-88Y7155D01*
X-405Y7155D01*
X-455Y7105D01*
X-455Y7047D01*
X-455Y6968D01*
X-425Y6894D01*
X-369Y6838D01*
X-295Y6807D01*
X-138Y6807D01*
X-88Y6857D01*
X-88Y6807D01*
X-88Y6807D01*
X-88Y6807D01*
X-88Y6807D01*
X-200Y6695D01*
X-626Y6695D01*
X-788Y6857D01*
X-580Y6857D01*
X-525Y6880D01*
X-483Y6922D01*
X-460Y6978D01*
X-460Y7037D01*
X-460Y7250D01*
X-455Y7251D01*
X-455Y7225D01*
X-405Y7175D01*
X-88Y7175D01*
X-88Y7183D01*
X-68Y7183D01*
X-68Y7175D01*
X-60Y7175D01*
X-60Y7155D01*
X-60Y7155D01*
G37*
G54D28*
X-60Y7155D02*
X-68Y7155D01*
X-68Y7147D01*
X-88Y7147D01*
X-88Y7155D01*
X-405Y7155D01*
X-455Y7105D01*
X-455Y7047D01*
X-455Y6968D01*
X-425Y6894D01*
X-369Y6838D01*
X-295Y6807D01*
X-138Y6807D01*
X-88Y6857D01*
X-88Y6807D01*
X-88Y6807D01*
X-88Y6807D01*
X-88Y6807D01*
X-200Y6695D01*
X-626Y6695D01*
X-788Y6857D01*
X-580Y6857D01*
X-525Y6880D01*
X-483Y6922D01*
X-460Y6978D01*
X-460Y7037D01*
X-460Y7250D01*
X-455Y7251D01*
X-455Y7225D01*
X-405Y7175D01*
X-88Y7175D01*
X-88Y7183D01*
X-68Y7183D01*
X-68Y7175D01*
X-60Y7175D01*
X-60Y7155D01*
G54D10*
G36*
X5274Y4845D02*
X5138Y4845D01*
X5088Y4795D01*
X5088Y4498D01*
X5096Y4498D01*
X5096Y4478D01*
X5088Y4478D01*
X5088Y4470D01*
X5068Y4470D01*
X5068Y4478D01*
X5060Y4478D01*
X5060Y4498D01*
X5068Y4498D01*
X5068Y4795D01*
X5018Y4845D01*
X4861Y4845D01*
X4788Y4815D01*
X4732Y4758D01*
X4701Y4685D01*
X4701Y4605D01*
X4701Y4548D01*
X4751Y4498D01*
X4730Y4498D01*
X4697Y4531D01*
X4697Y4675D01*
X4674Y4730D01*
X4632Y4772D01*
X4577Y4795D01*
X4517Y4795D01*
X4163Y4795D01*
X4107Y4772D01*
X4103Y4768D01*
X4094Y4790D01*
X4003Y4881D01*
X3883Y4931D01*
X3754Y4931D01*
X3697Y4907D01*
X3626Y4979D01*
X3626Y5017D01*
X3651Y5007D01*
X3710Y5007D01*
X4065Y5007D01*
X4120Y5030D01*
X4162Y5072D01*
X4185Y5127D01*
X4185Y5187D01*
X4185Y5414D01*
X4239Y5360D01*
X4239Y5127D01*
X4262Y5072D01*
X4304Y5030D01*
X4359Y5007D01*
X4419Y5007D01*
X4773Y5007D01*
X4829Y5030D01*
X4871Y5072D01*
X4894Y5127D01*
X4894Y5187D01*
X4894Y5502D01*
X4871Y5557D01*
X4829Y5599D01*
X4773Y5622D01*
X4714Y5622D01*
X4541Y5622D01*
X4274Y5888D01*
X4210Y5932D01*
X4133Y5947D01*
X3588Y5947D01*
X3561Y5974D01*
X3506Y5997D01*
X3446Y5997D01*
X2946Y5997D01*
X2891Y5974D01*
X2849Y5932D01*
X2826Y5877D01*
X2826Y5817D01*
X2826Y5502D01*
X2837Y5474D01*
X2795Y5474D01*
X2771Y5470D01*
X2742Y5482D01*
X2612Y5482D01*
X2527Y5447D01*
X2527Y5502D01*
X2505Y5557D01*
X2462Y5599D01*
X2407Y5622D01*
X2348Y5622D01*
X1848Y5622D01*
X1792Y5599D01*
X1750Y5557D01*
X1727Y5502D01*
X1727Y5442D01*
X1727Y5207D01*
X1243Y5692D01*
X1221Y5706D01*
X1500Y5706D01*
X1576Y5721D01*
X1640Y5764D01*
X3220Y7344D01*
X3318Y7278D01*
X3500Y7242D01*
X3681Y7278D01*
X3835Y7381D01*
X3938Y7535D01*
X3974Y7717D01*
X3974Y8093D01*
X3938Y8275D01*
X3835Y8429D01*
X3681Y8532D01*
X3500Y8568D01*
X3318Y8532D01*
X3164Y8429D01*
X3061Y8275D01*
X3025Y8093D01*
X3025Y7717D01*
X3026Y7713D01*
X2961Y7648D01*
X2974Y7717D01*
X2974Y8093D01*
X2938Y8275D01*
X2835Y8429D01*
X2681Y8532D01*
X2500Y8568D01*
X2318Y8532D01*
X2164Y8429D01*
X2061Y8275D01*
X2025Y8093D01*
X2025Y7717D01*
X2026Y7713D01*
X1961Y7648D01*
X1974Y7717D01*
X1974Y8093D01*
X1938Y8275D01*
X1835Y8429D01*
X1681Y8532D01*
X1500Y8568D01*
X1318Y8532D01*
X1164Y8429D01*
X1061Y8275D01*
X1025Y8093D01*
X1025Y7717D01*
X1043Y7624D01*
X905Y7486D01*
X938Y7535D01*
X974Y7717D01*
X974Y8093D01*
X938Y8275D01*
X835Y8429D01*
X681Y8532D01*
X500Y8568D01*
X318Y8532D01*
X164Y8429D01*
X61Y8275D01*
X25Y8093D01*
X25Y7717D01*
X61Y7535D01*
X70Y7522D01*
X-18Y7522D01*
X-68Y7472D01*
X-68Y7522D01*
X-70Y7522D01*
X-61Y7535D01*
X-25Y7717D01*
X-25Y8093D01*
X-61Y8275D01*
X-164Y8429D01*
X-318Y8532D01*
X-500Y8568D01*
X-681Y8532D01*
X-835Y8429D01*
X-938Y8275D01*
X-974Y8093D01*
X-974Y7717D01*
X-970Y7695D01*
X-971Y7694D01*
X-986Y7618D01*
X-986Y7472D01*
X-994Y7472D01*
X-1049Y7449D01*
X-1091Y7407D01*
X-1114Y7352D01*
X-1114Y7292D01*
X-1114Y7183D01*
X-1253Y7322D01*
X-1164Y7381D01*
X-1061Y7535D01*
X-1025Y7717D01*
X-1025Y8093D01*
X-1061Y8275D01*
X-1164Y8429D01*
X-1318Y8532D01*
X-1500Y8568D01*
X-1681Y8532D01*
X-1779Y8466D01*
X-1971Y8659D01*
X3657Y8659D01*
X5259Y7057D01*
X5211Y7057D01*
X5091Y7007D01*
X5000Y6916D01*
X4950Y6797D01*
X4950Y6667D01*
X4999Y6548D01*
X5091Y6456D01*
X5210Y6407D01*
X5274Y6407D01*
X5274Y4845D01*
X5274Y4845D01*
G37*
G54D28*
X5274Y4845D02*
X5138Y4845D01*
X5088Y4795D01*
X5088Y4498D01*
X5096Y4498D01*
X5096Y4478D01*
X5088Y4478D01*
X5088Y4470D01*
X5068Y4470D01*
X5068Y4478D01*
X5060Y4478D01*
X5060Y4498D01*
X5068Y4498D01*
X5068Y4795D01*
X5018Y4845D01*
X4861Y4845D01*
X4788Y4815D01*
X4732Y4758D01*
X4701Y4685D01*
X4701Y4605D01*
X4701Y4548D01*
X4751Y4498D01*
X4730Y4498D01*
X4697Y4531D01*
X4697Y4675D01*
X4674Y4730D01*
X4632Y4772D01*
X4577Y4795D01*
X4517Y4795D01*
X4163Y4795D01*
X4107Y4772D01*
X4103Y4768D01*
X4094Y4790D01*
X4003Y4881D01*
X3883Y4931D01*
X3754Y4931D01*
X3697Y4907D01*
X3626Y4979D01*
X3626Y5017D01*
X3651Y5007D01*
X3710Y5007D01*
X4065Y5007D01*
X4120Y5030D01*
X4162Y5072D01*
X4185Y5127D01*
X4185Y5187D01*
X4185Y5414D01*
X4239Y5360D01*
X4239Y5127D01*
X4262Y5072D01*
X4304Y5030D01*
X4359Y5007D01*
X4419Y5007D01*
X4773Y5007D01*
X4829Y5030D01*
X4871Y5072D01*
X4894Y5127D01*
X4894Y5187D01*
X4894Y5502D01*
X4871Y5557D01*
X4829Y5599D01*
X4773Y5622D01*
X4714Y5622D01*
X4541Y5622D01*
X4274Y5888D01*
X4210Y5932D01*
X4133Y5947D01*
X3588Y5947D01*
X3561Y5974D01*
X3506Y5997D01*
X3446Y5997D01*
X2946Y5997D01*
X2891Y5974D01*
X2849Y5932D01*
X2826Y5877D01*
X2826Y5817D01*
X2826Y5502D01*
X2837Y5474D01*
X2795Y5474D01*
X2771Y5470D01*
X2742Y5482D01*
X2612Y5482D01*
X2527Y5447D01*
X2527Y5502D01*
X2505Y5557D01*
X2462Y5599D01*
X2407Y5622D01*
X2348Y5622D01*
X1848Y5622D01*
X1792Y5599D01*
X1750Y5557D01*
X1727Y5502D01*
X1727Y5442D01*
X1727Y5207D01*
X1243Y5692D01*
X1221Y5706D01*
X1500Y5706D01*
X1576Y5721D01*
X1640Y5764D01*
X3220Y7344D01*
X3318Y7278D01*
X3500Y7242D01*
X3681Y7278D01*
X3835Y7381D01*
X3938Y7535D01*
X3974Y7717D01*
X3974Y8093D01*
X3938Y8275D01*
X3835Y8429D01*
X3681Y8532D01*
X3500Y8568D01*
X3318Y8532D01*
X3164Y8429D01*
X3061Y8275D01*
X3025Y8093D01*
X3025Y7717D01*
X3026Y7713D01*
X2961Y7648D01*
X2974Y7717D01*
X2974Y8093D01*
X2938Y8275D01*
X2835Y8429D01*
X2681Y8532D01*
X2500Y8568D01*
X2318Y8532D01*
X2164Y8429D01*
X2061Y8275D01*
X2025Y8093D01*
X2025Y7717D01*
X2026Y7713D01*
X1961Y7648D01*
X1974Y7717D01*
X1974Y8093D01*
X1938Y8275D01*
X1835Y8429D01*
X1681Y8532D01*
X1500Y8568D01*
X1318Y8532D01*
X1164Y8429D01*
X1061Y8275D01*
X1025Y8093D01*
X1025Y7717D01*
X1043Y7624D01*
X905Y7486D01*
X938Y7535D01*
X974Y7717D01*
X974Y8093D01*
X938Y8275D01*
X835Y8429D01*
X681Y8532D01*
X500Y8568D01*
X318Y8532D01*
X164Y8429D01*
X61Y8275D01*
X25Y8093D01*
X25Y7717D01*
X61Y7535D01*
X70Y7522D01*
X-18Y7522D01*
X-68Y7472D01*
X-68Y7522D01*
X-70Y7522D01*
X-61Y7535D01*
X-25Y7717D01*
X-25Y8093D01*
X-61Y8275D01*
X-164Y8429D01*
X-318Y8532D01*
X-500Y8568D01*
X-681Y8532D01*
X-835Y8429D01*
X-938Y8275D01*
X-974Y8093D01*
X-974Y7717D01*
X-970Y7695D01*
X-971Y7694D01*
X-986Y7618D01*
X-986Y7472D01*
X-994Y7472D01*
X-1049Y7449D01*
X-1091Y7407D01*
X-1114Y7352D01*
X-1114Y7292D01*
X-1114Y7183D01*
X-1253Y7322D01*
X-1164Y7381D01*
X-1061Y7535D01*
X-1025Y7717D01*
X-1025Y8093D01*
X-1061Y8275D01*
X-1164Y8429D01*
X-1318Y8532D01*
X-1500Y8568D01*
X-1681Y8532D01*
X-1779Y8466D01*
X-1971Y8659D01*
X3657Y8659D01*
X5259Y7057D01*
X5211Y7057D01*
X5091Y7007D01*
X5000Y6916D01*
X4950Y6797D01*
X4950Y6667D01*
X4999Y6548D01*
X5091Y6456D01*
X5210Y6407D01*
X5274Y6407D01*
X5274Y4845D01*
G54D10*
G36*
X9066Y4536D02*
X8866Y4493D01*
X8698Y4375D01*
X8603Y4228D01*
X8603Y4863D01*
X7360Y4863D01*
X7291Y4795D01*
X6820Y4324D01*
X6811Y4324D01*
X6731Y4324D01*
X6658Y4293D01*
X6638Y4273D01*
X6632Y4273D01*
X6632Y4267D01*
X6602Y4237D01*
X6571Y4163D01*
X6571Y4124D01*
X6621Y4074D01*
X6632Y4074D01*
X6632Y4054D01*
X6621Y4054D01*
X6571Y4004D01*
X6571Y3966D01*
X6602Y3892D01*
X6621Y3873D01*
X6621Y3838D01*
X6621Y3720D01*
X6632Y3694D01*
X6632Y3688D01*
X6459Y3862D01*
X6459Y4248D01*
X7069Y4859D01*
X7129Y4918D01*
X8607Y4918D01*
X8625Y4830D01*
X8728Y4675D01*
X8882Y4572D01*
X9064Y4536D01*
X9066Y4536D01*
X9066Y4536D01*
G37*
G54D28*
X9066Y4536D02*
X8866Y4493D01*
X8698Y4375D01*
X8603Y4228D01*
X8603Y4863D01*
X7360Y4863D01*
X7291Y4795D01*
X6820Y4324D01*
X6811Y4324D01*
X6731Y4324D01*
X6658Y4293D01*
X6638Y4273D01*
X6632Y4273D01*
X6632Y4267D01*
X6602Y4237D01*
X6571Y4163D01*
X6571Y4124D01*
X6621Y4074D01*
X6632Y4074D01*
X6632Y4054D01*
X6621Y4054D01*
X6571Y4004D01*
X6571Y3966D01*
X6602Y3892D01*
X6621Y3873D01*
X6621Y3838D01*
X6621Y3720D01*
X6632Y3694D01*
X6632Y3688D01*
X6459Y3862D01*
X6459Y4248D01*
X7069Y4859D01*
X7129Y4918D01*
X8607Y4918D01*
X8625Y4830D01*
X8728Y4675D01*
X8882Y4572D01*
X9064Y4536D01*
X9066Y4536D01*
G54D10*
G36*
X9662Y7422D02*
X9621Y7450D01*
X9439Y7486D01*
X9064Y7486D01*
X8882Y7450D01*
X8770Y7375D01*
X8749Y7427D01*
X8707Y7469D01*
X8651Y7492D01*
X8592Y7492D01*
X8277Y7492D01*
X8222Y7469D01*
X8179Y7427D01*
X8157Y7372D01*
X8157Y7312D01*
X8157Y6958D01*
X8179Y6903D01*
X8222Y6861D01*
X8277Y6838D01*
X8336Y6838D01*
X8623Y6838D01*
X8625Y6830D01*
X8657Y6781D01*
X8651Y6783D01*
X8592Y6783D01*
X8277Y6783D01*
X8222Y6761D01*
X8179Y6718D01*
X8157Y6663D01*
X8157Y6655D01*
X8034Y6655D01*
X8034Y8916D01*
X8034Y9191D01*
X7984Y9241D01*
X7529Y9241D01*
X7529Y8806D01*
X7579Y8756D01*
X7794Y8756D01*
X7874Y8756D01*
X7947Y8787D01*
X8004Y8843D01*
X8034Y8916D01*
X8034Y6655D01*
X7945Y6655D01*
X7919Y6682D01*
X7864Y6705D01*
X7804Y6705D01*
X7509Y6705D01*
X7509Y8806D01*
X7509Y9241D01*
X7054Y9241D01*
X7004Y9191D01*
X7004Y8916D01*
X7035Y8843D01*
X7091Y8787D01*
X7164Y8756D01*
X7244Y8756D01*
X7459Y8756D01*
X7509Y8806D01*
X7509Y6705D01*
X7174Y6705D01*
X7119Y6682D01*
X7093Y6655D01*
X6971Y6655D01*
X6971Y6948D01*
X6971Y7105D01*
X6971Y7225D01*
X6971Y7382D01*
X6941Y7455D01*
X6884Y7512D01*
X6811Y7542D01*
X6731Y7542D01*
X6674Y7542D01*
X6624Y7492D01*
X6624Y7175D01*
X6921Y7175D01*
X6971Y7225D01*
X6971Y7105D01*
X6921Y7155D01*
X6624Y7155D01*
X6624Y6838D01*
X6674Y6788D01*
X6731Y6788D01*
X6811Y6788D01*
X6884Y6818D01*
X6941Y6874D01*
X6971Y6948D01*
X6971Y6655D01*
X6921Y6655D01*
X6921Y6663D01*
X6898Y6718D01*
X6856Y6761D01*
X6801Y6783D01*
X6741Y6783D01*
X6426Y6783D01*
X6419Y6780D01*
X6419Y6788D01*
X6496Y6788D01*
X6554Y6788D01*
X6604Y6838D01*
X6604Y7155D01*
X6596Y7155D01*
X6596Y7175D01*
X6604Y7175D01*
X6604Y7492D01*
X6554Y7542D01*
X6496Y7542D01*
X6416Y7542D01*
X6343Y7512D01*
X6287Y7455D01*
X6256Y7382D01*
X6256Y7332D01*
X4195Y9392D01*
X4131Y9436D01*
X4055Y9451D01*
X-6535Y9451D01*
X-6611Y9436D01*
X-6676Y9392D01*
X-6951Y9117D01*
X-6995Y9052D01*
X-7010Y8976D01*
X-7010Y8750D01*
X-7012Y8755D01*
X-7054Y8798D01*
X-7109Y8820D01*
X-7169Y8820D01*
X-8106Y8820D01*
X-8161Y8798D01*
X-8203Y8755D01*
X-8208Y8744D01*
X-8272Y8701D01*
X-8762Y8211D01*
X-8806Y8147D01*
X-8821Y8070D01*
X-8821Y7909D01*
X-8882Y7950D01*
X-9064Y7986D01*
X-9439Y7986D01*
X-9621Y7950D01*
X-9662Y7922D01*
X-9662Y8845D01*
X-9599Y8691D01*
X-9419Y8511D01*
X-9183Y8413D01*
X-8927Y8413D01*
X-8691Y8510D01*
X-8511Y8690D01*
X-8413Y8926D01*
X-8413Y9182D01*
X-8510Y9418D01*
X-8690Y9599D01*
X-8844Y9662D01*
X7037Y9662D01*
X7035Y9660D01*
X7004Y9587D01*
X7004Y9311D01*
X7054Y9261D01*
X7509Y9261D01*
X7509Y9269D01*
X7529Y9269D01*
X7529Y9261D01*
X7984Y9261D01*
X8034Y9311D01*
X8034Y9587D01*
X8004Y9660D01*
X8001Y9662D01*
X8845Y9662D01*
X8691Y9599D01*
X8511Y9419D01*
X8413Y9183D01*
X8413Y8927D01*
X8510Y8691D01*
X8690Y8511D01*
X8926Y8413D01*
X9182Y8413D01*
X9418Y8510D01*
X9599Y8690D01*
X9662Y8844D01*
X9662Y7422D01*
X9662Y7422D01*
G37*
G54D28*
X9662Y7422D02*
X9621Y7450D01*
X9439Y7486D01*
X9064Y7486D01*
X8882Y7450D01*
X8770Y7375D01*
X8749Y7427D01*
X8707Y7469D01*
X8651Y7492D01*
X8592Y7492D01*
X8277Y7492D01*
X8222Y7469D01*
X8179Y7427D01*
X8157Y7372D01*
X8157Y7312D01*
X8157Y6958D01*
X8179Y6903D01*
X8222Y6861D01*
X8277Y6838D01*
X8336Y6838D01*
X8623Y6838D01*
X8625Y6830D01*
X8657Y6781D01*
X8651Y6783D01*
X8592Y6783D01*
X8277Y6783D01*
X8222Y6761D01*
X8179Y6718D01*
X8157Y6663D01*
X8157Y6655D01*
X8034Y6655D01*
X8034Y8916D01*
X8034Y9191D01*
X7984Y9241D01*
X7529Y9241D01*
X7529Y8806D01*
X7579Y8756D01*
X7794Y8756D01*
X7874Y8756D01*
X7947Y8787D01*
X8004Y8843D01*
X8034Y8916D01*
X8034Y6655D01*
X7945Y6655D01*
X7919Y6682D01*
X7864Y6705D01*
X7804Y6705D01*
X7509Y6705D01*
X7509Y8806D01*
X7509Y9241D01*
X7054Y9241D01*
X7004Y9191D01*
X7004Y8916D01*
X7035Y8843D01*
X7091Y8787D01*
X7164Y8756D01*
X7244Y8756D01*
X7459Y8756D01*
X7509Y8806D01*
X7509Y6705D01*
X7174Y6705D01*
X7119Y6682D01*
X7093Y6655D01*
X6971Y6655D01*
X6971Y6948D01*
X6971Y7105D01*
X6971Y7225D01*
X6971Y7382D01*
X6941Y7455D01*
X6884Y7512D01*
X6811Y7542D01*
X6731Y7542D01*
X6674Y7542D01*
X6624Y7492D01*
X6624Y7175D01*
X6921Y7175D01*
X6971Y7225D01*
X6971Y7105D01*
X6921Y7155D01*
X6624Y7155D01*
X6624Y6838D01*
X6674Y6788D01*
X6731Y6788D01*
X6811Y6788D01*
X6884Y6818D01*
X6941Y6874D01*
X6971Y6948D01*
X6971Y6655D01*
X6921Y6655D01*
X6921Y6663D01*
X6898Y6718D01*
X6856Y6761D01*
X6801Y6783D01*
X6741Y6783D01*
X6426Y6783D01*
X6419Y6780D01*
X6419Y6788D01*
X6496Y6788D01*
X6554Y6788D01*
X6604Y6838D01*
X6604Y7155D01*
X6596Y7155D01*
X6596Y7175D01*
X6604Y7175D01*
X6604Y7492D01*
X6554Y7542D01*
X6496Y7542D01*
X6416Y7542D01*
X6343Y7512D01*
X6287Y7455D01*
X6256Y7382D01*
X6256Y7332D01*
X4195Y9392D01*
X4131Y9436D01*
X4055Y9451D01*
X-6535Y9451D01*
X-6611Y9436D01*
X-6676Y9392D01*
X-6951Y9117D01*
X-6995Y9052D01*
X-7010Y8976D01*
X-7010Y8750D01*
X-7012Y8755D01*
X-7054Y8798D01*
X-7109Y8820D01*
X-7169Y8820D01*
X-8106Y8820D01*
X-8161Y8798D01*
X-8203Y8755D01*
X-8208Y8744D01*
X-8272Y8701D01*
X-8762Y8211D01*
X-8806Y8147D01*
X-8821Y8070D01*
X-8821Y7909D01*
X-8882Y7950D01*
X-9064Y7986D01*
X-9439Y7986D01*
X-9621Y7950D01*
X-9662Y7922D01*
X-9662Y8845D01*
X-9599Y8691D01*
X-9419Y8511D01*
X-9183Y8413D01*
X-8927Y8413D01*
X-8691Y8510D01*
X-8511Y8690D01*
X-8413Y8926D01*
X-8413Y9182D01*
X-8510Y9418D01*
X-8690Y9599D01*
X-8844Y9662D01*
X7037Y9662D01*
X7035Y9660D01*
X7004Y9587D01*
X7004Y9311D01*
X7054Y9261D01*
X7509Y9261D01*
X7509Y9269D01*
X7529Y9269D01*
X7529Y9261D01*
X7984Y9261D01*
X8034Y9311D01*
X8034Y9587D01*
X8004Y9660D01*
X8001Y9662D01*
X8845Y9662D01*
X8691Y9599D01*
X8511Y9419D01*
X8413Y9183D01*
X8413Y8927D01*
X8510Y8691D01*
X8690Y8511D01*
X8926Y8413D01*
X9182Y8413D01*
X9418Y8510D01*
X9599Y8690D01*
X9662Y8844D01*
X9662Y7422D01*
G54D10*
G36*
X9662Y2178D02*
X9599Y2331D01*
X9419Y2512D01*
X9183Y2610D01*
X8927Y2610D01*
X8691Y2513D01*
X8511Y2332D01*
X8413Y2096D01*
X8413Y1841D01*
X8510Y1605D01*
X8690Y1424D01*
X8844Y1360D01*
X8001Y1360D01*
X8031Y1390D01*
X8080Y1509D01*
X8080Y1639D01*
X8031Y1758D01*
X7940Y1850D01*
X7939Y1850D01*
X8031Y1941D01*
X8080Y2061D01*
X8080Y2190D01*
X8031Y2309D01*
X7940Y2401D01*
X7820Y2450D01*
X7694Y2451D01*
X7684Y2457D01*
X7608Y2472D01*
X7551Y2472D01*
X7551Y2500D01*
X7551Y2618D01*
X7536Y2655D01*
X8603Y2655D01*
X8603Y3795D01*
X8698Y3647D01*
X8866Y3530D01*
X9066Y3486D01*
X9241Y3486D01*
X9241Y4001D01*
X9234Y4001D01*
X9234Y4021D01*
X9241Y4021D01*
X9241Y4536D01*
X9261Y4536D01*
X9261Y4021D01*
X9269Y4021D01*
X9269Y4001D01*
X9261Y4001D01*
X9261Y3486D01*
X9436Y3486D01*
X9637Y3530D01*
X9662Y3548D01*
X9662Y2178D01*
X9662Y2178D01*
G37*
G54D28*
X9662Y2178D02*
X9599Y2331D01*
X9419Y2512D01*
X9183Y2610D01*
X8927Y2610D01*
X8691Y2513D01*
X8511Y2332D01*
X8413Y2096D01*
X8413Y1841D01*
X8510Y1605D01*
X8690Y1424D01*
X8844Y1360D01*
X8001Y1360D01*
X8031Y1390D01*
X8080Y1509D01*
X8080Y1639D01*
X8031Y1758D01*
X7940Y1850D01*
X7939Y1850D01*
X8031Y1941D01*
X8080Y2061D01*
X8080Y2190D01*
X8031Y2309D01*
X7940Y2401D01*
X7820Y2450D01*
X7694Y2451D01*
X7684Y2457D01*
X7608Y2472D01*
X7551Y2472D01*
X7551Y2500D01*
X7551Y2618D01*
X7536Y2655D01*
X8603Y2655D01*
X8603Y3795D01*
X8698Y3647D01*
X8866Y3530D01*
X9066Y3486D01*
X9241Y3486D01*
X9241Y4001D01*
X9234Y4001D01*
X9234Y4021D01*
X9241Y4021D01*
X9241Y4536D01*
X9261Y4536D01*
X9261Y4021D01*
X9269Y4021D01*
X9269Y4001D01*
X9261Y4001D01*
X9261Y3486D01*
X9436Y3486D01*
X9637Y3530D01*
X9662Y3548D01*
X9662Y2178D01*
M02*
