%FSLAX34Y34*%
G04 Gerber Fmt 3.4, Leading zero omitted, Abs format*
G04 (created by PCBNEW (2014-02-28 BZR 4729)-product) date man 03 mar 2014 19:53:33 CET*
%MOIN*%
G01*
G70*
G90*
G04 APERTURE LIST*
%ADD10C,0.005906*%
%ADD11C,0.011811*%
%ADD12O,0.064961X0.100000*%
%ADD13O,0.100000X0.065000*%
%ADD14O,0.065000X0.100000*%
G04 APERTURE END LIST*
G54D10*
G54D11*
X6217Y975D02*
X6217Y385D01*
X6414Y807D01*
X6611Y385D01*
X6611Y975D01*
X7764Y947D02*
X7848Y975D01*
X7989Y975D01*
X8045Y947D01*
X8073Y919D01*
X8101Y863D01*
X8101Y807D01*
X8073Y750D01*
X8045Y722D01*
X7989Y694D01*
X7876Y666D01*
X7820Y638D01*
X7792Y610D01*
X7764Y553D01*
X7764Y497D01*
X7792Y441D01*
X7820Y413D01*
X7876Y385D01*
X8017Y385D01*
X8101Y413D01*
X8354Y975D02*
X8354Y385D01*
X8579Y385D01*
X8636Y413D01*
X8664Y441D01*
X8692Y497D01*
X8692Y582D01*
X8664Y638D01*
X8636Y666D01*
X8579Y694D01*
X8354Y694D01*
X13428Y18748D02*
X13428Y19339D01*
X13231Y18917D01*
X13034Y19339D01*
X13034Y18748D01*
X11881Y18776D02*
X11796Y18748D01*
X11656Y18748D01*
X11600Y18776D01*
X11571Y18804D01*
X11543Y18861D01*
X11543Y18917D01*
X11571Y18973D01*
X11600Y19001D01*
X11656Y19029D01*
X11768Y19057D01*
X11825Y19086D01*
X11853Y19114D01*
X11881Y19170D01*
X11881Y19226D01*
X11853Y19282D01*
X11825Y19311D01*
X11768Y19339D01*
X11628Y19339D01*
X11543Y19311D01*
X11290Y18748D02*
X11290Y19339D01*
X11065Y19339D01*
X11009Y19311D01*
X10981Y19282D01*
X10953Y19226D01*
X10953Y19142D01*
X10981Y19086D01*
X11009Y19057D01*
X11065Y19029D01*
X11290Y19029D01*
G54D12*
X6342Y5937D03*
X7342Y5937D03*
X8342Y5937D03*
X9342Y5937D03*
X10342Y5937D03*
X11342Y5937D03*
X12342Y5937D03*
X13342Y5937D03*
X13342Y1937D03*
X12342Y1937D03*
X11342Y1937D03*
X10342Y1937D03*
X9342Y1937D03*
X8342Y1937D03*
X7342Y1937D03*
X6342Y1937D03*
G54D13*
X590Y2830D03*
X590Y3830D03*
X590Y4830D03*
X590Y5830D03*
G54D14*
X14842Y9251D03*
X13842Y9251D03*
X12842Y9251D03*
X11842Y9251D03*
X10842Y9251D03*
X9842Y9251D03*
X8842Y9251D03*
X7842Y9251D03*
X6842Y9251D03*
X5842Y9251D03*
X4842Y9251D03*
G54D13*
X19094Y2330D03*
X19094Y3330D03*
X19094Y4330D03*
X19094Y5330D03*
X19094Y6330D03*
G54D12*
X13342Y13748D03*
X12342Y13748D03*
X11342Y13748D03*
X10342Y13748D03*
X9342Y13748D03*
X8342Y13748D03*
X7342Y13748D03*
X6342Y13748D03*
X6342Y17748D03*
X7342Y17748D03*
X8342Y17748D03*
X9342Y17748D03*
X10342Y17748D03*
X11342Y17748D03*
X12342Y17748D03*
X13342Y17748D03*
G54D13*
X19094Y16854D03*
X19094Y15854D03*
X19094Y14854D03*
X19094Y13854D03*
G54D14*
X4842Y10433D03*
X5842Y10433D03*
X6842Y10433D03*
X7842Y10433D03*
X8842Y10433D03*
X9842Y10433D03*
X10842Y10433D03*
X11842Y10433D03*
X12842Y10433D03*
X13842Y10433D03*
X14842Y10433D03*
G54D13*
X590Y17354D03*
X590Y16354D03*
X590Y15354D03*
X590Y14354D03*
X590Y13354D03*
M02*
