M48
;DRILL file {Pcbnew (2014-02-28 BZR 4729)-product} date man 03 mar 2014 20:37:34 CET
;FORMAT={2:4/ absolute / inch / suppress leading zeros}
FMAT,2
INCH,TZ
T1C0.025
T2C0.032
T3C0.040
T4C0.098
%
G90
G05
M72
T1
X-8307Y5039
X-8268Y7953
X-6929Y6693
X-6102Y1535
X-5709Y3543
X-4961Y8504
X-2008Y3150
X-945Y3150
X-354Y6850
X984Y3071
X1339Y4685
X2441Y2244
X2677Y5157
X3661Y2598
X3819Y4606
X4094Y1654
X4764Y5748
X5276Y6732
X6024Y5394
X6102Y2835
X6496Y1969
X6614Y4094
X7323Y4331
X7520Y7165
X7756Y2126
X7756Y1575
T2
X-3500Y7906
X-3500Y3906
X-2500Y7906
X-2500Y3906
X-1500Y7906
X-1500Y3906
X-500Y7906
X-500Y3906
X500Y7906
X500Y3906
X1500Y7906
X1500Y3906
X2500Y7906
X2500Y3906
X3500Y7906
X3500Y3906
T3
X-9252Y7512
X-9252Y6512
X-9252Y5512
X-9252Y4512
X-9252Y3512
X-5000Y591
X-4000Y591
X-3000Y591
X-2000Y591
X-1000Y591
X0Y591
X1000Y591
X2000Y591
X3000Y591
X4000Y591
X5000Y591
X9252Y7012
X9252Y6012
X9252Y5012
X9252Y4012
T4
X-9055Y9055
X-9055Y1969
X9055Y9055
X9055Y1969
T0
M30
