%FSLAX34Y34*%
G04 Gerber Fmt 3.4, Leading zero omitted, Abs format*
G04 (created by PCBNEW (2013-12-28 BZR 4579)-product) date ons 26 feb 2014 22:49:01 CET*
%MOIN*%
G01*
G70*
G90*
G04 APERTURE LIST*
%ADD10C,0.005906*%
%ADD11C,0.008858*%
%ADD12C,0.011811*%
%ADD13C,0.009843*%
%ADD14C,0.008000*%
%ADD15C,0.015000*%
%ADD16O,0.064961X0.100000*%
%ADD17O,0.100000X0.065000*%
%ADD18O,0.065000X0.100000*%
G04 APERTURE END LIST*
G54D10*
G54D11*
X53693Y-42343D02*
X53880Y-42343D01*
X53880Y-41949D01*
X53562Y-42343D02*
X53562Y-42080D01*
X53562Y-41949D02*
X53580Y-41968D01*
X53562Y-41987D01*
X53543Y-41968D01*
X53562Y-41949D01*
X53562Y-41987D01*
X53205Y-42324D02*
X53243Y-42343D01*
X53318Y-42343D01*
X53355Y-42324D01*
X53374Y-42305D01*
X53393Y-42268D01*
X53393Y-42155D01*
X53374Y-42118D01*
X53355Y-42099D01*
X53318Y-42080D01*
X53243Y-42080D01*
X53205Y-42099D01*
X52887Y-42324D02*
X52924Y-42343D01*
X52999Y-42343D01*
X53037Y-42324D01*
X53055Y-42287D01*
X53055Y-42137D01*
X53037Y-42099D01*
X52999Y-42080D01*
X52924Y-42080D01*
X52887Y-42099D01*
X52868Y-42137D01*
X52868Y-42174D01*
X53055Y-42212D01*
X52699Y-42080D02*
X52699Y-42343D01*
X52699Y-42118D02*
X52680Y-42099D01*
X52643Y-42080D01*
X52587Y-42080D01*
X52549Y-42099D01*
X52530Y-42137D01*
X52530Y-42343D01*
X52362Y-42324D02*
X52324Y-42343D01*
X52249Y-42343D01*
X52212Y-42324D01*
X52193Y-42287D01*
X52193Y-42268D01*
X52212Y-42230D01*
X52249Y-42212D01*
X52305Y-42212D01*
X52343Y-42193D01*
X52362Y-42155D01*
X52362Y-42137D01*
X52343Y-42099D01*
X52305Y-42080D01*
X52249Y-42080D01*
X52212Y-42099D01*
X51874Y-42324D02*
X51912Y-42343D01*
X51987Y-42343D01*
X52024Y-42324D01*
X52043Y-42287D01*
X52043Y-42137D01*
X52024Y-42099D01*
X51987Y-42080D01*
X51912Y-42080D01*
X51874Y-42099D01*
X51856Y-42137D01*
X51856Y-42174D01*
X52043Y-42212D01*
X51518Y-42343D02*
X51518Y-41949D01*
X51518Y-42324D02*
X51556Y-42343D01*
X51631Y-42343D01*
X51668Y-42324D01*
X51687Y-42305D01*
X51706Y-42268D01*
X51706Y-42155D01*
X51687Y-42118D01*
X51668Y-42099D01*
X51631Y-42080D01*
X51556Y-42080D01*
X51518Y-42099D01*
X50862Y-42080D02*
X50862Y-42343D01*
X51031Y-42080D02*
X51031Y-42287D01*
X51012Y-42324D01*
X50974Y-42343D01*
X50918Y-42343D01*
X50881Y-42324D01*
X50862Y-42305D01*
X50674Y-42080D02*
X50674Y-42343D01*
X50674Y-42118D02*
X50656Y-42099D01*
X50618Y-42080D01*
X50562Y-42080D01*
X50524Y-42099D01*
X50506Y-42137D01*
X50506Y-42343D01*
X50149Y-42343D02*
X50149Y-41949D01*
X50149Y-42324D02*
X50187Y-42343D01*
X50262Y-42343D01*
X50299Y-42324D01*
X50318Y-42305D01*
X50337Y-42268D01*
X50337Y-42155D01*
X50318Y-42118D01*
X50299Y-42099D01*
X50262Y-42080D01*
X50187Y-42080D01*
X50149Y-42099D01*
X49812Y-42324D02*
X49850Y-42343D01*
X49925Y-42343D01*
X49962Y-42324D01*
X49981Y-42287D01*
X49981Y-42137D01*
X49962Y-42099D01*
X49925Y-42080D01*
X49850Y-42080D01*
X49812Y-42099D01*
X49793Y-42137D01*
X49793Y-42174D01*
X49981Y-42212D01*
X49625Y-42343D02*
X49625Y-42080D01*
X49625Y-42155D02*
X49606Y-42118D01*
X49587Y-42099D01*
X49550Y-42080D01*
X49512Y-42080D01*
X48856Y-42305D02*
X48875Y-42324D01*
X48931Y-42343D01*
X48968Y-42343D01*
X49025Y-42324D01*
X49062Y-42287D01*
X49081Y-42249D01*
X49100Y-42174D01*
X49100Y-42118D01*
X49081Y-42043D01*
X49062Y-42005D01*
X49025Y-41968D01*
X48968Y-41949D01*
X48931Y-41949D01*
X48875Y-41968D01*
X48856Y-41987D01*
X48687Y-42137D02*
X48556Y-42137D01*
X48500Y-42343D02*
X48687Y-42343D01*
X48687Y-41949D01*
X48500Y-41949D01*
X48106Y-42343D02*
X48237Y-42155D01*
X48331Y-42343D02*
X48331Y-41949D01*
X48181Y-41949D01*
X48143Y-41968D01*
X48125Y-41987D01*
X48106Y-42024D01*
X48106Y-42080D01*
X48125Y-42118D01*
X48143Y-42137D01*
X48181Y-42155D01*
X48331Y-42155D01*
X47937Y-42343D02*
X47937Y-41949D01*
X47712Y-42343D01*
X47712Y-41949D01*
X47150Y-41949D02*
X47075Y-41949D01*
X47037Y-41968D01*
X47000Y-42005D01*
X46981Y-42080D01*
X46981Y-42212D01*
X47000Y-42287D01*
X47037Y-42324D01*
X47075Y-42343D01*
X47150Y-42343D01*
X47187Y-42324D01*
X47225Y-42287D01*
X47244Y-42212D01*
X47244Y-42080D01*
X47225Y-42005D01*
X47187Y-41968D01*
X47150Y-41949D01*
X46812Y-42343D02*
X46812Y-41949D01*
X46812Y-42137D02*
X46587Y-42137D01*
X46587Y-42343D02*
X46587Y-41949D01*
X46212Y-42343D02*
X46400Y-42343D01*
X46400Y-41949D01*
X45819Y-42080D02*
X45725Y-42343D01*
X45631Y-42080D01*
X45481Y-42305D02*
X45463Y-42324D01*
X45481Y-42343D01*
X45500Y-42324D01*
X45481Y-42305D01*
X45481Y-42343D01*
X45088Y-42343D02*
X45313Y-42343D01*
X45200Y-42343D02*
X45200Y-41949D01*
X45238Y-42005D01*
X45275Y-42043D01*
X45313Y-42062D01*
X44919Y-42305D02*
X44900Y-42324D01*
X44919Y-42343D01*
X44938Y-42324D01*
X44919Y-42305D01*
X44919Y-42343D01*
X44750Y-41987D02*
X44731Y-41968D01*
X44694Y-41949D01*
X44600Y-41949D01*
X44563Y-41968D01*
X44544Y-41987D01*
X44525Y-42024D01*
X44525Y-42062D01*
X44544Y-42118D01*
X44769Y-42343D01*
X44525Y-42343D01*
G54D12*
X53107Y-40424D02*
X53107Y-39834D01*
X52910Y-40255D01*
X52713Y-39834D01*
X52713Y-40424D01*
X52432Y-40424D02*
X52432Y-40030D01*
X52432Y-39834D02*
X52460Y-39862D01*
X52432Y-39890D01*
X52404Y-39862D01*
X52432Y-39834D01*
X52432Y-39890D01*
X52151Y-40030D02*
X52151Y-40424D01*
X52151Y-40087D02*
X52123Y-40059D01*
X52066Y-40030D01*
X51982Y-40030D01*
X51926Y-40059D01*
X51898Y-40115D01*
X51898Y-40424D01*
X51616Y-40424D02*
X51616Y-40030D01*
X51616Y-39834D02*
X51645Y-39862D01*
X51616Y-39890D01*
X51588Y-39862D01*
X51616Y-39834D01*
X51616Y-39890D01*
X51363Y-40396D02*
X51279Y-40424D01*
X51138Y-40424D01*
X51082Y-40396D01*
X51054Y-40368D01*
X51026Y-40312D01*
X51026Y-40255D01*
X51054Y-40199D01*
X51082Y-40171D01*
X51138Y-40143D01*
X51251Y-40115D01*
X51307Y-40087D01*
X51335Y-40059D01*
X51363Y-40002D01*
X51363Y-39946D01*
X51335Y-39890D01*
X51307Y-39862D01*
X51251Y-39834D01*
X51110Y-39834D01*
X51026Y-39862D01*
X50773Y-40424D02*
X50773Y-39834D01*
X50548Y-39834D01*
X50492Y-39862D01*
X50464Y-39890D01*
X50435Y-39946D01*
X50435Y-40030D01*
X50464Y-40087D01*
X50492Y-40115D01*
X50548Y-40143D01*
X50773Y-40143D01*
X49789Y-39834D02*
X49395Y-39834D01*
X49648Y-40424D01*
X48748Y-40396D02*
X48692Y-40424D01*
X48579Y-40424D01*
X48523Y-40396D01*
X48495Y-40340D01*
X48495Y-40312D01*
X48523Y-40255D01*
X48579Y-40227D01*
X48664Y-40227D01*
X48720Y-40199D01*
X48748Y-40143D01*
X48748Y-40115D01*
X48720Y-40059D01*
X48664Y-40030D01*
X48579Y-40030D01*
X48523Y-40059D01*
X48017Y-40396D02*
X48073Y-40424D01*
X48186Y-40424D01*
X48242Y-40396D01*
X48270Y-40340D01*
X48270Y-40115D01*
X48242Y-40059D01*
X48186Y-40030D01*
X48073Y-40030D01*
X48017Y-40059D01*
X47989Y-40115D01*
X47989Y-40171D01*
X48270Y-40227D01*
X47483Y-40030D02*
X47483Y-40508D01*
X47511Y-40565D01*
X47539Y-40593D01*
X47595Y-40621D01*
X47679Y-40621D01*
X47736Y-40593D01*
X47483Y-40396D02*
X47539Y-40424D01*
X47651Y-40424D01*
X47708Y-40396D01*
X47736Y-40368D01*
X47764Y-40312D01*
X47764Y-40143D01*
X47736Y-40087D01*
X47708Y-40059D01*
X47651Y-40030D01*
X47539Y-40030D01*
X47483Y-40059D01*
X47201Y-40424D02*
X47201Y-40030D01*
X47201Y-40087D02*
X47173Y-40059D01*
X47117Y-40030D01*
X47033Y-40030D01*
X46976Y-40059D01*
X46948Y-40115D01*
X46948Y-40424D01*
X46948Y-40115D02*
X46920Y-40059D01*
X46864Y-40030D01*
X46780Y-40030D01*
X46723Y-40059D01*
X46695Y-40115D01*
X46695Y-40424D01*
X46189Y-40396D02*
X46245Y-40424D01*
X46358Y-40424D01*
X46414Y-40396D01*
X46442Y-40340D01*
X46442Y-40115D01*
X46414Y-40059D01*
X46358Y-40030D01*
X46245Y-40030D01*
X46189Y-40059D01*
X46161Y-40115D01*
X46161Y-40171D01*
X46442Y-40227D01*
X45908Y-40030D02*
X45908Y-40424D01*
X45908Y-40087D02*
X45880Y-40059D01*
X45823Y-40030D01*
X45739Y-40030D01*
X45683Y-40059D01*
X45655Y-40115D01*
X45655Y-40424D01*
X45458Y-40030D02*
X45233Y-40030D01*
X45374Y-39834D02*
X45374Y-40340D01*
X45345Y-40396D01*
X45289Y-40424D01*
X45233Y-40424D01*
G54D11*
X54977Y-44510D02*
X54996Y-44529D01*
X55052Y-44548D01*
X55089Y-44548D01*
X55146Y-44529D01*
X55183Y-44491D01*
X55202Y-44454D01*
X55221Y-44379D01*
X55221Y-44323D01*
X55202Y-44248D01*
X55183Y-44210D01*
X55146Y-44173D01*
X55089Y-44154D01*
X55052Y-44154D01*
X54996Y-44173D01*
X54977Y-44191D01*
X54752Y-44548D02*
X54790Y-44529D01*
X54808Y-44510D01*
X54827Y-44473D01*
X54827Y-44360D01*
X54808Y-44323D01*
X54790Y-44304D01*
X54752Y-44285D01*
X54696Y-44285D01*
X54658Y-44304D01*
X54640Y-44323D01*
X54621Y-44360D01*
X54621Y-44473D01*
X54640Y-44510D01*
X54658Y-44529D01*
X54696Y-44548D01*
X54752Y-44548D01*
X54452Y-44285D02*
X54452Y-44679D01*
X54452Y-44304D02*
X54415Y-44285D01*
X54340Y-44285D01*
X54302Y-44304D01*
X54283Y-44323D01*
X54265Y-44360D01*
X54265Y-44473D01*
X54283Y-44510D01*
X54302Y-44529D01*
X54340Y-44548D01*
X54415Y-44548D01*
X54452Y-44529D01*
X54133Y-44285D02*
X54040Y-44548D01*
X53946Y-44285D02*
X54040Y-44548D01*
X54077Y-44641D01*
X54096Y-44660D01*
X54133Y-44679D01*
X53796Y-44548D02*
X53796Y-44285D01*
X53796Y-44360D02*
X53777Y-44323D01*
X53758Y-44304D01*
X53721Y-44285D01*
X53683Y-44285D01*
X53552Y-44548D02*
X53552Y-44285D01*
X53552Y-44154D02*
X53571Y-44173D01*
X53552Y-44191D01*
X53533Y-44173D01*
X53552Y-44154D01*
X53552Y-44191D01*
X53196Y-44285D02*
X53196Y-44604D01*
X53215Y-44641D01*
X53233Y-44660D01*
X53271Y-44679D01*
X53327Y-44679D01*
X53365Y-44660D01*
X53196Y-44529D02*
X53233Y-44548D01*
X53308Y-44548D01*
X53346Y-44529D01*
X53365Y-44510D01*
X53383Y-44473D01*
X53383Y-44360D01*
X53365Y-44323D01*
X53346Y-44304D01*
X53308Y-44285D01*
X53233Y-44285D01*
X53196Y-44304D01*
X53008Y-44548D02*
X53008Y-44154D01*
X52840Y-44548D02*
X52840Y-44341D01*
X52859Y-44304D01*
X52896Y-44285D01*
X52952Y-44285D01*
X52990Y-44304D01*
X53008Y-44323D01*
X52709Y-44285D02*
X52559Y-44285D01*
X52652Y-44154D02*
X52652Y-44491D01*
X52634Y-44529D01*
X52596Y-44548D01*
X52559Y-44548D01*
X51809Y-44248D02*
X51846Y-44229D01*
X51921Y-44229D01*
X51959Y-44248D01*
X51996Y-44285D01*
X52015Y-44323D01*
X52015Y-44398D01*
X51996Y-44435D01*
X51959Y-44473D01*
X51921Y-44491D01*
X51846Y-44491D01*
X51809Y-44473D01*
X51884Y-44098D02*
X51977Y-44116D01*
X52071Y-44173D01*
X52127Y-44266D01*
X52146Y-44360D01*
X52127Y-44454D01*
X52071Y-44548D01*
X51977Y-44604D01*
X51884Y-44623D01*
X51790Y-44604D01*
X51696Y-44548D01*
X51640Y-44454D01*
X51621Y-44360D01*
X51640Y-44266D01*
X51696Y-44173D01*
X51790Y-44116D01*
X51884Y-44098D01*
X51171Y-44191D02*
X51152Y-44173D01*
X51115Y-44154D01*
X51021Y-44154D01*
X50984Y-44173D01*
X50965Y-44191D01*
X50946Y-44229D01*
X50946Y-44266D01*
X50965Y-44323D01*
X51190Y-44548D01*
X50946Y-44548D01*
X50703Y-44154D02*
X50665Y-44154D01*
X50628Y-44173D01*
X50609Y-44191D01*
X50590Y-44229D01*
X50571Y-44304D01*
X50571Y-44398D01*
X50590Y-44473D01*
X50609Y-44510D01*
X50628Y-44529D01*
X50665Y-44548D01*
X50703Y-44548D01*
X50740Y-44529D01*
X50759Y-44510D01*
X50778Y-44473D01*
X50796Y-44398D01*
X50796Y-44304D01*
X50778Y-44229D01*
X50759Y-44191D01*
X50740Y-44173D01*
X50703Y-44154D01*
X50196Y-44548D02*
X50421Y-44548D01*
X50309Y-44548D02*
X50309Y-44154D01*
X50346Y-44210D01*
X50384Y-44248D01*
X50421Y-44266D01*
X49859Y-44285D02*
X49859Y-44548D01*
X49953Y-44135D02*
X50046Y-44416D01*
X49803Y-44416D01*
X49634Y-44529D02*
X49634Y-44548D01*
X49653Y-44585D01*
X49671Y-44604D01*
X49165Y-44548D02*
X49165Y-44154D01*
X48940Y-44548D01*
X48940Y-44154D01*
X48753Y-44548D02*
X48753Y-44285D01*
X48753Y-44154D02*
X48772Y-44173D01*
X48753Y-44191D01*
X48734Y-44173D01*
X48753Y-44154D01*
X48753Y-44191D01*
X48415Y-44529D02*
X48453Y-44548D01*
X48528Y-44548D01*
X48565Y-44529D01*
X48584Y-44491D01*
X48584Y-44341D01*
X48565Y-44304D01*
X48528Y-44285D01*
X48453Y-44285D01*
X48415Y-44304D01*
X48397Y-44341D01*
X48397Y-44379D01*
X48584Y-44416D01*
X48172Y-44548D02*
X48209Y-44529D01*
X48228Y-44491D01*
X48228Y-44154D01*
X48040Y-44529D02*
X48003Y-44548D01*
X47928Y-44548D01*
X47890Y-44529D01*
X47872Y-44491D01*
X47872Y-44473D01*
X47890Y-44435D01*
X47928Y-44416D01*
X47984Y-44416D01*
X48022Y-44398D01*
X48040Y-44360D01*
X48040Y-44341D01*
X48022Y-44304D01*
X47984Y-44285D01*
X47928Y-44285D01*
X47890Y-44304D01*
X47403Y-44548D02*
X47403Y-44154D01*
X47178Y-44548D02*
X47347Y-44323D01*
X47178Y-44154D02*
X47403Y-44379D01*
X47009Y-44285D02*
X47009Y-44623D01*
X47028Y-44660D01*
X47065Y-44679D01*
X47084Y-44679D01*
X47009Y-44154D02*
X47028Y-44173D01*
X47009Y-44191D01*
X46991Y-44173D01*
X47009Y-44154D01*
X47009Y-44191D01*
X46616Y-44285D02*
X46859Y-44548D01*
X46766Y-44548D02*
X46803Y-44529D01*
X46822Y-44510D01*
X46841Y-44473D01*
X46841Y-44360D01*
X46822Y-44323D01*
X46803Y-44304D01*
X46766Y-44285D01*
X46709Y-44285D01*
X46672Y-44304D01*
X46653Y-44323D01*
X46634Y-44360D01*
X46634Y-44473D01*
X46653Y-44510D01*
X46672Y-44529D01*
X46709Y-44548D01*
X46766Y-44548D01*
X46409Y-44548D02*
X46447Y-44529D01*
X46466Y-44491D01*
X46466Y-44154D01*
X46203Y-44548D02*
X46241Y-44529D01*
X46259Y-44491D01*
X46259Y-44154D01*
X45903Y-44529D02*
X45941Y-44548D01*
X46016Y-44548D01*
X46053Y-44529D01*
X46072Y-44491D01*
X46072Y-44341D01*
X46053Y-44304D01*
X46016Y-44285D01*
X45941Y-44285D01*
X45903Y-44304D01*
X45884Y-44341D01*
X45884Y-44379D01*
X46072Y-44416D01*
X45716Y-44548D02*
X45716Y-44285D01*
X45716Y-44360D02*
X45697Y-44323D01*
X45678Y-44304D01*
X45641Y-44285D01*
X45603Y-44285D01*
X45172Y-44548D02*
X45172Y-44154D01*
X45172Y-44341D02*
X44947Y-44341D01*
X44947Y-44548D02*
X44947Y-44154D01*
X44591Y-44548D02*
X44591Y-44341D01*
X44610Y-44304D01*
X44647Y-44285D01*
X44722Y-44285D01*
X44760Y-44304D01*
X44591Y-44529D02*
X44628Y-44548D01*
X44722Y-44548D01*
X44760Y-44529D01*
X44778Y-44491D01*
X44778Y-44454D01*
X44760Y-44416D01*
X44722Y-44398D01*
X44628Y-44398D01*
X44591Y-44379D01*
X44403Y-44285D02*
X44403Y-44548D01*
X44403Y-44323D02*
X44385Y-44304D01*
X44347Y-44285D01*
X44291Y-44285D01*
X44253Y-44304D01*
X44235Y-44341D01*
X44235Y-44548D01*
X44066Y-44529D02*
X44028Y-44548D01*
X43953Y-44548D01*
X43916Y-44529D01*
X43897Y-44491D01*
X43897Y-44473D01*
X43916Y-44435D01*
X43953Y-44416D01*
X44010Y-44416D01*
X44047Y-44398D01*
X44066Y-44360D01*
X44066Y-44341D01*
X44047Y-44304D01*
X44010Y-44285D01*
X43953Y-44285D01*
X43916Y-44304D01*
X43578Y-44529D02*
X43616Y-44548D01*
X43691Y-44548D01*
X43728Y-44529D01*
X43747Y-44491D01*
X43747Y-44341D01*
X43728Y-44304D01*
X43691Y-44285D01*
X43616Y-44285D01*
X43578Y-44304D01*
X43560Y-44341D01*
X43560Y-44379D01*
X43747Y-44416D01*
X43391Y-44285D02*
X43391Y-44548D01*
X43391Y-44323D02*
X43372Y-44304D01*
X43335Y-44285D01*
X43278Y-44285D01*
X43241Y-44304D01*
X43222Y-44341D01*
X43222Y-44548D01*
G54D13*
X57806Y-44125D02*
X57469Y-44125D01*
X57637Y-44715D02*
X57637Y-44125D01*
X57455Y-43652D02*
X57651Y-43371D01*
X57792Y-43652D02*
X57792Y-43062D01*
X57567Y-43062D01*
X57511Y-43090D01*
X57483Y-43118D01*
X57455Y-43174D01*
X57455Y-43259D01*
X57483Y-43315D01*
X57511Y-43343D01*
X57567Y-43371D01*
X57792Y-43371D01*
X57412Y-45396D02*
X57862Y-45396D01*
X57412Y-42404D02*
X57862Y-42404D01*
X57637Y-42629D02*
X57637Y-42179D01*
G54D14*
X46879Y-47401D02*
X46860Y-47420D01*
X46841Y-47476D01*
X46841Y-47513D01*
X46860Y-47570D01*
X46898Y-47607D01*
X46935Y-47626D01*
X47010Y-47645D01*
X47066Y-47645D01*
X47141Y-47626D01*
X47179Y-47607D01*
X47216Y-47570D01*
X47235Y-47513D01*
X47235Y-47476D01*
X47216Y-47420D01*
X47198Y-47401D01*
X46879Y-47007D02*
X46860Y-47026D01*
X46841Y-47082D01*
X46841Y-47120D01*
X46860Y-47176D01*
X46898Y-47213D01*
X46935Y-47232D01*
X47010Y-47251D01*
X47066Y-47251D01*
X47141Y-47232D01*
X47179Y-47213D01*
X47216Y-47176D01*
X47235Y-47120D01*
X47235Y-47082D01*
X47216Y-47026D01*
X47198Y-47007D01*
G54D13*
X47523Y-47982D02*
X46932Y-47851D01*
X47523Y-47720D01*
G54D11*
X53952Y-47750D02*
X53952Y-47952D01*
X53952Y-47851D02*
X54543Y-47851D01*
X54459Y-47885D01*
X54402Y-47918D01*
X54374Y-47952D01*
X54009Y-47598D02*
X53980Y-47581D01*
X53952Y-47598D01*
X53980Y-47615D01*
X54009Y-47598D01*
X53952Y-47598D01*
X54543Y-47277D02*
X54543Y-47345D01*
X54515Y-47378D01*
X54487Y-47395D01*
X54402Y-47429D01*
X54290Y-47446D01*
X54065Y-47446D01*
X54009Y-47429D01*
X53980Y-47412D01*
X53952Y-47378D01*
X53952Y-47311D01*
X53980Y-47277D01*
X54009Y-47260D01*
X54065Y-47243D01*
X54205Y-47243D01*
X54262Y-47260D01*
X54290Y-47277D01*
X54318Y-47311D01*
X54318Y-47378D01*
X54290Y-47412D01*
X54262Y-47429D01*
X54205Y-47446D01*
X53980Y-46838D02*
X53952Y-46788D01*
X53952Y-46703D01*
X53980Y-46670D01*
X54009Y-46653D01*
X54065Y-46636D01*
X54121Y-46636D01*
X54177Y-46653D01*
X54205Y-46670D01*
X54234Y-46703D01*
X54262Y-46771D01*
X54290Y-46805D01*
X54318Y-46822D01*
X54374Y-46838D01*
X54430Y-46838D01*
X54487Y-46822D01*
X54515Y-46805D01*
X54543Y-46771D01*
X54543Y-46687D01*
X54515Y-46636D01*
X54009Y-46282D02*
X53980Y-46298D01*
X53952Y-46349D01*
X53952Y-46383D01*
X53980Y-46433D01*
X54037Y-46467D01*
X54093Y-46484D01*
X54205Y-46501D01*
X54290Y-46501D01*
X54402Y-46484D01*
X54459Y-46467D01*
X54515Y-46433D01*
X54543Y-46383D01*
X54543Y-46349D01*
X54515Y-46298D01*
X54487Y-46282D01*
X53952Y-45961D02*
X53952Y-46130D01*
X54543Y-46130D01*
X52932Y-47750D02*
X52932Y-47952D01*
X52932Y-47851D02*
X53523Y-47851D01*
X53439Y-47885D01*
X53382Y-47918D01*
X53354Y-47952D01*
X52989Y-47598D02*
X52960Y-47581D01*
X52932Y-47598D01*
X52960Y-47615D01*
X52989Y-47598D01*
X52932Y-47598D01*
X53523Y-47463D02*
X53523Y-47226D01*
X52932Y-47378D01*
X52960Y-46838D02*
X52932Y-46788D01*
X52932Y-46703D01*
X52960Y-46670D01*
X52989Y-46653D01*
X53045Y-46636D01*
X53101Y-46636D01*
X53157Y-46653D01*
X53185Y-46670D01*
X53214Y-46703D01*
X53242Y-46771D01*
X53270Y-46805D01*
X53298Y-46822D01*
X53354Y-46838D01*
X53410Y-46838D01*
X53467Y-46822D01*
X53495Y-46805D01*
X53523Y-46771D01*
X53523Y-46687D01*
X53495Y-46636D01*
X52932Y-46484D02*
X53523Y-46484D01*
X53523Y-46400D01*
X53495Y-46349D01*
X53439Y-46315D01*
X53382Y-46298D01*
X53270Y-46282D01*
X53185Y-46282D01*
X53073Y-46298D01*
X53017Y-46315D01*
X52960Y-46349D01*
X52932Y-46400D01*
X52932Y-46484D01*
X53101Y-46147D02*
X53101Y-45978D01*
X52932Y-46180D02*
X53523Y-46062D01*
X52932Y-45944D01*
G54D13*
X51932Y-47720D02*
X51932Y-47945D01*
X51932Y-47832D02*
X52523Y-47832D01*
X52439Y-47870D01*
X52382Y-47907D01*
X52354Y-47945D01*
X51989Y-47551D02*
X51960Y-47532D01*
X51932Y-47551D01*
X51960Y-47570D01*
X51989Y-47551D01*
X51932Y-47551D01*
X52523Y-47176D02*
X52523Y-47363D01*
X52242Y-47382D01*
X52270Y-47363D01*
X52298Y-47326D01*
X52298Y-47232D01*
X52270Y-47195D01*
X52242Y-47176D01*
X52185Y-47157D01*
X52045Y-47157D01*
X51989Y-47176D01*
X51960Y-47195D01*
X51932Y-47232D01*
X51932Y-47326D01*
X51960Y-47363D01*
X51989Y-47382D01*
X50952Y-47720D02*
X50952Y-47945D01*
X50952Y-47832D02*
X51543Y-47832D01*
X51459Y-47870D01*
X51402Y-47907D01*
X51374Y-47945D01*
X51009Y-47551D02*
X50980Y-47532D01*
X50952Y-47551D01*
X50980Y-47570D01*
X51009Y-47551D01*
X50952Y-47551D01*
X51346Y-47195D02*
X50952Y-47195D01*
X51571Y-47288D02*
X51149Y-47382D01*
X51149Y-47138D01*
X49932Y-47720D02*
X49932Y-47945D01*
X49932Y-47832D02*
X50523Y-47832D01*
X50439Y-47870D01*
X50382Y-47907D01*
X50354Y-47945D01*
X49989Y-47551D02*
X49960Y-47532D01*
X49932Y-47551D01*
X49960Y-47570D01*
X49989Y-47551D01*
X49932Y-47551D01*
X50523Y-47401D02*
X50523Y-47157D01*
X50298Y-47288D01*
X50298Y-47232D01*
X50270Y-47195D01*
X50242Y-47176D01*
X50185Y-47157D01*
X50045Y-47157D01*
X49989Y-47176D01*
X49960Y-47195D01*
X49932Y-47232D01*
X49932Y-47345D01*
X49960Y-47382D01*
X49989Y-47401D01*
X48932Y-47720D02*
X48932Y-47945D01*
X48932Y-47832D02*
X49523Y-47832D01*
X49439Y-47870D01*
X49382Y-47907D01*
X49354Y-47945D01*
X48989Y-47551D02*
X48960Y-47532D01*
X48932Y-47551D01*
X48960Y-47570D01*
X48989Y-47551D01*
X48932Y-47551D01*
X49467Y-47382D02*
X49495Y-47363D01*
X49523Y-47326D01*
X49523Y-47232D01*
X49495Y-47195D01*
X49467Y-47176D01*
X49410Y-47157D01*
X49354Y-47157D01*
X49270Y-47176D01*
X48932Y-47401D01*
X48932Y-47157D01*
X49523Y-46745D02*
X49523Y-46520D01*
X48932Y-46632D02*
X49523Y-46632D01*
X48932Y-46426D02*
X49326Y-46220D01*
X49326Y-46426D02*
X48932Y-46220D01*
X47932Y-47720D02*
X47932Y-47945D01*
X47932Y-47832D02*
X48523Y-47832D01*
X48439Y-47870D01*
X48382Y-47907D01*
X48354Y-47945D01*
X47989Y-47551D02*
X47960Y-47532D01*
X47932Y-47551D01*
X47960Y-47570D01*
X47989Y-47551D01*
X47932Y-47551D01*
X47932Y-47157D02*
X47932Y-47382D01*
X47932Y-47270D02*
X48523Y-47270D01*
X48439Y-47307D01*
X48382Y-47345D01*
X48354Y-47382D01*
X47932Y-46463D02*
X48214Y-46595D01*
X47932Y-46688D02*
X48523Y-46688D01*
X48523Y-46538D01*
X48495Y-46501D01*
X48467Y-46482D01*
X48410Y-46463D01*
X48326Y-46463D01*
X48270Y-46482D01*
X48242Y-46501D01*
X48214Y-46538D01*
X48214Y-46688D01*
X47932Y-46332D02*
X48326Y-46126D01*
X48326Y-46332D02*
X47932Y-46126D01*
X46495Y-47720D02*
X46523Y-47757D01*
X46523Y-47813D01*
X46495Y-47870D01*
X46439Y-47907D01*
X46382Y-47926D01*
X46270Y-47945D01*
X46185Y-47945D01*
X46073Y-47926D01*
X46017Y-47907D01*
X45960Y-47870D01*
X45932Y-47813D01*
X45932Y-47776D01*
X45960Y-47720D01*
X45989Y-47701D01*
X46185Y-47701D01*
X46185Y-47776D01*
X45932Y-47532D02*
X46523Y-47532D01*
X45932Y-47307D01*
X46523Y-47307D01*
X45932Y-47120D02*
X46523Y-47120D01*
X46523Y-47026D01*
X46495Y-46970D01*
X46439Y-46932D01*
X46382Y-46913D01*
X46270Y-46895D01*
X46185Y-46895D01*
X46073Y-46913D01*
X46017Y-46932D01*
X45960Y-46970D01*
X45932Y-47026D01*
X45932Y-47120D01*
G54D14*
X43861Y-47646D02*
X44255Y-47646D01*
X43861Y-47458D02*
X44255Y-47458D01*
X43861Y-47233D01*
X44255Y-47233D01*
G54D13*
X45495Y-47720D02*
X45523Y-47757D01*
X45523Y-47813D01*
X45495Y-47870D01*
X45439Y-47907D01*
X45382Y-47926D01*
X45270Y-47945D01*
X45185Y-47945D01*
X45073Y-47926D01*
X45017Y-47907D01*
X44960Y-47870D01*
X44932Y-47813D01*
X44932Y-47776D01*
X44960Y-47720D01*
X44989Y-47701D01*
X45185Y-47701D01*
X45185Y-47776D01*
X44932Y-47532D02*
X45523Y-47532D01*
X44932Y-47307D01*
X45523Y-47307D01*
X44932Y-47120D02*
X45523Y-47120D01*
X45523Y-47026D01*
X45495Y-46970D01*
X45439Y-46932D01*
X45382Y-46913D01*
X45270Y-46895D01*
X45185Y-46895D01*
X45073Y-46913D01*
X45017Y-46932D01*
X44960Y-46970D01*
X44932Y-47026D01*
X44932Y-47120D01*
X44543Y-48002D02*
X43952Y-47871D01*
X44543Y-47740D01*
G54D10*
X49412Y-43507D02*
G75*
G03X49412Y-43507I-100J0D01*
G74*
G01*
X49412Y-43007D02*
G75*
G03X49412Y-43007I-100J0D01*
G74*
G01*
X47012Y-43807D02*
X47012Y-43907D01*
X47012Y-43907D02*
X46912Y-43907D01*
X46912Y-43907D02*
X46912Y-43807D01*
X46912Y-43807D02*
X47012Y-43807D01*
X47212Y-43707D02*
X47112Y-43807D01*
X47112Y-43807D02*
X47112Y-43407D01*
X47112Y-43407D02*
X47112Y-43307D01*
X47112Y-43307D02*
X47212Y-43407D01*
X47212Y-43407D02*
X47212Y-43707D01*
X47812Y-43907D02*
X47712Y-43807D01*
X47712Y-43807D02*
X47312Y-43807D01*
X47312Y-43807D02*
X47212Y-43907D01*
X47212Y-43907D02*
X47812Y-43907D01*
X47812Y-43407D02*
X47912Y-43307D01*
X47912Y-43307D02*
X47912Y-43807D01*
X47912Y-43807D02*
X47812Y-43707D01*
X47812Y-43707D02*
X47812Y-43407D01*
X47712Y-43107D02*
X47812Y-43207D01*
X47812Y-43207D02*
X47712Y-43307D01*
X47712Y-43307D02*
X47312Y-43307D01*
X47312Y-43307D02*
X47212Y-43207D01*
X47212Y-43207D02*
X47312Y-43107D01*
X47312Y-43107D02*
X47712Y-43107D01*
X47212Y-42707D02*
X47112Y-42607D01*
X47112Y-42607D02*
X47112Y-43107D01*
X47112Y-43107D02*
X47212Y-43007D01*
X47212Y-43007D02*
X47212Y-42707D01*
X47812Y-42707D02*
X47912Y-42607D01*
X47912Y-42607D02*
X47912Y-43107D01*
X47912Y-43107D02*
X47812Y-43007D01*
X47812Y-43007D02*
X47812Y-42707D01*
X47812Y-42507D02*
X47212Y-42507D01*
X47212Y-42507D02*
X47312Y-42607D01*
X47312Y-42607D02*
X47712Y-42607D01*
X47712Y-42607D02*
X47812Y-42507D01*
X49412Y-43807D02*
X49412Y-43907D01*
X49412Y-43907D02*
X49312Y-43907D01*
X49312Y-43907D02*
X49312Y-43807D01*
X49312Y-43807D02*
X49412Y-43807D01*
X49612Y-43707D02*
X49512Y-43807D01*
X49512Y-43807D02*
X49512Y-43407D01*
X49512Y-43407D02*
X49512Y-43307D01*
X49512Y-43307D02*
X49612Y-43407D01*
X49612Y-43407D02*
X49612Y-43707D01*
X50212Y-43907D02*
X50112Y-43807D01*
X50112Y-43807D02*
X49712Y-43807D01*
X49712Y-43807D02*
X49612Y-43907D01*
X49612Y-43907D02*
X50212Y-43907D01*
X50212Y-43407D02*
X50312Y-43307D01*
X50312Y-43307D02*
X50312Y-43807D01*
X50312Y-43807D02*
X50212Y-43707D01*
X50212Y-43707D02*
X50212Y-43407D01*
X50112Y-43107D02*
X50212Y-43207D01*
X50212Y-43207D02*
X50112Y-43307D01*
X50112Y-43307D02*
X49712Y-43307D01*
X49712Y-43307D02*
X49612Y-43207D01*
X49612Y-43207D02*
X49712Y-43107D01*
X49712Y-43107D02*
X50112Y-43107D01*
X49612Y-42707D02*
X49512Y-42607D01*
X49512Y-42607D02*
X49512Y-43107D01*
X49512Y-43107D02*
X49612Y-43007D01*
X49612Y-43007D02*
X49612Y-42707D01*
X50212Y-42707D02*
X50312Y-42607D01*
X50312Y-42607D02*
X50312Y-43107D01*
X50312Y-43107D02*
X50212Y-43007D01*
X50212Y-43007D02*
X50212Y-42707D01*
X50212Y-42507D02*
X49612Y-42507D01*
X49612Y-42507D02*
X49712Y-42607D01*
X49712Y-42607D02*
X50112Y-42607D01*
X50112Y-42607D02*
X50212Y-42507D01*
X48912Y-42607D02*
X49012Y-42507D01*
X48512Y-42607D02*
X48912Y-42607D01*
X48412Y-42507D02*
X48512Y-42607D01*
X49012Y-42507D02*
X48412Y-42507D01*
X49012Y-43007D02*
X49012Y-42707D01*
X49112Y-43107D02*
X49012Y-43007D01*
X49112Y-42607D02*
X49112Y-43107D01*
X49012Y-42707D02*
X49112Y-42607D01*
X48412Y-43007D02*
X48412Y-42707D01*
X48312Y-43107D02*
X48412Y-43007D01*
X48312Y-42607D02*
X48312Y-43107D01*
X48412Y-42707D02*
X48312Y-42607D01*
X48512Y-43107D02*
X48912Y-43107D01*
X48412Y-43207D02*
X48512Y-43107D01*
X48512Y-43307D02*
X48412Y-43207D01*
X48912Y-43307D02*
X48512Y-43307D01*
X49012Y-43207D02*
X48912Y-43307D01*
X48912Y-43107D02*
X49012Y-43207D01*
X49012Y-43707D02*
X49012Y-43407D01*
X49112Y-43807D02*
X49012Y-43707D01*
X49112Y-43307D02*
X49112Y-43807D01*
X49012Y-43407D02*
X49112Y-43307D01*
X48412Y-43907D02*
X49012Y-43907D01*
X48512Y-43807D02*
X48412Y-43907D01*
X48912Y-43807D02*
X48512Y-43807D01*
X49012Y-43907D02*
X48912Y-43807D01*
X48412Y-43407D02*
X48412Y-43707D01*
X48312Y-43307D02*
X48412Y-43407D01*
X48312Y-43407D02*
X48312Y-43307D01*
X48312Y-43807D02*
X48312Y-43407D01*
X48412Y-43707D02*
X48312Y-43807D01*
X48112Y-43807D02*
X48212Y-43807D01*
X48112Y-43907D02*
X48112Y-43807D01*
X48212Y-43907D02*
X48112Y-43907D01*
X48212Y-43807D02*
X48212Y-43907D01*
X50612Y-43807D02*
X50612Y-43907D01*
X50612Y-43907D02*
X50512Y-43907D01*
X50512Y-43907D02*
X50512Y-43807D01*
X50512Y-43807D02*
X50612Y-43807D01*
X50812Y-43707D02*
X50712Y-43807D01*
X50712Y-43807D02*
X50712Y-43407D01*
X50712Y-43407D02*
X50712Y-43307D01*
X50712Y-43307D02*
X50812Y-43407D01*
X50812Y-43407D02*
X50812Y-43707D01*
X51412Y-43907D02*
X51312Y-43807D01*
X51312Y-43807D02*
X50912Y-43807D01*
X50912Y-43807D02*
X50812Y-43907D01*
X50812Y-43907D02*
X51412Y-43907D01*
X51412Y-43407D02*
X51512Y-43307D01*
X51512Y-43307D02*
X51512Y-43807D01*
X51512Y-43807D02*
X51412Y-43707D01*
X51412Y-43707D02*
X51412Y-43407D01*
X51312Y-43107D02*
X51412Y-43207D01*
X51412Y-43207D02*
X51312Y-43307D01*
X51312Y-43307D02*
X50912Y-43307D01*
X50912Y-43307D02*
X50812Y-43207D01*
X50812Y-43207D02*
X50912Y-43107D01*
X50912Y-43107D02*
X51312Y-43107D01*
X50812Y-42707D02*
X50712Y-42607D01*
X50712Y-42607D02*
X50712Y-43107D01*
X50712Y-43107D02*
X50812Y-43007D01*
X50812Y-43007D02*
X50812Y-42707D01*
X51412Y-42707D02*
X51512Y-42607D01*
X51512Y-42607D02*
X51512Y-43107D01*
X51512Y-43107D02*
X51412Y-43007D01*
X51412Y-43007D02*
X51412Y-42707D01*
X51412Y-42507D02*
X50812Y-42507D01*
X50812Y-42507D02*
X50912Y-42607D01*
X50912Y-42607D02*
X51312Y-42607D01*
X51312Y-42607D02*
X51412Y-42507D01*
X53051Y-40787D02*
X57122Y-40787D01*
X45374Y-45826D02*
X41303Y-45826D01*
X41303Y-45826D02*
X41303Y-40787D01*
X41303Y-40787D02*
X45374Y-40787D01*
X57122Y-40787D02*
X57122Y-45826D01*
X57122Y-45826D02*
X53031Y-45826D01*
G54D15*
X42138Y-43106D02*
X41996Y-43685D01*
X41996Y-43685D02*
X41886Y-43267D01*
X41886Y-43267D02*
X41764Y-43689D01*
X41764Y-43689D02*
X41630Y-43118D01*
X42697Y-43378D02*
X42386Y-43374D01*
X42386Y-43374D02*
X42382Y-43378D01*
X42382Y-43378D02*
X42382Y-43374D01*
X42366Y-43094D02*
X42366Y-43701D01*
X42716Y-43090D02*
X42716Y-43708D01*
X42716Y-43708D02*
X42712Y-43704D01*
X42933Y-43130D02*
X43071Y-43098D01*
X43071Y-43098D02*
X43197Y-43094D01*
X43197Y-43094D02*
X43291Y-43173D01*
X43291Y-43173D02*
X43303Y-43279D01*
X43303Y-43279D02*
X43208Y-43374D01*
X43208Y-43374D02*
X43055Y-43425D01*
X43055Y-43425D02*
X42984Y-43488D01*
X42984Y-43488D02*
X42968Y-43606D01*
X42968Y-43606D02*
X43059Y-43693D01*
X43059Y-43693D02*
X43185Y-43704D01*
X43185Y-43704D02*
X43323Y-43661D01*
X43732Y-43090D02*
X43830Y-43098D01*
X43830Y-43098D02*
X43925Y-43193D01*
X43925Y-43193D02*
X43960Y-43386D01*
X43960Y-43386D02*
X43949Y-43523D01*
X43949Y-43523D02*
X43870Y-43649D01*
X43870Y-43649D02*
X43771Y-43697D01*
X43771Y-43697D02*
X43649Y-43669D01*
X43649Y-43669D02*
X43563Y-43598D01*
X43563Y-43598D02*
X43535Y-43417D01*
X43535Y-43417D02*
X43555Y-43256D01*
X43555Y-43256D02*
X43598Y-43145D01*
X43598Y-43145D02*
X43740Y-43094D01*
X43496Y-42413D02*
X43598Y-42634D01*
X43598Y-42634D02*
X43386Y-42838D01*
X43386Y-42838D02*
X43181Y-42732D01*
X43181Y-42732D02*
X43071Y-42795D01*
X42504Y-42787D02*
X42374Y-42712D01*
X42374Y-42712D02*
X42201Y-42842D01*
X42201Y-42842D02*
X42015Y-42649D01*
X42015Y-42649D02*
X42126Y-42460D01*
X42126Y-42460D02*
X42051Y-42275D01*
X42051Y-42275D02*
X41811Y-42201D01*
X41811Y-42201D02*
X41811Y-41933D01*
X41811Y-41933D02*
X42031Y-41878D01*
X42031Y-41878D02*
X42110Y-41653D01*
X42110Y-41653D02*
X42004Y-41468D01*
X42004Y-41468D02*
X42189Y-41267D01*
X42189Y-41267D02*
X42393Y-41370D01*
X42393Y-41370D02*
X42578Y-41291D01*
X42578Y-41291D02*
X42645Y-41078D01*
X42645Y-41078D02*
X42917Y-41071D01*
X42917Y-41071D02*
X43000Y-41287D01*
X43000Y-41287D02*
X43165Y-41354D01*
X43165Y-41354D02*
X43382Y-41248D01*
X43382Y-41248D02*
X43586Y-41456D01*
X43586Y-41456D02*
X43488Y-41669D01*
X43488Y-41669D02*
X43555Y-41858D01*
X43555Y-41858D02*
X43771Y-41897D01*
X43771Y-41897D02*
X43775Y-42173D01*
X43775Y-42173D02*
X43555Y-42252D01*
X43555Y-42252D02*
X43500Y-42409D01*
X42657Y-42401D02*
X42539Y-42342D01*
X42539Y-42342D02*
X42460Y-42264D01*
X42460Y-42264D02*
X42401Y-42106D01*
X42401Y-42106D02*
X42401Y-41949D01*
X42401Y-41949D02*
X42460Y-41811D01*
X42460Y-41811D02*
X42638Y-41673D01*
X42638Y-41673D02*
X42815Y-41653D01*
X42815Y-41653D02*
X42972Y-41693D01*
X42972Y-41693D02*
X43130Y-41830D01*
X43130Y-41830D02*
X43189Y-42008D01*
X43189Y-42008D02*
X43169Y-42204D01*
X43169Y-42204D02*
X43071Y-42323D01*
X43071Y-42323D02*
X42933Y-42401D01*
X42933Y-42401D02*
X43071Y-42795D01*
X42657Y-42401D02*
X42500Y-42795D01*
%LPC*%
G54D16*
X52712Y-45307D03*
X51712Y-45307D03*
X50712Y-45307D03*
X49712Y-45307D03*
X48712Y-45307D03*
X47712Y-45307D03*
X46712Y-45307D03*
X45712Y-45307D03*
X45712Y-41307D03*
X46712Y-41307D03*
X47712Y-41307D03*
X48712Y-41307D03*
X49712Y-41307D03*
X50712Y-41307D03*
X51712Y-41307D03*
X52712Y-41307D03*
G54D17*
X58464Y-42397D03*
X58464Y-43397D03*
X58464Y-44397D03*
X58464Y-45397D03*
G54D18*
X44212Y-48622D03*
X45212Y-48622D03*
X46212Y-48622D03*
X47212Y-48622D03*
X48212Y-48622D03*
X49212Y-48622D03*
X50212Y-48622D03*
X51212Y-48622D03*
X52212Y-48622D03*
X53212Y-48622D03*
X54212Y-48622D03*
M02*
