%FSLAX34Y34*%
G04 Gerber Fmt 3.4, Leading zero omitted, Abs format*
G04 (created by PCBNEW (2014-02-28 BZR 4729)-product) date man 03 mar 2014 19:53:33 CET*
%MOIN*%
G01*
G70*
G90*
G04 APERTURE LIST*
%ADD10C,0.005906*%
%ADD11C,0.011811*%
%ADD12C,0.007874*%
%ADD13C,0.009843*%
%ADD14C,0.015000*%
%ADD15C,0.008000*%
%ADD16C,0.003100*%
%ADD17C,0.005000*%
%ADD18C,0.006890*%
%ADD19C,0.006000*%
%ADD20O,0.064961X0.100000*%
%ADD21O,0.100000X0.065000*%
%ADD22R,0.035433X0.031496*%
%ADD23R,0.050000X0.031496*%
%ADD24R,0.031496X0.050000*%
%ADD25R,0.035433X0.027559*%
%ADD26R,0.031496X0.035433*%
%ADD27R,0.062992X0.011811*%
%ADD28R,0.020000X0.050000*%
%ADD29R,0.051181X0.043307*%
%ADD30R,0.066929X0.051181*%
%ADD31O,0.065000X0.100000*%
%ADD32R,0.093701X0.021969*%
%ADD33R,0.070866X0.059055*%
%ADD34R,0.062992X0.059055*%
G04 APERTURE END LIST*
G54D10*
G54D11*
X5188Y2235D02*
X5385Y1954D01*
X5525Y2235D02*
X5525Y1645D01*
X5300Y1645D01*
X5244Y1673D01*
X5216Y1701D01*
X5188Y1757D01*
X5188Y1841D01*
X5216Y1898D01*
X5244Y1926D01*
X5300Y1954D01*
X5525Y1954D01*
X4935Y1926D02*
X4738Y1926D01*
X4654Y2235D02*
X4935Y2235D01*
X4935Y1645D01*
X4654Y1645D01*
X4429Y2207D02*
X4344Y2235D01*
X4204Y2235D01*
X4147Y2207D01*
X4119Y2179D01*
X4091Y2123D01*
X4091Y2066D01*
X4119Y2010D01*
X4147Y1982D01*
X4204Y1954D01*
X4316Y1926D01*
X4372Y1898D01*
X4401Y1870D01*
X4429Y1813D01*
X4429Y1757D01*
X4401Y1701D01*
X4372Y1673D01*
X4316Y1645D01*
X4176Y1645D01*
X4091Y1673D01*
X3838Y1926D02*
X3641Y1926D01*
X3557Y2235D02*
X3838Y2235D01*
X3838Y1645D01*
X3557Y1645D01*
X3388Y1645D02*
X3051Y1645D01*
X3219Y2235D02*
X3219Y1645D01*
G54D12*
X16968Y5708D02*
X16653Y5708D01*
X16811Y5866D02*
X16811Y5551D01*
G54D13*
X14791Y813D02*
X14791Y321D01*
X14623Y813D02*
X14623Y555D01*
X14641Y508D01*
X14679Y485D01*
X14735Y485D01*
X14773Y508D01*
X14791Y531D01*
X14491Y485D02*
X14341Y485D01*
X14435Y321D02*
X14435Y742D01*
X14416Y789D01*
X14379Y813D01*
X14341Y813D01*
X14266Y485D02*
X14116Y485D01*
X14210Y321D02*
X14210Y742D01*
X14191Y789D01*
X14154Y813D01*
X14116Y813D01*
X13985Y485D02*
X13985Y977D01*
X13985Y508D02*
X13948Y485D01*
X13873Y485D01*
X13835Y508D01*
X13817Y531D01*
X13798Y578D01*
X13798Y719D01*
X13817Y766D01*
X13835Y789D01*
X13873Y813D01*
X13948Y813D01*
X13985Y789D01*
X13629Y766D02*
X13610Y789D01*
X13629Y813D01*
X13648Y789D01*
X13629Y766D01*
X13629Y813D01*
X13629Y508D02*
X13610Y531D01*
X13629Y555D01*
X13648Y531D01*
X13629Y508D01*
X13629Y555D01*
X13160Y297D02*
X13498Y930D01*
X12748Y297D02*
X13085Y930D01*
X12560Y813D02*
X12598Y789D01*
X12617Y742D01*
X12617Y321D01*
X12242Y813D02*
X12242Y555D01*
X12260Y508D01*
X12298Y485D01*
X12373Y485D01*
X12410Y508D01*
X12242Y789D02*
X12279Y813D01*
X12373Y813D01*
X12410Y789D01*
X12429Y742D01*
X12429Y696D01*
X12410Y649D01*
X12373Y625D01*
X12279Y625D01*
X12242Y602D01*
X12054Y813D02*
X12054Y321D01*
X12054Y508D02*
X12017Y485D01*
X11942Y485D01*
X11904Y508D01*
X11886Y531D01*
X11867Y578D01*
X11867Y719D01*
X11886Y766D01*
X11904Y789D01*
X11942Y813D01*
X12017Y813D01*
X12054Y789D01*
X11698Y766D02*
X11679Y789D01*
X11698Y813D01*
X11717Y789D01*
X11698Y766D01*
X11698Y813D01*
X11511Y813D02*
X11511Y321D01*
X11473Y625D02*
X11361Y813D01*
X11361Y485D02*
X11511Y672D01*
X11192Y485D02*
X11192Y906D01*
X11211Y953D01*
X11248Y977D01*
X11267Y977D01*
X11192Y321D02*
X11211Y344D01*
X11192Y367D01*
X11173Y344D01*
X11192Y321D01*
X11192Y367D01*
X10948Y813D02*
X10986Y789D01*
X11004Y742D01*
X11004Y321D01*
X10798Y813D02*
X10798Y485D01*
X10798Y578D02*
X10779Y531D01*
X10761Y508D01*
X10723Y485D01*
X10686Y485D01*
X10554Y766D02*
X10536Y789D01*
X10554Y813D01*
X10573Y789D01*
X10554Y766D01*
X10554Y813D01*
X10198Y813D02*
X10198Y321D01*
X10198Y789D02*
X10236Y813D01*
X10311Y813D01*
X10348Y789D01*
X10367Y766D01*
X10386Y719D01*
X10386Y578D01*
X10367Y531D01*
X10348Y508D01*
X10311Y485D01*
X10236Y485D01*
X10198Y508D01*
X10011Y813D02*
X10011Y321D01*
X9973Y625D02*
X9861Y813D01*
X9861Y485D02*
X10011Y672D01*
X9411Y297D02*
X9748Y930D01*
X9280Y485D02*
X9280Y977D01*
X9280Y508D02*
X9242Y485D01*
X9167Y485D01*
X9130Y508D01*
X9111Y531D01*
X9092Y578D01*
X9092Y719D01*
X9111Y766D01*
X9130Y789D01*
X9167Y813D01*
X9242Y813D01*
X9280Y789D01*
X8642Y297D02*
X8980Y930D01*
X8511Y813D02*
X8511Y485D01*
X8511Y531D02*
X8492Y508D01*
X8455Y485D01*
X8398Y485D01*
X8361Y508D01*
X8342Y555D01*
X8342Y813D01*
X8342Y555D02*
X8323Y508D01*
X8286Y485D01*
X8230Y485D01*
X8192Y508D01*
X8173Y555D01*
X8173Y813D01*
X7986Y813D02*
X7986Y485D01*
X7986Y321D02*
X8005Y344D01*
X7986Y367D01*
X7967Y344D01*
X7986Y321D01*
X7986Y367D01*
X7799Y485D02*
X7799Y813D01*
X7799Y531D02*
X7780Y508D01*
X7742Y485D01*
X7686Y485D01*
X7649Y508D01*
X7630Y555D01*
X7630Y813D01*
X7442Y813D02*
X7442Y485D01*
X7442Y321D02*
X7461Y344D01*
X7442Y367D01*
X7424Y344D01*
X7442Y321D01*
X7442Y367D01*
X7274Y789D02*
X7236Y813D01*
X7161Y813D01*
X7124Y789D01*
X7105Y742D01*
X7105Y719D01*
X7124Y672D01*
X7161Y649D01*
X7217Y649D01*
X7255Y625D01*
X7274Y578D01*
X7274Y555D01*
X7255Y508D01*
X7217Y485D01*
X7161Y485D01*
X7124Y508D01*
X6936Y485D02*
X6936Y977D01*
X6936Y508D02*
X6899Y485D01*
X6824Y485D01*
X6786Y508D01*
X6767Y531D01*
X6749Y578D01*
X6749Y719D01*
X6767Y766D01*
X6786Y789D01*
X6824Y813D01*
X6899Y813D01*
X6936Y789D01*
X6580Y625D02*
X6280Y625D01*
X6130Y321D02*
X5868Y321D01*
X6036Y813D01*
X5736Y789D02*
X5699Y813D01*
X5624Y813D01*
X5586Y789D01*
X5568Y742D01*
X5568Y719D01*
X5586Y672D01*
X5624Y649D01*
X5680Y649D01*
X5718Y625D01*
X5736Y578D01*
X5736Y555D01*
X5718Y508D01*
X5680Y485D01*
X5624Y485D01*
X5586Y508D01*
X5249Y789D02*
X5286Y813D01*
X5361Y813D01*
X5399Y789D01*
X5418Y742D01*
X5418Y555D01*
X5399Y508D01*
X5361Y485D01*
X5286Y485D01*
X5249Y508D01*
X5230Y555D01*
X5230Y602D01*
X5418Y649D01*
X4893Y485D02*
X4893Y883D01*
X4911Y930D01*
X4930Y953D01*
X4968Y977D01*
X5024Y977D01*
X5061Y953D01*
X4893Y789D02*
X4930Y813D01*
X5005Y813D01*
X5043Y789D01*
X5061Y766D01*
X5080Y719D01*
X5080Y578D01*
X5061Y531D01*
X5043Y508D01*
X5005Y485D01*
X4930Y485D01*
X4893Y508D01*
G54D12*
X2716Y13976D02*
X3031Y13976D01*
X2874Y13818D02*
X2874Y14133D01*
G54D13*
X4893Y18871D02*
X4893Y19363D01*
X5061Y18871D02*
X5061Y19129D01*
X5043Y19176D01*
X5005Y19199D01*
X4949Y19199D01*
X4911Y19176D01*
X4893Y19153D01*
X5193Y19199D02*
X5343Y19199D01*
X5249Y19363D02*
X5249Y18942D01*
X5268Y18895D01*
X5305Y18871D01*
X5343Y18871D01*
X5418Y19199D02*
X5568Y19199D01*
X5474Y19363D02*
X5474Y18942D01*
X5493Y18895D01*
X5530Y18871D01*
X5568Y18871D01*
X5699Y19199D02*
X5699Y18707D01*
X5699Y19176D02*
X5736Y19199D01*
X5811Y19199D01*
X5849Y19176D01*
X5868Y19153D01*
X5886Y19106D01*
X5886Y18965D01*
X5868Y18918D01*
X5849Y18895D01*
X5811Y18871D01*
X5736Y18871D01*
X5699Y18895D01*
X6055Y18918D02*
X6074Y18895D01*
X6055Y18871D01*
X6036Y18895D01*
X6055Y18918D01*
X6055Y18871D01*
X6055Y19176D02*
X6074Y19153D01*
X6055Y19129D01*
X6036Y19153D01*
X6055Y19176D01*
X6055Y19129D01*
X6524Y19387D02*
X6186Y18754D01*
X6936Y19387D02*
X6599Y18754D01*
X7124Y18871D02*
X7086Y18895D01*
X7067Y18942D01*
X7067Y19363D01*
X7442Y18871D02*
X7442Y19129D01*
X7424Y19176D01*
X7386Y19199D01*
X7311Y19199D01*
X7274Y19176D01*
X7442Y18895D02*
X7405Y18871D01*
X7311Y18871D01*
X7274Y18895D01*
X7255Y18942D01*
X7255Y18989D01*
X7274Y19035D01*
X7311Y19059D01*
X7405Y19059D01*
X7442Y19082D01*
X7630Y18871D02*
X7630Y19363D01*
X7630Y19176D02*
X7667Y19199D01*
X7742Y19199D01*
X7780Y19176D01*
X7799Y19153D01*
X7817Y19106D01*
X7817Y18965D01*
X7799Y18918D01*
X7780Y18895D01*
X7742Y18871D01*
X7667Y18871D01*
X7630Y18895D01*
X7986Y18918D02*
X8005Y18895D01*
X7986Y18871D01*
X7967Y18895D01*
X7986Y18918D01*
X7986Y18871D01*
X8173Y18871D02*
X8173Y19363D01*
X8211Y19059D02*
X8323Y18871D01*
X8323Y19199D02*
X8173Y19012D01*
X8492Y19199D02*
X8492Y18778D01*
X8473Y18731D01*
X8436Y18707D01*
X8417Y18707D01*
X8492Y19363D02*
X8473Y19340D01*
X8492Y19317D01*
X8511Y19340D01*
X8492Y19363D01*
X8492Y19317D01*
X8736Y18871D02*
X8698Y18895D01*
X8680Y18942D01*
X8680Y19363D01*
X8886Y18871D02*
X8886Y19199D01*
X8886Y19106D02*
X8905Y19153D01*
X8923Y19176D01*
X8961Y19199D01*
X8998Y19199D01*
X9130Y18918D02*
X9148Y18895D01*
X9130Y18871D01*
X9111Y18895D01*
X9130Y18918D01*
X9130Y18871D01*
X9486Y18871D02*
X9486Y19363D01*
X9486Y18895D02*
X9448Y18871D01*
X9373Y18871D01*
X9336Y18895D01*
X9317Y18918D01*
X9298Y18965D01*
X9298Y19106D01*
X9317Y19153D01*
X9336Y19176D01*
X9373Y19199D01*
X9448Y19199D01*
X9486Y19176D01*
X9673Y18871D02*
X9673Y19363D01*
X9711Y19059D02*
X9823Y18871D01*
X9823Y19199D02*
X9673Y19012D01*
X10273Y19387D02*
X9936Y18754D01*
X10404Y19199D02*
X10404Y18707D01*
X10404Y19176D02*
X10442Y19199D01*
X10517Y19199D01*
X10554Y19176D01*
X10573Y19153D01*
X10592Y19106D01*
X10592Y18965D01*
X10573Y18918D01*
X10554Y18895D01*
X10517Y18871D01*
X10442Y18871D01*
X10404Y18895D01*
X11042Y19387D02*
X10704Y18754D01*
X11173Y18871D02*
X11173Y19199D01*
X11173Y19153D02*
X11192Y19176D01*
X11229Y19199D01*
X11286Y19199D01*
X11323Y19176D01*
X11342Y19129D01*
X11342Y18871D01*
X11342Y19129D02*
X11361Y19176D01*
X11398Y19199D01*
X11454Y19199D01*
X11492Y19176D01*
X11511Y19129D01*
X11511Y18871D01*
X11698Y18871D02*
X11698Y19199D01*
X11698Y19363D02*
X11679Y19340D01*
X11698Y19317D01*
X11717Y19340D01*
X11698Y19363D01*
X11698Y19317D01*
X11886Y19199D02*
X11886Y18871D01*
X11886Y19153D02*
X11904Y19176D01*
X11942Y19199D01*
X11998Y19199D01*
X12035Y19176D01*
X12054Y19129D01*
X12054Y18871D01*
X12242Y18871D02*
X12242Y19199D01*
X12242Y19363D02*
X12223Y19340D01*
X12242Y19317D01*
X12260Y19340D01*
X12242Y19363D01*
X12242Y19317D01*
X12410Y18895D02*
X12448Y18871D01*
X12523Y18871D01*
X12560Y18895D01*
X12579Y18942D01*
X12579Y18965D01*
X12560Y19012D01*
X12523Y19035D01*
X12467Y19035D01*
X12429Y19059D01*
X12410Y19106D01*
X12410Y19129D01*
X12429Y19176D01*
X12467Y19199D01*
X12523Y19199D01*
X12560Y19176D01*
X12748Y19199D02*
X12748Y18707D01*
X12748Y19176D02*
X12785Y19199D01*
X12860Y19199D01*
X12898Y19176D01*
X12917Y19153D01*
X12935Y19106D01*
X12935Y18965D01*
X12917Y18918D01*
X12898Y18895D01*
X12860Y18871D01*
X12785Y18871D01*
X12748Y18895D01*
X13104Y19059D02*
X13404Y19059D01*
X13554Y19363D02*
X13817Y19363D01*
X13648Y18871D01*
X13948Y18895D02*
X13985Y18871D01*
X14060Y18871D01*
X14098Y18895D01*
X14116Y18942D01*
X14116Y18965D01*
X14098Y19012D01*
X14060Y19035D01*
X14004Y19035D01*
X13967Y19059D01*
X13948Y19106D01*
X13948Y19129D01*
X13967Y19176D01*
X14004Y19199D01*
X14060Y19199D01*
X14098Y19176D01*
X14435Y18895D02*
X14398Y18871D01*
X14323Y18871D01*
X14285Y18895D01*
X14266Y18942D01*
X14266Y19129D01*
X14285Y19176D01*
X14323Y19199D01*
X14398Y19199D01*
X14435Y19176D01*
X14454Y19129D01*
X14454Y19082D01*
X14266Y19035D01*
X14791Y19199D02*
X14791Y18801D01*
X14773Y18754D01*
X14754Y18731D01*
X14716Y18707D01*
X14660Y18707D01*
X14623Y18731D01*
X14791Y18895D02*
X14754Y18871D01*
X14679Y18871D01*
X14641Y18895D01*
X14623Y18918D01*
X14604Y18965D01*
X14604Y19106D01*
X14623Y19153D01*
X14641Y19176D01*
X14679Y19199D01*
X14754Y19199D01*
X14791Y19176D01*
G54D14*
X11154Y4602D02*
X11012Y5181D01*
X11012Y5181D02*
X10902Y4763D01*
X10902Y4763D02*
X10780Y5185D01*
X10780Y5185D02*
X10646Y4614D01*
X11713Y4874D02*
X11402Y4870D01*
X11402Y4870D02*
X11398Y4874D01*
X11398Y4874D02*
X11398Y4870D01*
X11382Y4590D02*
X11382Y5197D01*
X11732Y4586D02*
X11732Y5204D01*
X11732Y5204D02*
X11728Y5200D01*
X11949Y4626D02*
X12087Y4594D01*
X12087Y4594D02*
X12213Y4590D01*
X12213Y4590D02*
X12307Y4669D01*
X12307Y4669D02*
X12319Y4775D01*
X12319Y4775D02*
X12224Y4870D01*
X12224Y4870D02*
X12071Y4921D01*
X12071Y4921D02*
X12000Y4984D01*
X12000Y4984D02*
X11984Y5102D01*
X11984Y5102D02*
X12075Y5189D01*
X12075Y5189D02*
X12201Y5200D01*
X12201Y5200D02*
X12339Y5157D01*
X12748Y4586D02*
X12846Y4594D01*
X12846Y4594D02*
X12941Y4689D01*
X12941Y4689D02*
X12976Y4882D01*
X12976Y4882D02*
X12965Y5019D01*
X12965Y5019D02*
X12886Y5145D01*
X12886Y5145D02*
X12787Y5193D01*
X12787Y5193D02*
X12665Y5165D01*
X12665Y5165D02*
X12579Y5094D01*
X12579Y5094D02*
X12551Y4913D01*
X12551Y4913D02*
X12571Y4752D01*
X12571Y4752D02*
X12614Y4641D01*
X12614Y4641D02*
X12756Y4590D01*
X12512Y3909D02*
X12614Y4130D01*
X12614Y4130D02*
X12402Y4334D01*
X12402Y4334D02*
X12197Y4228D01*
X12197Y4228D02*
X12087Y4291D01*
X11520Y4283D02*
X11390Y4208D01*
X11390Y4208D02*
X11217Y4338D01*
X11217Y4338D02*
X11031Y4145D01*
X11031Y4145D02*
X11142Y3956D01*
X11142Y3956D02*
X11067Y3771D01*
X11067Y3771D02*
X10827Y3697D01*
X10827Y3697D02*
X10827Y3429D01*
X10827Y3429D02*
X11047Y3374D01*
X11047Y3374D02*
X11126Y3149D01*
X11126Y3149D02*
X11020Y2964D01*
X11020Y2964D02*
X11205Y2763D01*
X11205Y2763D02*
X11409Y2866D01*
X11409Y2866D02*
X11594Y2787D01*
X11594Y2787D02*
X11661Y2574D01*
X11661Y2574D02*
X11933Y2567D01*
X11933Y2567D02*
X12016Y2783D01*
X12016Y2783D02*
X12181Y2850D01*
X12181Y2850D02*
X12398Y2744D01*
X12398Y2744D02*
X12602Y2952D01*
X12602Y2952D02*
X12504Y3165D01*
X12504Y3165D02*
X12571Y3354D01*
X12571Y3354D02*
X12787Y3393D01*
X12787Y3393D02*
X12791Y3669D01*
X12791Y3669D02*
X12571Y3748D01*
X12571Y3748D02*
X12516Y3905D01*
X11673Y3897D02*
X11555Y3838D01*
X11555Y3838D02*
X11476Y3760D01*
X11476Y3760D02*
X11417Y3602D01*
X11417Y3602D02*
X11417Y3445D01*
X11417Y3445D02*
X11476Y3307D01*
X11476Y3307D02*
X11654Y3169D01*
X11654Y3169D02*
X11831Y3149D01*
X11831Y3149D02*
X11988Y3189D01*
X11988Y3189D02*
X12146Y3326D01*
X12146Y3326D02*
X12205Y3504D01*
X12205Y3504D02*
X12185Y3700D01*
X12185Y3700D02*
X12087Y3819D01*
X12087Y3819D02*
X11949Y3897D01*
X11949Y3897D02*
X12087Y4291D01*
X11673Y3897D02*
X11516Y4291D01*
G54D15*
X15944Y5740D02*
X16051Y5740D01*
X16051Y5740D02*
X16051Y6149D01*
X16051Y6149D02*
X15944Y6149D01*
X15000Y6149D02*
X14893Y6149D01*
X14893Y6149D02*
X14893Y5740D01*
X14893Y5740D02*
X15000Y5740D01*
X4645Y5559D02*
X4539Y5559D01*
X4539Y5559D02*
X4539Y5149D01*
X4539Y5149D02*
X4645Y5149D01*
X5590Y5149D02*
X5696Y5149D01*
X5696Y5149D02*
X5696Y5559D01*
X5696Y5559D02*
X5590Y5559D01*
G54D16*
X7089Y4990D02*
G75*
G03X7089Y4990I-62J0D01*
G74*
G01*
X7365Y4027D02*
X6965Y4027D01*
X7365Y5052D02*
X6965Y5052D01*
X6965Y4027D02*
X6965Y5052D01*
X7365Y5052D02*
X7365Y4027D01*
X9895Y7500D02*
G75*
G03X9895Y7500I-62J0D01*
G74*
G01*
X8870Y7162D02*
X8870Y7562D01*
X9895Y7162D02*
X9895Y7562D01*
X8870Y7562D02*
X9895Y7562D01*
X9895Y7162D02*
X8870Y7162D01*
X11864Y7500D02*
G75*
G03X11864Y7500I-62J0D01*
G74*
G01*
X10838Y7162D02*
X10838Y7562D01*
X11863Y7162D02*
X11863Y7562D01*
X10838Y7562D02*
X11863Y7562D01*
X11863Y7162D02*
X10838Y7162D01*
X13872Y7500D02*
G75*
G03X13872Y7500I-62J0D01*
G74*
G01*
X12846Y7162D02*
X12846Y7562D01*
X13871Y7162D02*
X13871Y7562D01*
X12846Y7562D02*
X13871Y7562D01*
X13871Y7162D02*
X12846Y7162D01*
G54D15*
X14881Y5031D02*
X14988Y5031D01*
X14988Y5031D02*
X14988Y5440D01*
X14988Y5440D02*
X14881Y5440D01*
X13937Y5440D02*
X13830Y5440D01*
X13830Y5440D02*
X13830Y5031D01*
X13830Y5031D02*
X13937Y5031D01*
X14881Y4559D02*
X14988Y4559D01*
X14988Y4559D02*
X14988Y4968D01*
X14988Y4968D02*
X14881Y4968D01*
X13937Y4968D02*
X13830Y4968D01*
X13830Y4968D02*
X13830Y4559D01*
X13830Y4559D02*
X13937Y4559D01*
X14881Y4086D02*
X14988Y4086D01*
X14988Y4086D02*
X14988Y4496D01*
X14988Y4496D02*
X14881Y4496D01*
X13937Y4496D02*
X13830Y4496D01*
X13830Y4496D02*
X13830Y4086D01*
X13830Y4086D02*
X13937Y4086D01*
X14881Y3614D02*
X14988Y3614D01*
X14988Y3614D02*
X14988Y4023D01*
X14988Y4023D02*
X14881Y4023D01*
X13937Y4023D02*
X13830Y4023D01*
X13830Y4023D02*
X13830Y3614D01*
X13830Y3614D02*
X13937Y3614D01*
X14881Y3141D02*
X14988Y3141D01*
X14988Y3141D02*
X14988Y3551D01*
X14988Y3551D02*
X14881Y3551D01*
X13937Y3551D02*
X13830Y3551D01*
X13830Y3551D02*
X13830Y3141D01*
X13830Y3141D02*
X13937Y3141D01*
X14881Y2669D02*
X14988Y2669D01*
X14988Y2669D02*
X14988Y3078D01*
X14988Y3078D02*
X14881Y3078D01*
X13937Y3078D02*
X13830Y3078D01*
X13830Y3078D02*
X13830Y2669D01*
X13830Y2669D02*
X13937Y2669D01*
X14881Y2196D02*
X14988Y2196D01*
X14988Y2196D02*
X14988Y2606D01*
X14988Y2606D02*
X14881Y2606D01*
X13937Y2606D02*
X13830Y2606D01*
X13830Y2606D02*
X13830Y2196D01*
X13830Y2196D02*
X13937Y2196D01*
X14881Y1685D02*
X14988Y1685D01*
X14988Y1685D02*
X14988Y2094D01*
X14988Y2094D02*
X14881Y2094D01*
X13937Y2094D02*
X13830Y2094D01*
X13830Y2094D02*
X13830Y1685D01*
X13830Y1685D02*
X13937Y1685D01*
X6102Y4322D02*
X6208Y4322D01*
X6208Y4322D02*
X6208Y4732D01*
X6208Y4732D02*
X6102Y4732D01*
X5157Y4732D02*
X5051Y4732D01*
X5051Y4732D02*
X5051Y4322D01*
X5051Y4322D02*
X5157Y4322D01*
X8259Y6850D02*
X8259Y6744D01*
X8259Y6744D02*
X8669Y6744D01*
X8669Y6744D02*
X8669Y6850D01*
X8669Y7795D02*
X8669Y7901D01*
X8669Y7901D02*
X8259Y7901D01*
X8259Y7901D02*
X8259Y7795D01*
X10559Y7795D02*
X10559Y7901D01*
X10559Y7901D02*
X10149Y7901D01*
X10149Y7901D02*
X10149Y7795D01*
X10149Y6850D02*
X10149Y6744D01*
X10149Y6744D02*
X10559Y6744D01*
X10559Y6744D02*
X10559Y6850D01*
X12527Y7795D02*
X12527Y7901D01*
X12527Y7901D02*
X12118Y7901D01*
X12118Y7901D02*
X12118Y7795D01*
X12118Y6850D02*
X12118Y6744D01*
X12118Y6744D02*
X12527Y6744D01*
X12527Y6744D02*
X12527Y6850D01*
X1582Y3503D02*
X1582Y3610D01*
X1582Y3610D02*
X1173Y3610D01*
X1173Y3610D02*
X1173Y3503D01*
X1173Y2559D02*
X1173Y2452D01*
X1173Y2452D02*
X1582Y2452D01*
X1582Y2452D02*
X1582Y2559D01*
X4586Y8188D02*
X4586Y5669D01*
X4586Y5669D02*
X3129Y5669D01*
X3129Y5669D02*
X3129Y8188D01*
X3129Y8188D02*
X4586Y8188D01*
X4497Y5944D02*
G75*
G03X4497Y5944I-167J0D01*
G74*
G01*
G54D17*
X14951Y6775D02*
X14951Y7475D01*
X14951Y7475D02*
X16151Y7475D01*
X16151Y7475D02*
X16151Y6775D01*
X16151Y6775D02*
X14951Y6775D01*
G54D15*
X14921Y7755D02*
X14921Y8011D01*
X14921Y8011D02*
X14291Y8011D01*
X14291Y8011D02*
X14291Y7755D01*
X14291Y6811D02*
X14291Y6555D01*
X14291Y6555D02*
X14921Y6555D01*
X14921Y6555D02*
X14921Y6811D01*
X16968Y7706D02*
X16968Y8031D01*
X16968Y8031D02*
X16181Y8031D01*
X16181Y8031D02*
X16181Y7706D01*
X16181Y6309D02*
X16181Y5984D01*
X16181Y5984D02*
X16968Y5984D01*
X16968Y5984D02*
X16968Y6309D01*
X9803Y2881D02*
X9696Y2881D01*
X9696Y2881D02*
X9696Y2472D01*
X9696Y2472D02*
X9803Y2472D01*
X10748Y2472D02*
X10854Y2472D01*
X10854Y2472D02*
X10854Y2881D01*
X10854Y2881D02*
X10748Y2881D01*
X8157Y7795D02*
X8157Y7901D01*
X8157Y7901D02*
X7748Y7901D01*
X7748Y7901D02*
X7748Y7795D01*
X7748Y6850D02*
X7748Y6744D01*
X7748Y6744D02*
X8157Y6744D01*
X8157Y6744D02*
X8157Y6850D01*
X17235Y5181D02*
X17235Y881D01*
X17235Y881D02*
X15835Y881D01*
X15835Y881D02*
X15835Y5181D01*
X15835Y5181D02*
X17235Y5181D01*
X16735Y5181D02*
X16735Y4881D01*
X16735Y4881D02*
X16335Y4881D01*
X16335Y4881D02*
X16335Y5181D01*
X2224Y6870D02*
X2224Y5255D01*
X1397Y6870D02*
X1397Y5255D01*
X3023Y2559D02*
X3023Y2452D01*
X3023Y2452D02*
X3433Y2452D01*
X3433Y2452D02*
X3433Y2559D01*
X3433Y3503D02*
X3433Y3610D01*
X3433Y3610D02*
X3023Y3610D01*
X3023Y3610D02*
X3023Y3503D01*
G54D10*
X2125Y1692D02*
X2519Y1692D01*
X2519Y1692D02*
X2519Y2480D01*
X2519Y2480D02*
X2125Y2480D01*
X2125Y2480D02*
X2125Y1692D01*
X2913Y905D02*
X2913Y3267D01*
X2913Y3267D02*
X1732Y3267D01*
X1732Y3267D02*
X1732Y905D01*
X1732Y905D02*
X2913Y905D01*
G54D14*
X8531Y15082D02*
X8673Y14503D01*
X8673Y14503D02*
X8783Y14921D01*
X8783Y14921D02*
X8905Y14499D01*
X8905Y14499D02*
X9039Y15070D01*
X7972Y14810D02*
X8283Y14814D01*
X8283Y14814D02*
X8287Y14810D01*
X8287Y14810D02*
X8287Y14814D01*
X8303Y15094D02*
X8303Y14487D01*
X7953Y15098D02*
X7953Y14480D01*
X7953Y14480D02*
X7957Y14484D01*
X7736Y15058D02*
X7598Y15090D01*
X7598Y15090D02*
X7472Y15094D01*
X7472Y15094D02*
X7378Y15015D01*
X7378Y15015D02*
X7366Y14909D01*
X7366Y14909D02*
X7461Y14814D01*
X7461Y14814D02*
X7614Y14763D01*
X7614Y14763D02*
X7685Y14700D01*
X7685Y14700D02*
X7701Y14582D01*
X7701Y14582D02*
X7610Y14495D01*
X7610Y14495D02*
X7484Y14484D01*
X7484Y14484D02*
X7346Y14527D01*
X6937Y15098D02*
X6839Y15090D01*
X6839Y15090D02*
X6744Y14995D01*
X6744Y14995D02*
X6709Y14802D01*
X6709Y14802D02*
X6720Y14665D01*
X6720Y14665D02*
X6799Y14539D01*
X6799Y14539D02*
X6898Y14491D01*
X6898Y14491D02*
X7020Y14519D01*
X7020Y14519D02*
X7106Y14590D01*
X7106Y14590D02*
X7134Y14771D01*
X7134Y14771D02*
X7114Y14932D01*
X7114Y14932D02*
X7071Y15043D01*
X7071Y15043D02*
X6929Y15094D01*
X7173Y15775D02*
X7071Y15554D01*
X7071Y15554D02*
X7283Y15350D01*
X7283Y15350D02*
X7488Y15456D01*
X7488Y15456D02*
X7598Y15393D01*
X8165Y15401D02*
X8295Y15476D01*
X8295Y15476D02*
X8468Y15346D01*
X8468Y15346D02*
X8654Y15539D01*
X8654Y15539D02*
X8543Y15728D01*
X8543Y15728D02*
X8618Y15913D01*
X8618Y15913D02*
X8858Y15987D01*
X8858Y15987D02*
X8858Y16255D01*
X8858Y16255D02*
X8638Y16310D01*
X8638Y16310D02*
X8559Y16535D01*
X8559Y16535D02*
X8665Y16720D01*
X8665Y16720D02*
X8480Y16921D01*
X8480Y16921D02*
X8276Y16818D01*
X8276Y16818D02*
X8091Y16897D01*
X8091Y16897D02*
X8024Y17110D01*
X8024Y17110D02*
X7752Y17117D01*
X7752Y17117D02*
X7669Y16901D01*
X7669Y16901D02*
X7504Y16834D01*
X7504Y16834D02*
X7287Y16940D01*
X7287Y16940D02*
X7083Y16732D01*
X7083Y16732D02*
X7181Y16519D01*
X7181Y16519D02*
X7114Y16330D01*
X7114Y16330D02*
X6898Y16291D01*
X6898Y16291D02*
X6894Y16015D01*
X6894Y16015D02*
X7114Y15936D01*
X7114Y15936D02*
X7169Y15779D01*
X8012Y15787D02*
X8130Y15846D01*
X8130Y15846D02*
X8209Y15924D01*
X8209Y15924D02*
X8268Y16082D01*
X8268Y16082D02*
X8268Y16239D01*
X8268Y16239D02*
X8209Y16377D01*
X8209Y16377D02*
X8031Y16515D01*
X8031Y16515D02*
X7854Y16535D01*
X7854Y16535D02*
X7697Y16495D01*
X7697Y16495D02*
X7539Y16358D01*
X7539Y16358D02*
X7480Y16180D01*
X7480Y16180D02*
X7500Y15984D01*
X7500Y15984D02*
X7598Y15865D01*
X7598Y15865D02*
X7736Y15787D01*
X7736Y15787D02*
X7598Y15393D01*
X8012Y15787D02*
X8169Y15393D01*
G54D15*
X3740Y13944D02*
X3633Y13944D01*
X3633Y13944D02*
X3633Y13535D01*
X3633Y13535D02*
X3740Y13535D01*
X4685Y13535D02*
X4791Y13535D01*
X4791Y13535D02*
X4791Y13944D01*
X4791Y13944D02*
X4685Y13944D01*
X15039Y14125D02*
X15145Y14125D01*
X15145Y14125D02*
X15145Y14535D01*
X15145Y14535D02*
X15039Y14535D01*
X14094Y14535D02*
X13988Y14535D01*
X13988Y14535D02*
X13988Y14125D01*
X13988Y14125D02*
X14094Y14125D01*
G54D16*
X12720Y14694D02*
G75*
G03X12720Y14694I-62J0D01*
G74*
G01*
X12319Y15657D02*
X12719Y15657D01*
X12319Y14632D02*
X12719Y14632D01*
X12719Y15657D02*
X12719Y14632D01*
X12319Y14632D02*
X12319Y15657D01*
X9914Y12184D02*
G75*
G03X9914Y12184I-62J0D01*
G74*
G01*
X10814Y12522D02*
X10814Y12122D01*
X9789Y12522D02*
X9789Y12122D01*
X10814Y12122D02*
X9789Y12122D01*
X9789Y12522D02*
X10814Y12522D01*
X7946Y12184D02*
G75*
G03X7946Y12184I-62J0D01*
G74*
G01*
X8846Y12522D02*
X8846Y12122D01*
X7821Y12522D02*
X7821Y12122D01*
X8846Y12122D02*
X7821Y12122D01*
X7821Y12522D02*
X8846Y12522D01*
X5938Y12184D02*
G75*
G03X5938Y12184I-62J0D01*
G74*
G01*
X6838Y12522D02*
X6838Y12122D01*
X5813Y12522D02*
X5813Y12122D01*
X6838Y12122D02*
X5813Y12122D01*
X5813Y12522D02*
X6838Y12522D01*
G54D15*
X4803Y14653D02*
X4696Y14653D01*
X4696Y14653D02*
X4696Y14244D01*
X4696Y14244D02*
X4803Y14244D01*
X5748Y14244D02*
X5854Y14244D01*
X5854Y14244D02*
X5854Y14653D01*
X5854Y14653D02*
X5748Y14653D01*
X4803Y15125D02*
X4696Y15125D01*
X4696Y15125D02*
X4696Y14716D01*
X4696Y14716D02*
X4803Y14716D01*
X5748Y14716D02*
X5854Y14716D01*
X5854Y14716D02*
X5854Y15125D01*
X5854Y15125D02*
X5748Y15125D01*
X4803Y15598D02*
X4696Y15598D01*
X4696Y15598D02*
X4696Y15188D01*
X4696Y15188D02*
X4803Y15188D01*
X5748Y15188D02*
X5854Y15188D01*
X5854Y15188D02*
X5854Y15598D01*
X5854Y15598D02*
X5748Y15598D01*
X4803Y16070D02*
X4696Y16070D01*
X4696Y16070D02*
X4696Y15661D01*
X4696Y15661D02*
X4803Y15661D01*
X5748Y15661D02*
X5854Y15661D01*
X5854Y15661D02*
X5854Y16070D01*
X5854Y16070D02*
X5748Y16070D01*
X4803Y16543D02*
X4696Y16543D01*
X4696Y16543D02*
X4696Y16133D01*
X4696Y16133D02*
X4803Y16133D01*
X5748Y16133D02*
X5854Y16133D01*
X5854Y16133D02*
X5854Y16543D01*
X5854Y16543D02*
X5748Y16543D01*
X4803Y17015D02*
X4696Y17015D01*
X4696Y17015D02*
X4696Y16606D01*
X4696Y16606D02*
X4803Y16606D01*
X5748Y16606D02*
X5854Y16606D01*
X5854Y16606D02*
X5854Y17015D01*
X5854Y17015D02*
X5748Y17015D01*
X4803Y17488D02*
X4696Y17488D01*
X4696Y17488D02*
X4696Y17078D01*
X4696Y17078D02*
X4803Y17078D01*
X5748Y17078D02*
X5854Y17078D01*
X5854Y17078D02*
X5854Y17488D01*
X5854Y17488D02*
X5748Y17488D01*
X4803Y18000D02*
X4696Y18000D01*
X4696Y18000D02*
X4696Y17590D01*
X4696Y17590D02*
X4803Y17590D01*
X5748Y17590D02*
X5854Y17590D01*
X5854Y17590D02*
X5854Y18000D01*
X5854Y18000D02*
X5748Y18000D01*
X13582Y15362D02*
X13476Y15362D01*
X13476Y15362D02*
X13476Y14952D01*
X13476Y14952D02*
X13582Y14952D01*
X14527Y14952D02*
X14633Y14952D01*
X14633Y14952D02*
X14633Y15362D01*
X14633Y15362D02*
X14527Y15362D01*
X11425Y12834D02*
X11425Y12940D01*
X11425Y12940D02*
X11015Y12940D01*
X11015Y12940D02*
X11015Y12834D01*
X11015Y11889D02*
X11015Y11783D01*
X11015Y11783D02*
X11425Y11783D01*
X11425Y11783D02*
X11425Y11889D01*
X9125Y11889D02*
X9125Y11783D01*
X9125Y11783D02*
X9535Y11783D01*
X9535Y11783D02*
X9535Y11889D01*
X9535Y12834D02*
X9535Y12940D01*
X9535Y12940D02*
X9125Y12940D01*
X9125Y12940D02*
X9125Y12834D01*
X7157Y11889D02*
X7157Y11783D01*
X7157Y11783D02*
X7566Y11783D01*
X7566Y11783D02*
X7566Y11889D01*
X7566Y12834D02*
X7566Y12940D01*
X7566Y12940D02*
X7157Y12940D01*
X7157Y12940D02*
X7157Y12834D01*
X18102Y16181D02*
X18102Y16074D01*
X18102Y16074D02*
X18511Y16074D01*
X18511Y16074D02*
X18511Y16181D01*
X18511Y17125D02*
X18511Y17232D01*
X18511Y17232D02*
X18102Y17232D01*
X18102Y17232D02*
X18102Y17125D01*
X15098Y11496D02*
X15098Y14015D01*
X15098Y14015D02*
X16555Y14015D01*
X16555Y14015D02*
X16555Y11496D01*
X16555Y11496D02*
X15098Y11496D01*
X15521Y13740D02*
G75*
G03X15521Y13740I-167J0D01*
G74*
G01*
G54D17*
X4733Y12909D02*
X4733Y12209D01*
X4733Y12209D02*
X3533Y12209D01*
X3533Y12209D02*
X3533Y12909D01*
X3533Y12909D02*
X4733Y12909D01*
G54D15*
X4763Y11929D02*
X4763Y11673D01*
X4763Y11673D02*
X5393Y11673D01*
X5393Y11673D02*
X5393Y11929D01*
X5393Y12874D02*
X5393Y13129D01*
X5393Y13129D02*
X4763Y13129D01*
X4763Y13129D02*
X4763Y12874D01*
X2716Y11978D02*
X2716Y11653D01*
X2716Y11653D02*
X3503Y11653D01*
X3503Y11653D02*
X3503Y11978D01*
X3503Y13375D02*
X3503Y13700D01*
X3503Y13700D02*
X2716Y13700D01*
X2716Y13700D02*
X2716Y13375D01*
X9881Y16803D02*
X9988Y16803D01*
X9988Y16803D02*
X9988Y17212D01*
X9988Y17212D02*
X9881Y17212D01*
X8937Y17212D02*
X8830Y17212D01*
X8830Y17212D02*
X8830Y16803D01*
X8830Y16803D02*
X8937Y16803D01*
X11527Y11889D02*
X11527Y11783D01*
X11527Y11783D02*
X11937Y11783D01*
X11937Y11783D02*
X11937Y11889D01*
X11937Y12834D02*
X11937Y12940D01*
X11937Y12940D02*
X11527Y12940D01*
X11527Y12940D02*
X11527Y12834D01*
X2449Y14503D02*
X2449Y18803D01*
X2449Y18803D02*
X3849Y18803D01*
X3849Y18803D02*
X3849Y14503D01*
X3849Y14503D02*
X2449Y14503D01*
X2949Y14503D02*
X2949Y14803D01*
X2949Y14803D02*
X3349Y14803D01*
X3349Y14803D02*
X3349Y14503D01*
X17460Y12814D02*
X17460Y14429D01*
X18287Y12814D02*
X18287Y14429D01*
X16661Y17125D02*
X16661Y17232D01*
X16661Y17232D02*
X16251Y17232D01*
X16251Y17232D02*
X16251Y17125D01*
X16251Y16181D02*
X16251Y16074D01*
X16251Y16074D02*
X16661Y16074D01*
X16661Y16074D02*
X16661Y16181D01*
G54D10*
X17559Y17992D02*
X17165Y17992D01*
X17165Y17992D02*
X17165Y17204D01*
X17165Y17204D02*
X17559Y17204D01*
X17559Y17204D02*
X17559Y17992D01*
X16771Y18779D02*
X16771Y16417D01*
X16771Y16417D02*
X17952Y16417D01*
X17952Y16417D02*
X17952Y18779D01*
X17952Y18779D02*
X16771Y18779D01*
G54D15*
X14474Y5712D02*
X14458Y5697D01*
X14413Y5682D01*
X14382Y5682D01*
X14337Y5697D01*
X14306Y5727D01*
X14291Y5758D01*
X14276Y5819D01*
X14276Y5864D01*
X14291Y5925D01*
X14306Y5956D01*
X14337Y5986D01*
X14382Y6002D01*
X14413Y6002D01*
X14458Y5986D01*
X14474Y5971D01*
X14596Y5971D02*
X14611Y5986D01*
X14641Y6002D01*
X14718Y6002D01*
X14748Y5986D01*
X14763Y5971D01*
X14778Y5941D01*
X14778Y5910D01*
X14763Y5864D01*
X14580Y5682D01*
X14778Y5682D01*
X15287Y5327D02*
X15104Y5327D01*
X15195Y5327D02*
X15195Y5647D01*
X15165Y5601D01*
X15134Y5571D01*
X15104Y5556D01*
X15485Y5647D02*
X15515Y5647D01*
X15546Y5632D01*
X15561Y5617D01*
X15576Y5586D01*
X15591Y5525D01*
X15591Y5449D01*
X15576Y5388D01*
X15561Y5358D01*
X15546Y5342D01*
X15515Y5327D01*
X15485Y5327D01*
X15454Y5342D01*
X15439Y5358D01*
X15424Y5388D01*
X15408Y5449D01*
X15408Y5525D01*
X15424Y5586D01*
X15439Y5617D01*
X15454Y5632D01*
X15485Y5647D01*
X15728Y5541D02*
X15728Y5327D01*
X15728Y5510D02*
X15744Y5525D01*
X15774Y5541D01*
X15820Y5541D01*
X15850Y5525D01*
X15866Y5495D01*
X15866Y5327D01*
X16125Y5495D02*
X16018Y5495D01*
X16018Y5327D02*
X16018Y5647D01*
X16170Y5647D01*
X5576Y5751D02*
X5561Y5736D01*
X5515Y5721D01*
X5485Y5721D01*
X5439Y5736D01*
X5408Y5767D01*
X5393Y5797D01*
X5378Y5858D01*
X5378Y5904D01*
X5393Y5965D01*
X5408Y5995D01*
X5439Y6026D01*
X5485Y6041D01*
X5515Y6041D01*
X5561Y6026D01*
X5576Y6010D01*
X5850Y5934D02*
X5850Y5721D01*
X5774Y6056D02*
X5698Y5828D01*
X5896Y5828D01*
X4504Y4815D02*
X4321Y4815D01*
X4413Y4815D02*
X4413Y5135D01*
X4382Y5090D01*
X4352Y5059D01*
X4321Y5044D01*
X4702Y5135D02*
X4733Y5135D01*
X4763Y5120D01*
X4779Y5105D01*
X4794Y5074D01*
X4809Y5013D01*
X4809Y4937D01*
X4794Y4876D01*
X4779Y4846D01*
X4763Y4831D01*
X4733Y4815D01*
X4702Y4815D01*
X4672Y4831D01*
X4657Y4846D01*
X4641Y4876D01*
X4626Y4937D01*
X4626Y5013D01*
X4641Y5074D01*
X4657Y5105D01*
X4672Y5120D01*
X4702Y5135D01*
X5007Y5135D02*
X5038Y5135D01*
X5068Y5120D01*
X5083Y5105D01*
X5099Y5074D01*
X5114Y5013D01*
X5114Y4937D01*
X5099Y4876D01*
X5083Y4846D01*
X5068Y4831D01*
X5038Y4815D01*
X5007Y4815D01*
X4977Y4831D01*
X4961Y4846D01*
X4946Y4876D01*
X4931Y4937D01*
X4931Y5013D01*
X4946Y5074D01*
X4961Y5105D01*
X4977Y5120D01*
X5007Y5135D01*
X5251Y5029D02*
X5251Y4815D01*
X5251Y4998D02*
X5266Y5013D01*
X5297Y5029D01*
X5342Y5029D01*
X5373Y5013D01*
X5388Y4983D01*
X5388Y4815D01*
X5647Y4983D02*
X5540Y4983D01*
X5540Y4815D02*
X5540Y5135D01*
X5693Y5135D01*
X7686Y3801D02*
X7655Y3816D01*
X7625Y3846D01*
X7579Y3892D01*
X7548Y3907D01*
X7518Y3907D01*
X7533Y3831D02*
X7503Y3846D01*
X7472Y3877D01*
X7457Y3938D01*
X7457Y4044D01*
X7472Y4105D01*
X7503Y4136D01*
X7533Y4151D01*
X7594Y4151D01*
X7625Y4136D01*
X7655Y4105D01*
X7670Y4044D01*
X7670Y3938D01*
X7655Y3877D01*
X7625Y3846D01*
X7594Y3831D01*
X7533Y3831D01*
X7975Y3831D02*
X7792Y3831D01*
X7884Y3831D02*
X7884Y4151D01*
X7853Y4105D01*
X7823Y4075D01*
X7792Y4060D01*
X7423Y4894D02*
X7423Y5214D01*
X7545Y5214D01*
X7575Y5199D01*
X7590Y5184D01*
X7606Y5153D01*
X7606Y5107D01*
X7590Y5077D01*
X7575Y5062D01*
X7545Y5046D01*
X7423Y5046D01*
X7743Y4894D02*
X7743Y5214D01*
X7926Y4894D01*
X7926Y5214D01*
X8078Y4894D02*
X8078Y5214D01*
X8200Y5214D01*
X8230Y5199D01*
X8246Y5184D01*
X8261Y5153D01*
X8261Y5107D01*
X8246Y5077D01*
X8230Y5062D01*
X8200Y5046D01*
X8078Y5046D01*
X9339Y8289D02*
X9309Y8304D01*
X9278Y8335D01*
X9232Y8380D01*
X9202Y8395D01*
X9171Y8395D01*
X9187Y8319D02*
X9156Y8335D01*
X9126Y8365D01*
X9111Y8426D01*
X9111Y8533D01*
X9126Y8594D01*
X9156Y8624D01*
X9187Y8639D01*
X9248Y8639D01*
X9278Y8624D01*
X9309Y8594D01*
X9324Y8533D01*
X9324Y8426D01*
X9309Y8365D01*
X9278Y8335D01*
X9248Y8319D01*
X9187Y8319D01*
X9446Y8609D02*
X9461Y8624D01*
X9491Y8639D01*
X9568Y8639D01*
X9598Y8624D01*
X9613Y8609D01*
X9629Y8578D01*
X9629Y8548D01*
X9613Y8502D01*
X9431Y8319D01*
X9629Y8319D01*
X8933Y7217D02*
X8933Y7537D01*
X9055Y7537D01*
X9086Y7522D01*
X9101Y7506D01*
X9116Y7476D01*
X9116Y7430D01*
X9101Y7400D01*
X9086Y7385D01*
X9055Y7369D01*
X8933Y7369D01*
X9253Y7217D02*
X9253Y7537D01*
X9436Y7217D01*
X9436Y7537D01*
X9588Y7217D02*
X9588Y7537D01*
X9710Y7537D01*
X9741Y7522D01*
X9756Y7506D01*
X9771Y7476D01*
X9771Y7430D01*
X9756Y7400D01*
X9741Y7385D01*
X9710Y7369D01*
X9588Y7369D01*
X11308Y8289D02*
X11277Y8304D01*
X11247Y8335D01*
X11201Y8380D01*
X11170Y8395D01*
X11140Y8395D01*
X11155Y8319D02*
X11125Y8335D01*
X11094Y8365D01*
X11079Y8426D01*
X11079Y8533D01*
X11094Y8594D01*
X11125Y8624D01*
X11155Y8639D01*
X11216Y8639D01*
X11247Y8624D01*
X11277Y8594D01*
X11292Y8533D01*
X11292Y8426D01*
X11277Y8365D01*
X11247Y8335D01*
X11216Y8319D01*
X11155Y8319D01*
X11399Y8639D02*
X11597Y8639D01*
X11490Y8517D01*
X11536Y8517D01*
X11567Y8502D01*
X11582Y8487D01*
X11597Y8456D01*
X11597Y8380D01*
X11582Y8350D01*
X11567Y8335D01*
X11536Y8319D01*
X11445Y8319D01*
X11414Y8335D01*
X11399Y8350D01*
X10902Y7217D02*
X10902Y7537D01*
X11024Y7537D01*
X11054Y7522D01*
X11069Y7506D01*
X11085Y7476D01*
X11085Y7430D01*
X11069Y7400D01*
X11054Y7385D01*
X11024Y7369D01*
X10902Y7369D01*
X11222Y7217D02*
X11222Y7537D01*
X11405Y7217D01*
X11405Y7537D01*
X11557Y7217D02*
X11557Y7537D01*
X11679Y7537D01*
X11709Y7522D01*
X11725Y7506D01*
X11740Y7476D01*
X11740Y7430D01*
X11725Y7400D01*
X11709Y7385D01*
X11679Y7369D01*
X11557Y7369D01*
X13315Y8289D02*
X13285Y8304D01*
X13255Y8335D01*
X13209Y8380D01*
X13178Y8395D01*
X13148Y8395D01*
X13163Y8319D02*
X13133Y8335D01*
X13102Y8365D01*
X13087Y8426D01*
X13087Y8533D01*
X13102Y8594D01*
X13133Y8624D01*
X13163Y8639D01*
X13224Y8639D01*
X13255Y8624D01*
X13285Y8594D01*
X13300Y8533D01*
X13300Y8426D01*
X13285Y8365D01*
X13255Y8335D01*
X13224Y8319D01*
X13163Y8319D01*
X13575Y8533D02*
X13575Y8319D01*
X13498Y8655D02*
X13422Y8426D01*
X13620Y8426D01*
X12910Y7217D02*
X12910Y7537D01*
X13031Y7537D01*
X13062Y7522D01*
X13077Y7506D01*
X13092Y7476D01*
X13092Y7430D01*
X13077Y7400D01*
X13062Y7385D01*
X13031Y7369D01*
X12910Y7369D01*
X13230Y7217D02*
X13230Y7537D01*
X13412Y7217D01*
X13412Y7537D01*
X13565Y7217D02*
X13565Y7537D01*
X13687Y7537D01*
X13717Y7522D01*
X13732Y7506D01*
X13748Y7476D01*
X13748Y7430D01*
X13732Y7400D01*
X13717Y7385D01*
X13687Y7369D01*
X13565Y7369D01*
X13411Y5130D02*
X13304Y5283D01*
X13228Y5130D02*
X13228Y5450D01*
X13350Y5450D01*
X13380Y5435D01*
X13395Y5420D01*
X13411Y5389D01*
X13411Y5344D01*
X13395Y5313D01*
X13380Y5298D01*
X13350Y5283D01*
X13228Y5283D01*
X13715Y5130D02*
X13533Y5130D01*
X13624Y5130D02*
X13624Y5450D01*
X13594Y5405D01*
X13563Y5374D01*
X13533Y5359D01*
X13411Y4697D02*
X13304Y4850D01*
X13228Y4697D02*
X13228Y5017D01*
X13350Y5017D01*
X13380Y5002D01*
X13395Y4987D01*
X13411Y4956D01*
X13411Y4911D01*
X13395Y4880D01*
X13380Y4865D01*
X13350Y4850D01*
X13228Y4850D01*
X13533Y4987D02*
X13548Y5002D01*
X13578Y5017D01*
X13655Y5017D01*
X13685Y5002D01*
X13700Y4987D01*
X13715Y4956D01*
X13715Y4926D01*
X13700Y4880D01*
X13517Y4697D01*
X13715Y4697D01*
X13411Y4264D02*
X13304Y4417D01*
X13228Y4264D02*
X13228Y4584D01*
X13350Y4584D01*
X13380Y4569D01*
X13395Y4554D01*
X13411Y4523D01*
X13411Y4478D01*
X13395Y4447D01*
X13380Y4432D01*
X13350Y4417D01*
X13228Y4417D01*
X13517Y4584D02*
X13715Y4584D01*
X13609Y4462D01*
X13655Y4462D01*
X13685Y4447D01*
X13700Y4432D01*
X13715Y4401D01*
X13715Y4325D01*
X13700Y4295D01*
X13685Y4279D01*
X13655Y4264D01*
X13563Y4264D01*
X13533Y4279D01*
X13517Y4295D01*
X13411Y3831D02*
X13304Y3983D01*
X13228Y3831D02*
X13228Y4151D01*
X13350Y4151D01*
X13380Y4136D01*
X13395Y4121D01*
X13411Y4090D01*
X13411Y4044D01*
X13395Y4014D01*
X13380Y3999D01*
X13350Y3983D01*
X13228Y3983D01*
X13685Y4044D02*
X13685Y3831D01*
X13609Y4166D02*
X13533Y3938D01*
X13731Y3938D01*
X13411Y3398D02*
X13304Y3550D01*
X13228Y3398D02*
X13228Y3718D01*
X13350Y3718D01*
X13380Y3703D01*
X13395Y3688D01*
X13411Y3657D01*
X13411Y3611D01*
X13395Y3581D01*
X13380Y3566D01*
X13350Y3550D01*
X13228Y3550D01*
X13700Y3718D02*
X13548Y3718D01*
X13533Y3566D01*
X13548Y3581D01*
X13578Y3596D01*
X13655Y3596D01*
X13685Y3581D01*
X13700Y3566D01*
X13715Y3535D01*
X13715Y3459D01*
X13700Y3429D01*
X13685Y3413D01*
X13655Y3398D01*
X13578Y3398D01*
X13548Y3413D01*
X13533Y3429D01*
X13411Y2965D02*
X13304Y3117D01*
X13228Y2965D02*
X13228Y3285D01*
X13350Y3285D01*
X13380Y3270D01*
X13395Y3254D01*
X13411Y3224D01*
X13411Y3178D01*
X13395Y3148D01*
X13380Y3133D01*
X13350Y3117D01*
X13228Y3117D01*
X13685Y3285D02*
X13624Y3285D01*
X13594Y3270D01*
X13578Y3254D01*
X13548Y3209D01*
X13533Y3148D01*
X13533Y3026D01*
X13548Y2995D01*
X13563Y2980D01*
X13594Y2965D01*
X13655Y2965D01*
X13685Y2980D01*
X13700Y2995D01*
X13715Y3026D01*
X13715Y3102D01*
X13700Y3133D01*
X13685Y3148D01*
X13655Y3163D01*
X13594Y3163D01*
X13563Y3148D01*
X13548Y3133D01*
X13533Y3102D01*
X13411Y2532D02*
X13304Y2684D01*
X13228Y2532D02*
X13228Y2852D01*
X13350Y2852D01*
X13380Y2837D01*
X13395Y2821D01*
X13411Y2791D01*
X13411Y2745D01*
X13395Y2715D01*
X13380Y2700D01*
X13350Y2684D01*
X13228Y2684D01*
X13517Y2852D02*
X13731Y2852D01*
X13594Y2532D01*
X14001Y1272D02*
X13895Y1424D01*
X13818Y1272D02*
X13818Y1592D01*
X13940Y1592D01*
X13971Y1577D01*
X13986Y1562D01*
X14001Y1531D01*
X14001Y1485D01*
X13986Y1455D01*
X13971Y1440D01*
X13940Y1424D01*
X13818Y1424D01*
X14184Y1455D02*
X14154Y1470D01*
X14138Y1485D01*
X14123Y1516D01*
X14123Y1531D01*
X14138Y1562D01*
X14154Y1577D01*
X14184Y1592D01*
X14245Y1592D01*
X14276Y1577D01*
X14291Y1562D01*
X14306Y1531D01*
X14306Y1516D01*
X14291Y1485D01*
X14276Y1470D01*
X14245Y1455D01*
X14184Y1455D01*
X14154Y1440D01*
X14138Y1424D01*
X14123Y1394D01*
X14123Y1333D01*
X14138Y1303D01*
X14154Y1287D01*
X14184Y1272D01*
X14245Y1272D01*
X14276Y1287D01*
X14291Y1303D01*
X14306Y1333D01*
X14306Y1394D01*
X14291Y1424D01*
X14276Y1440D01*
X14245Y1455D01*
X5576Y3870D02*
X5469Y4023D01*
X5393Y3870D02*
X5393Y4190D01*
X5515Y4190D01*
X5546Y4175D01*
X5561Y4160D01*
X5576Y4130D01*
X5576Y4084D01*
X5561Y4053D01*
X5546Y4038D01*
X5515Y4023D01*
X5393Y4023D01*
X5728Y3870D02*
X5789Y3870D01*
X5820Y3886D01*
X5835Y3901D01*
X5866Y3947D01*
X5881Y4008D01*
X5881Y4130D01*
X5866Y4160D01*
X5850Y4175D01*
X5820Y4190D01*
X5759Y4190D01*
X5728Y4175D01*
X5713Y4160D01*
X5698Y4130D01*
X5698Y4053D01*
X5713Y4023D01*
X5728Y4008D01*
X5759Y3992D01*
X5820Y3992D01*
X5850Y4008D01*
X5866Y4023D01*
X5881Y4053D01*
X5774Y4489D02*
X5774Y4306D01*
X5774Y4398D02*
X5454Y4398D01*
X5500Y4367D01*
X5530Y4337D01*
X5546Y4306D01*
X5774Y4626D02*
X5454Y4626D01*
X5652Y4657D02*
X5774Y4748D01*
X5561Y4748D02*
X5683Y4626D01*
X8569Y8180D02*
X8417Y8073D01*
X8569Y7997D02*
X8249Y7997D01*
X8249Y8119D01*
X8265Y8149D01*
X8280Y8164D01*
X8310Y8180D01*
X8356Y8180D01*
X8387Y8164D01*
X8402Y8149D01*
X8417Y8119D01*
X8417Y7997D01*
X8569Y8484D02*
X8569Y8302D01*
X8569Y8393D02*
X8249Y8393D01*
X8295Y8362D01*
X8326Y8332D01*
X8341Y8302D01*
X8249Y8682D02*
X8249Y8713D01*
X8265Y8743D01*
X8280Y8759D01*
X8310Y8774D01*
X8371Y8789D01*
X8448Y8789D01*
X8509Y8774D01*
X8539Y8759D01*
X8554Y8743D01*
X8569Y8713D01*
X8569Y8682D01*
X8554Y8652D01*
X8539Y8637D01*
X8509Y8622D01*
X8448Y8606D01*
X8371Y8606D01*
X8310Y8622D01*
X8280Y8637D01*
X8265Y8652D01*
X8249Y8682D01*
X8505Y7178D02*
X8322Y7178D01*
X8413Y7178D02*
X8413Y7498D01*
X8383Y7452D01*
X8352Y7421D01*
X8322Y7406D01*
X8642Y7178D02*
X8642Y7498D01*
X8672Y7299D02*
X8764Y7178D01*
X8764Y7391D02*
X8642Y7269D01*
X10109Y8044D02*
X10002Y8196D01*
X9926Y8044D02*
X9926Y8364D01*
X10048Y8364D01*
X10078Y8348D01*
X10094Y8333D01*
X10109Y8303D01*
X10109Y8257D01*
X10094Y8227D01*
X10078Y8211D01*
X10048Y8196D01*
X9926Y8196D01*
X10414Y8044D02*
X10231Y8044D01*
X10322Y8044D02*
X10322Y8364D01*
X10292Y8318D01*
X10261Y8288D01*
X10231Y8272D01*
X10718Y8044D02*
X10535Y8044D01*
X10627Y8044D02*
X10627Y8364D01*
X10596Y8318D01*
X10566Y8288D01*
X10535Y8272D01*
X10316Y7178D02*
X10133Y7178D01*
X10224Y7178D02*
X10224Y7498D01*
X10194Y7452D01*
X10163Y7421D01*
X10133Y7406D01*
X10453Y7178D02*
X10453Y7498D01*
X10483Y7299D02*
X10575Y7178D01*
X10575Y7391D02*
X10453Y7269D01*
X12117Y8044D02*
X12010Y8196D01*
X11934Y8044D02*
X11934Y8364D01*
X12056Y8364D01*
X12086Y8348D01*
X12101Y8333D01*
X12117Y8303D01*
X12117Y8257D01*
X12101Y8227D01*
X12086Y8211D01*
X12056Y8196D01*
X11934Y8196D01*
X12421Y8044D02*
X12239Y8044D01*
X12330Y8044D02*
X12330Y8364D01*
X12299Y8318D01*
X12269Y8288D01*
X12239Y8272D01*
X12543Y8333D02*
X12559Y8348D01*
X12589Y8364D01*
X12665Y8364D01*
X12696Y8348D01*
X12711Y8333D01*
X12726Y8303D01*
X12726Y8272D01*
X12711Y8227D01*
X12528Y8044D01*
X12726Y8044D01*
X12284Y7178D02*
X12101Y7178D01*
X12193Y7178D02*
X12193Y7498D01*
X12162Y7452D01*
X12132Y7421D01*
X12101Y7406D01*
X12421Y7178D02*
X12421Y7498D01*
X12452Y7299D02*
X12543Y7178D01*
X12543Y7391D02*
X12421Y7269D01*
X1522Y1723D02*
X1370Y1616D01*
X1522Y1540D02*
X1202Y1540D01*
X1202Y1662D01*
X1217Y1692D01*
X1233Y1708D01*
X1263Y1723D01*
X1309Y1723D01*
X1339Y1708D01*
X1355Y1692D01*
X1370Y1662D01*
X1370Y1540D01*
X1522Y2028D02*
X1522Y1845D01*
X1522Y1936D02*
X1202Y1936D01*
X1248Y1906D01*
X1278Y1875D01*
X1294Y1845D01*
X1202Y2134D02*
X1202Y2332D01*
X1324Y2226D01*
X1324Y2271D01*
X1339Y2302D01*
X1355Y2317D01*
X1385Y2332D01*
X1461Y2332D01*
X1492Y2317D01*
X1507Y2302D01*
X1522Y2271D01*
X1522Y2180D01*
X1507Y2150D01*
X1492Y2134D01*
X1309Y3873D02*
X1522Y3873D01*
X1187Y3797D02*
X1416Y3721D01*
X1416Y3919D01*
X1202Y4010D02*
X1202Y4224D01*
X1522Y4086D01*
X1522Y4345D02*
X1202Y4345D01*
X1400Y4376D02*
X1522Y4467D01*
X1309Y4467D02*
X1431Y4345D01*
X3614Y5568D02*
X3614Y5309D01*
X3629Y5279D01*
X3644Y5264D01*
X3675Y5248D01*
X3736Y5248D01*
X3766Y5264D01*
X3782Y5279D01*
X3797Y5309D01*
X3797Y5568D01*
X4117Y5248D02*
X3934Y5248D01*
X4025Y5248D02*
X4025Y5568D01*
X3995Y5523D01*
X3964Y5492D01*
X3934Y5477D01*
G54D18*
X4317Y6289D02*
X3997Y6289D01*
X4226Y6395D01*
X3997Y6502D01*
X4317Y6502D01*
X4302Y6639D02*
X4317Y6685D01*
X4317Y6761D01*
X4302Y6792D01*
X4287Y6807D01*
X4257Y6822D01*
X4226Y6822D01*
X4196Y6807D01*
X4180Y6792D01*
X4165Y6761D01*
X4150Y6700D01*
X4135Y6670D01*
X4119Y6654D01*
X4089Y6639D01*
X4058Y6639D01*
X4028Y6654D01*
X4013Y6670D01*
X3997Y6700D01*
X3997Y6776D01*
X4013Y6822D01*
X4317Y6959D02*
X3997Y6959D01*
X3997Y7081D01*
X4013Y7112D01*
X4028Y7127D01*
X4058Y7142D01*
X4104Y7142D01*
X4135Y7127D01*
X4150Y7112D01*
X4165Y7081D01*
X4165Y6959D01*
X4104Y7416D02*
X4317Y7416D01*
X3982Y7340D02*
X4211Y7264D01*
X4211Y7462D01*
X3997Y7553D02*
X3997Y7752D01*
X4119Y7645D01*
X4119Y7691D01*
X4135Y7721D01*
X4150Y7736D01*
X4180Y7752D01*
X4257Y7752D01*
X4287Y7736D01*
X4302Y7721D01*
X4317Y7691D01*
X4317Y7599D01*
X4302Y7569D01*
X4287Y7553D01*
X3997Y7950D02*
X3997Y7980D01*
X4013Y8011D01*
X4028Y8026D01*
X4058Y8041D01*
X4119Y8056D01*
X4196Y8056D01*
X4257Y8041D01*
X4287Y8026D01*
X4302Y8011D01*
X4317Y7980D01*
X4317Y7950D01*
X4302Y7919D01*
X4287Y7904D01*
X4257Y7889D01*
X4196Y7873D01*
X4119Y7873D01*
X4058Y7889D01*
X4028Y7904D01*
X4013Y7919D01*
X3997Y7950D01*
G54D15*
X16281Y6882D02*
X16540Y6882D01*
X16570Y6897D01*
X16586Y6912D01*
X16601Y6943D01*
X16601Y7004D01*
X16586Y7034D01*
X16570Y7049D01*
X16540Y7065D01*
X16281Y7065D01*
X16281Y7186D02*
X16281Y7385D01*
X16403Y7278D01*
X16403Y7324D01*
X16418Y7354D01*
X16433Y7369D01*
X16464Y7385D01*
X16540Y7385D01*
X16570Y7369D01*
X16586Y7354D01*
X16601Y7324D01*
X16601Y7232D01*
X16586Y7202D01*
X16570Y7186D01*
G54D19*
X15002Y7270D02*
X15017Y7285D01*
X15048Y7301D01*
X15124Y7301D01*
X15154Y7285D01*
X15170Y7270D01*
X15185Y7240D01*
X15185Y7209D01*
X15170Y7164D01*
X14987Y6981D01*
X15185Y6981D01*
X15337Y6981D02*
X15398Y6981D01*
X15429Y6996D01*
X15444Y7011D01*
X15474Y7057D01*
X15490Y7118D01*
X15490Y7240D01*
X15474Y7270D01*
X15459Y7285D01*
X15429Y7301D01*
X15368Y7301D01*
X15337Y7285D01*
X15322Y7270D01*
X15307Y7240D01*
X15307Y7164D01*
X15322Y7133D01*
X15337Y7118D01*
X15368Y7103D01*
X15429Y7103D01*
X15459Y7118D01*
X15474Y7133D01*
X15490Y7164D01*
X15673Y7164D02*
X15642Y7179D01*
X15627Y7194D01*
X15612Y7225D01*
X15612Y7240D01*
X15627Y7270D01*
X15642Y7285D01*
X15673Y7301D01*
X15734Y7301D01*
X15764Y7285D01*
X15779Y7270D01*
X15794Y7240D01*
X15794Y7225D01*
X15779Y7194D01*
X15764Y7179D01*
X15734Y7164D01*
X15673Y7164D01*
X15642Y7148D01*
X15627Y7133D01*
X15612Y7103D01*
X15612Y7042D01*
X15627Y7011D01*
X15642Y6996D01*
X15673Y6981D01*
X15734Y6981D01*
X15764Y6996D01*
X15779Y7011D01*
X15794Y7042D01*
X15794Y7103D01*
X15779Y7133D01*
X15764Y7148D01*
X15734Y7164D01*
X16084Y7301D02*
X15932Y7301D01*
X15916Y7148D01*
X15932Y7164D01*
X15962Y7179D01*
X16038Y7179D01*
X16069Y7164D01*
X16084Y7148D01*
X16099Y7118D01*
X16099Y7042D01*
X16084Y7011D01*
X16069Y6996D01*
X16038Y6981D01*
X15962Y6981D01*
X15932Y6996D01*
X15916Y7011D01*
G54D15*
X14552Y6184D02*
X14537Y6169D01*
X14492Y6154D01*
X14461Y6154D01*
X14415Y6169D01*
X14385Y6200D01*
X14370Y6230D01*
X14354Y6291D01*
X14354Y6337D01*
X14370Y6398D01*
X14385Y6428D01*
X14415Y6459D01*
X14461Y6474D01*
X14492Y6474D01*
X14537Y6459D01*
X14552Y6443D01*
X14857Y6154D02*
X14674Y6154D01*
X14766Y6154D02*
X14766Y6474D01*
X14735Y6428D01*
X14705Y6398D01*
X14674Y6383D01*
X14239Y7132D02*
X14239Y6949D01*
X14239Y7040D02*
X13919Y7040D01*
X13964Y7010D01*
X13995Y6979D01*
X14010Y6949D01*
X14025Y7406D02*
X14239Y7406D01*
X14025Y7269D02*
X14193Y7269D01*
X14224Y7284D01*
X14239Y7315D01*
X14239Y7360D01*
X14224Y7391D01*
X14208Y7406D01*
X14071Y7665D02*
X14071Y7559D01*
X14239Y7559D02*
X13919Y7559D01*
X13919Y7711D01*
X16521Y8192D02*
X16506Y8177D01*
X16460Y8162D01*
X16430Y8162D01*
X16384Y8177D01*
X16353Y8208D01*
X16338Y8238D01*
X16323Y8299D01*
X16323Y8345D01*
X16338Y8406D01*
X16353Y8436D01*
X16384Y8467D01*
X16430Y8482D01*
X16460Y8482D01*
X16506Y8467D01*
X16521Y8451D01*
X16628Y8482D02*
X16826Y8482D01*
X16719Y8360D01*
X16765Y8360D01*
X16795Y8345D01*
X16810Y8329D01*
X16826Y8299D01*
X16826Y8223D01*
X16810Y8192D01*
X16795Y8177D01*
X16765Y8162D01*
X16673Y8162D01*
X16643Y8177D01*
X16628Y8192D01*
X17388Y6546D02*
X17388Y6364D01*
X17388Y6455D02*
X17068Y6455D01*
X17114Y6425D01*
X17145Y6394D01*
X17160Y6364D01*
X17068Y6745D02*
X17068Y6775D01*
X17084Y6805D01*
X17099Y6821D01*
X17129Y6836D01*
X17190Y6851D01*
X17266Y6851D01*
X17327Y6836D01*
X17358Y6821D01*
X17373Y6805D01*
X17388Y6775D01*
X17388Y6745D01*
X17373Y6714D01*
X17358Y6699D01*
X17327Y6684D01*
X17266Y6668D01*
X17190Y6668D01*
X17129Y6684D01*
X17099Y6699D01*
X17084Y6714D01*
X17068Y6745D01*
X17175Y7125D02*
X17388Y7125D01*
X17175Y6988D02*
X17343Y6988D01*
X17373Y7004D01*
X17388Y7034D01*
X17388Y7080D01*
X17373Y7110D01*
X17358Y7125D01*
X17221Y7385D02*
X17221Y7278D01*
X17388Y7278D02*
X17068Y7278D01*
X17068Y7430D01*
X9006Y2571D02*
X8900Y2724D01*
X8824Y2571D02*
X8824Y2891D01*
X8945Y2891D01*
X8976Y2876D01*
X8991Y2861D01*
X9006Y2830D01*
X9006Y2785D01*
X8991Y2754D01*
X8976Y2739D01*
X8945Y2724D01*
X8824Y2724D01*
X9311Y2571D02*
X9128Y2571D01*
X9220Y2571D02*
X9220Y2891D01*
X9189Y2846D01*
X9159Y2815D01*
X9128Y2800D01*
X9585Y2785D02*
X9585Y2571D01*
X9509Y2907D02*
X9433Y2678D01*
X9631Y2678D01*
X7546Y6762D02*
X7393Y6656D01*
X7546Y6579D02*
X7226Y6579D01*
X7226Y6701D01*
X7241Y6732D01*
X7256Y6747D01*
X7287Y6762D01*
X7333Y6762D01*
X7363Y6747D01*
X7378Y6732D01*
X7393Y6701D01*
X7393Y6579D01*
X7546Y7067D02*
X7546Y6884D01*
X7546Y6976D02*
X7226Y6976D01*
X7272Y6945D01*
X7302Y6915D01*
X7317Y6884D01*
X7226Y7357D02*
X7226Y7204D01*
X7378Y7189D01*
X7363Y7204D01*
X7348Y7235D01*
X7348Y7311D01*
X7363Y7341D01*
X7378Y7357D01*
X7409Y7372D01*
X7485Y7372D01*
X7515Y7357D01*
X7531Y7341D01*
X7546Y7311D01*
X7546Y7235D01*
X7531Y7204D01*
X7515Y7189D01*
X7777Y7498D02*
X7807Y7498D01*
X7838Y7482D01*
X7853Y7467D01*
X7868Y7437D01*
X7884Y7376D01*
X7884Y7299D01*
X7868Y7239D01*
X7853Y7208D01*
X7838Y7193D01*
X7807Y7178D01*
X7777Y7178D01*
X7747Y7193D01*
X7731Y7208D01*
X7716Y7239D01*
X7701Y7299D01*
X7701Y7376D01*
X7716Y7437D01*
X7731Y7467D01*
X7747Y7482D01*
X7777Y7498D01*
X8204Y7178D02*
X8097Y7330D01*
X8021Y7178D02*
X8021Y7498D01*
X8143Y7498D01*
X8173Y7482D01*
X8188Y7467D01*
X8204Y7437D01*
X8204Y7391D01*
X8188Y7360D01*
X8173Y7345D01*
X8143Y7330D01*
X8021Y7330D01*
X16250Y767D02*
X16250Y506D01*
X16265Y475D01*
X16280Y459D01*
X16311Y444D01*
X16373Y444D01*
X16403Y459D01*
X16419Y475D01*
X16434Y506D01*
X16434Y767D01*
X16572Y736D02*
X16588Y751D01*
X16618Y767D01*
X16695Y767D01*
X16726Y751D01*
X16741Y736D01*
X16757Y705D01*
X16757Y675D01*
X16741Y628D01*
X16557Y444D01*
X16757Y444D01*
X16161Y1978D02*
X16161Y2194D01*
X16484Y2055D01*
X16269Y2455D02*
X16484Y2455D01*
X16146Y2378D02*
X16376Y2301D01*
X16376Y2501D01*
X16484Y2624D02*
X16161Y2624D01*
X16315Y2624D02*
X16315Y2808D01*
X16484Y2808D02*
X16161Y2808D01*
X16453Y3146D02*
X16469Y3131D01*
X16484Y3085D01*
X16484Y3054D01*
X16469Y3008D01*
X16438Y2977D01*
X16407Y2962D01*
X16346Y2946D01*
X16300Y2946D01*
X16238Y2962D01*
X16207Y2977D01*
X16177Y3008D01*
X16161Y3054D01*
X16161Y3085D01*
X16177Y3131D01*
X16192Y3146D01*
X16161Y3438D02*
X16161Y3285D01*
X16315Y3269D01*
X16300Y3285D01*
X16284Y3315D01*
X16284Y3392D01*
X16300Y3423D01*
X16315Y3438D01*
X16346Y3454D01*
X16423Y3454D01*
X16453Y3438D01*
X16469Y3423D01*
X16484Y3392D01*
X16484Y3315D01*
X16469Y3285D01*
X16453Y3269D01*
X16484Y3607D02*
X16484Y3669D01*
X16469Y3699D01*
X16453Y3715D01*
X16407Y3745D01*
X16346Y3761D01*
X16223Y3761D01*
X16192Y3745D01*
X16177Y3730D01*
X16161Y3699D01*
X16161Y3638D01*
X16177Y3607D01*
X16192Y3592D01*
X16223Y3576D01*
X16300Y3576D01*
X16330Y3592D01*
X16346Y3607D01*
X16361Y3638D01*
X16361Y3699D01*
X16346Y3730D01*
X16330Y3745D01*
X16300Y3761D01*
X16161Y4053D02*
X16161Y3899D01*
X16315Y3884D01*
X16300Y3899D01*
X16284Y3930D01*
X16284Y4007D01*
X16300Y4037D01*
X16315Y4053D01*
X16346Y4068D01*
X16423Y4068D01*
X16453Y4053D01*
X16469Y4037D01*
X16484Y4007D01*
X16484Y3930D01*
X16469Y3899D01*
X16453Y3884D01*
X1551Y5096D02*
X1765Y4776D01*
X1765Y5096D02*
X1551Y4776D01*
X2054Y4776D02*
X1871Y4776D01*
X1963Y4776D02*
X1963Y5096D01*
X1932Y5050D01*
X1902Y5020D01*
X1871Y5005D01*
X858Y7419D02*
X1056Y7419D01*
X950Y7297D01*
X995Y7297D01*
X1026Y7282D01*
X1041Y7266D01*
X1056Y7236D01*
X1056Y7160D01*
X1041Y7129D01*
X1026Y7114D01*
X995Y7099D01*
X904Y7099D01*
X873Y7114D01*
X858Y7129D01*
X1178Y7388D02*
X1193Y7404D01*
X1224Y7419D01*
X1300Y7419D01*
X1330Y7404D01*
X1346Y7388D01*
X1361Y7358D01*
X1361Y7327D01*
X1346Y7282D01*
X1163Y7099D01*
X1361Y7099D01*
X1498Y7099D02*
X1498Y7419D01*
X1681Y7099D02*
X1544Y7282D01*
X1681Y7419D02*
X1498Y7236D01*
X1818Y7099D02*
X1818Y7419D01*
X1818Y7266D02*
X2001Y7266D01*
X2001Y7099D02*
X2001Y7419D01*
X2123Y7312D02*
X2290Y7312D01*
X2123Y7099D01*
X2290Y7099D01*
X3175Y3783D02*
X3159Y3768D01*
X3114Y3752D01*
X3083Y3752D01*
X3037Y3768D01*
X3007Y3798D01*
X2992Y3829D01*
X2976Y3890D01*
X2976Y3935D01*
X2992Y3996D01*
X3007Y4027D01*
X3037Y4057D01*
X3083Y4072D01*
X3114Y4072D01*
X3159Y4057D01*
X3175Y4042D01*
X3464Y4072D02*
X3312Y4072D01*
X3296Y3920D01*
X3312Y3935D01*
X3342Y3950D01*
X3418Y3950D01*
X3449Y3935D01*
X3464Y3920D01*
X3479Y3890D01*
X3479Y3813D01*
X3464Y3783D01*
X3449Y3768D01*
X3418Y3752D01*
X3342Y3752D01*
X3312Y3768D01*
X3296Y3783D01*
X3845Y2841D02*
X3845Y2658D01*
X3845Y2749D02*
X3525Y2749D01*
X3571Y2719D01*
X3601Y2688D01*
X3616Y2658D01*
X3632Y2978D02*
X3845Y2978D01*
X3662Y2978D02*
X3647Y2993D01*
X3632Y3023D01*
X3632Y3069D01*
X3647Y3100D01*
X3677Y3115D01*
X3845Y3115D01*
X3677Y3374D02*
X3677Y3267D01*
X3845Y3267D02*
X3525Y3267D01*
X3525Y3420D01*
X5104Y13743D02*
X5088Y13728D01*
X5043Y13713D01*
X5012Y13713D01*
X4967Y13728D01*
X4936Y13759D01*
X4921Y13789D01*
X4906Y13850D01*
X4906Y13896D01*
X4921Y13957D01*
X4936Y13987D01*
X4967Y14018D01*
X5012Y14033D01*
X5043Y14033D01*
X5088Y14018D01*
X5104Y14003D01*
X5226Y14003D02*
X5241Y14018D01*
X5271Y14033D01*
X5347Y14033D01*
X5378Y14018D01*
X5393Y14003D01*
X5408Y13972D01*
X5408Y13942D01*
X5393Y13896D01*
X5210Y13713D01*
X5408Y13713D01*
X3712Y14067D02*
X3529Y14067D01*
X3620Y14067D02*
X3620Y14387D01*
X3590Y14342D01*
X3559Y14311D01*
X3529Y14296D01*
X3910Y14387D02*
X3940Y14387D01*
X3971Y14372D01*
X3986Y14357D01*
X4001Y14326D01*
X4017Y14265D01*
X4017Y14189D01*
X4001Y14128D01*
X3986Y14098D01*
X3971Y14083D01*
X3940Y14067D01*
X3910Y14067D01*
X3879Y14083D01*
X3864Y14098D01*
X3849Y14128D01*
X3834Y14189D01*
X3834Y14265D01*
X3849Y14326D01*
X3864Y14357D01*
X3879Y14372D01*
X3910Y14387D01*
X4154Y14281D02*
X4154Y14067D01*
X4154Y14250D02*
X4169Y14265D01*
X4199Y14281D01*
X4245Y14281D01*
X4276Y14265D01*
X4291Y14235D01*
X4291Y14067D01*
X4550Y14235D02*
X4443Y14235D01*
X4443Y14067D02*
X4443Y14387D01*
X4596Y14387D01*
X14001Y13704D02*
X13986Y13689D01*
X13940Y13674D01*
X13910Y13674D01*
X13864Y13689D01*
X13834Y13719D01*
X13818Y13750D01*
X13803Y13811D01*
X13803Y13856D01*
X13818Y13917D01*
X13834Y13948D01*
X13864Y13978D01*
X13910Y13994D01*
X13940Y13994D01*
X13986Y13978D01*
X14001Y13963D01*
X14276Y13887D02*
X14276Y13674D01*
X14199Y14009D02*
X14123Y13780D01*
X14321Y13780D01*
X14189Y14579D02*
X14006Y14579D01*
X14098Y14579D02*
X14098Y14899D01*
X14067Y14853D01*
X14037Y14823D01*
X14006Y14808D01*
X14387Y14899D02*
X14418Y14899D01*
X14448Y14884D01*
X14464Y14869D01*
X14479Y14838D01*
X14494Y14777D01*
X14494Y14701D01*
X14479Y14640D01*
X14464Y14610D01*
X14448Y14594D01*
X14418Y14579D01*
X14387Y14579D01*
X14357Y14594D01*
X14342Y14610D01*
X14326Y14640D01*
X14311Y14701D01*
X14311Y14777D01*
X14326Y14838D01*
X14342Y14869D01*
X14357Y14884D01*
X14387Y14899D01*
X14692Y14899D02*
X14723Y14899D01*
X14753Y14884D01*
X14768Y14869D01*
X14784Y14838D01*
X14799Y14777D01*
X14799Y14701D01*
X14784Y14640D01*
X14768Y14610D01*
X14753Y14594D01*
X14723Y14579D01*
X14692Y14579D01*
X14662Y14594D01*
X14646Y14610D01*
X14631Y14640D01*
X14616Y14701D01*
X14616Y14777D01*
X14631Y14838D01*
X14646Y14869D01*
X14662Y14884D01*
X14692Y14899D01*
X14936Y14792D02*
X14936Y14579D01*
X14936Y14762D02*
X14951Y14777D01*
X14982Y14792D01*
X15027Y14792D01*
X15058Y14777D01*
X15073Y14747D01*
X15073Y14579D01*
X15332Y14747D02*
X15225Y14747D01*
X15225Y14579D02*
X15225Y14899D01*
X15378Y14899D01*
X11938Y15533D02*
X11907Y15548D01*
X11877Y15579D01*
X11831Y15624D01*
X11800Y15640D01*
X11770Y15640D01*
X11785Y15563D02*
X11755Y15579D01*
X11724Y15609D01*
X11709Y15670D01*
X11709Y15777D01*
X11724Y15838D01*
X11755Y15868D01*
X11785Y15883D01*
X11846Y15883D01*
X11877Y15868D01*
X11907Y15838D01*
X11922Y15777D01*
X11922Y15670D01*
X11907Y15609D01*
X11877Y15579D01*
X11846Y15563D01*
X11785Y15563D01*
X12227Y15563D02*
X12044Y15563D01*
X12136Y15563D02*
X12136Y15883D01*
X12105Y15838D01*
X12075Y15807D01*
X12044Y15792D01*
X11438Y14500D02*
X11438Y14820D01*
X11560Y14820D01*
X11591Y14805D01*
X11606Y14790D01*
X11621Y14759D01*
X11621Y14714D01*
X11606Y14683D01*
X11591Y14668D01*
X11560Y14653D01*
X11438Y14653D01*
X11758Y14500D02*
X11758Y14820D01*
X11941Y14500D01*
X11941Y14820D01*
X12094Y14500D02*
X12094Y14820D01*
X12216Y14820D01*
X12246Y14805D01*
X12261Y14790D01*
X12277Y14759D01*
X12277Y14714D01*
X12261Y14683D01*
X12246Y14668D01*
X12216Y14653D01*
X12094Y14653D01*
X10284Y11045D02*
X10254Y11060D01*
X10223Y11090D01*
X10177Y11136D01*
X10147Y11151D01*
X10116Y11151D01*
X10132Y11075D02*
X10101Y11090D01*
X10071Y11121D01*
X10055Y11182D01*
X10055Y11289D01*
X10071Y11349D01*
X10101Y11380D01*
X10132Y11395D01*
X10193Y11395D01*
X10223Y11380D01*
X10254Y11349D01*
X10269Y11289D01*
X10269Y11182D01*
X10254Y11121D01*
X10223Y11090D01*
X10193Y11075D01*
X10132Y11075D01*
X10391Y11365D02*
X10406Y11380D01*
X10436Y11395D01*
X10513Y11395D01*
X10543Y11380D01*
X10558Y11365D01*
X10574Y11334D01*
X10574Y11304D01*
X10558Y11258D01*
X10375Y11075D01*
X10574Y11075D01*
X9928Y12178D02*
X9928Y12498D01*
X10050Y12498D01*
X10080Y12482D01*
X10096Y12467D01*
X10111Y12437D01*
X10111Y12391D01*
X10096Y12360D01*
X10080Y12345D01*
X10050Y12330D01*
X9928Y12330D01*
X10248Y12178D02*
X10248Y12498D01*
X10431Y12178D01*
X10431Y12498D01*
X10583Y12178D02*
X10583Y12498D01*
X10705Y12498D01*
X10736Y12482D01*
X10751Y12467D01*
X10766Y12437D01*
X10766Y12391D01*
X10751Y12360D01*
X10736Y12345D01*
X10705Y12330D01*
X10583Y12330D01*
X8315Y11045D02*
X8285Y11060D01*
X8255Y11090D01*
X8209Y11136D01*
X8178Y11151D01*
X8148Y11151D01*
X8163Y11075D02*
X8133Y11090D01*
X8102Y11121D01*
X8087Y11182D01*
X8087Y11289D01*
X8102Y11349D01*
X8133Y11380D01*
X8163Y11395D01*
X8224Y11395D01*
X8255Y11380D01*
X8285Y11349D01*
X8300Y11289D01*
X8300Y11182D01*
X8285Y11121D01*
X8255Y11090D01*
X8224Y11075D01*
X8163Y11075D01*
X8407Y11395D02*
X8605Y11395D01*
X8498Y11273D01*
X8544Y11273D01*
X8575Y11258D01*
X8590Y11243D01*
X8605Y11212D01*
X8605Y11136D01*
X8590Y11106D01*
X8575Y11090D01*
X8544Y11075D01*
X8453Y11075D01*
X8422Y11090D01*
X8407Y11106D01*
X7960Y12178D02*
X7960Y12498D01*
X8081Y12498D01*
X8112Y12482D01*
X8127Y12467D01*
X8142Y12437D01*
X8142Y12391D01*
X8127Y12360D01*
X8112Y12345D01*
X8081Y12330D01*
X7960Y12330D01*
X8280Y12178D02*
X8280Y12498D01*
X8462Y12178D01*
X8462Y12498D01*
X8615Y12178D02*
X8615Y12498D01*
X8737Y12498D01*
X8767Y12482D01*
X8782Y12467D01*
X8798Y12437D01*
X8798Y12391D01*
X8782Y12360D01*
X8767Y12345D01*
X8737Y12330D01*
X8615Y12330D01*
X6308Y11045D02*
X6277Y11060D01*
X6247Y11090D01*
X6201Y11136D01*
X6170Y11151D01*
X6140Y11151D01*
X6155Y11075D02*
X6125Y11090D01*
X6094Y11121D01*
X6079Y11182D01*
X6079Y11289D01*
X6094Y11349D01*
X6125Y11380D01*
X6155Y11395D01*
X6216Y11395D01*
X6247Y11380D01*
X6277Y11349D01*
X6292Y11289D01*
X6292Y11182D01*
X6277Y11121D01*
X6247Y11090D01*
X6216Y11075D01*
X6155Y11075D01*
X6567Y11289D02*
X6567Y11075D01*
X6490Y11410D02*
X6414Y11182D01*
X6612Y11182D01*
X5952Y12178D02*
X5952Y12498D01*
X6074Y12498D01*
X6104Y12482D01*
X6119Y12467D01*
X6135Y12437D01*
X6135Y12391D01*
X6119Y12360D01*
X6104Y12345D01*
X6074Y12330D01*
X5952Y12330D01*
X6272Y12178D02*
X6272Y12498D01*
X6455Y12178D01*
X6455Y12498D01*
X6607Y12178D02*
X6607Y12498D01*
X6729Y12498D01*
X6759Y12482D01*
X6775Y12467D01*
X6790Y12437D01*
X6790Y12391D01*
X6775Y12360D01*
X6759Y12345D01*
X6729Y12330D01*
X6607Y12330D01*
X6167Y14264D02*
X6060Y14417D01*
X5984Y14264D02*
X5984Y14584D01*
X6106Y14584D01*
X6136Y14569D01*
X6151Y14554D01*
X6167Y14523D01*
X6167Y14478D01*
X6151Y14447D01*
X6136Y14432D01*
X6106Y14417D01*
X5984Y14417D01*
X6471Y14264D02*
X6289Y14264D01*
X6380Y14264D02*
X6380Y14584D01*
X6349Y14538D01*
X6319Y14508D01*
X6289Y14493D01*
X6167Y14697D02*
X6060Y14850D01*
X5984Y14697D02*
X5984Y15017D01*
X6106Y15017D01*
X6136Y15002D01*
X6151Y14987D01*
X6167Y14956D01*
X6167Y14911D01*
X6151Y14880D01*
X6136Y14865D01*
X6106Y14850D01*
X5984Y14850D01*
X6289Y14987D02*
X6304Y15002D01*
X6334Y15017D01*
X6410Y15017D01*
X6441Y15002D01*
X6456Y14987D01*
X6471Y14956D01*
X6471Y14926D01*
X6456Y14880D01*
X6273Y14697D01*
X6471Y14697D01*
X6167Y15130D02*
X6060Y15283D01*
X5984Y15130D02*
X5984Y15450D01*
X6106Y15450D01*
X6136Y15435D01*
X6151Y15420D01*
X6167Y15389D01*
X6167Y15344D01*
X6151Y15313D01*
X6136Y15298D01*
X6106Y15283D01*
X5984Y15283D01*
X6273Y15450D02*
X6471Y15450D01*
X6365Y15328D01*
X6410Y15328D01*
X6441Y15313D01*
X6456Y15298D01*
X6471Y15267D01*
X6471Y15191D01*
X6456Y15161D01*
X6441Y15146D01*
X6410Y15130D01*
X6319Y15130D01*
X6289Y15146D01*
X6273Y15161D01*
X6167Y15563D02*
X6060Y15716D01*
X5984Y15563D02*
X5984Y15883D01*
X6106Y15883D01*
X6136Y15868D01*
X6151Y15853D01*
X6167Y15822D01*
X6167Y15777D01*
X6151Y15746D01*
X6136Y15731D01*
X6106Y15716D01*
X5984Y15716D01*
X6441Y15777D02*
X6441Y15563D01*
X6365Y15899D02*
X6289Y15670D01*
X6487Y15670D01*
X6167Y15996D02*
X6060Y16149D01*
X5984Y15996D02*
X5984Y16316D01*
X6106Y16316D01*
X6136Y16301D01*
X6151Y16286D01*
X6167Y16256D01*
X6167Y16210D01*
X6151Y16179D01*
X6136Y16164D01*
X6106Y16149D01*
X5984Y16149D01*
X6456Y16316D02*
X6304Y16316D01*
X6289Y16164D01*
X6304Y16179D01*
X6334Y16195D01*
X6410Y16195D01*
X6441Y16179D01*
X6456Y16164D01*
X6471Y16134D01*
X6471Y16057D01*
X6456Y16027D01*
X6441Y16012D01*
X6410Y15996D01*
X6334Y15996D01*
X6304Y16012D01*
X6289Y16027D01*
X6167Y16430D02*
X6060Y16582D01*
X5984Y16430D02*
X5984Y16750D01*
X6106Y16750D01*
X6136Y16734D01*
X6151Y16719D01*
X6167Y16689D01*
X6167Y16643D01*
X6151Y16612D01*
X6136Y16597D01*
X6106Y16582D01*
X5984Y16582D01*
X6441Y16750D02*
X6380Y16750D01*
X6349Y16734D01*
X6334Y16719D01*
X6304Y16673D01*
X6289Y16612D01*
X6289Y16490D01*
X6304Y16460D01*
X6319Y16445D01*
X6349Y16430D01*
X6410Y16430D01*
X6441Y16445D01*
X6456Y16460D01*
X6471Y16490D01*
X6471Y16567D01*
X6456Y16597D01*
X6441Y16612D01*
X6410Y16628D01*
X6349Y16628D01*
X6319Y16612D01*
X6304Y16597D01*
X6289Y16567D01*
X6167Y16863D02*
X6060Y17015D01*
X5984Y16863D02*
X5984Y17183D01*
X6106Y17183D01*
X6136Y17167D01*
X6151Y17152D01*
X6167Y17122D01*
X6167Y17076D01*
X6151Y17045D01*
X6136Y17030D01*
X6106Y17015D01*
X5984Y17015D01*
X6273Y17183D02*
X6487Y17183D01*
X6349Y16863D01*
X5576Y18122D02*
X5469Y18275D01*
X5393Y18122D02*
X5393Y18442D01*
X5515Y18442D01*
X5546Y18427D01*
X5561Y18412D01*
X5576Y18382D01*
X5576Y18336D01*
X5561Y18305D01*
X5546Y18290D01*
X5515Y18275D01*
X5393Y18275D01*
X5759Y18305D02*
X5728Y18321D01*
X5713Y18336D01*
X5698Y18366D01*
X5698Y18382D01*
X5713Y18412D01*
X5728Y18427D01*
X5759Y18442D01*
X5820Y18442D01*
X5850Y18427D01*
X5866Y18412D01*
X5881Y18382D01*
X5881Y18366D01*
X5866Y18336D01*
X5850Y18321D01*
X5820Y18305D01*
X5759Y18305D01*
X5728Y18290D01*
X5713Y18275D01*
X5698Y18244D01*
X5698Y18183D01*
X5713Y18153D01*
X5728Y18138D01*
X5759Y18122D01*
X5820Y18122D01*
X5850Y18138D01*
X5866Y18153D01*
X5881Y18183D01*
X5881Y18244D01*
X5866Y18275D01*
X5850Y18290D01*
X5820Y18305D01*
X14001Y15524D02*
X13895Y15676D01*
X13818Y15524D02*
X13818Y15844D01*
X13940Y15844D01*
X13971Y15829D01*
X13986Y15814D01*
X14001Y15783D01*
X14001Y15737D01*
X13986Y15707D01*
X13971Y15692D01*
X13940Y15676D01*
X13818Y15676D01*
X14154Y15524D02*
X14215Y15524D01*
X14245Y15539D01*
X14260Y15555D01*
X14291Y15600D01*
X14306Y15661D01*
X14306Y15783D01*
X14291Y15814D01*
X14276Y15829D01*
X14245Y15844D01*
X14184Y15844D01*
X14154Y15829D01*
X14138Y15814D01*
X14123Y15783D01*
X14123Y15707D01*
X14138Y15676D01*
X14154Y15661D01*
X14184Y15646D01*
X14245Y15646D01*
X14276Y15661D01*
X14291Y15676D01*
X14306Y15707D01*
X14199Y15119D02*
X14199Y14936D01*
X14199Y15027D02*
X13879Y15027D01*
X13925Y14997D01*
X13956Y14967D01*
X13971Y14936D01*
X14199Y15256D02*
X13879Y15256D01*
X14077Y15287D02*
X14199Y15378D01*
X13986Y15378D02*
X14108Y15256D01*
X11404Y11093D02*
X11252Y10986D01*
X11404Y10910D02*
X11084Y10910D01*
X11084Y11032D01*
X11099Y11063D01*
X11115Y11078D01*
X11145Y11093D01*
X11191Y11093D01*
X11221Y11078D01*
X11236Y11063D01*
X11252Y11032D01*
X11252Y10910D01*
X11404Y11398D02*
X11404Y11215D01*
X11404Y11306D02*
X11084Y11306D01*
X11130Y11276D01*
X11160Y11245D01*
X11176Y11215D01*
X11084Y11596D02*
X11084Y11626D01*
X11099Y11657D01*
X11115Y11672D01*
X11145Y11687D01*
X11206Y11703D01*
X11282Y11703D01*
X11343Y11687D01*
X11374Y11672D01*
X11389Y11657D01*
X11404Y11626D01*
X11404Y11596D01*
X11389Y11565D01*
X11374Y11550D01*
X11343Y11535D01*
X11282Y11520D01*
X11206Y11520D01*
X11145Y11535D01*
X11115Y11550D01*
X11099Y11565D01*
X11084Y11596D01*
X11103Y12217D02*
X10920Y12217D01*
X11012Y12217D02*
X11012Y12537D01*
X10981Y12491D01*
X10951Y12461D01*
X10920Y12446D01*
X11240Y12217D02*
X11240Y12537D01*
X11271Y12339D02*
X11362Y12217D01*
X11362Y12430D02*
X11240Y12308D01*
X9164Y11351D02*
X9057Y11503D01*
X8981Y11351D02*
X8981Y11671D01*
X9103Y11671D01*
X9133Y11656D01*
X9149Y11640D01*
X9164Y11610D01*
X9164Y11564D01*
X9149Y11534D01*
X9133Y11518D01*
X9103Y11503D01*
X8981Y11503D01*
X9469Y11351D02*
X9286Y11351D01*
X9377Y11351D02*
X9377Y11671D01*
X9347Y11625D01*
X9316Y11595D01*
X9286Y11579D01*
X9773Y11351D02*
X9591Y11351D01*
X9682Y11351D02*
X9682Y11671D01*
X9651Y11625D01*
X9621Y11595D01*
X9591Y11579D01*
X9292Y12217D02*
X9109Y12217D01*
X9201Y12217D02*
X9201Y12537D01*
X9170Y12491D01*
X9140Y12461D01*
X9109Y12446D01*
X9429Y12217D02*
X9429Y12537D01*
X9460Y12339D02*
X9551Y12217D01*
X9551Y12430D02*
X9429Y12308D01*
X7156Y11351D02*
X7049Y11503D01*
X6973Y11351D02*
X6973Y11671D01*
X7095Y11671D01*
X7126Y11656D01*
X7141Y11640D01*
X7156Y11610D01*
X7156Y11564D01*
X7141Y11534D01*
X7126Y11518D01*
X7095Y11503D01*
X6973Y11503D01*
X7461Y11351D02*
X7278Y11351D01*
X7369Y11351D02*
X7369Y11671D01*
X7339Y11625D01*
X7308Y11595D01*
X7278Y11579D01*
X7583Y11640D02*
X7598Y11656D01*
X7628Y11671D01*
X7705Y11671D01*
X7735Y11656D01*
X7750Y11640D01*
X7766Y11610D01*
X7766Y11579D01*
X7750Y11534D01*
X7567Y11351D01*
X7766Y11351D01*
X7324Y12217D02*
X7141Y12217D01*
X7232Y12217D02*
X7232Y12537D01*
X7202Y12491D01*
X7171Y12461D01*
X7141Y12446D01*
X7461Y12217D02*
X7461Y12537D01*
X7491Y12339D02*
X7583Y12217D01*
X7583Y12430D02*
X7461Y12308D01*
X18451Y17550D02*
X18299Y17443D01*
X18451Y17367D02*
X18131Y17367D01*
X18131Y17489D01*
X18147Y17519D01*
X18162Y17534D01*
X18192Y17550D01*
X18238Y17550D01*
X18268Y17534D01*
X18284Y17519D01*
X18299Y17489D01*
X18299Y17367D01*
X18451Y17854D02*
X18451Y17672D01*
X18451Y17763D02*
X18131Y17763D01*
X18177Y17733D01*
X18208Y17702D01*
X18223Y17672D01*
X18131Y17961D02*
X18131Y18159D01*
X18253Y18053D01*
X18253Y18098D01*
X18268Y18129D01*
X18284Y18144D01*
X18314Y18159D01*
X18390Y18159D01*
X18421Y18144D01*
X18436Y18129D01*
X18451Y18098D01*
X18451Y18007D01*
X18436Y17976D01*
X18421Y17961D01*
X18238Y15369D02*
X18451Y15369D01*
X18116Y15293D02*
X18345Y15217D01*
X18345Y15415D01*
X18131Y15506D02*
X18131Y15720D01*
X18451Y15582D01*
X18451Y15841D02*
X18131Y15841D01*
X18329Y15872D02*
X18451Y15963D01*
X18238Y15963D02*
X18360Y15841D01*
X15582Y14466D02*
X15582Y14207D01*
X15598Y14177D01*
X15613Y14161D01*
X15643Y14146D01*
X15704Y14146D01*
X15735Y14161D01*
X15750Y14177D01*
X15765Y14207D01*
X15765Y14466D01*
X16085Y14146D02*
X15902Y14146D01*
X15994Y14146D02*
X15994Y14466D01*
X15963Y14420D01*
X15933Y14390D01*
X15902Y14375D01*
G54D18*
X15656Y11643D02*
X15336Y11643D01*
X15565Y11750D01*
X15336Y11856D01*
X15656Y11856D01*
X15641Y11993D02*
X15656Y12039D01*
X15656Y12115D01*
X15641Y12146D01*
X15626Y12161D01*
X15595Y12176D01*
X15565Y12176D01*
X15534Y12161D01*
X15519Y12146D01*
X15504Y12115D01*
X15488Y12054D01*
X15473Y12024D01*
X15458Y12009D01*
X15428Y11993D01*
X15397Y11993D01*
X15367Y12009D01*
X15351Y12024D01*
X15336Y12054D01*
X15336Y12131D01*
X15351Y12176D01*
X15656Y12313D02*
X15336Y12313D01*
X15336Y12435D01*
X15351Y12466D01*
X15367Y12481D01*
X15397Y12496D01*
X15443Y12496D01*
X15473Y12481D01*
X15488Y12466D01*
X15504Y12435D01*
X15504Y12313D01*
X15443Y12771D02*
X15656Y12771D01*
X15321Y12694D02*
X15549Y12618D01*
X15549Y12816D01*
X15336Y12908D02*
X15336Y13106D01*
X15458Y12999D01*
X15458Y13045D01*
X15473Y13075D01*
X15488Y13091D01*
X15519Y13106D01*
X15595Y13106D01*
X15626Y13091D01*
X15641Y13075D01*
X15656Y13045D01*
X15656Y12953D01*
X15641Y12923D01*
X15626Y12908D01*
X15336Y13304D02*
X15336Y13334D01*
X15351Y13365D01*
X15367Y13380D01*
X15397Y13395D01*
X15458Y13411D01*
X15534Y13411D01*
X15595Y13395D01*
X15626Y13380D01*
X15641Y13365D01*
X15656Y13334D01*
X15656Y13304D01*
X15641Y13273D01*
X15626Y13258D01*
X15595Y13243D01*
X15534Y13228D01*
X15458Y13228D01*
X15397Y13243D01*
X15367Y13258D01*
X15351Y13273D01*
X15336Y13304D01*
G54D15*
X3053Y12315D02*
X3312Y12315D01*
X3342Y12330D01*
X3357Y12345D01*
X3373Y12376D01*
X3373Y12437D01*
X3357Y12467D01*
X3342Y12482D01*
X3312Y12498D01*
X3053Y12498D01*
X3053Y12620D02*
X3053Y12818D01*
X3175Y12711D01*
X3175Y12757D01*
X3190Y12787D01*
X3205Y12802D01*
X3235Y12818D01*
X3312Y12818D01*
X3342Y12802D01*
X3357Y12787D01*
X3373Y12757D01*
X3373Y12665D01*
X3357Y12635D01*
X3342Y12620D01*
G54D19*
X3585Y12703D02*
X3600Y12719D01*
X3631Y12734D01*
X3707Y12734D01*
X3737Y12719D01*
X3752Y12703D01*
X3768Y12673D01*
X3768Y12642D01*
X3752Y12597D01*
X3570Y12414D01*
X3768Y12414D01*
X3920Y12414D02*
X3981Y12414D01*
X4011Y12429D01*
X4027Y12444D01*
X4057Y12490D01*
X4072Y12551D01*
X4072Y12673D01*
X4057Y12703D01*
X4042Y12719D01*
X4011Y12734D01*
X3951Y12734D01*
X3920Y12719D01*
X3905Y12703D01*
X3890Y12673D01*
X3890Y12597D01*
X3905Y12566D01*
X3920Y12551D01*
X3951Y12536D01*
X4011Y12536D01*
X4042Y12551D01*
X4057Y12566D01*
X4072Y12597D01*
X4255Y12597D02*
X4225Y12612D01*
X4210Y12627D01*
X4194Y12658D01*
X4194Y12673D01*
X4210Y12703D01*
X4225Y12719D01*
X4255Y12734D01*
X4316Y12734D01*
X4347Y12719D01*
X4362Y12703D01*
X4377Y12673D01*
X4377Y12658D01*
X4362Y12627D01*
X4347Y12612D01*
X4316Y12597D01*
X4255Y12597D01*
X4225Y12581D01*
X4210Y12566D01*
X4194Y12536D01*
X4194Y12475D01*
X4210Y12444D01*
X4225Y12429D01*
X4255Y12414D01*
X4316Y12414D01*
X4347Y12429D01*
X4362Y12444D01*
X4377Y12475D01*
X4377Y12536D01*
X4362Y12566D01*
X4347Y12581D01*
X4316Y12597D01*
X4667Y12734D02*
X4514Y12734D01*
X4499Y12581D01*
X4514Y12597D01*
X4545Y12612D01*
X4621Y12612D01*
X4651Y12597D01*
X4667Y12581D01*
X4682Y12551D01*
X4682Y12475D01*
X4667Y12444D01*
X4651Y12429D01*
X4621Y12414D01*
X4545Y12414D01*
X4514Y12429D01*
X4499Y12444D01*
G54D15*
X5025Y13271D02*
X5010Y13256D01*
X4964Y13241D01*
X4933Y13241D01*
X4888Y13256D01*
X4857Y13286D01*
X4842Y13317D01*
X4827Y13378D01*
X4827Y13423D01*
X4842Y13484D01*
X4857Y13515D01*
X4888Y13545D01*
X4933Y13561D01*
X4964Y13561D01*
X5010Y13545D01*
X5025Y13530D01*
X5330Y13241D02*
X5147Y13241D01*
X5238Y13241D02*
X5238Y13561D01*
X5208Y13515D01*
X5177Y13484D01*
X5147Y13469D01*
X5735Y12171D02*
X5735Y11988D01*
X5735Y12080D02*
X5415Y12080D01*
X5461Y12049D01*
X5491Y12019D01*
X5506Y11988D01*
X5521Y12446D02*
X5735Y12446D01*
X5521Y12308D02*
X5689Y12308D01*
X5720Y12324D01*
X5735Y12354D01*
X5735Y12400D01*
X5720Y12430D01*
X5704Y12446D01*
X5567Y12705D02*
X5567Y12598D01*
X5735Y12598D02*
X5415Y12598D01*
X5415Y12750D01*
X3056Y11263D02*
X3041Y11248D01*
X2995Y11233D01*
X2965Y11233D01*
X2919Y11248D01*
X2889Y11278D01*
X2874Y11309D01*
X2858Y11370D01*
X2858Y11416D01*
X2874Y11477D01*
X2889Y11507D01*
X2919Y11537D01*
X2965Y11553D01*
X2995Y11553D01*
X3041Y11537D01*
X3056Y11522D01*
X3163Y11553D02*
X3361Y11553D01*
X3254Y11431D01*
X3300Y11431D01*
X3331Y11416D01*
X3346Y11400D01*
X3361Y11370D01*
X3361Y11294D01*
X3346Y11263D01*
X3331Y11248D01*
X3300Y11233D01*
X3209Y11233D01*
X3178Y11248D01*
X3163Y11263D01*
X2585Y12452D02*
X2585Y12269D01*
X2585Y12360D02*
X2265Y12360D01*
X2311Y12330D01*
X2341Y12300D01*
X2357Y12269D01*
X2265Y12650D02*
X2265Y12680D01*
X2280Y12711D01*
X2296Y12726D01*
X2326Y12741D01*
X2387Y12757D01*
X2463Y12757D01*
X2524Y12741D01*
X2555Y12726D01*
X2570Y12711D01*
X2585Y12680D01*
X2585Y12650D01*
X2570Y12620D01*
X2555Y12604D01*
X2524Y12589D01*
X2463Y12574D01*
X2387Y12574D01*
X2326Y12589D01*
X2296Y12604D01*
X2280Y12620D01*
X2265Y12650D01*
X2372Y13031D02*
X2585Y13031D01*
X2372Y12894D02*
X2539Y12894D01*
X2570Y12909D01*
X2585Y12940D01*
X2585Y12985D01*
X2570Y13016D01*
X2555Y13031D01*
X2418Y13290D02*
X2418Y13183D01*
X2585Y13183D02*
X2265Y13183D01*
X2265Y13336D01*
X10266Y16823D02*
X10160Y16976D01*
X10083Y16823D02*
X10083Y17143D01*
X10205Y17143D01*
X10236Y17128D01*
X10251Y17113D01*
X10266Y17082D01*
X10266Y17037D01*
X10251Y17006D01*
X10236Y16991D01*
X10205Y16976D01*
X10083Y16976D01*
X10571Y16823D02*
X10388Y16823D01*
X10480Y16823D02*
X10480Y17143D01*
X10449Y17098D01*
X10419Y17067D01*
X10388Y17052D01*
X10845Y17037D02*
X10845Y16823D01*
X10769Y17158D02*
X10693Y16930D01*
X10891Y16930D01*
X12428Y12510D02*
X12275Y12404D01*
X12428Y12327D02*
X12108Y12327D01*
X12108Y12449D01*
X12123Y12480D01*
X12138Y12495D01*
X12169Y12510D01*
X12214Y12510D01*
X12245Y12495D01*
X12260Y12480D01*
X12275Y12449D01*
X12275Y12327D01*
X12428Y12815D02*
X12428Y12632D01*
X12428Y12724D02*
X12108Y12724D01*
X12153Y12693D01*
X12184Y12663D01*
X12199Y12632D01*
X12108Y13105D02*
X12108Y12952D01*
X12260Y12937D01*
X12245Y12952D01*
X12230Y12983D01*
X12230Y13059D01*
X12245Y13089D01*
X12260Y13105D01*
X12291Y13120D01*
X12367Y13120D01*
X12397Y13105D01*
X12412Y13089D01*
X12428Y13059D01*
X12428Y12983D01*
X12412Y12952D01*
X12397Y12937D01*
X11557Y12537D02*
X11587Y12537D01*
X11617Y12522D01*
X11633Y12506D01*
X11648Y12476D01*
X11663Y12415D01*
X11663Y12339D01*
X11648Y12278D01*
X11633Y12247D01*
X11617Y12232D01*
X11587Y12217D01*
X11557Y12217D01*
X11526Y12232D01*
X11511Y12247D01*
X11496Y12278D01*
X11480Y12339D01*
X11480Y12415D01*
X11496Y12476D01*
X11511Y12506D01*
X11526Y12522D01*
X11557Y12537D01*
X11983Y12217D02*
X11877Y12369D01*
X11800Y12217D02*
X11800Y12537D01*
X11922Y12537D01*
X11953Y12522D01*
X11968Y12506D01*
X11983Y12476D01*
X11983Y12430D01*
X11968Y12400D01*
X11953Y12385D01*
X11922Y12369D01*
X11800Y12369D01*
X2943Y19271D02*
X2943Y19009D01*
X2958Y18979D01*
X2973Y18963D01*
X3004Y18948D01*
X3066Y18948D01*
X3096Y18963D01*
X3112Y18979D01*
X3127Y19009D01*
X3127Y19271D01*
X3265Y19240D02*
X3281Y19255D01*
X3311Y19271D01*
X3388Y19271D01*
X3419Y19255D01*
X3434Y19240D01*
X3450Y19209D01*
X3450Y19178D01*
X3434Y19132D01*
X3250Y18948D01*
X3450Y18948D01*
X3169Y15601D02*
X3169Y15816D01*
X3492Y15677D01*
X3277Y16077D02*
X3492Y16077D01*
X3154Y16000D02*
X3384Y15923D01*
X3384Y16123D01*
X3492Y16246D02*
X3169Y16246D01*
X3323Y16246D02*
X3323Y16430D01*
X3492Y16430D02*
X3169Y16430D01*
X3461Y16768D02*
X3477Y16753D01*
X3492Y16707D01*
X3492Y16676D01*
X3477Y16630D01*
X3446Y16599D01*
X3415Y16584D01*
X3354Y16569D01*
X3308Y16569D01*
X3246Y16584D01*
X3215Y16599D01*
X3185Y16630D01*
X3169Y16676D01*
X3169Y16707D01*
X3185Y16753D01*
X3200Y16768D01*
X3169Y17060D02*
X3169Y16907D01*
X3323Y16891D01*
X3308Y16907D01*
X3292Y16937D01*
X3292Y17014D01*
X3308Y17045D01*
X3323Y17060D01*
X3354Y17076D01*
X3430Y17076D01*
X3461Y17060D01*
X3477Y17045D01*
X3492Y17014D01*
X3492Y16937D01*
X3477Y16907D01*
X3461Y16891D01*
X3492Y17229D02*
X3492Y17291D01*
X3477Y17321D01*
X3461Y17337D01*
X3415Y17368D01*
X3354Y17383D01*
X3231Y17383D01*
X3200Y17368D01*
X3185Y17352D01*
X3169Y17321D01*
X3169Y17260D01*
X3185Y17229D01*
X3200Y17214D01*
X3231Y17199D01*
X3308Y17199D01*
X3338Y17214D01*
X3354Y17229D01*
X3369Y17260D01*
X3369Y17321D01*
X3354Y17352D01*
X3338Y17368D01*
X3308Y17383D01*
X3169Y17675D02*
X3169Y17521D01*
X3323Y17506D01*
X3308Y17521D01*
X3292Y17552D01*
X3292Y17629D01*
X3308Y17659D01*
X3323Y17675D01*
X3354Y17690D01*
X3430Y17690D01*
X3461Y17675D01*
X3477Y17659D01*
X3492Y17629D01*
X3492Y17552D01*
X3477Y17521D01*
X3461Y17506D01*
X17614Y14939D02*
X17828Y14619D01*
X17828Y14939D02*
X17614Y14619D01*
X18117Y14619D02*
X17934Y14619D01*
X18026Y14619D02*
X18026Y14939D01*
X17995Y14893D01*
X17965Y14862D01*
X17934Y14847D01*
X17394Y12616D02*
X17592Y12616D01*
X17485Y12494D01*
X17531Y12494D01*
X17561Y12479D01*
X17576Y12463D01*
X17592Y12433D01*
X17592Y12357D01*
X17576Y12326D01*
X17561Y12311D01*
X17531Y12296D01*
X17439Y12296D01*
X17409Y12311D01*
X17394Y12326D01*
X17714Y12585D02*
X17729Y12600D01*
X17759Y12616D01*
X17835Y12616D01*
X17866Y12600D01*
X17881Y12585D01*
X17896Y12555D01*
X17896Y12524D01*
X17881Y12479D01*
X17698Y12296D01*
X17896Y12296D01*
X18034Y12296D02*
X18034Y12616D01*
X18216Y12296D02*
X18079Y12479D01*
X18216Y12616D02*
X18034Y12433D01*
X18354Y12296D02*
X18354Y12616D01*
X18354Y12463D02*
X18536Y12463D01*
X18536Y12296D02*
X18536Y12616D01*
X18658Y12509D02*
X18826Y12509D01*
X18658Y12296D01*
X18826Y12296D01*
X16403Y15673D02*
X16388Y15657D01*
X16342Y15642D01*
X16311Y15642D01*
X16266Y15657D01*
X16235Y15688D01*
X16220Y15718D01*
X16205Y15779D01*
X16205Y15825D01*
X16220Y15886D01*
X16235Y15916D01*
X16266Y15947D01*
X16311Y15962D01*
X16342Y15962D01*
X16388Y15947D01*
X16403Y15932D01*
X16692Y15962D02*
X16540Y15962D01*
X16525Y15810D01*
X16540Y15825D01*
X16570Y15840D01*
X16647Y15840D01*
X16677Y15825D01*
X16692Y15810D01*
X16708Y15779D01*
X16708Y15703D01*
X16692Y15673D01*
X16677Y15657D01*
X16647Y15642D01*
X16570Y15642D01*
X16540Y15657D01*
X16525Y15673D01*
X16129Y16463D02*
X16129Y16280D01*
X16129Y16371D02*
X15809Y16371D01*
X15854Y16341D01*
X15885Y16310D01*
X15900Y16280D01*
X15915Y16600D02*
X16129Y16600D01*
X15946Y16600D02*
X15930Y16615D01*
X15915Y16645D01*
X15915Y16691D01*
X15930Y16722D01*
X15961Y16737D01*
X16129Y16737D01*
X15961Y16996D02*
X15961Y16889D01*
X16129Y16889D02*
X15809Y16889D01*
X15809Y17042D01*
G54D11*
X14457Y17488D02*
X14260Y17769D01*
X14119Y17488D02*
X14119Y18079D01*
X14344Y18079D01*
X14401Y18051D01*
X14429Y18023D01*
X14457Y17966D01*
X14457Y17882D01*
X14429Y17826D01*
X14401Y17798D01*
X14344Y17769D01*
X14119Y17769D01*
X14710Y17798D02*
X14907Y17798D01*
X14991Y17488D02*
X14710Y17488D01*
X14710Y18079D01*
X14991Y18079D01*
X15216Y17516D02*
X15300Y17488D01*
X15441Y17488D01*
X15497Y17516D01*
X15525Y17544D01*
X15553Y17601D01*
X15553Y17657D01*
X15525Y17713D01*
X15497Y17741D01*
X15441Y17769D01*
X15329Y17798D01*
X15272Y17826D01*
X15244Y17854D01*
X15216Y17910D01*
X15216Y17966D01*
X15244Y18023D01*
X15272Y18051D01*
X15329Y18079D01*
X15469Y18079D01*
X15553Y18051D01*
X15807Y17798D02*
X16003Y17798D01*
X16088Y17488D02*
X15807Y17488D01*
X15807Y18079D01*
X16088Y18079D01*
X16257Y18079D02*
X16594Y18079D01*
X16425Y17488D02*
X16425Y18079D01*
%LPC*%
G54D20*
X6342Y5937D03*
X7342Y5937D03*
X8342Y5937D03*
X9342Y5937D03*
X10342Y5937D03*
X11342Y5937D03*
X12342Y5937D03*
X13342Y5937D03*
X13342Y1937D03*
X12342Y1937D03*
X11342Y1937D03*
X10342Y1937D03*
X9342Y1937D03*
X8342Y1937D03*
X7342Y1937D03*
X6342Y1937D03*
G54D21*
X590Y2830D03*
X590Y3830D03*
X590Y4830D03*
X590Y5830D03*
G54D22*
X15118Y5944D03*
X15826Y5944D03*
X5472Y5354D03*
X4763Y5354D03*
G54D23*
X7714Y4527D03*
X6616Y4152D03*
X6616Y4902D03*
G54D24*
X9370Y6812D03*
X8995Y7911D03*
X9745Y7911D03*
X11338Y6812D03*
X10963Y7911D03*
X11713Y7911D03*
X13346Y6812D03*
X12971Y7911D03*
X13721Y7911D03*
G54D22*
X14055Y5236D03*
G54D25*
X14763Y5236D03*
G54D22*
X14055Y4763D03*
X14763Y4763D03*
X14055Y4291D03*
X14763Y4291D03*
X14055Y3818D03*
X14763Y3818D03*
X14055Y3346D03*
X14763Y3346D03*
X14055Y2874D03*
X14763Y2874D03*
X14055Y2401D03*
X14763Y2401D03*
X14055Y1889D03*
X14763Y1889D03*
X5275Y4527D03*
X5984Y4527D03*
G54D26*
X8464Y7677D03*
X8464Y6968D03*
X10354Y6968D03*
X10354Y7677D03*
X12322Y6968D03*
X12322Y7677D03*
X1377Y2677D03*
X1377Y3385D03*
G54D27*
X4960Y5777D03*
X4960Y6033D03*
X4960Y6289D03*
X4960Y6545D03*
X4960Y6801D03*
X4960Y7057D03*
X4960Y7312D03*
X4960Y7568D03*
X4960Y7824D03*
X4960Y8080D03*
X2755Y8080D03*
X2755Y7824D03*
X2755Y7568D03*
X2755Y7312D03*
X2755Y7057D03*
X2755Y6801D03*
X2755Y6545D03*
X2755Y6289D03*
X2755Y6033D03*
X2755Y5777D03*
G54D28*
X15926Y7675D03*
X15176Y7675D03*
X15926Y6576D03*
X15551Y7675D03*
X15176Y6576D03*
G54D29*
X14606Y6830D03*
X14606Y7736D03*
G54D30*
X16574Y6309D03*
X16574Y7706D03*
G54D22*
X10629Y2677D03*
X9921Y2677D03*
G54D26*
X7952Y6968D03*
X7952Y7677D03*
G54D31*
X14842Y9251D03*
X13842Y9251D03*
X12842Y9251D03*
X11842Y9251D03*
X10842Y9251D03*
X9842Y9251D03*
X8842Y9251D03*
X7842Y9251D03*
X6842Y9251D03*
X5842Y9251D03*
X4842Y9251D03*
G54D32*
X15620Y4781D03*
X15620Y4281D03*
X15620Y3781D03*
X15620Y3281D03*
X15620Y2781D03*
X15620Y2281D03*
X15620Y1781D03*
X15620Y1281D03*
X17450Y1281D03*
X17450Y1781D03*
X17450Y2281D03*
X17450Y2781D03*
X17450Y3281D03*
X17450Y3781D03*
X17450Y4281D03*
X17450Y4781D03*
G54D33*
X1811Y5472D03*
X1811Y6653D03*
G54D26*
X3228Y3385D03*
X3228Y2677D03*
G54D34*
X2322Y590D03*
X2322Y3582D03*
G54D21*
X19094Y2330D03*
X19094Y3330D03*
X19094Y4330D03*
X19094Y5330D03*
X19094Y6330D03*
G54D20*
X13342Y13748D03*
X12342Y13748D03*
X11342Y13748D03*
X10342Y13748D03*
X9342Y13748D03*
X8342Y13748D03*
X7342Y13748D03*
X6342Y13748D03*
X6342Y17748D03*
X7342Y17748D03*
X8342Y17748D03*
X9342Y17748D03*
X10342Y17748D03*
X11342Y17748D03*
X12342Y17748D03*
X13342Y17748D03*
G54D21*
X19094Y16854D03*
X19094Y15854D03*
X19094Y14854D03*
X19094Y13854D03*
G54D22*
X4566Y13740D03*
X3858Y13740D03*
X14212Y14330D03*
X14921Y14330D03*
G54D23*
X11970Y15157D03*
X13068Y15532D03*
X13068Y14782D03*
G54D24*
X10314Y12872D03*
X10689Y11773D03*
X9939Y11773D03*
X8346Y12872D03*
X8721Y11773D03*
X7971Y11773D03*
X6338Y12872D03*
X6713Y11773D03*
X5963Y11773D03*
G54D22*
X5629Y14448D03*
G54D25*
X4921Y14448D03*
G54D22*
X5629Y14921D03*
X4921Y14921D03*
X5629Y15393D03*
X4921Y15393D03*
X5629Y15866D03*
X4921Y15866D03*
X5629Y16338D03*
X4921Y16338D03*
X5629Y16811D03*
X4921Y16811D03*
X5629Y17283D03*
X4921Y17283D03*
X5629Y17795D03*
X4921Y17795D03*
X14409Y15157D03*
X13700Y15157D03*
G54D26*
X11220Y12007D03*
X11220Y12716D03*
X9330Y12716D03*
X9330Y12007D03*
X7362Y12716D03*
X7362Y12007D03*
X18307Y17007D03*
X18307Y16299D03*
G54D27*
X14724Y13907D03*
X14724Y13651D03*
X14724Y13395D03*
X14724Y13139D03*
X14724Y12883D03*
X14724Y12627D03*
X14724Y12372D03*
X14724Y12116D03*
X14724Y11860D03*
X14724Y11604D03*
X16929Y11604D03*
X16929Y11860D03*
X16929Y12116D03*
X16929Y12372D03*
X16929Y12627D03*
X16929Y12883D03*
X16929Y13139D03*
X16929Y13395D03*
X16929Y13651D03*
X16929Y13907D03*
G54D28*
X3758Y12009D03*
X4508Y12009D03*
X3758Y13108D03*
X4133Y12009D03*
X4508Y13108D03*
G54D29*
X5078Y12854D03*
X5078Y11948D03*
G54D30*
X3110Y13375D03*
X3110Y11978D03*
G54D22*
X9055Y17007D03*
X9763Y17007D03*
G54D26*
X11732Y12716D03*
X11732Y12007D03*
G54D31*
X4842Y10433D03*
X5842Y10433D03*
X6842Y10433D03*
X7842Y10433D03*
X8842Y10433D03*
X9842Y10433D03*
X10842Y10433D03*
X11842Y10433D03*
X12842Y10433D03*
X13842Y10433D03*
X14842Y10433D03*
G54D32*
X4064Y14903D03*
X4064Y15403D03*
X4064Y15903D03*
X4064Y16403D03*
X4064Y16903D03*
X4064Y17403D03*
X4064Y17903D03*
X4064Y18403D03*
X2234Y18403D03*
X2234Y17903D03*
X2234Y17403D03*
X2234Y16903D03*
X2234Y16403D03*
X2234Y15903D03*
X2234Y15403D03*
X2234Y14903D03*
G54D33*
X17874Y14212D03*
X17874Y13031D03*
G54D26*
X16456Y16299D03*
X16456Y17007D03*
G54D34*
X17362Y19094D03*
X17362Y16102D03*
G54D21*
X590Y17354D03*
X590Y16354D03*
X590Y15354D03*
X590Y14354D03*
X590Y13354D03*
M02*
