%FSLAX34Y34*%
G04 Gerber Fmt 3.4, Leading zero omitted, Abs format*
G04 (created by PCBNEW (2014-02-28 BZR 4729)-product) date man 03 mar 2014 19:53:33 CET*
%MOIN*%
G01*
G70*
G90*
G04 APERTURE LIST*
%ADD10C,0.005906*%
G04 APERTURE END LIST*
G54D10*
X15551Y9842D02*
X15551Y9448D01*
X4133Y9448D02*
X4133Y9842D01*
X787Y8661D02*
X3346Y8661D01*
X0Y787D02*
X0Y7874D01*
X787Y8661D02*
G75*
G03X0Y7874I0J-787D01*
G74*
G01*
X16338Y8661D02*
X18897Y8661D01*
X18897Y0D02*
G75*
G03X19685Y787I0J787D01*
G74*
G01*
X15551Y9448D02*
G75*
G03X16338Y8661I787J0D01*
G74*
G01*
X19685Y7874D02*
G75*
G03X18897Y8661I-787J0D01*
G74*
G01*
X19685Y787D02*
X19685Y7874D01*
X787Y0D02*
X18897Y0D01*
X0Y787D02*
G75*
G03X787Y0I787J0D01*
G74*
G01*
X3346Y8661D02*
G75*
G03X4133Y9448I0J787D01*
G74*
G01*
X4133Y9842D02*
X4133Y10236D01*
X15551Y10236D02*
X15551Y9842D01*
X18897Y11023D02*
X16338Y11023D01*
X19685Y18897D02*
X19685Y11811D01*
X18897Y11023D02*
G75*
G03X19685Y11811I0J787D01*
G74*
G01*
X3346Y11023D02*
X787Y11023D01*
X787Y19685D02*
G75*
G03X0Y18897I0J-787D01*
G74*
G01*
X4133Y10236D02*
G75*
G03X3346Y11023I-787J0D01*
G74*
G01*
X0Y11811D02*
G75*
G03X787Y11023I787J0D01*
G74*
G01*
X0Y18897D02*
X0Y11811D01*
X18897Y19685D02*
X787Y19685D01*
X19685Y18897D02*
G75*
G03X18897Y19685I-787J0D01*
G74*
G01*
X16338Y11023D02*
G75*
G03X15551Y10236I0J-787D01*
G74*
G01*
M02*
