%FSLAX34Y34*%
G04 Gerber Fmt 3.4, Leading zero omitted, Abs format*
G04 (created by PCBNEW (2014-02-28 BZR 4729)-product) date man 03 mar 2014 20:37:32 CET*
%MOIN*%
G01*
G70*
G90*
G04 APERTURE LIST*
%ADD10C,0.005906*%
%ADD11R,0.035433X0.031496*%
%ADD12R,0.050000X0.031496*%
%ADD13R,0.031496X0.050000*%
%ADD14R,0.035433X0.027559*%
%ADD15R,0.031496X0.035433*%
%ADD16R,0.062992X0.011811*%
%ADD17R,0.020000X0.050000*%
%ADD18R,0.051181X0.043307*%
%ADD19R,0.066929X0.051181*%
%ADD20R,0.093701X0.021969*%
%ADD21R,0.070866X0.059055*%
%ADD22R,0.062992X0.059055*%
G04 APERTURE END LIST*
G54D10*
G54D11*
X-5275Y3897D03*
X-5984Y3897D03*
X4370Y4488D03*
X5078Y4488D03*
G54D12*
X2127Y5314D03*
X3226Y5689D03*
X3226Y4939D03*
G54D13*
X472Y3029D03*
X847Y1931D03*
X97Y1931D03*
X-1496Y3029D03*
X-1121Y1931D03*
X-1871Y1931D03*
X-3503Y3029D03*
X-3128Y1931D03*
X-3878Y1931D03*
G54D11*
X-4212Y4606D03*
G54D14*
X-4921Y4606D03*
G54D11*
X-4212Y5078D03*
X-4921Y5078D03*
X-4212Y5551D03*
X-4921Y5551D03*
X-4212Y6023D03*
X-4921Y6023D03*
X-4212Y6496D03*
X-4921Y6496D03*
X-4212Y6968D03*
X-4921Y6968D03*
X-4212Y7440D03*
X-4921Y7440D03*
X-4212Y7952D03*
X-4921Y7952D03*
X4566Y5314D03*
X3858Y5314D03*
G54D15*
X1377Y2165D03*
X1377Y2874D03*
X-511Y2874D03*
X-511Y2165D03*
X-2480Y2874D03*
X-2480Y2165D03*
X8464Y7165D03*
X8464Y6456D03*
G54D16*
X4881Y4064D03*
X4881Y3809D03*
X4881Y3553D03*
X4881Y3297D03*
X4881Y3041D03*
X4881Y2785D03*
X4881Y2529D03*
X4881Y2273D03*
X4881Y2017D03*
X4881Y1761D03*
X7086Y1761D03*
X7086Y2017D03*
X7086Y2273D03*
X7086Y2529D03*
X7086Y2785D03*
X7086Y3041D03*
X7086Y3297D03*
X7086Y3553D03*
X7086Y3809D03*
X7086Y4064D03*
G54D17*
X-6083Y2167D03*
X-5333Y2167D03*
X-6083Y3265D03*
X-5708Y2167D03*
X-5333Y3265D03*
G54D18*
X-4763Y3011D03*
X-4763Y2106D03*
G54D19*
X-6732Y3533D03*
X-6732Y2135D03*
G54D11*
X-787Y7165D03*
X-78Y7165D03*
G54D15*
X1889Y2874D03*
X1889Y2165D03*
G54D20*
X-5777Y5061D03*
X-5777Y5561D03*
X-5777Y6061D03*
X-5777Y6561D03*
X-5777Y7061D03*
X-5777Y7561D03*
X-5777Y8061D03*
X-5777Y8561D03*
X-7608Y8561D03*
X-7608Y8061D03*
X-7608Y7561D03*
X-7608Y7061D03*
X-7608Y6561D03*
X-7608Y6061D03*
X-7608Y5561D03*
X-7608Y5061D03*
G54D21*
X8031Y4370D03*
X8031Y3188D03*
G54D15*
X6614Y6456D03*
X6614Y7165D03*
G54D22*
X7519Y9251D03*
X7519Y6259D03*
M02*
