M48
INCH,TZ
T1C0.025
T2C0.032
T3C0.040
T4C0.098
%
G90
G05
T1
X042283Y-042520
X043110Y-047677
X043504Y-045669
X044252Y-040709
X047205Y-046063
X048268Y-046063
X048858Y-042362
X050197Y-046142
X050551Y-044528
X051654Y-046969
X051890Y-044055
X052874Y-046614
X053031Y-044606
X053307Y-047559
X053976Y-043465
X054488Y-042480
X055236Y-043819
X055315Y-046378
X055709Y-047244
X055827Y-045118
X056535Y-044882
X056732Y-042047
X056969Y-047087
X056969Y-047638
T2
X045713Y-041307
X045713Y-045307
X046713Y-041307
X046713Y-045307
X047713Y-041307
X047713Y-045307
X048713Y-041307
X048713Y-045307
X049713Y-041307
X049713Y-045307
X050713Y-041307
X050713Y-045307
X051713Y-041307
X051713Y-045307
X052713Y-041307
X052713Y-045307
T3
X044213Y-048622
X045213Y-048622
X046213Y-048622
X047213Y-048622
X048213Y-048622
X049213Y-048622
X050213Y-048622
X051213Y-048622
X052213Y-048622
X053213Y-048622
X054213Y-048622
X058465Y-042398
X058465Y-043398
X058465Y-044398
X058465Y-045398
T4
X040157Y-040157
X040157Y-047244
X058268Y-040157
X058268Y-047244
T0
M30
