%FSLAX34Y34*%
G04 Gerber Fmt 3.4, Leading zero omitted, Abs format*
G04 (created by PCBNEW (2013-12-28 BZR 4579)-product) date ons 26 feb 2014 22:49:01 CET*
%MOIN*%
G01*
G70*
G90*
G04 APERTURE LIST*
%ADD10C,0.005906*%
%ADD11C,0.009843*%
%ADD12C,0.015000*%
%ADD13C,0.008000*%
%ADD14C,0.003100*%
%ADD15C,0.005000*%
%ADD16C,0.006000*%
%ADD17C,0.011811*%
%ADD18O,0.064961X0.100000*%
%ADD19O,0.100000X0.065000*%
%ADD20R,0.035433X0.031496*%
%ADD21R,0.050000X0.031496*%
%ADD22R,0.031496X0.050000*%
%ADD23R,0.035433X0.027559*%
%ADD24R,0.031496X0.035433*%
%ADD25R,0.062992X0.011811*%
%ADD26R,0.020000X0.050000*%
%ADD27R,0.051181X0.043307*%
%ADD28R,0.066929X0.051181*%
%ADD29O,0.065000X0.100000*%
%ADD30R,0.093701X0.021969*%
%ADD31R,0.070866X0.059055*%
%ADD32R,0.062992X0.059055*%
G04 APERTURE END LIST*
G54D10*
G54D11*
X44263Y-40183D02*
X44263Y-39691D01*
X44431Y-40183D02*
X44431Y-39925D01*
X44413Y-39878D01*
X44375Y-39855D01*
X44319Y-39855D01*
X44281Y-39878D01*
X44263Y-39902D01*
X44563Y-39855D02*
X44713Y-39855D01*
X44619Y-39691D02*
X44619Y-40112D01*
X44638Y-40159D01*
X44675Y-40183D01*
X44713Y-40183D01*
X44788Y-39855D02*
X44938Y-39855D01*
X44844Y-39691D02*
X44844Y-40112D01*
X44863Y-40159D01*
X44900Y-40183D01*
X44938Y-40183D01*
X45069Y-39855D02*
X45069Y-40347D01*
X45069Y-39878D02*
X45106Y-39855D01*
X45181Y-39855D01*
X45219Y-39878D01*
X45238Y-39902D01*
X45256Y-39948D01*
X45256Y-40089D01*
X45238Y-40136D01*
X45219Y-40159D01*
X45181Y-40183D01*
X45106Y-40183D01*
X45069Y-40159D01*
X45425Y-40136D02*
X45444Y-40159D01*
X45425Y-40183D01*
X45406Y-40159D01*
X45425Y-40136D01*
X45425Y-40183D01*
X45425Y-39878D02*
X45444Y-39902D01*
X45425Y-39925D01*
X45406Y-39902D01*
X45425Y-39878D01*
X45425Y-39925D01*
X45894Y-39667D02*
X45556Y-40300D01*
X46306Y-39667D02*
X45969Y-40300D01*
X46494Y-40183D02*
X46456Y-40159D01*
X46437Y-40112D01*
X46437Y-39691D01*
X46812Y-40183D02*
X46812Y-39925D01*
X46794Y-39878D01*
X46756Y-39855D01*
X46681Y-39855D01*
X46644Y-39878D01*
X46812Y-40159D02*
X46775Y-40183D01*
X46681Y-40183D01*
X46644Y-40159D01*
X46625Y-40112D01*
X46625Y-40066D01*
X46644Y-40019D01*
X46681Y-39995D01*
X46775Y-39995D01*
X46812Y-39972D01*
X47000Y-40183D02*
X47000Y-39691D01*
X47000Y-39878D02*
X47037Y-39855D01*
X47112Y-39855D01*
X47150Y-39878D01*
X47169Y-39902D01*
X47187Y-39948D01*
X47187Y-40089D01*
X47169Y-40136D01*
X47150Y-40159D01*
X47112Y-40183D01*
X47037Y-40183D01*
X47000Y-40159D01*
X47356Y-40136D02*
X47375Y-40159D01*
X47356Y-40183D01*
X47337Y-40159D01*
X47356Y-40136D01*
X47356Y-40183D01*
X47544Y-40183D02*
X47544Y-39691D01*
X47581Y-39995D02*
X47694Y-40183D01*
X47694Y-39855D02*
X47544Y-40042D01*
X47862Y-39855D02*
X47862Y-40276D01*
X47844Y-40323D01*
X47806Y-40347D01*
X47787Y-40347D01*
X47862Y-39691D02*
X47844Y-39714D01*
X47862Y-39738D01*
X47881Y-39714D01*
X47862Y-39691D01*
X47862Y-39738D01*
X48106Y-40183D02*
X48068Y-40159D01*
X48050Y-40112D01*
X48050Y-39691D01*
X48256Y-40183D02*
X48256Y-39855D01*
X48256Y-39948D02*
X48275Y-39902D01*
X48293Y-39878D01*
X48331Y-39855D01*
X48368Y-39855D01*
X48500Y-40136D02*
X48518Y-40159D01*
X48500Y-40183D01*
X48481Y-40159D01*
X48500Y-40136D01*
X48500Y-40183D01*
X48856Y-40183D02*
X48856Y-39691D01*
X48856Y-40159D02*
X48818Y-40183D01*
X48743Y-40183D01*
X48706Y-40159D01*
X48687Y-40136D01*
X48668Y-40089D01*
X48668Y-39948D01*
X48687Y-39902D01*
X48706Y-39878D01*
X48743Y-39855D01*
X48818Y-39855D01*
X48856Y-39878D01*
X49043Y-40183D02*
X49043Y-39691D01*
X49081Y-39995D02*
X49193Y-40183D01*
X49193Y-39855D02*
X49043Y-40042D01*
X49643Y-39667D02*
X49306Y-40300D01*
X49775Y-39855D02*
X49775Y-40347D01*
X49775Y-39878D02*
X49812Y-39855D01*
X49887Y-39855D01*
X49925Y-39878D01*
X49943Y-39902D01*
X49962Y-39948D01*
X49962Y-40089D01*
X49943Y-40136D01*
X49925Y-40159D01*
X49887Y-40183D01*
X49812Y-40183D01*
X49775Y-40159D01*
X50412Y-39667D02*
X50074Y-40300D01*
X50543Y-40183D02*
X50543Y-39855D01*
X50543Y-39902D02*
X50562Y-39878D01*
X50599Y-39855D01*
X50656Y-39855D01*
X50693Y-39878D01*
X50712Y-39925D01*
X50712Y-40183D01*
X50712Y-39925D02*
X50731Y-39878D01*
X50768Y-39855D01*
X50824Y-39855D01*
X50862Y-39878D01*
X50881Y-39925D01*
X50881Y-40183D01*
X51068Y-40183D02*
X51068Y-39855D01*
X51068Y-39691D02*
X51049Y-39714D01*
X51068Y-39738D01*
X51087Y-39714D01*
X51068Y-39691D01*
X51068Y-39738D01*
X51256Y-39855D02*
X51256Y-40183D01*
X51256Y-39902D02*
X51274Y-39878D01*
X51312Y-39855D01*
X51368Y-39855D01*
X51406Y-39878D01*
X51424Y-39925D01*
X51424Y-40183D01*
X51612Y-40183D02*
X51612Y-39855D01*
X51612Y-39691D02*
X51593Y-39714D01*
X51612Y-39738D01*
X51631Y-39714D01*
X51612Y-39691D01*
X51612Y-39738D01*
X51781Y-40159D02*
X51818Y-40183D01*
X51893Y-40183D01*
X51931Y-40159D01*
X51949Y-40112D01*
X51949Y-40089D01*
X51931Y-40042D01*
X51893Y-40019D01*
X51837Y-40019D01*
X51799Y-39995D01*
X51781Y-39948D01*
X51781Y-39925D01*
X51799Y-39878D01*
X51837Y-39855D01*
X51893Y-39855D01*
X51931Y-39878D01*
X52118Y-39855D02*
X52118Y-40347D01*
X52118Y-39878D02*
X52155Y-39855D01*
X52230Y-39855D01*
X52268Y-39878D01*
X52287Y-39902D01*
X52305Y-39948D01*
X52305Y-40089D01*
X52287Y-40136D01*
X52268Y-40159D01*
X52230Y-40183D01*
X52155Y-40183D01*
X52118Y-40159D01*
X52474Y-39995D02*
X52774Y-39995D01*
X52924Y-39691D02*
X53187Y-39691D01*
X53018Y-40183D01*
X53318Y-40159D02*
X53355Y-40183D01*
X53430Y-40183D01*
X53468Y-40159D01*
X53487Y-40112D01*
X53487Y-40089D01*
X53468Y-40042D01*
X53430Y-40019D01*
X53374Y-40019D01*
X53337Y-39995D01*
X53318Y-39948D01*
X53318Y-39925D01*
X53337Y-39878D01*
X53374Y-39855D01*
X53430Y-39855D01*
X53468Y-39878D01*
X53805Y-40159D02*
X53768Y-40183D01*
X53693Y-40183D01*
X53655Y-40159D01*
X53637Y-40112D01*
X53637Y-39925D01*
X53655Y-39878D01*
X53693Y-39855D01*
X53768Y-39855D01*
X53805Y-39878D01*
X53824Y-39925D01*
X53824Y-39972D01*
X53637Y-40019D01*
X54161Y-39855D02*
X54161Y-40253D01*
X54143Y-40300D01*
X54124Y-40323D01*
X54086Y-40347D01*
X54030Y-40347D01*
X53993Y-40323D01*
X54161Y-40159D02*
X54124Y-40183D01*
X54049Y-40183D01*
X54011Y-40159D01*
X53993Y-40136D01*
X53974Y-40089D01*
X53974Y-39948D01*
X53993Y-39902D01*
X54011Y-39878D01*
X54049Y-39855D01*
X54124Y-39855D01*
X54161Y-39878D01*
G54D12*
X47901Y-43972D02*
X48043Y-44551D01*
X48043Y-44551D02*
X48153Y-44133D01*
X48153Y-44133D02*
X48275Y-44555D01*
X48275Y-44555D02*
X48409Y-43984D01*
X47342Y-44244D02*
X47653Y-44240D01*
X47653Y-44240D02*
X47657Y-44244D01*
X47657Y-44244D02*
X47657Y-44240D01*
X47673Y-43960D02*
X47673Y-44567D01*
X47323Y-43956D02*
X47323Y-44574D01*
X47323Y-44574D02*
X47327Y-44570D01*
X47106Y-43996D02*
X46968Y-43964D01*
X46968Y-43964D02*
X46842Y-43960D01*
X46842Y-43960D02*
X46748Y-44039D01*
X46748Y-44039D02*
X46736Y-44145D01*
X46736Y-44145D02*
X46831Y-44240D01*
X46831Y-44240D02*
X46984Y-44291D01*
X46984Y-44291D02*
X47055Y-44354D01*
X47055Y-44354D02*
X47071Y-44472D01*
X47071Y-44472D02*
X46980Y-44559D01*
X46980Y-44559D02*
X46854Y-44570D01*
X46854Y-44570D02*
X46716Y-44527D01*
X46307Y-43956D02*
X46209Y-43964D01*
X46209Y-43964D02*
X46114Y-44059D01*
X46114Y-44059D02*
X46079Y-44252D01*
X46079Y-44252D02*
X46090Y-44389D01*
X46090Y-44389D02*
X46169Y-44515D01*
X46169Y-44515D02*
X46268Y-44563D01*
X46268Y-44563D02*
X46390Y-44535D01*
X46390Y-44535D02*
X46476Y-44464D01*
X46476Y-44464D02*
X46504Y-44283D01*
X46504Y-44283D02*
X46484Y-44122D01*
X46484Y-44122D02*
X46441Y-44011D01*
X46441Y-44011D02*
X46299Y-43960D01*
X46543Y-43279D02*
X46441Y-43500D01*
X46441Y-43500D02*
X46653Y-43704D01*
X46653Y-43704D02*
X46858Y-43598D01*
X46858Y-43598D02*
X46968Y-43661D01*
X47535Y-43653D02*
X47665Y-43578D01*
X47665Y-43578D02*
X47838Y-43708D01*
X47838Y-43708D02*
X48024Y-43515D01*
X48024Y-43515D02*
X47913Y-43326D01*
X47913Y-43326D02*
X47988Y-43141D01*
X47988Y-43141D02*
X48228Y-43067D01*
X48228Y-43067D02*
X48228Y-42799D01*
X48228Y-42799D02*
X48008Y-42744D01*
X48008Y-42744D02*
X47929Y-42519D01*
X47929Y-42519D02*
X48035Y-42334D01*
X48035Y-42334D02*
X47850Y-42133D01*
X47850Y-42133D02*
X47646Y-42236D01*
X47646Y-42236D02*
X47461Y-42157D01*
X47461Y-42157D02*
X47394Y-41944D01*
X47394Y-41944D02*
X47122Y-41937D01*
X47122Y-41937D02*
X47039Y-42153D01*
X47039Y-42153D02*
X46874Y-42220D01*
X46874Y-42220D02*
X46657Y-42114D01*
X46657Y-42114D02*
X46453Y-42322D01*
X46453Y-42322D02*
X46551Y-42535D01*
X46551Y-42535D02*
X46484Y-42724D01*
X46484Y-42724D02*
X46268Y-42763D01*
X46268Y-42763D02*
X46264Y-43039D01*
X46264Y-43039D02*
X46484Y-43118D01*
X46484Y-43118D02*
X46539Y-43275D01*
X47382Y-43267D02*
X47500Y-43208D01*
X47500Y-43208D02*
X47579Y-43130D01*
X47579Y-43130D02*
X47638Y-42972D01*
X47638Y-42972D02*
X47638Y-42815D01*
X47638Y-42815D02*
X47579Y-42677D01*
X47579Y-42677D02*
X47401Y-42539D01*
X47401Y-42539D02*
X47224Y-42519D01*
X47224Y-42519D02*
X47067Y-42559D01*
X47067Y-42559D02*
X46909Y-42696D01*
X46909Y-42696D02*
X46850Y-42874D01*
X46850Y-42874D02*
X46870Y-43070D01*
X46870Y-43070D02*
X46968Y-43189D01*
X46968Y-43189D02*
X47106Y-43267D01*
X47106Y-43267D02*
X46968Y-43661D01*
X47382Y-43267D02*
X47539Y-43661D01*
G54D13*
X43110Y-45110D02*
X43003Y-45110D01*
X43003Y-45110D02*
X43003Y-45519D01*
X43003Y-45519D02*
X43110Y-45519D01*
X44055Y-45519D02*
X44161Y-45519D01*
X44161Y-45519D02*
X44161Y-45110D01*
X44161Y-45110D02*
X44055Y-45110D01*
X54409Y-44929D02*
X54515Y-44929D01*
X54515Y-44929D02*
X54515Y-44519D01*
X54515Y-44519D02*
X54409Y-44519D01*
X53464Y-44519D02*
X53358Y-44519D01*
X53358Y-44519D02*
X53358Y-44929D01*
X53358Y-44929D02*
X53464Y-44929D01*
G54D14*
X52090Y-44360D02*
G75*
G03X52090Y-44360I-62J0D01*
G74*
G01*
X51689Y-43397D02*
X52089Y-43397D01*
X51689Y-44422D02*
X52089Y-44422D01*
X52089Y-43397D02*
X52089Y-44422D01*
X51689Y-44422D02*
X51689Y-43397D01*
X49284Y-46870D02*
G75*
G03X49284Y-46870I-62J0D01*
G74*
G01*
X50185Y-46532D02*
X50185Y-46932D01*
X49160Y-46532D02*
X49160Y-46932D01*
X50185Y-46932D02*
X49160Y-46932D01*
X49160Y-46532D02*
X50185Y-46532D01*
X47316Y-46870D02*
G75*
G03X47316Y-46870I-62J0D01*
G74*
G01*
X48216Y-46532D02*
X48216Y-46932D01*
X47191Y-46532D02*
X47191Y-46932D01*
X48216Y-46932D02*
X47191Y-46932D01*
X47191Y-46532D02*
X48216Y-46532D01*
X45308Y-46870D02*
G75*
G03X45308Y-46870I-62J0D01*
G74*
G01*
X46208Y-46532D02*
X46208Y-46932D01*
X45183Y-46532D02*
X45183Y-46932D01*
X46208Y-46932D02*
X45183Y-46932D01*
X45183Y-46532D02*
X46208Y-46532D01*
G54D13*
X44173Y-44401D02*
X44066Y-44401D01*
X44066Y-44401D02*
X44066Y-44811D01*
X44066Y-44811D02*
X44173Y-44811D01*
X45118Y-44811D02*
X45224Y-44811D01*
X45224Y-44811D02*
X45224Y-44401D01*
X45224Y-44401D02*
X45118Y-44401D01*
X44173Y-43929D02*
X44066Y-43929D01*
X44066Y-43929D02*
X44066Y-44338D01*
X44066Y-44338D02*
X44173Y-44338D01*
X45118Y-44338D02*
X45224Y-44338D01*
X45224Y-44338D02*
X45224Y-43929D01*
X45224Y-43929D02*
X45118Y-43929D01*
X44173Y-43456D02*
X44066Y-43456D01*
X44066Y-43456D02*
X44066Y-43866D01*
X44066Y-43866D02*
X44173Y-43866D01*
X45118Y-43866D02*
X45224Y-43866D01*
X45224Y-43866D02*
X45224Y-43456D01*
X45224Y-43456D02*
X45118Y-43456D01*
X44173Y-42984D02*
X44066Y-42984D01*
X44066Y-42984D02*
X44066Y-43393D01*
X44066Y-43393D02*
X44173Y-43393D01*
X45118Y-43393D02*
X45224Y-43393D01*
X45224Y-43393D02*
X45224Y-42984D01*
X45224Y-42984D02*
X45118Y-42984D01*
X44173Y-42511D02*
X44066Y-42511D01*
X44066Y-42511D02*
X44066Y-42921D01*
X44066Y-42921D02*
X44173Y-42921D01*
X45118Y-42921D02*
X45224Y-42921D01*
X45224Y-42921D02*
X45224Y-42511D01*
X45224Y-42511D02*
X45118Y-42511D01*
X44173Y-42039D02*
X44066Y-42039D01*
X44066Y-42039D02*
X44066Y-42448D01*
X44066Y-42448D02*
X44173Y-42448D01*
X45118Y-42448D02*
X45224Y-42448D01*
X45224Y-42448D02*
X45224Y-42039D01*
X45224Y-42039D02*
X45118Y-42039D01*
X44173Y-41566D02*
X44066Y-41566D01*
X44066Y-41566D02*
X44066Y-41976D01*
X44066Y-41976D02*
X44173Y-41976D01*
X45118Y-41976D02*
X45224Y-41976D01*
X45224Y-41976D02*
X45224Y-41566D01*
X45224Y-41566D02*
X45118Y-41566D01*
X44173Y-41055D02*
X44066Y-41055D01*
X44066Y-41055D02*
X44066Y-41464D01*
X44066Y-41464D02*
X44173Y-41464D01*
X45118Y-41464D02*
X45224Y-41464D01*
X45224Y-41464D02*
X45224Y-41055D01*
X45224Y-41055D02*
X45118Y-41055D01*
X52952Y-43692D02*
X52846Y-43692D01*
X52846Y-43692D02*
X52846Y-44102D01*
X52846Y-44102D02*
X52952Y-44102D01*
X53897Y-44102D02*
X54003Y-44102D01*
X54003Y-44102D02*
X54003Y-43692D01*
X54003Y-43692D02*
X53897Y-43692D01*
X50795Y-46220D02*
X50795Y-46114D01*
X50795Y-46114D02*
X50385Y-46114D01*
X50385Y-46114D02*
X50385Y-46220D01*
X50385Y-47165D02*
X50385Y-47271D01*
X50385Y-47271D02*
X50795Y-47271D01*
X50795Y-47271D02*
X50795Y-47165D01*
X48496Y-47165D02*
X48496Y-47271D01*
X48496Y-47271D02*
X48905Y-47271D01*
X48905Y-47271D02*
X48905Y-47165D01*
X48905Y-46220D02*
X48905Y-46114D01*
X48905Y-46114D02*
X48496Y-46114D01*
X48496Y-46114D02*
X48496Y-46220D01*
X46527Y-47165D02*
X46527Y-47271D01*
X46527Y-47271D02*
X46937Y-47271D01*
X46937Y-47271D02*
X46937Y-47165D01*
X46937Y-46220D02*
X46937Y-46114D01*
X46937Y-46114D02*
X46527Y-46114D01*
X46527Y-46114D02*
X46527Y-46220D01*
X57472Y-42874D02*
X57472Y-42980D01*
X57472Y-42980D02*
X57881Y-42980D01*
X57881Y-42980D02*
X57881Y-42874D01*
X57881Y-41929D02*
X57881Y-41822D01*
X57881Y-41822D02*
X57472Y-41822D01*
X57472Y-41822D02*
X57472Y-41929D01*
X54468Y-47559D02*
X54468Y-45039D01*
X54468Y-45039D02*
X55925Y-45039D01*
X55925Y-45039D02*
X55925Y-47559D01*
X55925Y-47559D02*
X54468Y-47559D01*
X54891Y-45314D02*
G75*
G03X54891Y-45314I-167J0D01*
G74*
G01*
G54D15*
X44103Y-46146D02*
X44103Y-46846D01*
X44103Y-46846D02*
X42903Y-46846D01*
X42903Y-46846D02*
X42903Y-46146D01*
X42903Y-46146D02*
X44103Y-46146D01*
G54D13*
X44133Y-47125D02*
X44133Y-47381D01*
X44133Y-47381D02*
X44763Y-47381D01*
X44763Y-47381D02*
X44763Y-47125D01*
X44763Y-46181D02*
X44763Y-45925D01*
X44763Y-45925D02*
X44133Y-45925D01*
X44133Y-45925D02*
X44133Y-46181D01*
X42086Y-47076D02*
X42086Y-47401D01*
X42086Y-47401D02*
X42874Y-47401D01*
X42874Y-47401D02*
X42874Y-47076D01*
X42874Y-45679D02*
X42874Y-45354D01*
X42874Y-45354D02*
X42086Y-45354D01*
X42086Y-45354D02*
X42086Y-45679D01*
X49251Y-42251D02*
X49358Y-42251D01*
X49358Y-42251D02*
X49358Y-41842D01*
X49358Y-41842D02*
X49251Y-41842D01*
X48307Y-41842D02*
X48200Y-41842D01*
X48200Y-41842D02*
X48200Y-42251D01*
X48200Y-42251D02*
X48307Y-42251D01*
X50897Y-47165D02*
X50897Y-47271D01*
X50897Y-47271D02*
X51307Y-47271D01*
X51307Y-47271D02*
X51307Y-47165D01*
X51307Y-46220D02*
X51307Y-46114D01*
X51307Y-46114D02*
X50897Y-46114D01*
X50897Y-46114D02*
X50897Y-46220D01*
X41819Y-44551D02*
X41819Y-40251D01*
X41819Y-40251D02*
X43219Y-40251D01*
X43219Y-40251D02*
X43219Y-44551D01*
X43219Y-44551D02*
X41819Y-44551D01*
X42319Y-44551D02*
X42319Y-44251D01*
X42319Y-44251D02*
X42719Y-44251D01*
X42719Y-44251D02*
X42719Y-44551D01*
X56830Y-46240D02*
X56830Y-44625D01*
X57657Y-46240D02*
X57657Y-44625D01*
X56031Y-41929D02*
X56031Y-41822D01*
X56031Y-41822D02*
X55622Y-41822D01*
X55622Y-41822D02*
X55622Y-41929D01*
X55622Y-42874D02*
X55622Y-42980D01*
X55622Y-42980D02*
X56031Y-42980D01*
X56031Y-42980D02*
X56031Y-42874D01*
G54D10*
X56929Y-41062D02*
X56535Y-41062D01*
X56535Y-41062D02*
X56535Y-41850D01*
X56535Y-41850D02*
X56929Y-41850D01*
X56929Y-41850D02*
X56929Y-41062D01*
X56141Y-40275D02*
X56141Y-42637D01*
X56141Y-42637D02*
X57322Y-42637D01*
X57322Y-42637D02*
X57322Y-40275D01*
X57322Y-40275D02*
X56141Y-40275D01*
G54D13*
X44474Y-45311D02*
X44458Y-45326D01*
X44413Y-45341D01*
X44382Y-45341D01*
X44337Y-45326D01*
X44306Y-45295D01*
X44291Y-45265D01*
X44276Y-45204D01*
X44276Y-45158D01*
X44291Y-45097D01*
X44306Y-45067D01*
X44337Y-45036D01*
X44382Y-45021D01*
X44413Y-45021D01*
X44458Y-45036D01*
X44474Y-45052D01*
X44596Y-45052D02*
X44611Y-45036D01*
X44641Y-45021D01*
X44718Y-45021D01*
X44748Y-45036D01*
X44763Y-45052D01*
X44778Y-45082D01*
X44778Y-45113D01*
X44763Y-45158D01*
X44580Y-45341D01*
X44778Y-45341D01*
X43082Y-44987D02*
X42899Y-44987D01*
X42990Y-44987D02*
X42990Y-44667D01*
X42960Y-44712D01*
X42929Y-44743D01*
X42899Y-44758D01*
X43280Y-44667D02*
X43310Y-44667D01*
X43341Y-44682D01*
X43356Y-44697D01*
X43371Y-44728D01*
X43387Y-44789D01*
X43387Y-44865D01*
X43371Y-44926D01*
X43356Y-44956D01*
X43341Y-44972D01*
X43310Y-44987D01*
X43280Y-44987D01*
X43249Y-44972D01*
X43234Y-44956D01*
X43219Y-44926D01*
X43204Y-44865D01*
X43204Y-44789D01*
X43219Y-44728D01*
X43234Y-44697D01*
X43249Y-44682D01*
X43280Y-44667D01*
X43524Y-44773D02*
X43524Y-44987D01*
X43524Y-44804D02*
X43539Y-44789D01*
X43569Y-44773D01*
X43615Y-44773D01*
X43646Y-44789D01*
X43661Y-44819D01*
X43661Y-44987D01*
X43920Y-44819D02*
X43813Y-44819D01*
X43813Y-44987D02*
X43813Y-44667D01*
X43966Y-44667D01*
X53371Y-45350D02*
X53356Y-45365D01*
X53310Y-45380D01*
X53280Y-45380D01*
X53234Y-45365D01*
X53204Y-45335D01*
X53189Y-45304D01*
X53173Y-45243D01*
X53173Y-45198D01*
X53189Y-45137D01*
X53204Y-45106D01*
X53234Y-45076D01*
X53280Y-45060D01*
X53310Y-45060D01*
X53356Y-45076D01*
X53371Y-45091D01*
X53646Y-45167D02*
X53646Y-45380D01*
X53569Y-45045D02*
X53493Y-45274D01*
X53691Y-45274D01*
X53559Y-44475D02*
X53377Y-44475D01*
X53468Y-44475D02*
X53468Y-44155D01*
X53437Y-44201D01*
X53407Y-44231D01*
X53377Y-44246D01*
X53757Y-44155D02*
X53788Y-44155D01*
X53818Y-44170D01*
X53834Y-44185D01*
X53849Y-44216D01*
X53864Y-44277D01*
X53864Y-44353D01*
X53849Y-44414D01*
X53834Y-44444D01*
X53818Y-44460D01*
X53788Y-44475D01*
X53757Y-44475D01*
X53727Y-44460D01*
X53712Y-44444D01*
X53697Y-44414D01*
X53681Y-44353D01*
X53681Y-44277D01*
X53697Y-44216D01*
X53712Y-44185D01*
X53727Y-44170D01*
X53757Y-44155D01*
X54062Y-44155D02*
X54093Y-44155D01*
X54123Y-44170D01*
X54138Y-44185D01*
X54154Y-44216D01*
X54169Y-44277D01*
X54169Y-44353D01*
X54154Y-44414D01*
X54138Y-44444D01*
X54123Y-44460D01*
X54093Y-44475D01*
X54062Y-44475D01*
X54032Y-44460D01*
X54017Y-44444D01*
X54001Y-44414D01*
X53986Y-44353D01*
X53986Y-44277D01*
X54001Y-44216D01*
X54017Y-44185D01*
X54032Y-44170D01*
X54062Y-44155D01*
X54306Y-44262D02*
X54306Y-44475D01*
X54306Y-44292D02*
X54321Y-44277D01*
X54352Y-44262D01*
X54397Y-44262D01*
X54428Y-44277D01*
X54443Y-44307D01*
X54443Y-44475D01*
X54702Y-44307D02*
X54596Y-44307D01*
X54596Y-44475D02*
X54596Y-44155D01*
X54748Y-44155D01*
X51308Y-43521D02*
X51277Y-43506D01*
X51247Y-43475D01*
X51201Y-43430D01*
X51170Y-43415D01*
X51140Y-43415D01*
X51155Y-43491D02*
X51125Y-43475D01*
X51094Y-43445D01*
X51079Y-43384D01*
X51079Y-43277D01*
X51094Y-43216D01*
X51125Y-43186D01*
X51155Y-43171D01*
X51216Y-43171D01*
X51247Y-43186D01*
X51277Y-43216D01*
X51292Y-43277D01*
X51292Y-43384D01*
X51277Y-43445D01*
X51247Y-43475D01*
X51216Y-43491D01*
X51155Y-43491D01*
X51597Y-43491D02*
X51414Y-43491D01*
X51506Y-43491D02*
X51506Y-43171D01*
X51475Y-43216D01*
X51445Y-43247D01*
X51414Y-43262D01*
X50809Y-44554D02*
X50809Y-44234D01*
X50930Y-44234D01*
X50961Y-44249D01*
X50976Y-44264D01*
X50991Y-44295D01*
X50991Y-44340D01*
X50976Y-44371D01*
X50961Y-44386D01*
X50930Y-44401D01*
X50809Y-44401D01*
X51129Y-44554D02*
X51129Y-44234D01*
X51311Y-44554D01*
X51311Y-44234D01*
X51464Y-44554D02*
X51464Y-44234D01*
X51586Y-44234D01*
X51616Y-44249D01*
X51631Y-44264D01*
X51647Y-44295D01*
X51647Y-44340D01*
X51631Y-44371D01*
X51616Y-44386D01*
X51586Y-44401D01*
X51464Y-44401D01*
X49654Y-48009D02*
X49624Y-47994D01*
X49593Y-47964D01*
X49547Y-47918D01*
X49517Y-47903D01*
X49486Y-47903D01*
X49502Y-47979D02*
X49471Y-47964D01*
X49441Y-47933D01*
X49425Y-47872D01*
X49425Y-47766D01*
X49441Y-47705D01*
X49471Y-47674D01*
X49502Y-47659D01*
X49563Y-47659D01*
X49593Y-47674D01*
X49624Y-47705D01*
X49639Y-47766D01*
X49639Y-47872D01*
X49624Y-47933D01*
X49593Y-47964D01*
X49563Y-47979D01*
X49502Y-47979D01*
X49761Y-47689D02*
X49776Y-47674D01*
X49806Y-47659D01*
X49883Y-47659D01*
X49913Y-47674D01*
X49928Y-47689D01*
X49944Y-47720D01*
X49944Y-47750D01*
X49928Y-47796D01*
X49745Y-47979D01*
X49944Y-47979D01*
X49298Y-46877D02*
X49298Y-46557D01*
X49420Y-46557D01*
X49450Y-46572D01*
X49466Y-46587D01*
X49481Y-46617D01*
X49481Y-46663D01*
X49466Y-46694D01*
X49450Y-46709D01*
X49420Y-46724D01*
X49298Y-46724D01*
X49618Y-46877D02*
X49618Y-46557D01*
X49801Y-46877D01*
X49801Y-46557D01*
X49953Y-46877D02*
X49953Y-46557D01*
X50075Y-46557D01*
X50106Y-46572D01*
X50121Y-46587D01*
X50136Y-46617D01*
X50136Y-46663D01*
X50121Y-46694D01*
X50106Y-46709D01*
X50075Y-46724D01*
X49953Y-46724D01*
X47686Y-48009D02*
X47655Y-47994D01*
X47625Y-47964D01*
X47579Y-47918D01*
X47548Y-47903D01*
X47518Y-47903D01*
X47533Y-47979D02*
X47503Y-47964D01*
X47472Y-47933D01*
X47457Y-47872D01*
X47457Y-47766D01*
X47472Y-47705D01*
X47503Y-47674D01*
X47533Y-47659D01*
X47594Y-47659D01*
X47625Y-47674D01*
X47655Y-47705D01*
X47670Y-47766D01*
X47670Y-47872D01*
X47655Y-47933D01*
X47625Y-47964D01*
X47594Y-47979D01*
X47533Y-47979D01*
X47777Y-47659D02*
X47975Y-47659D01*
X47868Y-47781D01*
X47914Y-47781D01*
X47945Y-47796D01*
X47960Y-47811D01*
X47975Y-47842D01*
X47975Y-47918D01*
X47960Y-47948D01*
X47945Y-47964D01*
X47914Y-47979D01*
X47823Y-47979D01*
X47792Y-47964D01*
X47777Y-47948D01*
X47330Y-46877D02*
X47330Y-46557D01*
X47452Y-46557D01*
X47482Y-46572D01*
X47497Y-46587D01*
X47512Y-46617D01*
X47512Y-46663D01*
X47497Y-46694D01*
X47482Y-46709D01*
X47452Y-46724D01*
X47330Y-46724D01*
X47650Y-46877D02*
X47650Y-46557D01*
X47832Y-46877D01*
X47832Y-46557D01*
X47985Y-46877D02*
X47985Y-46557D01*
X48107Y-46557D01*
X48137Y-46572D01*
X48152Y-46587D01*
X48168Y-46617D01*
X48168Y-46663D01*
X48152Y-46694D01*
X48137Y-46709D01*
X48107Y-46724D01*
X47985Y-46724D01*
X45678Y-48009D02*
X45647Y-47994D01*
X45617Y-47964D01*
X45571Y-47918D01*
X45541Y-47903D01*
X45510Y-47903D01*
X45525Y-47979D02*
X45495Y-47964D01*
X45464Y-47933D01*
X45449Y-47872D01*
X45449Y-47766D01*
X45464Y-47705D01*
X45495Y-47674D01*
X45525Y-47659D01*
X45586Y-47659D01*
X45617Y-47674D01*
X45647Y-47705D01*
X45662Y-47766D01*
X45662Y-47872D01*
X45647Y-47933D01*
X45617Y-47964D01*
X45586Y-47979D01*
X45525Y-47979D01*
X45937Y-47766D02*
X45937Y-47979D01*
X45861Y-47644D02*
X45784Y-47872D01*
X45982Y-47872D01*
X45322Y-46877D02*
X45322Y-46557D01*
X45444Y-46557D01*
X45474Y-46572D01*
X45489Y-46587D01*
X45505Y-46617D01*
X45505Y-46663D01*
X45489Y-46694D01*
X45474Y-46709D01*
X45444Y-46724D01*
X45322Y-46724D01*
X45642Y-46877D02*
X45642Y-46557D01*
X45825Y-46877D01*
X45825Y-46557D01*
X45977Y-46877D02*
X45977Y-46557D01*
X46099Y-46557D01*
X46129Y-46572D01*
X46145Y-46587D01*
X46160Y-46617D01*
X46160Y-46663D01*
X46145Y-46694D01*
X46129Y-46709D01*
X46099Y-46724D01*
X45977Y-46724D01*
X45537Y-44790D02*
X45430Y-44638D01*
X45354Y-44790D02*
X45354Y-44470D01*
X45476Y-44470D01*
X45506Y-44485D01*
X45521Y-44500D01*
X45537Y-44531D01*
X45537Y-44577D01*
X45521Y-44607D01*
X45506Y-44622D01*
X45476Y-44638D01*
X45354Y-44638D01*
X45841Y-44790D02*
X45659Y-44790D01*
X45750Y-44790D02*
X45750Y-44470D01*
X45720Y-44516D01*
X45689Y-44546D01*
X45659Y-44561D01*
X45537Y-44357D02*
X45430Y-44204D01*
X45354Y-44357D02*
X45354Y-44037D01*
X45476Y-44037D01*
X45506Y-44052D01*
X45521Y-44067D01*
X45537Y-44098D01*
X45537Y-44144D01*
X45521Y-44174D01*
X45506Y-44189D01*
X45476Y-44204D01*
X45354Y-44204D01*
X45659Y-44067D02*
X45674Y-44052D01*
X45704Y-44037D01*
X45781Y-44037D01*
X45811Y-44052D01*
X45826Y-44067D01*
X45841Y-44098D01*
X45841Y-44128D01*
X45826Y-44174D01*
X45643Y-44357D01*
X45841Y-44357D01*
X45537Y-43924D02*
X45430Y-43771D01*
X45354Y-43924D02*
X45354Y-43604D01*
X45476Y-43604D01*
X45506Y-43619D01*
X45521Y-43634D01*
X45537Y-43665D01*
X45537Y-43710D01*
X45521Y-43741D01*
X45506Y-43756D01*
X45476Y-43771D01*
X45354Y-43771D01*
X45643Y-43604D02*
X45841Y-43604D01*
X45735Y-43726D01*
X45781Y-43726D01*
X45811Y-43741D01*
X45826Y-43756D01*
X45841Y-43787D01*
X45841Y-43863D01*
X45826Y-43893D01*
X45811Y-43909D01*
X45781Y-43924D01*
X45689Y-43924D01*
X45659Y-43909D01*
X45643Y-43893D01*
X45537Y-43491D02*
X45430Y-43338D01*
X45354Y-43491D02*
X45354Y-43171D01*
X45476Y-43171D01*
X45506Y-43186D01*
X45521Y-43201D01*
X45537Y-43232D01*
X45537Y-43277D01*
X45521Y-43308D01*
X45506Y-43323D01*
X45476Y-43338D01*
X45354Y-43338D01*
X45811Y-43277D02*
X45811Y-43491D01*
X45735Y-43155D02*
X45659Y-43384D01*
X45857Y-43384D01*
X45537Y-43058D02*
X45430Y-42905D01*
X45354Y-43058D02*
X45354Y-42738D01*
X45476Y-42738D01*
X45506Y-42753D01*
X45521Y-42768D01*
X45537Y-42799D01*
X45537Y-42844D01*
X45521Y-42875D01*
X45506Y-42890D01*
X45476Y-42905D01*
X45354Y-42905D01*
X45826Y-42738D02*
X45674Y-42738D01*
X45659Y-42890D01*
X45674Y-42875D01*
X45704Y-42860D01*
X45781Y-42860D01*
X45811Y-42875D01*
X45826Y-42890D01*
X45841Y-42921D01*
X45841Y-42997D01*
X45826Y-43027D01*
X45811Y-43042D01*
X45781Y-43058D01*
X45704Y-43058D01*
X45674Y-43042D01*
X45659Y-43027D01*
X45537Y-42625D02*
X45430Y-42472D01*
X45354Y-42625D02*
X45354Y-42305D01*
X45476Y-42305D01*
X45506Y-42320D01*
X45521Y-42335D01*
X45537Y-42366D01*
X45537Y-42411D01*
X45521Y-42442D01*
X45506Y-42457D01*
X45476Y-42472D01*
X45354Y-42472D01*
X45811Y-42305D02*
X45750Y-42305D01*
X45720Y-42320D01*
X45704Y-42335D01*
X45674Y-42381D01*
X45659Y-42442D01*
X45659Y-42564D01*
X45674Y-42594D01*
X45689Y-42609D01*
X45720Y-42625D01*
X45781Y-42625D01*
X45811Y-42609D01*
X45826Y-42594D01*
X45841Y-42564D01*
X45841Y-42487D01*
X45826Y-42457D01*
X45811Y-42442D01*
X45781Y-42426D01*
X45720Y-42426D01*
X45689Y-42442D01*
X45674Y-42457D01*
X45659Y-42487D01*
X45537Y-42192D02*
X45430Y-42039D01*
X45354Y-42192D02*
X45354Y-41872D01*
X45476Y-41872D01*
X45506Y-41887D01*
X45521Y-41902D01*
X45537Y-41932D01*
X45537Y-41978D01*
X45521Y-42009D01*
X45506Y-42024D01*
X45476Y-42039D01*
X45354Y-42039D01*
X45643Y-41872D02*
X45857Y-41872D01*
X45720Y-42192D01*
X44946Y-40932D02*
X44840Y-40779D01*
X44763Y-40932D02*
X44763Y-40612D01*
X44885Y-40612D01*
X44916Y-40627D01*
X44931Y-40642D01*
X44946Y-40673D01*
X44946Y-40718D01*
X44931Y-40749D01*
X44916Y-40764D01*
X44885Y-40779D01*
X44763Y-40779D01*
X45129Y-40749D02*
X45099Y-40734D01*
X45083Y-40718D01*
X45068Y-40688D01*
X45068Y-40673D01*
X45083Y-40642D01*
X45099Y-40627D01*
X45129Y-40612D01*
X45190Y-40612D01*
X45220Y-40627D01*
X45236Y-40642D01*
X45251Y-40673D01*
X45251Y-40688D01*
X45236Y-40718D01*
X45220Y-40734D01*
X45190Y-40749D01*
X45129Y-40749D01*
X45099Y-40764D01*
X45083Y-40779D01*
X45068Y-40810D01*
X45068Y-40871D01*
X45083Y-40901D01*
X45099Y-40916D01*
X45129Y-40932D01*
X45190Y-40932D01*
X45220Y-40916D01*
X45236Y-40901D01*
X45251Y-40871D01*
X45251Y-40810D01*
X45236Y-40779D01*
X45220Y-40764D01*
X45190Y-40749D01*
X53371Y-43530D02*
X53265Y-43378D01*
X53189Y-43530D02*
X53189Y-43210D01*
X53310Y-43210D01*
X53341Y-43225D01*
X53356Y-43241D01*
X53371Y-43271D01*
X53371Y-43317D01*
X53356Y-43347D01*
X53341Y-43362D01*
X53310Y-43378D01*
X53189Y-43378D01*
X53524Y-43530D02*
X53585Y-43530D01*
X53615Y-43515D01*
X53630Y-43500D01*
X53661Y-43454D01*
X53676Y-43393D01*
X53676Y-43271D01*
X53661Y-43241D01*
X53646Y-43225D01*
X53615Y-43210D01*
X53554Y-43210D01*
X53524Y-43225D01*
X53509Y-43241D01*
X53493Y-43271D01*
X53493Y-43347D01*
X53509Y-43378D01*
X53524Y-43393D01*
X53554Y-43408D01*
X53615Y-43408D01*
X53646Y-43393D01*
X53661Y-43378D01*
X53676Y-43347D01*
X53569Y-43935D02*
X53569Y-44118D01*
X53569Y-44027D02*
X53249Y-44027D01*
X53295Y-44057D01*
X53326Y-44088D01*
X53341Y-44118D01*
X53569Y-43798D02*
X53249Y-43798D01*
X53448Y-43768D02*
X53569Y-43676D01*
X53356Y-43676D02*
X53478Y-43798D01*
X50774Y-47961D02*
X50622Y-48068D01*
X50774Y-48144D02*
X50454Y-48144D01*
X50454Y-48022D01*
X50469Y-47992D01*
X50485Y-47976D01*
X50515Y-47961D01*
X50561Y-47961D01*
X50591Y-47976D01*
X50607Y-47992D01*
X50622Y-48022D01*
X50622Y-48144D01*
X50774Y-47656D02*
X50774Y-47839D01*
X50774Y-47748D02*
X50454Y-47748D01*
X50500Y-47778D01*
X50530Y-47809D01*
X50546Y-47839D01*
X50454Y-47458D02*
X50454Y-47428D01*
X50469Y-47397D01*
X50485Y-47382D01*
X50515Y-47367D01*
X50576Y-47352D01*
X50652Y-47352D01*
X50713Y-47367D01*
X50744Y-47382D01*
X50759Y-47397D01*
X50774Y-47428D01*
X50774Y-47458D01*
X50759Y-47489D01*
X50744Y-47504D01*
X50713Y-47519D01*
X50652Y-47534D01*
X50576Y-47534D01*
X50515Y-47519D01*
X50485Y-47504D01*
X50469Y-47489D01*
X50454Y-47458D01*
X50473Y-46837D02*
X50290Y-46837D01*
X50382Y-46837D02*
X50382Y-46517D01*
X50351Y-46563D01*
X50321Y-46593D01*
X50290Y-46609D01*
X50610Y-46837D02*
X50610Y-46517D01*
X50641Y-46715D02*
X50732Y-46837D01*
X50732Y-46624D02*
X50610Y-46746D01*
X48534Y-47703D02*
X48427Y-47551D01*
X48351Y-47703D02*
X48351Y-47383D01*
X48473Y-47383D01*
X48503Y-47399D01*
X48519Y-47414D01*
X48534Y-47444D01*
X48534Y-47490D01*
X48519Y-47520D01*
X48503Y-47536D01*
X48473Y-47551D01*
X48351Y-47551D01*
X48839Y-47703D02*
X48656Y-47703D01*
X48747Y-47703D02*
X48747Y-47383D01*
X48717Y-47429D01*
X48686Y-47460D01*
X48656Y-47475D01*
X49143Y-47703D02*
X48961Y-47703D01*
X49052Y-47703D02*
X49052Y-47383D01*
X49022Y-47429D01*
X48991Y-47460D01*
X48961Y-47475D01*
X48662Y-46837D02*
X48479Y-46837D01*
X48571Y-46837D02*
X48571Y-46517D01*
X48540Y-46563D01*
X48510Y-46593D01*
X48479Y-46609D01*
X48799Y-46837D02*
X48799Y-46517D01*
X48830Y-46715D02*
X48921Y-46837D01*
X48921Y-46624D02*
X48799Y-46746D01*
X46526Y-47703D02*
X46419Y-47551D01*
X46343Y-47703D02*
X46343Y-47383D01*
X46465Y-47383D01*
X46496Y-47399D01*
X46511Y-47414D01*
X46526Y-47444D01*
X46526Y-47490D01*
X46511Y-47520D01*
X46496Y-47536D01*
X46465Y-47551D01*
X46343Y-47551D01*
X46831Y-47703D02*
X46648Y-47703D01*
X46739Y-47703D02*
X46739Y-47383D01*
X46709Y-47429D01*
X46678Y-47460D01*
X46648Y-47475D01*
X46953Y-47414D02*
X46968Y-47399D01*
X46998Y-47383D01*
X47075Y-47383D01*
X47105Y-47399D01*
X47120Y-47414D01*
X47136Y-47444D01*
X47136Y-47475D01*
X47120Y-47520D01*
X46937Y-47703D01*
X47136Y-47703D01*
X46694Y-46837D02*
X46511Y-46837D01*
X46602Y-46837D02*
X46602Y-46517D01*
X46572Y-46563D01*
X46541Y-46593D01*
X46511Y-46609D01*
X46831Y-46837D02*
X46831Y-46517D01*
X46861Y-46715D02*
X46953Y-46837D01*
X46953Y-46624D02*
X46831Y-46746D01*
X57821Y-41504D02*
X57669Y-41611D01*
X57821Y-41687D02*
X57501Y-41687D01*
X57501Y-41565D01*
X57517Y-41535D01*
X57532Y-41520D01*
X57562Y-41504D01*
X57608Y-41504D01*
X57639Y-41520D01*
X57654Y-41535D01*
X57669Y-41565D01*
X57669Y-41687D01*
X57821Y-41200D02*
X57821Y-41383D01*
X57821Y-41291D02*
X57501Y-41291D01*
X57547Y-41322D01*
X57578Y-41352D01*
X57593Y-41383D01*
X57501Y-41093D02*
X57501Y-40895D01*
X57623Y-41002D01*
X57623Y-40956D01*
X57639Y-40925D01*
X57654Y-40910D01*
X57684Y-40895D01*
X57760Y-40895D01*
X57791Y-40910D01*
X57806Y-40925D01*
X57821Y-40956D01*
X57821Y-41047D01*
X57806Y-41078D01*
X57791Y-41093D01*
X57608Y-43685D02*
X57821Y-43685D01*
X57486Y-43761D02*
X57715Y-43837D01*
X57715Y-43639D01*
X57501Y-43548D02*
X57501Y-43335D01*
X57821Y-43472D01*
X57821Y-43213D02*
X57501Y-43213D01*
X57700Y-43182D02*
X57821Y-43091D01*
X57608Y-43091D02*
X57730Y-43213D01*
X54953Y-44588D02*
X54953Y-44847D01*
X54968Y-44878D01*
X54983Y-44893D01*
X55013Y-44908D01*
X55074Y-44908D01*
X55105Y-44893D01*
X55120Y-44878D01*
X55135Y-44847D01*
X55135Y-44588D01*
X55455Y-44908D02*
X55273Y-44908D01*
X55364Y-44908D02*
X55364Y-44588D01*
X55333Y-44634D01*
X55303Y-44664D01*
X55273Y-44679D01*
X53511Y-47979D02*
X53511Y-47659D01*
X53618Y-47887D01*
X53725Y-47659D01*
X53725Y-47979D01*
X53862Y-47964D02*
X53907Y-47979D01*
X53984Y-47979D01*
X54014Y-47964D01*
X54029Y-47948D01*
X54045Y-47918D01*
X54045Y-47887D01*
X54029Y-47857D01*
X54014Y-47842D01*
X53984Y-47827D01*
X53923Y-47811D01*
X53892Y-47796D01*
X53877Y-47781D01*
X53862Y-47750D01*
X53862Y-47720D01*
X53877Y-47689D01*
X53892Y-47674D01*
X53923Y-47659D01*
X53999Y-47659D01*
X54045Y-47674D01*
X54182Y-47979D02*
X54182Y-47659D01*
X54304Y-47659D01*
X54334Y-47674D01*
X54349Y-47689D01*
X54365Y-47720D01*
X54365Y-47766D01*
X54349Y-47796D01*
X54334Y-47811D01*
X54304Y-47827D01*
X54182Y-47827D01*
X54639Y-47766D02*
X54639Y-47979D01*
X54563Y-47644D02*
X54487Y-47872D01*
X54685Y-47872D01*
X54776Y-47659D02*
X54974Y-47659D01*
X54867Y-47781D01*
X54913Y-47781D01*
X54944Y-47796D01*
X54959Y-47811D01*
X54974Y-47842D01*
X54974Y-47918D01*
X54959Y-47948D01*
X54944Y-47964D01*
X54913Y-47979D01*
X54822Y-47979D01*
X54791Y-47964D01*
X54776Y-47948D01*
X55172Y-47659D02*
X55203Y-47659D01*
X55233Y-47674D01*
X55248Y-47689D01*
X55264Y-47720D01*
X55279Y-47781D01*
X55279Y-47857D01*
X55264Y-47918D01*
X55248Y-47948D01*
X55233Y-47964D01*
X55203Y-47979D01*
X55172Y-47979D01*
X55142Y-47964D01*
X55127Y-47948D01*
X55111Y-47918D01*
X55096Y-47857D01*
X55096Y-47781D01*
X55111Y-47720D01*
X55127Y-47689D01*
X55142Y-47674D01*
X55172Y-47659D01*
X55584Y-47674D02*
X55553Y-47659D01*
X55507Y-47659D01*
X55462Y-47674D01*
X55431Y-47705D01*
X55416Y-47735D01*
X55401Y-47796D01*
X55401Y-47842D01*
X55416Y-47903D01*
X55431Y-47933D01*
X55462Y-47964D01*
X55507Y-47979D01*
X55538Y-47979D01*
X55584Y-47964D01*
X55599Y-47948D01*
X55599Y-47842D01*
X55538Y-47842D01*
X55721Y-47689D02*
X55736Y-47674D01*
X55767Y-47659D01*
X55843Y-47659D01*
X55873Y-47674D01*
X55888Y-47689D01*
X55904Y-47720D01*
X55904Y-47750D01*
X55888Y-47796D01*
X55706Y-47979D01*
X55904Y-47979D01*
X56193Y-47659D02*
X56041Y-47659D01*
X56026Y-47811D01*
X56041Y-47796D01*
X56071Y-47781D01*
X56147Y-47781D01*
X56178Y-47796D01*
X56193Y-47811D01*
X56208Y-47842D01*
X56208Y-47918D01*
X56193Y-47948D01*
X56178Y-47964D01*
X56147Y-47979D01*
X56071Y-47979D01*
X56041Y-47964D01*
X56026Y-47948D01*
X56498Y-47659D02*
X56346Y-47659D01*
X56330Y-47811D01*
X56346Y-47796D01*
X56376Y-47781D01*
X56452Y-47781D01*
X56483Y-47796D01*
X56498Y-47811D01*
X56513Y-47842D01*
X56513Y-47918D01*
X56498Y-47948D01*
X56483Y-47964D01*
X56452Y-47979D01*
X56376Y-47979D01*
X56346Y-47964D01*
X56330Y-47948D01*
X56620Y-47659D02*
X56818Y-47659D01*
X56711Y-47781D01*
X56757Y-47781D01*
X56787Y-47796D01*
X56803Y-47811D01*
X56818Y-47842D01*
X56818Y-47918D01*
X56803Y-47948D01*
X56787Y-47964D01*
X56757Y-47979D01*
X56666Y-47979D01*
X56635Y-47964D01*
X56620Y-47948D01*
X42423Y-46739D02*
X42682Y-46739D01*
X42712Y-46724D01*
X42727Y-46709D01*
X42743Y-46678D01*
X42743Y-46617D01*
X42727Y-46587D01*
X42712Y-46572D01*
X42682Y-46557D01*
X42423Y-46557D01*
X42423Y-46435D02*
X42423Y-46237D01*
X42545Y-46343D01*
X42545Y-46297D01*
X42560Y-46267D01*
X42575Y-46252D01*
X42606Y-46237D01*
X42682Y-46237D01*
X42712Y-46252D01*
X42727Y-46267D01*
X42743Y-46297D01*
X42743Y-46389D01*
X42727Y-46419D01*
X42712Y-46435D01*
G54D16*
X42955Y-46351D02*
X42970Y-46336D01*
X43001Y-46320D01*
X43077Y-46320D01*
X43107Y-46336D01*
X43122Y-46351D01*
X43138Y-46381D01*
X43138Y-46412D01*
X43122Y-46457D01*
X42940Y-46640D01*
X43138Y-46640D01*
X43290Y-46640D02*
X43351Y-46640D01*
X43382Y-46625D01*
X43397Y-46610D01*
X43427Y-46564D01*
X43442Y-46503D01*
X43442Y-46381D01*
X43427Y-46351D01*
X43412Y-46336D01*
X43382Y-46320D01*
X43321Y-46320D01*
X43290Y-46336D01*
X43275Y-46351D01*
X43260Y-46381D01*
X43260Y-46457D01*
X43275Y-46488D01*
X43290Y-46503D01*
X43321Y-46518D01*
X43382Y-46518D01*
X43412Y-46503D01*
X43427Y-46488D01*
X43442Y-46457D01*
X43625Y-46457D02*
X43595Y-46442D01*
X43580Y-46427D01*
X43564Y-46397D01*
X43564Y-46381D01*
X43580Y-46351D01*
X43595Y-46336D01*
X43625Y-46320D01*
X43686Y-46320D01*
X43717Y-46336D01*
X43732Y-46351D01*
X43747Y-46381D01*
X43747Y-46397D01*
X43732Y-46427D01*
X43717Y-46442D01*
X43686Y-46457D01*
X43625Y-46457D01*
X43595Y-46473D01*
X43580Y-46488D01*
X43564Y-46518D01*
X43564Y-46579D01*
X43580Y-46610D01*
X43595Y-46625D01*
X43625Y-46640D01*
X43686Y-46640D01*
X43717Y-46625D01*
X43732Y-46610D01*
X43747Y-46579D01*
X43747Y-46518D01*
X43732Y-46488D01*
X43717Y-46473D01*
X43686Y-46457D01*
X44037Y-46320D02*
X43884Y-46320D01*
X43869Y-46473D01*
X43884Y-46457D01*
X43915Y-46442D01*
X43991Y-46442D01*
X44022Y-46457D01*
X44037Y-46473D01*
X44052Y-46503D01*
X44052Y-46579D01*
X44037Y-46610D01*
X44022Y-46625D01*
X43991Y-46640D01*
X43915Y-46640D01*
X43884Y-46625D01*
X43869Y-46610D01*
G54D13*
X44395Y-45783D02*
X44380Y-45798D01*
X44334Y-45814D01*
X44304Y-45814D01*
X44258Y-45798D01*
X44227Y-45768D01*
X44212Y-45737D01*
X44197Y-45676D01*
X44197Y-45631D01*
X44212Y-45570D01*
X44227Y-45539D01*
X44258Y-45509D01*
X44304Y-45494D01*
X44334Y-45494D01*
X44380Y-45509D01*
X44395Y-45524D01*
X44700Y-45814D02*
X44517Y-45814D01*
X44608Y-45814D02*
X44608Y-45494D01*
X44578Y-45539D01*
X44547Y-45570D01*
X44517Y-45585D01*
X45105Y-46883D02*
X45105Y-47066D01*
X45105Y-46974D02*
X44785Y-46974D01*
X44831Y-47005D01*
X44861Y-47035D01*
X44876Y-47066D01*
X44892Y-46609D02*
X45105Y-46609D01*
X44892Y-46746D02*
X45059Y-46746D01*
X45090Y-46731D01*
X45105Y-46700D01*
X45105Y-46654D01*
X45090Y-46624D01*
X45074Y-46609D01*
X44937Y-46350D02*
X44937Y-46456D01*
X45105Y-46456D02*
X44785Y-46456D01*
X44785Y-46304D01*
X42426Y-47791D02*
X42411Y-47806D01*
X42366Y-47821D01*
X42335Y-47821D01*
X42289Y-47806D01*
X42259Y-47776D01*
X42244Y-47745D01*
X42228Y-47684D01*
X42228Y-47639D01*
X42244Y-47578D01*
X42259Y-47547D01*
X42289Y-47517D01*
X42335Y-47501D01*
X42366Y-47501D01*
X42411Y-47517D01*
X42426Y-47532D01*
X42533Y-47501D02*
X42731Y-47501D01*
X42625Y-47623D01*
X42670Y-47623D01*
X42701Y-47639D01*
X42716Y-47654D01*
X42731Y-47684D01*
X42731Y-47760D01*
X42716Y-47791D01*
X42701Y-47806D01*
X42670Y-47821D01*
X42579Y-47821D01*
X42548Y-47806D01*
X42533Y-47791D01*
X41955Y-46602D02*
X41955Y-46785D01*
X41955Y-46694D02*
X41635Y-46694D01*
X41681Y-46724D01*
X41711Y-46755D01*
X41727Y-46785D01*
X41635Y-46404D02*
X41635Y-46374D01*
X41651Y-46343D01*
X41666Y-46328D01*
X41696Y-46313D01*
X41757Y-46297D01*
X41833Y-46297D01*
X41894Y-46313D01*
X41925Y-46328D01*
X41940Y-46343D01*
X41955Y-46374D01*
X41955Y-46404D01*
X41940Y-46435D01*
X41925Y-46450D01*
X41894Y-46465D01*
X41833Y-46480D01*
X41757Y-46480D01*
X41696Y-46465D01*
X41666Y-46450D01*
X41651Y-46435D01*
X41635Y-46404D01*
X41742Y-46023D02*
X41955Y-46023D01*
X41742Y-46160D02*
X41910Y-46160D01*
X41940Y-46145D01*
X41955Y-46115D01*
X41955Y-46069D01*
X41940Y-46038D01*
X41925Y-46023D01*
X41788Y-45764D02*
X41788Y-45871D01*
X41955Y-45871D02*
X41635Y-45871D01*
X41635Y-45718D01*
X49636Y-42231D02*
X49530Y-42078D01*
X49453Y-42231D02*
X49453Y-41911D01*
X49575Y-41911D01*
X49606Y-41926D01*
X49621Y-41941D01*
X49636Y-41972D01*
X49636Y-42018D01*
X49621Y-42048D01*
X49606Y-42063D01*
X49575Y-42078D01*
X49453Y-42078D01*
X49941Y-42231D02*
X49758Y-42231D01*
X49850Y-42231D02*
X49850Y-41911D01*
X49819Y-41957D01*
X49789Y-41987D01*
X49758Y-42002D01*
X50215Y-42018D02*
X50215Y-42231D01*
X50139Y-41896D02*
X50063Y-42124D01*
X50261Y-42124D01*
X51798Y-46544D02*
X51645Y-46650D01*
X51798Y-46727D02*
X51478Y-46727D01*
X51478Y-46605D01*
X51493Y-46574D01*
X51508Y-46559D01*
X51539Y-46544D01*
X51584Y-46544D01*
X51615Y-46559D01*
X51630Y-46574D01*
X51645Y-46605D01*
X51645Y-46727D01*
X51798Y-46239D02*
X51798Y-46422D01*
X51798Y-46330D02*
X51478Y-46330D01*
X51524Y-46361D01*
X51554Y-46391D01*
X51569Y-46422D01*
X51478Y-45950D02*
X51478Y-46102D01*
X51630Y-46117D01*
X51615Y-46102D01*
X51600Y-46071D01*
X51600Y-45995D01*
X51615Y-45965D01*
X51630Y-45950D01*
X51661Y-45934D01*
X51737Y-45934D01*
X51767Y-45950D01*
X51783Y-45965D01*
X51798Y-45995D01*
X51798Y-46071D01*
X51783Y-46102D01*
X51767Y-46117D01*
X50927Y-46517D02*
X50957Y-46517D01*
X50988Y-46532D01*
X51003Y-46548D01*
X51018Y-46578D01*
X51033Y-46639D01*
X51033Y-46715D01*
X51018Y-46776D01*
X51003Y-46807D01*
X50988Y-46822D01*
X50957Y-46837D01*
X50927Y-46837D01*
X50896Y-46822D01*
X50881Y-46807D01*
X50866Y-46776D01*
X50850Y-46715D01*
X50850Y-46639D01*
X50866Y-46578D01*
X50881Y-46548D01*
X50896Y-46532D01*
X50927Y-46517D01*
X51353Y-46837D02*
X51247Y-46685D01*
X51170Y-46837D02*
X51170Y-46517D01*
X51292Y-46517D01*
X51323Y-46532D01*
X51338Y-46548D01*
X51353Y-46578D01*
X51353Y-46624D01*
X51338Y-46654D01*
X51323Y-46670D01*
X51292Y-46685D01*
X51170Y-46685D01*
X42313Y-39783D02*
X42313Y-40045D01*
X42328Y-40075D01*
X42343Y-40091D01*
X42374Y-40106D01*
X42436Y-40106D01*
X42466Y-40091D01*
X42482Y-40075D01*
X42497Y-40045D01*
X42497Y-39783D01*
X42635Y-39814D02*
X42651Y-39799D01*
X42681Y-39783D01*
X42758Y-39783D01*
X42789Y-39799D01*
X42804Y-39814D01*
X42820Y-39845D01*
X42820Y-39876D01*
X42804Y-39922D01*
X42620Y-40106D01*
X42820Y-40106D01*
X42539Y-43454D02*
X42539Y-43238D01*
X42862Y-43377D01*
X42647Y-42977D02*
X42862Y-42977D01*
X42524Y-43054D02*
X42754Y-43131D01*
X42754Y-42931D01*
X42862Y-42808D02*
X42539Y-42808D01*
X42693Y-42808D02*
X42693Y-42624D01*
X42862Y-42624D02*
X42539Y-42624D01*
X42831Y-42286D02*
X42847Y-42301D01*
X42862Y-42347D01*
X42862Y-42378D01*
X42847Y-42424D01*
X42816Y-42455D01*
X42785Y-42470D01*
X42724Y-42486D01*
X42678Y-42486D01*
X42616Y-42470D01*
X42585Y-42455D01*
X42555Y-42424D01*
X42539Y-42378D01*
X42539Y-42347D01*
X42555Y-42301D01*
X42570Y-42286D01*
X42539Y-41994D02*
X42539Y-42148D01*
X42693Y-42163D01*
X42678Y-42148D01*
X42662Y-42117D01*
X42662Y-42040D01*
X42678Y-42009D01*
X42693Y-41994D01*
X42724Y-41979D01*
X42801Y-41979D01*
X42831Y-41994D01*
X42847Y-42009D01*
X42862Y-42040D01*
X42862Y-42117D01*
X42847Y-42148D01*
X42831Y-42163D01*
X42862Y-41825D02*
X42862Y-41763D01*
X42847Y-41733D01*
X42831Y-41717D01*
X42785Y-41687D01*
X42724Y-41671D01*
X42601Y-41671D01*
X42570Y-41687D01*
X42555Y-41702D01*
X42539Y-41733D01*
X42539Y-41794D01*
X42555Y-41825D01*
X42570Y-41840D01*
X42601Y-41856D01*
X42678Y-41856D01*
X42708Y-41840D01*
X42724Y-41825D01*
X42739Y-41794D01*
X42739Y-41733D01*
X42724Y-41702D01*
X42708Y-41687D01*
X42678Y-41671D01*
X42539Y-41379D02*
X42539Y-41533D01*
X42693Y-41548D01*
X42678Y-41533D01*
X42662Y-41502D01*
X42662Y-41425D01*
X42678Y-41395D01*
X42693Y-41379D01*
X42724Y-41364D01*
X42801Y-41364D01*
X42831Y-41379D01*
X42847Y-41395D01*
X42862Y-41425D01*
X42862Y-41502D01*
X42847Y-41533D01*
X42831Y-41548D01*
X56985Y-44116D02*
X57198Y-44436D01*
X57198Y-44116D02*
X56985Y-44436D01*
X57487Y-44436D02*
X57305Y-44436D01*
X57396Y-44436D02*
X57396Y-44116D01*
X57365Y-44161D01*
X57335Y-44192D01*
X57305Y-44207D01*
X56764Y-46438D02*
X56962Y-46438D01*
X56855Y-46560D01*
X56901Y-46560D01*
X56931Y-46576D01*
X56946Y-46591D01*
X56962Y-46621D01*
X56962Y-46697D01*
X56946Y-46728D01*
X56931Y-46743D01*
X56901Y-46758D01*
X56809Y-46758D01*
X56779Y-46743D01*
X56764Y-46728D01*
X57084Y-46469D02*
X57099Y-46454D01*
X57129Y-46438D01*
X57206Y-46438D01*
X57236Y-46454D01*
X57251Y-46469D01*
X57266Y-46499D01*
X57266Y-46530D01*
X57251Y-46576D01*
X57068Y-46758D01*
X57266Y-46758D01*
X57404Y-46758D02*
X57404Y-46438D01*
X57586Y-46758D02*
X57449Y-46576D01*
X57586Y-46438D02*
X57404Y-46621D01*
X57724Y-46758D02*
X57724Y-46438D01*
X57724Y-46591D02*
X57906Y-46591D01*
X57906Y-46758D02*
X57906Y-46438D01*
X58028Y-46545D02*
X58196Y-46545D01*
X58028Y-46758D01*
X58196Y-46758D01*
X55773Y-43382D02*
X55758Y-43397D01*
X55712Y-43412D01*
X55682Y-43412D01*
X55636Y-43397D01*
X55605Y-43366D01*
X55590Y-43336D01*
X55575Y-43275D01*
X55575Y-43229D01*
X55590Y-43168D01*
X55605Y-43138D01*
X55636Y-43107D01*
X55682Y-43092D01*
X55712Y-43092D01*
X55758Y-43107D01*
X55773Y-43122D01*
X56062Y-43092D02*
X55910Y-43092D01*
X55895Y-43244D01*
X55910Y-43229D01*
X55941Y-43214D01*
X56017Y-43214D01*
X56047Y-43229D01*
X56062Y-43244D01*
X56078Y-43275D01*
X56078Y-43351D01*
X56062Y-43382D01*
X56047Y-43397D01*
X56017Y-43412D01*
X55941Y-43412D01*
X55910Y-43397D01*
X55895Y-43382D01*
X55499Y-42592D02*
X55499Y-42774D01*
X55499Y-42683D02*
X55179Y-42683D01*
X55224Y-42713D01*
X55255Y-42744D01*
X55270Y-42774D01*
X55285Y-42454D02*
X55499Y-42454D01*
X55316Y-42454D02*
X55300Y-42439D01*
X55285Y-42409D01*
X55285Y-42363D01*
X55300Y-42333D01*
X55331Y-42317D01*
X55499Y-42317D01*
X55331Y-42058D02*
X55331Y-42165D01*
X55499Y-42165D02*
X55179Y-42165D01*
X55179Y-42013D01*
G54D17*
X53827Y-41566D02*
X53630Y-41285D01*
X53489Y-41566D02*
X53489Y-40975D01*
X53714Y-40975D01*
X53771Y-41003D01*
X53799Y-41032D01*
X53827Y-41088D01*
X53827Y-41172D01*
X53799Y-41228D01*
X53771Y-41257D01*
X53714Y-41285D01*
X53489Y-41285D01*
X54080Y-41257D02*
X54277Y-41257D01*
X54361Y-41566D02*
X54080Y-41566D01*
X54080Y-40975D01*
X54361Y-40975D01*
X54586Y-41538D02*
X54670Y-41566D01*
X54811Y-41566D01*
X54867Y-41538D01*
X54895Y-41510D01*
X54924Y-41453D01*
X54924Y-41397D01*
X54895Y-41341D01*
X54867Y-41313D01*
X54811Y-41285D01*
X54699Y-41257D01*
X54642Y-41228D01*
X54614Y-41200D01*
X54586Y-41144D01*
X54586Y-41088D01*
X54614Y-41032D01*
X54642Y-41003D01*
X54699Y-40975D01*
X54839Y-40975D01*
X54924Y-41003D01*
X55177Y-41257D02*
X55374Y-41257D01*
X55458Y-41566D02*
X55177Y-41566D01*
X55177Y-40975D01*
X55458Y-40975D01*
X55627Y-40975D02*
X55964Y-40975D01*
X55795Y-41566D02*
X55795Y-40975D01*
%LPC*%
G54D18*
X52712Y-45307D03*
X51712Y-45307D03*
X50712Y-45307D03*
X49712Y-45307D03*
X48712Y-45307D03*
X47712Y-45307D03*
X46712Y-45307D03*
X45712Y-45307D03*
X45712Y-41307D03*
X46712Y-41307D03*
X47712Y-41307D03*
X48712Y-41307D03*
X49712Y-41307D03*
X50712Y-41307D03*
X51712Y-41307D03*
X52712Y-41307D03*
G54D19*
X58464Y-42397D03*
X58464Y-43397D03*
X58464Y-44397D03*
X58464Y-45397D03*
G54D20*
X43937Y-45314D03*
X43228Y-45314D03*
X53582Y-44724D03*
X54291Y-44724D03*
G54D21*
X51340Y-43897D03*
X52438Y-43522D03*
X52438Y-44272D03*
G54D22*
X49685Y-46183D03*
X50060Y-47281D03*
X49310Y-47281D03*
X47716Y-46183D03*
X48091Y-47281D03*
X47341Y-47281D03*
X45708Y-46183D03*
X46083Y-47281D03*
X45333Y-47281D03*
G54D20*
X45000Y-44606D03*
G54D23*
X44291Y-44606D03*
G54D20*
X45000Y-44133D03*
X44291Y-44133D03*
X45000Y-43661D03*
X44291Y-43661D03*
X45000Y-43188D03*
X44291Y-43188D03*
X45000Y-42716D03*
X44291Y-42716D03*
X45000Y-42244D03*
X44291Y-42244D03*
X45000Y-41771D03*
X44291Y-41771D03*
X45000Y-41259D03*
X44291Y-41259D03*
X53779Y-43897D03*
X53070Y-43897D03*
G54D24*
X50590Y-47047D03*
X50590Y-46338D03*
X48700Y-46338D03*
X48700Y-47047D03*
X46732Y-46338D03*
X46732Y-47047D03*
X57677Y-42047D03*
X57677Y-42755D03*
G54D25*
X54094Y-45147D03*
X54094Y-45403D03*
X54094Y-45659D03*
X54094Y-45915D03*
X54094Y-46171D03*
X54094Y-46427D03*
X54094Y-46683D03*
X54094Y-46938D03*
X54094Y-47194D03*
X54094Y-47450D03*
X56299Y-47450D03*
X56299Y-47194D03*
X56299Y-46938D03*
X56299Y-46683D03*
X56299Y-46427D03*
X56299Y-46171D03*
X56299Y-45915D03*
X56299Y-45659D03*
X56299Y-45403D03*
X56299Y-45147D03*
G54D26*
X43128Y-47045D03*
X43878Y-47045D03*
X43128Y-45946D03*
X43503Y-47045D03*
X43878Y-45946D03*
G54D27*
X44448Y-46200D03*
X44448Y-47106D03*
G54D28*
X42480Y-45679D03*
X42480Y-47076D03*
G54D20*
X48425Y-42047D03*
X49133Y-42047D03*
G54D24*
X51102Y-46338D03*
X51102Y-47047D03*
G54D29*
X44212Y-48622D03*
X45212Y-48622D03*
X46212Y-48622D03*
X47212Y-48622D03*
X48212Y-48622D03*
X49212Y-48622D03*
X50212Y-48622D03*
X51212Y-48622D03*
X52212Y-48622D03*
X53212Y-48622D03*
X54212Y-48622D03*
G54D30*
X43435Y-44151D03*
X43435Y-43651D03*
X43435Y-43151D03*
X43435Y-42651D03*
X43435Y-42151D03*
X43435Y-41651D03*
X43435Y-41151D03*
X43435Y-40651D03*
X41604Y-40651D03*
X41604Y-41151D03*
X41604Y-41651D03*
X41604Y-42151D03*
X41604Y-42651D03*
X41604Y-43151D03*
X41604Y-43651D03*
X41604Y-44151D03*
G54D31*
X57244Y-44842D03*
X57244Y-46023D03*
G54D24*
X55826Y-42755D03*
X55826Y-42047D03*
G54D32*
X56732Y-39960D03*
X56732Y-42952D03*
M02*
