M48
;DRILL file {Pcbnew (2014-02-28 BZR 4729)-product} date man 03 mar 2014 19:53:37 CET
;FORMAT={2:4/ absolute / inch / suppress leading zeros}
FMAT,2
INCH,TZ
T1C0.025
T2C0.032
T3C0.040
T4C0.098
%
G90
G05
M72
T1
X1535Y14882
X1575Y17795
X2087Y8268
X2087Y7717
X2323Y2677
X2520Y5512
X2913Y16535
X3228Y5748
X3346Y7874
X3740Y11378
X3740Y7008
X3819Y4449
X4134Y13386
X4567Y3110
X4882Y18346
X5079Y4094
X5748Y8189
X6024Y5236
X6181Y7244
X7165Y4685
X7402Y7598
X7835Y12992
X8504Y5157
X8858Y6772
X8898Y12992
X9488Y16693
X10197Y2992
X10787Y6693
X10827Y12913
X11181Y14528
X11850Y6693
X12283Y12087
X12520Y15000
X13504Y12441
X13661Y14449
X13937Y11496
X14606Y15591
X14803Y1339
X15118Y16575
X15551Y6299
X15866Y15236
X15945Y12677
X15945Y8307
X16339Y11811
X16457Y13937
X16772Y3150
X17165Y14173
X17362Y17008
X17598Y11969
X17598Y11417
X18110Y1890
X18150Y4803
T2
X6343Y17748
X6343Y13748
X6343Y5937
X6343Y1937
X7343Y17748
X7343Y13748
X7343Y5937
X7343Y1937
X8343Y17748
X8343Y13748
X8343Y5937
X8343Y1937
X9343Y17748
X9343Y13748
X9343Y5937
X9343Y1937
X10343Y17748
X10343Y13748
X10343Y5937
X10343Y1937
X11343Y17748
X11343Y13748
X11343Y5937
X11343Y1937
X12343Y17748
X12343Y13748
X12343Y5937
X12343Y1937
X13343Y17748
X13343Y13748
X13343Y5937
X13343Y1937
T3
X591Y17354
X591Y16354
X591Y15354
X591Y14354
X591Y13354
X591Y5831
X591Y4831
X591Y3831
X591Y2831
X4843Y10433
X4843Y9252
X5843Y10433
X5843Y9252
X6843Y10433
X6843Y9252
X7843Y10433
X7843Y9252
X8843Y10433
X8843Y9252
X9843Y10433
X9843Y9252
X10843Y10433
X10843Y9252
X11843Y10433
X11843Y9252
X12843Y10433
X12843Y9252
X13843Y10433
X13843Y9252
X14843Y10433
X14843Y9252
X19094Y16854
X19094Y15854
X19094Y14854
X19094Y13854
X19094Y6331
X19094Y5331
X19094Y4331
X19094Y3331
X19094Y2331
T4
X787Y18898
X787Y11811
X787Y7874
X787Y787
X18898Y18898
X18898Y11811
X18898Y7874
X18898Y787
T0
M30
