%FSLAX34Y34*%
G04 Gerber Fmt 3.4, Leading zero omitted, Abs format*
G04 (created by PCBNEW (2014-02-28 BZR 4729)-product) date man 03 mar 2014 20:37:32 CET*
%MOIN*%
G01*
G70*
G90*
G04 APERTURE LIST*
%ADD10C,0.005906*%
%ADD11C,0.007874*%
%ADD12C,0.009843*%
%ADD13C,0.015000*%
%ADD14C,0.008000*%
%ADD15C,0.003100*%
%ADD16C,0.005000*%
%ADD17C,0.006890*%
%ADD18C,0.006000*%
%ADD19C,0.011811*%
%ADD20O,0.064961X0.100000*%
%ADD21O,0.100000X0.065000*%
%ADD22R,0.035433X0.031496*%
%ADD23R,0.050000X0.031496*%
%ADD24R,0.031496X0.050000*%
%ADD25R,0.035433X0.027559*%
%ADD26R,0.031496X0.035433*%
%ADD27R,0.062992X0.011811*%
%ADD28R,0.020000X0.050000*%
%ADD29R,0.051181X0.043307*%
%ADD30R,0.066929X0.051181*%
%ADD31O,0.065000X0.100000*%
%ADD32R,0.093701X0.021969*%
%ADD33R,0.070866X0.059055*%
%ADD34R,0.062992X0.059055*%
G04 APERTURE END LIST*
G54D10*
G54D11*
X-7125Y4133D02*
X-6811Y4133D01*
X-6968Y3976D02*
X-6968Y4291D01*
G54D12*
X-4949Y9029D02*
X-4949Y9521D01*
X-4780Y9029D02*
X-4780Y9287D01*
X-4799Y9333D01*
X-4836Y9357D01*
X-4893Y9357D01*
X-4930Y9333D01*
X-4949Y9310D01*
X-4649Y9357D02*
X-4499Y9357D01*
X-4593Y9521D02*
X-4593Y9099D01*
X-4574Y9052D01*
X-4536Y9029D01*
X-4499Y9029D01*
X-4424Y9357D02*
X-4274Y9357D01*
X-4368Y9521D02*
X-4368Y9099D01*
X-4349Y9052D01*
X-4311Y9029D01*
X-4274Y9029D01*
X-4143Y9357D02*
X-4143Y8865D01*
X-4143Y9333D02*
X-4105Y9357D01*
X-4030Y9357D01*
X-3993Y9333D01*
X-3974Y9310D01*
X-3955Y9263D01*
X-3955Y9123D01*
X-3974Y9076D01*
X-3993Y9052D01*
X-4030Y9029D01*
X-4105Y9029D01*
X-4143Y9052D01*
X-3787Y9076D02*
X-3768Y9052D01*
X-3787Y9029D01*
X-3805Y9052D01*
X-3787Y9076D01*
X-3787Y9029D01*
X-3787Y9333D02*
X-3768Y9310D01*
X-3787Y9287D01*
X-3805Y9310D01*
X-3787Y9333D01*
X-3787Y9287D01*
X-3318Y9544D02*
X-3655Y8912D01*
X-2905Y9544D02*
X-3243Y8912D01*
X-2718Y9029D02*
X-2755Y9052D01*
X-2774Y9099D01*
X-2774Y9521D01*
X-2399Y9029D02*
X-2399Y9287D01*
X-2418Y9333D01*
X-2455Y9357D01*
X-2530Y9357D01*
X-2568Y9333D01*
X-2399Y9052D02*
X-2437Y9029D01*
X-2530Y9029D01*
X-2568Y9052D01*
X-2587Y9099D01*
X-2587Y9146D01*
X-2568Y9193D01*
X-2530Y9216D01*
X-2437Y9216D01*
X-2399Y9240D01*
X-2212Y9029D02*
X-2212Y9521D01*
X-2212Y9333D02*
X-2174Y9357D01*
X-2099Y9357D01*
X-2062Y9333D01*
X-2043Y9310D01*
X-2024Y9263D01*
X-2024Y9123D01*
X-2043Y9076D01*
X-2062Y9052D01*
X-2099Y9029D01*
X-2174Y9029D01*
X-2212Y9052D01*
X-1856Y9076D02*
X-1837Y9052D01*
X-1856Y9029D01*
X-1874Y9052D01*
X-1856Y9076D01*
X-1856Y9029D01*
X-1668Y9029D02*
X-1668Y9521D01*
X-1631Y9216D02*
X-1518Y9029D01*
X-1518Y9357D02*
X-1668Y9169D01*
X-1349Y9357D02*
X-1349Y8935D01*
X-1368Y8888D01*
X-1406Y8865D01*
X-1424Y8865D01*
X-1349Y9521D02*
X-1368Y9498D01*
X-1349Y9474D01*
X-1331Y9498D01*
X-1349Y9521D01*
X-1349Y9474D01*
X-1106Y9029D02*
X-1143Y9052D01*
X-1162Y9099D01*
X-1162Y9521D01*
X-956Y9029D02*
X-956Y9357D01*
X-956Y9263D02*
X-937Y9310D01*
X-918Y9333D01*
X-881Y9357D01*
X-843Y9357D01*
X-712Y9076D02*
X-693Y9052D01*
X-712Y9029D01*
X-731Y9052D01*
X-712Y9076D01*
X-712Y9029D01*
X-356Y9029D02*
X-356Y9521D01*
X-356Y9052D02*
X-393Y9029D01*
X-468Y9029D01*
X-506Y9052D01*
X-524Y9076D01*
X-543Y9123D01*
X-543Y9263D01*
X-524Y9310D01*
X-506Y9333D01*
X-468Y9357D01*
X-393Y9357D01*
X-356Y9333D01*
X-168Y9029D02*
X-168Y9521D01*
X-131Y9216D02*
X-18Y9029D01*
X-18Y9357D02*
X-168Y9169D01*
X431Y9544D02*
X93Y8912D01*
X562Y9357D02*
X562Y8865D01*
X562Y9333D02*
X599Y9357D01*
X674Y9357D01*
X712Y9333D01*
X731Y9310D01*
X749Y9263D01*
X749Y9123D01*
X731Y9076D01*
X712Y9052D01*
X674Y9029D01*
X599Y9029D01*
X562Y9052D01*
X1199Y9544D02*
X862Y8912D01*
X1331Y9029D02*
X1331Y9357D01*
X1331Y9310D02*
X1349Y9333D01*
X1387Y9357D01*
X1443Y9357D01*
X1481Y9333D01*
X1499Y9287D01*
X1499Y9029D01*
X1499Y9287D02*
X1518Y9333D01*
X1556Y9357D01*
X1612Y9357D01*
X1649Y9333D01*
X1668Y9287D01*
X1668Y9029D01*
X1856Y9029D02*
X1856Y9357D01*
X1856Y9521D02*
X1837Y9498D01*
X1856Y9474D01*
X1874Y9498D01*
X1856Y9521D01*
X1856Y9474D01*
X2043Y9357D02*
X2043Y9029D01*
X2043Y9310D02*
X2062Y9333D01*
X2099Y9357D01*
X2155Y9357D01*
X2193Y9333D01*
X2212Y9287D01*
X2212Y9029D01*
X2399Y9029D02*
X2399Y9357D01*
X2399Y9521D02*
X2380Y9498D01*
X2399Y9474D01*
X2418Y9498D01*
X2399Y9521D01*
X2399Y9474D01*
X2568Y9052D02*
X2605Y9029D01*
X2680Y9029D01*
X2718Y9052D01*
X2737Y9099D01*
X2737Y9123D01*
X2718Y9169D01*
X2680Y9193D01*
X2624Y9193D01*
X2587Y9216D01*
X2568Y9263D01*
X2568Y9287D01*
X2587Y9333D01*
X2624Y9357D01*
X2680Y9357D01*
X2718Y9333D01*
X2905Y9357D02*
X2905Y8865D01*
X2905Y9333D02*
X2943Y9357D01*
X3018Y9357D01*
X3055Y9333D01*
X3074Y9310D01*
X3093Y9263D01*
X3093Y9123D01*
X3074Y9076D01*
X3055Y9052D01*
X3018Y9029D01*
X2943Y9029D01*
X2905Y9052D01*
X3262Y9216D02*
X3562Y9216D01*
X3712Y9521D02*
X3974Y9521D01*
X3805Y9029D01*
X4105Y9052D02*
X4143Y9029D01*
X4218Y9029D01*
X4255Y9052D01*
X4274Y9099D01*
X4274Y9123D01*
X4255Y9169D01*
X4218Y9193D01*
X4161Y9193D01*
X4124Y9216D01*
X4105Y9263D01*
X4105Y9287D01*
X4124Y9333D01*
X4161Y9357D01*
X4218Y9357D01*
X4255Y9333D01*
X4593Y9052D02*
X4555Y9029D01*
X4480Y9029D01*
X4443Y9052D01*
X4424Y9099D01*
X4424Y9287D01*
X4443Y9333D01*
X4480Y9357D01*
X4555Y9357D01*
X4593Y9333D01*
X4611Y9287D01*
X4611Y9240D01*
X4424Y9193D01*
X4949Y9357D02*
X4949Y8959D01*
X4930Y8912D01*
X4911Y8888D01*
X4874Y8865D01*
X4818Y8865D01*
X4780Y8888D01*
X4949Y9052D02*
X4911Y9029D01*
X4836Y9029D01*
X4799Y9052D01*
X4780Y9076D01*
X4761Y9123D01*
X4761Y9263D01*
X4780Y9310D01*
X4799Y9333D01*
X4836Y9357D01*
X4911Y9357D01*
X4949Y9333D01*
G54D13*
X-1311Y5240D02*
X-1169Y4661D01*
X-1169Y4661D02*
X-1059Y5079D01*
X-1059Y5079D02*
X-937Y4657D01*
X-937Y4657D02*
X-803Y5228D01*
X-1870Y4968D02*
X-1559Y4972D01*
X-1559Y4972D02*
X-1555Y4968D01*
X-1555Y4968D02*
X-1555Y4972D01*
X-1539Y5252D02*
X-1539Y4645D01*
X-1889Y5256D02*
X-1889Y4638D01*
X-1889Y4638D02*
X-1885Y4642D01*
X-2106Y5216D02*
X-2244Y5248D01*
X-2244Y5248D02*
X-2370Y5252D01*
X-2370Y5252D02*
X-2464Y5173D01*
X-2464Y5173D02*
X-2476Y5067D01*
X-2476Y5067D02*
X-2381Y4972D01*
X-2381Y4972D02*
X-2228Y4921D01*
X-2228Y4921D02*
X-2157Y4858D01*
X-2157Y4858D02*
X-2141Y4740D01*
X-2141Y4740D02*
X-2232Y4653D01*
X-2232Y4653D02*
X-2358Y4642D01*
X-2358Y4642D02*
X-2496Y4685D01*
X-2905Y5256D02*
X-3003Y5248D01*
X-3003Y5248D02*
X-3098Y5153D01*
X-3098Y5153D02*
X-3133Y4960D01*
X-3133Y4960D02*
X-3122Y4823D01*
X-3122Y4823D02*
X-3043Y4697D01*
X-3043Y4697D02*
X-2944Y4649D01*
X-2944Y4649D02*
X-2822Y4677D01*
X-2822Y4677D02*
X-2736Y4748D01*
X-2736Y4748D02*
X-2708Y4929D01*
X-2708Y4929D02*
X-2728Y5090D01*
X-2728Y5090D02*
X-2771Y5201D01*
X-2771Y5201D02*
X-2913Y5252D01*
X-2669Y5933D02*
X-2771Y5712D01*
X-2771Y5712D02*
X-2559Y5508D01*
X-2559Y5508D02*
X-2354Y5614D01*
X-2354Y5614D02*
X-2244Y5551D01*
X-1677Y5559D02*
X-1547Y5634D01*
X-1547Y5634D02*
X-1374Y5504D01*
X-1374Y5504D02*
X-1188Y5697D01*
X-1188Y5697D02*
X-1299Y5886D01*
X-1299Y5886D02*
X-1224Y6071D01*
X-1224Y6071D02*
X-984Y6145D01*
X-984Y6145D02*
X-984Y6413D01*
X-984Y6413D02*
X-1204Y6468D01*
X-1204Y6468D02*
X-1283Y6693D01*
X-1283Y6693D02*
X-1177Y6878D01*
X-1177Y6878D02*
X-1362Y7079D01*
X-1362Y7079D02*
X-1566Y6976D01*
X-1566Y6976D02*
X-1751Y7055D01*
X-1751Y7055D02*
X-1818Y7268D01*
X-1818Y7268D02*
X-2090Y7275D01*
X-2090Y7275D02*
X-2173Y7059D01*
X-2173Y7059D02*
X-2338Y6992D01*
X-2338Y6992D02*
X-2555Y7098D01*
X-2555Y7098D02*
X-2759Y6890D01*
X-2759Y6890D02*
X-2661Y6677D01*
X-2661Y6677D02*
X-2728Y6488D01*
X-2728Y6488D02*
X-2944Y6449D01*
X-2944Y6449D02*
X-2948Y6173D01*
X-2948Y6173D02*
X-2728Y6094D01*
X-2728Y6094D02*
X-2673Y5937D01*
X-1830Y5945D02*
X-1712Y6004D01*
X-1712Y6004D02*
X-1633Y6082D01*
X-1633Y6082D02*
X-1574Y6240D01*
X-1574Y6240D02*
X-1574Y6397D01*
X-1574Y6397D02*
X-1633Y6535D01*
X-1633Y6535D02*
X-1811Y6673D01*
X-1811Y6673D02*
X-1988Y6693D01*
X-1988Y6693D02*
X-2145Y6653D01*
X-2145Y6653D02*
X-2303Y6516D01*
X-2303Y6516D02*
X-2362Y6338D01*
X-2362Y6338D02*
X-2342Y6142D01*
X-2342Y6142D02*
X-2244Y6023D01*
X-2244Y6023D02*
X-2106Y5945D01*
X-2106Y5945D02*
X-2244Y5551D01*
X-1830Y5945D02*
X-1673Y5551D01*
G54D14*
X-6102Y4102D02*
X-6208Y4102D01*
X-6208Y4102D02*
X-6208Y3692D01*
X-6208Y3692D02*
X-6102Y3692D01*
X-5157Y3692D02*
X-5051Y3692D01*
X-5051Y3692D02*
X-5051Y4102D01*
X-5051Y4102D02*
X-5157Y4102D01*
X5196Y4283D02*
X5303Y4283D01*
X5303Y4283D02*
X5303Y4692D01*
X5303Y4692D02*
X5196Y4692D01*
X4251Y4692D02*
X4145Y4692D01*
X4145Y4692D02*
X4145Y4283D01*
X4145Y4283D02*
X4251Y4283D01*
G54D15*
X2877Y4851D02*
G75*
G03X2877Y4851I-62J0D01*
G74*
G01*
X2477Y5814D02*
X2877Y5814D01*
X2477Y4789D02*
X2877Y4789D01*
X2877Y5814D02*
X2877Y4789D01*
X2477Y4789D02*
X2477Y5814D01*
X72Y2342D02*
G75*
G03X72Y2342I-62J0D01*
G74*
G01*
X972Y2680D02*
X972Y2280D01*
X-52Y2680D02*
X-52Y2280D01*
X972Y2280D02*
X-52Y2280D01*
X-52Y2680D02*
X972Y2680D01*
X-1896Y2342D02*
G75*
G03X-1896Y2342I-62J0D01*
G74*
G01*
X-996Y2680D02*
X-996Y2280D01*
X-2021Y2680D02*
X-2021Y2280D01*
X-996Y2280D02*
X-2021Y2280D01*
X-2021Y2680D02*
X-996Y2680D01*
X-3904Y2342D02*
G75*
G03X-3904Y2342I-62J0D01*
G74*
G01*
X-3003Y2680D02*
X-3003Y2280D01*
X-4028Y2680D02*
X-4028Y2280D01*
X-3003Y2280D02*
X-4028Y2280D01*
X-4028Y2680D02*
X-3003Y2680D01*
G54D14*
X-5039Y4811D02*
X-5145Y4811D01*
X-5145Y4811D02*
X-5145Y4401D01*
X-5145Y4401D02*
X-5039Y4401D01*
X-4094Y4401D02*
X-3988Y4401D01*
X-3988Y4401D02*
X-3988Y4811D01*
X-3988Y4811D02*
X-4094Y4811D01*
X-5039Y5283D02*
X-5145Y5283D01*
X-5145Y5283D02*
X-5145Y4874D01*
X-5145Y4874D02*
X-5039Y4874D01*
X-4094Y4874D02*
X-3988Y4874D01*
X-3988Y4874D02*
X-3988Y5283D01*
X-3988Y5283D02*
X-4094Y5283D01*
X-5039Y5755D02*
X-5145Y5755D01*
X-5145Y5755D02*
X-5145Y5346D01*
X-5145Y5346D02*
X-5039Y5346D01*
X-4094Y5346D02*
X-3988Y5346D01*
X-3988Y5346D02*
X-3988Y5755D01*
X-3988Y5755D02*
X-4094Y5755D01*
X-5039Y6228D02*
X-5145Y6228D01*
X-5145Y6228D02*
X-5145Y5818D01*
X-5145Y5818D02*
X-5039Y5818D01*
X-4094Y5818D02*
X-3988Y5818D01*
X-3988Y5818D02*
X-3988Y6228D01*
X-3988Y6228D02*
X-4094Y6228D01*
X-5039Y6700D02*
X-5145Y6700D01*
X-5145Y6700D02*
X-5145Y6291D01*
X-5145Y6291D02*
X-5039Y6291D01*
X-4094Y6291D02*
X-3988Y6291D01*
X-3988Y6291D02*
X-3988Y6700D01*
X-3988Y6700D02*
X-4094Y6700D01*
X-5039Y7173D02*
X-5145Y7173D01*
X-5145Y7173D02*
X-5145Y6763D01*
X-5145Y6763D02*
X-5039Y6763D01*
X-4094Y6763D02*
X-3988Y6763D01*
X-3988Y6763D02*
X-3988Y7173D01*
X-3988Y7173D02*
X-4094Y7173D01*
X-5039Y7645D02*
X-5145Y7645D01*
X-5145Y7645D02*
X-5145Y7236D01*
X-5145Y7236D02*
X-5039Y7236D01*
X-4094Y7236D02*
X-3988Y7236D01*
X-3988Y7236D02*
X-3988Y7645D01*
X-3988Y7645D02*
X-4094Y7645D01*
X-5039Y8157D02*
X-5145Y8157D01*
X-5145Y8157D02*
X-5145Y7748D01*
X-5145Y7748D02*
X-5039Y7748D01*
X-4094Y7748D02*
X-3988Y7748D01*
X-3988Y7748D02*
X-3988Y8157D01*
X-3988Y8157D02*
X-4094Y8157D01*
X3740Y5519D02*
X3633Y5519D01*
X3633Y5519D02*
X3633Y5110D01*
X3633Y5110D02*
X3740Y5110D01*
X4685Y5110D02*
X4791Y5110D01*
X4791Y5110D02*
X4791Y5519D01*
X4791Y5519D02*
X4685Y5519D01*
X1582Y2992D02*
X1582Y3098D01*
X1582Y3098D02*
X1173Y3098D01*
X1173Y3098D02*
X1173Y2992D01*
X1173Y2047D02*
X1173Y1940D01*
X1173Y1940D02*
X1582Y1940D01*
X1582Y1940D02*
X1582Y2047D01*
X-716Y2047D02*
X-716Y1940D01*
X-716Y1940D02*
X-307Y1940D01*
X-307Y1940D02*
X-307Y2047D01*
X-307Y2992D02*
X-307Y3098D01*
X-307Y3098D02*
X-716Y3098D01*
X-716Y3098D02*
X-716Y2992D01*
X-2685Y2047D02*
X-2685Y1940D01*
X-2685Y1940D02*
X-2275Y1940D01*
X-2275Y1940D02*
X-2275Y2047D01*
X-2275Y2992D02*
X-2275Y3098D01*
X-2275Y3098D02*
X-2685Y3098D01*
X-2685Y3098D02*
X-2685Y2992D01*
X8259Y6338D02*
X8259Y6232D01*
X8259Y6232D02*
X8669Y6232D01*
X8669Y6232D02*
X8669Y6338D01*
X8669Y7283D02*
X8669Y7389D01*
X8669Y7389D02*
X8259Y7389D01*
X8259Y7389D02*
X8259Y7283D01*
X5255Y1653D02*
X5255Y4173D01*
X5255Y4173D02*
X6712Y4173D01*
X6712Y4173D02*
X6712Y1653D01*
X6712Y1653D02*
X5255Y1653D01*
X5678Y3897D02*
G75*
G03X5678Y3897I-167J0D01*
G74*
G01*
G54D16*
X-5108Y3066D02*
X-5108Y2366D01*
X-5108Y2366D02*
X-6308Y2366D01*
X-6308Y2366D02*
X-6308Y3066D01*
X-6308Y3066D02*
X-5108Y3066D01*
G54D14*
X-5078Y2086D02*
X-5078Y1830D01*
X-5078Y1830D02*
X-4448Y1830D01*
X-4448Y1830D02*
X-4448Y2086D01*
X-4448Y3031D02*
X-4448Y3287D01*
X-4448Y3287D02*
X-5078Y3287D01*
X-5078Y3287D02*
X-5078Y3031D01*
X-7125Y2135D02*
X-7125Y1811D01*
X-7125Y1811D02*
X-6338Y1811D01*
X-6338Y1811D02*
X-6338Y2135D01*
X-6338Y3533D02*
X-6338Y3858D01*
X-6338Y3858D02*
X-7125Y3858D01*
X-7125Y3858D02*
X-7125Y3533D01*
X39Y6960D02*
X145Y6960D01*
X145Y6960D02*
X145Y7370D01*
X145Y7370D02*
X39Y7370D01*
X-905Y7370D02*
X-1011Y7370D01*
X-1011Y7370D02*
X-1011Y6960D01*
X-1011Y6960D02*
X-905Y6960D01*
X1685Y2047D02*
X1685Y1940D01*
X1685Y1940D02*
X2094Y1940D01*
X2094Y1940D02*
X2094Y2047D01*
X2094Y2992D02*
X2094Y3098D01*
X2094Y3098D02*
X1685Y3098D01*
X1685Y3098D02*
X1685Y2992D01*
X-7392Y4661D02*
X-7392Y8961D01*
X-7392Y8961D02*
X-5992Y8961D01*
X-5992Y8961D02*
X-5992Y4661D01*
X-5992Y4661D02*
X-7392Y4661D01*
X-6892Y4661D02*
X-6892Y4961D01*
X-6892Y4961D02*
X-6492Y4961D01*
X-6492Y4961D02*
X-6492Y4661D01*
X7618Y2972D02*
X7618Y4586D01*
X8444Y2972D02*
X8444Y4586D01*
X6818Y7283D02*
X6818Y7389D01*
X6818Y7389D02*
X6409Y7389D01*
X6409Y7389D02*
X6409Y7283D01*
X6409Y6338D02*
X6409Y6232D01*
X6409Y6232D02*
X6818Y6232D01*
X6818Y6232D02*
X6818Y6338D01*
G54D10*
X7716Y8149D02*
X7322Y8149D01*
X7322Y8149D02*
X7322Y7362D01*
X7322Y7362D02*
X7716Y7362D01*
X7716Y7362D02*
X7716Y8149D01*
X6929Y8937D02*
X6929Y6574D01*
X6929Y6574D02*
X8110Y6574D01*
X8110Y6574D02*
X8110Y8937D01*
X8110Y8937D02*
X6929Y8937D01*
G54D14*
X-4738Y3901D02*
X-4753Y3886D01*
X-4799Y3870D01*
X-4829Y3870D01*
X-4875Y3886D01*
X-4905Y3916D01*
X-4921Y3947D01*
X-4936Y4008D01*
X-4936Y4053D01*
X-4921Y4114D01*
X-4905Y4145D01*
X-4875Y4175D01*
X-4829Y4190D01*
X-4799Y4190D01*
X-4753Y4175D01*
X-4738Y4160D01*
X-4616Y4160D02*
X-4601Y4175D01*
X-4570Y4190D01*
X-4494Y4190D01*
X-4464Y4175D01*
X-4448Y4160D01*
X-4433Y4130D01*
X-4433Y4099D01*
X-4448Y4053D01*
X-4631Y3870D01*
X-4433Y3870D01*
X-6130Y4225D02*
X-6313Y4225D01*
X-6221Y4225D02*
X-6221Y4545D01*
X-6252Y4499D01*
X-6282Y4469D01*
X-6313Y4453D01*
X-5932Y4545D02*
X-5901Y4545D01*
X-5871Y4530D01*
X-5855Y4514D01*
X-5840Y4484D01*
X-5825Y4423D01*
X-5825Y4347D01*
X-5840Y4286D01*
X-5855Y4255D01*
X-5871Y4240D01*
X-5901Y4225D01*
X-5932Y4225D01*
X-5962Y4240D01*
X-5977Y4255D01*
X-5993Y4286D01*
X-6008Y4347D01*
X-6008Y4423D01*
X-5993Y4484D01*
X-5977Y4514D01*
X-5962Y4530D01*
X-5932Y4545D01*
X-5688Y4438D02*
X-5688Y4225D01*
X-5688Y4408D02*
X-5673Y4423D01*
X-5642Y4438D01*
X-5596Y4438D01*
X-5566Y4423D01*
X-5551Y4392D01*
X-5551Y4225D01*
X-5292Y4392D02*
X-5398Y4392D01*
X-5398Y4225D02*
X-5398Y4545D01*
X-5246Y4545D01*
X4159Y3862D02*
X4144Y3846D01*
X4098Y3831D01*
X4067Y3831D01*
X4022Y3846D01*
X3991Y3877D01*
X3976Y3907D01*
X3961Y3968D01*
X3961Y4014D01*
X3976Y4075D01*
X3991Y4105D01*
X4022Y4136D01*
X4067Y4151D01*
X4098Y4151D01*
X4144Y4136D01*
X4159Y4121D01*
X4433Y4044D02*
X4433Y3831D01*
X4357Y4166D02*
X4281Y3938D01*
X4479Y3938D01*
X4347Y4737D02*
X4164Y4737D01*
X4255Y4737D02*
X4255Y5057D01*
X4225Y5011D01*
X4194Y4980D01*
X4164Y4965D01*
X4545Y5057D02*
X4575Y5057D01*
X4606Y5041D01*
X4621Y5026D01*
X4636Y4996D01*
X4652Y4935D01*
X4652Y4859D01*
X4636Y4798D01*
X4621Y4767D01*
X4606Y4752D01*
X4575Y4737D01*
X4545Y4737D01*
X4514Y4752D01*
X4499Y4767D01*
X4484Y4798D01*
X4469Y4859D01*
X4469Y4935D01*
X4484Y4996D01*
X4499Y5026D01*
X4514Y5041D01*
X4545Y5057D01*
X4850Y5057D02*
X4880Y5057D01*
X4911Y5041D01*
X4926Y5026D01*
X4941Y4996D01*
X4956Y4935D01*
X4956Y4859D01*
X4941Y4798D01*
X4926Y4767D01*
X4911Y4752D01*
X4880Y4737D01*
X4850Y4737D01*
X4819Y4752D01*
X4804Y4767D01*
X4789Y4798D01*
X4773Y4859D01*
X4773Y4935D01*
X4789Y4996D01*
X4804Y5026D01*
X4819Y5041D01*
X4850Y5057D01*
X5093Y4950D02*
X5093Y4737D01*
X5093Y4919D02*
X5109Y4935D01*
X5139Y4950D01*
X5185Y4950D01*
X5215Y4935D01*
X5231Y4904D01*
X5231Y4737D01*
X5490Y4904D02*
X5383Y4904D01*
X5383Y4737D02*
X5383Y5057D01*
X5535Y5057D01*
X2095Y5690D02*
X2065Y5706D01*
X2034Y5736D01*
X1988Y5782D01*
X1958Y5797D01*
X1927Y5797D01*
X1943Y5721D02*
X1912Y5736D01*
X1882Y5767D01*
X1866Y5828D01*
X1866Y5934D01*
X1882Y5995D01*
X1912Y6026D01*
X1943Y6041D01*
X2004Y6041D01*
X2034Y6026D01*
X2065Y5995D01*
X2080Y5934D01*
X2080Y5828D01*
X2065Y5767D01*
X2034Y5736D01*
X2004Y5721D01*
X1943Y5721D01*
X2385Y5721D02*
X2202Y5721D01*
X2293Y5721D02*
X2293Y6041D01*
X2263Y5995D01*
X2232Y5965D01*
X2202Y5949D01*
X1596Y4658D02*
X1596Y4978D01*
X1718Y4978D01*
X1748Y4963D01*
X1764Y4947D01*
X1779Y4917D01*
X1779Y4871D01*
X1764Y4841D01*
X1748Y4826D01*
X1718Y4810D01*
X1596Y4810D01*
X1916Y4658D02*
X1916Y4978D01*
X2099Y4658D01*
X2099Y4978D01*
X2251Y4658D02*
X2251Y4978D01*
X2373Y4978D01*
X2404Y4963D01*
X2419Y4947D01*
X2434Y4917D01*
X2434Y4871D01*
X2419Y4841D01*
X2404Y4826D01*
X2373Y4810D01*
X2251Y4810D01*
X441Y1202D02*
X411Y1217D01*
X381Y1248D01*
X335Y1294D01*
X304Y1309D01*
X274Y1309D01*
X289Y1233D02*
X259Y1248D01*
X228Y1278D01*
X213Y1339D01*
X213Y1446D01*
X228Y1507D01*
X259Y1537D01*
X289Y1553D01*
X350Y1553D01*
X381Y1537D01*
X411Y1507D01*
X426Y1446D01*
X426Y1339D01*
X411Y1278D01*
X381Y1248D01*
X350Y1233D01*
X289Y1233D01*
X548Y1522D02*
X563Y1537D01*
X594Y1553D01*
X670Y1553D01*
X701Y1537D01*
X716Y1522D01*
X731Y1492D01*
X731Y1461D01*
X716Y1416D01*
X533Y1233D01*
X731Y1233D01*
X86Y2335D02*
X86Y2655D01*
X207Y2655D01*
X238Y2640D01*
X253Y2625D01*
X268Y2594D01*
X268Y2548D01*
X253Y2518D01*
X238Y2503D01*
X207Y2487D01*
X86Y2487D01*
X406Y2335D02*
X406Y2655D01*
X588Y2335D01*
X588Y2655D01*
X741Y2335D02*
X741Y2655D01*
X863Y2655D01*
X893Y2640D01*
X908Y2625D01*
X924Y2594D01*
X924Y2548D01*
X908Y2518D01*
X893Y2503D01*
X863Y2487D01*
X741Y2487D01*
X-1526Y1202D02*
X-1557Y1217D01*
X-1587Y1248D01*
X-1633Y1294D01*
X-1663Y1309D01*
X-1694Y1309D01*
X-1678Y1233D02*
X-1709Y1248D01*
X-1739Y1278D01*
X-1755Y1339D01*
X-1755Y1446D01*
X-1739Y1507D01*
X-1709Y1537D01*
X-1678Y1553D01*
X-1617Y1553D01*
X-1587Y1537D01*
X-1557Y1507D01*
X-1541Y1446D01*
X-1541Y1339D01*
X-1557Y1278D01*
X-1587Y1248D01*
X-1617Y1233D01*
X-1678Y1233D01*
X-1435Y1553D02*
X-1237Y1553D01*
X-1343Y1431D01*
X-1297Y1431D01*
X-1267Y1416D01*
X-1252Y1400D01*
X-1237Y1370D01*
X-1237Y1294D01*
X-1252Y1263D01*
X-1267Y1248D01*
X-1297Y1233D01*
X-1389Y1233D01*
X-1419Y1248D01*
X-1435Y1263D01*
X-1882Y2335D02*
X-1882Y2655D01*
X-1760Y2655D01*
X-1730Y2640D01*
X-1714Y2625D01*
X-1699Y2594D01*
X-1699Y2548D01*
X-1714Y2518D01*
X-1730Y2503D01*
X-1760Y2487D01*
X-1882Y2487D01*
X-1562Y2335D02*
X-1562Y2655D01*
X-1379Y2335D01*
X-1379Y2655D01*
X-1227Y2335D02*
X-1227Y2655D01*
X-1105Y2655D01*
X-1074Y2640D01*
X-1059Y2625D01*
X-1044Y2594D01*
X-1044Y2548D01*
X-1059Y2518D01*
X-1074Y2503D01*
X-1105Y2487D01*
X-1227Y2487D01*
X-3534Y1202D02*
X-3564Y1217D01*
X-3595Y1248D01*
X-3641Y1294D01*
X-3671Y1309D01*
X-3702Y1309D01*
X-3686Y1233D02*
X-3717Y1248D01*
X-3747Y1278D01*
X-3762Y1339D01*
X-3762Y1446D01*
X-3747Y1507D01*
X-3717Y1537D01*
X-3686Y1553D01*
X-3625Y1553D01*
X-3595Y1537D01*
X-3564Y1507D01*
X-3549Y1446D01*
X-3549Y1339D01*
X-3564Y1278D01*
X-3595Y1248D01*
X-3625Y1233D01*
X-3686Y1233D01*
X-3275Y1446D02*
X-3275Y1233D01*
X-3351Y1568D02*
X-3427Y1339D01*
X-3229Y1339D01*
X-3890Y2335D02*
X-3890Y2655D01*
X-3768Y2655D01*
X-3737Y2640D01*
X-3722Y2625D01*
X-3707Y2594D01*
X-3707Y2548D01*
X-3722Y2518D01*
X-3737Y2503D01*
X-3768Y2487D01*
X-3890Y2487D01*
X-3570Y2335D02*
X-3570Y2655D01*
X-3387Y2335D01*
X-3387Y2655D01*
X-3235Y2335D02*
X-3235Y2655D01*
X-3113Y2655D01*
X-3082Y2640D01*
X-3067Y2625D01*
X-3052Y2594D01*
X-3052Y2548D01*
X-3067Y2518D01*
X-3082Y2503D01*
X-3113Y2487D01*
X-3235Y2487D01*
X-3675Y4422D02*
X-3782Y4574D01*
X-3858Y4422D02*
X-3858Y4742D01*
X-3736Y4742D01*
X-3705Y4726D01*
X-3690Y4711D01*
X-3675Y4681D01*
X-3675Y4635D01*
X-3690Y4605D01*
X-3705Y4589D01*
X-3736Y4574D01*
X-3858Y4574D01*
X-3370Y4422D02*
X-3553Y4422D01*
X-3462Y4422D02*
X-3462Y4742D01*
X-3492Y4696D01*
X-3522Y4665D01*
X-3553Y4650D01*
X-3675Y4855D02*
X-3782Y5007D01*
X-3858Y4855D02*
X-3858Y5175D01*
X-3736Y5175D01*
X-3705Y5160D01*
X-3690Y5144D01*
X-3675Y5114D01*
X-3675Y5068D01*
X-3690Y5038D01*
X-3705Y5022D01*
X-3736Y5007D01*
X-3858Y5007D01*
X-3553Y5144D02*
X-3538Y5160D01*
X-3507Y5175D01*
X-3431Y5175D01*
X-3401Y5160D01*
X-3385Y5144D01*
X-3370Y5114D01*
X-3370Y5083D01*
X-3385Y5038D01*
X-3568Y4855D01*
X-3370Y4855D01*
X-3675Y5288D02*
X-3782Y5440D01*
X-3858Y5288D02*
X-3858Y5608D01*
X-3736Y5608D01*
X-3705Y5593D01*
X-3690Y5577D01*
X-3675Y5547D01*
X-3675Y5501D01*
X-3690Y5471D01*
X-3705Y5455D01*
X-3736Y5440D01*
X-3858Y5440D01*
X-3568Y5608D02*
X-3370Y5608D01*
X-3477Y5486D01*
X-3431Y5486D01*
X-3401Y5471D01*
X-3385Y5455D01*
X-3370Y5425D01*
X-3370Y5349D01*
X-3385Y5318D01*
X-3401Y5303D01*
X-3431Y5288D01*
X-3522Y5288D01*
X-3553Y5303D01*
X-3568Y5318D01*
X-3675Y5721D02*
X-3782Y5873D01*
X-3858Y5721D02*
X-3858Y6041D01*
X-3736Y6041D01*
X-3705Y6026D01*
X-3690Y6010D01*
X-3675Y5980D01*
X-3675Y5934D01*
X-3690Y5904D01*
X-3705Y5888D01*
X-3736Y5873D01*
X-3858Y5873D01*
X-3401Y5934D02*
X-3401Y5721D01*
X-3477Y6056D02*
X-3553Y5828D01*
X-3355Y5828D01*
X-3675Y6154D02*
X-3782Y6306D01*
X-3858Y6154D02*
X-3858Y6474D01*
X-3736Y6474D01*
X-3705Y6459D01*
X-3690Y6443D01*
X-3675Y6413D01*
X-3675Y6367D01*
X-3690Y6337D01*
X-3705Y6322D01*
X-3736Y6306D01*
X-3858Y6306D01*
X-3385Y6474D02*
X-3538Y6474D01*
X-3553Y6322D01*
X-3538Y6337D01*
X-3507Y6352D01*
X-3431Y6352D01*
X-3401Y6337D01*
X-3385Y6322D01*
X-3370Y6291D01*
X-3370Y6215D01*
X-3385Y6184D01*
X-3401Y6169D01*
X-3431Y6154D01*
X-3507Y6154D01*
X-3538Y6169D01*
X-3553Y6184D01*
X-3675Y6587D02*
X-3782Y6739D01*
X-3858Y6587D02*
X-3858Y6907D01*
X-3736Y6907D01*
X-3705Y6892D01*
X-3690Y6877D01*
X-3675Y6846D01*
X-3675Y6800D01*
X-3690Y6770D01*
X-3705Y6755D01*
X-3736Y6739D01*
X-3858Y6739D01*
X-3401Y6907D02*
X-3462Y6907D01*
X-3492Y6892D01*
X-3507Y6877D01*
X-3538Y6831D01*
X-3553Y6770D01*
X-3553Y6648D01*
X-3538Y6617D01*
X-3522Y6602D01*
X-3492Y6587D01*
X-3431Y6587D01*
X-3401Y6602D01*
X-3385Y6617D01*
X-3370Y6648D01*
X-3370Y6724D01*
X-3385Y6755D01*
X-3401Y6770D01*
X-3431Y6785D01*
X-3492Y6785D01*
X-3522Y6770D01*
X-3538Y6755D01*
X-3553Y6724D01*
X-3675Y7020D02*
X-3782Y7172D01*
X-3858Y7020D02*
X-3858Y7340D01*
X-3736Y7340D01*
X-3705Y7325D01*
X-3690Y7310D01*
X-3675Y7279D01*
X-3675Y7233D01*
X-3690Y7203D01*
X-3705Y7188D01*
X-3736Y7172D01*
X-3858Y7172D01*
X-3568Y7340D02*
X-3355Y7340D01*
X-3492Y7020D01*
X-4265Y8280D02*
X-4372Y8432D01*
X-4448Y8280D02*
X-4448Y8600D01*
X-4326Y8600D01*
X-4296Y8585D01*
X-4281Y8569D01*
X-4265Y8539D01*
X-4265Y8493D01*
X-4281Y8463D01*
X-4296Y8448D01*
X-4326Y8432D01*
X-4448Y8432D01*
X-4083Y8463D02*
X-4113Y8478D01*
X-4128Y8493D01*
X-4144Y8524D01*
X-4144Y8539D01*
X-4128Y8569D01*
X-4113Y8585D01*
X-4083Y8600D01*
X-4022Y8600D01*
X-3991Y8585D01*
X-3976Y8569D01*
X-3961Y8539D01*
X-3961Y8524D01*
X-3976Y8493D01*
X-3991Y8478D01*
X-4022Y8463D01*
X-4083Y8463D01*
X-4113Y8448D01*
X-4128Y8432D01*
X-4144Y8402D01*
X-4144Y8341D01*
X-4128Y8310D01*
X-4113Y8295D01*
X-4083Y8280D01*
X-4022Y8280D01*
X-3991Y8295D01*
X-3976Y8310D01*
X-3961Y8341D01*
X-3961Y8402D01*
X-3976Y8432D01*
X-3991Y8448D01*
X-4022Y8463D01*
X4159Y5682D02*
X4052Y5834D01*
X3976Y5682D02*
X3976Y6002D01*
X4098Y6002D01*
X4128Y5986D01*
X4144Y5971D01*
X4159Y5941D01*
X4159Y5895D01*
X4144Y5864D01*
X4128Y5849D01*
X4098Y5834D01*
X3976Y5834D01*
X4311Y5682D02*
X4372Y5682D01*
X4403Y5697D01*
X4418Y5712D01*
X4448Y5758D01*
X4464Y5819D01*
X4464Y5941D01*
X4448Y5971D01*
X4433Y5986D01*
X4403Y6002D01*
X4342Y6002D01*
X4311Y5986D01*
X4296Y5971D01*
X4281Y5941D01*
X4281Y5864D01*
X4296Y5834D01*
X4311Y5819D01*
X4342Y5803D01*
X4403Y5803D01*
X4433Y5819D01*
X4448Y5834D01*
X4464Y5864D01*
X4357Y5276D02*
X4357Y5094D01*
X4357Y5185D02*
X4037Y5185D01*
X4083Y5154D01*
X4113Y5124D01*
X4128Y5094D01*
X4357Y5414D02*
X4037Y5414D01*
X4235Y5444D02*
X4357Y5535D01*
X4144Y5535D02*
X4265Y5414D01*
X1562Y1250D02*
X1409Y1144D01*
X1562Y1068D02*
X1242Y1068D01*
X1242Y1190D01*
X1257Y1220D01*
X1272Y1235D01*
X1303Y1250D01*
X1348Y1250D01*
X1379Y1235D01*
X1394Y1220D01*
X1409Y1190D01*
X1409Y1068D01*
X1562Y1555D02*
X1562Y1372D01*
X1562Y1464D02*
X1242Y1464D01*
X1287Y1433D01*
X1318Y1403D01*
X1333Y1372D01*
X1242Y1753D02*
X1242Y1784D01*
X1257Y1814D01*
X1272Y1830D01*
X1303Y1845D01*
X1363Y1860D01*
X1440Y1860D01*
X1501Y1845D01*
X1531Y1830D01*
X1546Y1814D01*
X1562Y1784D01*
X1562Y1753D01*
X1546Y1723D01*
X1531Y1708D01*
X1501Y1692D01*
X1440Y1677D01*
X1363Y1677D01*
X1303Y1692D01*
X1272Y1708D01*
X1257Y1723D01*
X1242Y1753D01*
X1261Y2374D02*
X1078Y2374D01*
X1169Y2374D02*
X1169Y2694D01*
X1139Y2649D01*
X1108Y2618D01*
X1078Y2603D01*
X1398Y2374D02*
X1398Y2694D01*
X1428Y2496D02*
X1520Y2374D01*
X1520Y2588D02*
X1398Y2466D01*
X-678Y1508D02*
X-784Y1661D01*
X-861Y1508D02*
X-861Y1828D01*
X-739Y1828D01*
X-708Y1813D01*
X-693Y1798D01*
X-678Y1767D01*
X-678Y1722D01*
X-693Y1691D01*
X-708Y1676D01*
X-739Y1661D01*
X-861Y1661D01*
X-373Y1508D02*
X-556Y1508D01*
X-464Y1508D02*
X-464Y1828D01*
X-495Y1783D01*
X-525Y1752D01*
X-556Y1737D01*
X-68Y1508D02*
X-251Y1508D01*
X-160Y1508D02*
X-160Y1828D01*
X-190Y1783D01*
X-221Y1752D01*
X-251Y1737D01*
X-549Y2374D02*
X-732Y2374D01*
X-641Y2374D02*
X-641Y2694D01*
X-671Y2649D01*
X-702Y2618D01*
X-732Y2603D01*
X-412Y2374D02*
X-412Y2694D01*
X-382Y2496D02*
X-290Y2374D01*
X-290Y2588D02*
X-412Y2466D01*
X-2686Y1508D02*
X-2792Y1661D01*
X-2868Y1508D02*
X-2868Y1828D01*
X-2746Y1828D01*
X-2716Y1813D01*
X-2701Y1798D01*
X-2686Y1767D01*
X-2686Y1722D01*
X-2701Y1691D01*
X-2716Y1676D01*
X-2746Y1661D01*
X-2868Y1661D01*
X-2381Y1508D02*
X-2564Y1508D01*
X-2472Y1508D02*
X-2472Y1828D01*
X-2503Y1783D01*
X-2533Y1752D01*
X-2564Y1737D01*
X-2259Y1798D02*
X-2244Y1813D01*
X-2213Y1828D01*
X-2137Y1828D01*
X-2106Y1813D01*
X-2091Y1798D01*
X-2076Y1767D01*
X-2076Y1737D01*
X-2091Y1691D01*
X-2274Y1508D01*
X-2076Y1508D01*
X-2518Y2374D02*
X-2701Y2374D01*
X-2609Y2374D02*
X-2609Y2694D01*
X-2640Y2649D01*
X-2670Y2618D01*
X-2701Y2603D01*
X-2381Y2374D02*
X-2381Y2694D01*
X-2350Y2496D02*
X-2259Y2374D01*
X-2259Y2588D02*
X-2381Y2466D01*
X8609Y7707D02*
X8456Y7601D01*
X8609Y7524D02*
X8289Y7524D01*
X8289Y7646D01*
X8304Y7677D01*
X8319Y7692D01*
X8350Y7707D01*
X8395Y7707D01*
X8426Y7692D01*
X8441Y7677D01*
X8456Y7646D01*
X8456Y7524D01*
X8609Y8012D02*
X8609Y7829D01*
X8609Y7921D02*
X8289Y7921D01*
X8335Y7890D01*
X8365Y7860D01*
X8380Y7829D01*
X8289Y8119D02*
X8289Y8317D01*
X8411Y8210D01*
X8411Y8256D01*
X8426Y8286D01*
X8441Y8301D01*
X8472Y8317D01*
X8548Y8317D01*
X8578Y8301D01*
X8594Y8286D01*
X8609Y8256D01*
X8609Y8164D01*
X8594Y8134D01*
X8578Y8119D01*
X8395Y5527D02*
X8609Y5527D01*
X8274Y5450D02*
X8502Y5374D01*
X8502Y5572D01*
X8289Y5664D02*
X8289Y5877D01*
X8609Y5740D01*
X8609Y5999D02*
X8289Y5999D01*
X8487Y6029D02*
X8609Y6121D01*
X8395Y6121D02*
X8517Y5999D01*
X5740Y4624D02*
X5740Y4365D01*
X5755Y4334D01*
X5770Y4319D01*
X5801Y4304D01*
X5862Y4304D01*
X5892Y4319D01*
X5908Y4334D01*
X5923Y4365D01*
X5923Y4624D01*
X6243Y4304D02*
X6060Y4304D01*
X6151Y4304D02*
X6151Y4624D01*
X6121Y4578D01*
X6090Y4547D01*
X6060Y4532D01*
G54D17*
X5814Y1800D02*
X5494Y1800D01*
X5722Y1907D01*
X5494Y2014D01*
X5814Y2014D01*
X5798Y2151D02*
X5814Y2197D01*
X5814Y2273D01*
X5798Y2303D01*
X5783Y2319D01*
X5753Y2334D01*
X5722Y2334D01*
X5692Y2319D01*
X5676Y2303D01*
X5661Y2273D01*
X5646Y2212D01*
X5631Y2181D01*
X5615Y2166D01*
X5585Y2151D01*
X5555Y2151D01*
X5524Y2166D01*
X5509Y2181D01*
X5494Y2212D01*
X5494Y2288D01*
X5509Y2334D01*
X5814Y2471D02*
X5494Y2471D01*
X5494Y2593D01*
X5509Y2623D01*
X5524Y2639D01*
X5555Y2654D01*
X5600Y2654D01*
X5631Y2639D01*
X5646Y2623D01*
X5661Y2593D01*
X5661Y2471D01*
X5600Y2928D02*
X5814Y2928D01*
X5478Y2852D02*
X5707Y2776D01*
X5707Y2974D01*
X5494Y3065D02*
X5494Y3263D01*
X5615Y3157D01*
X5615Y3202D01*
X5631Y3233D01*
X5646Y3248D01*
X5676Y3263D01*
X5753Y3263D01*
X5783Y3248D01*
X5798Y3233D01*
X5814Y3202D01*
X5814Y3111D01*
X5798Y3080D01*
X5783Y3065D01*
X5494Y3461D02*
X5494Y3492D01*
X5509Y3522D01*
X5524Y3538D01*
X5555Y3553D01*
X5615Y3568D01*
X5692Y3568D01*
X5753Y3553D01*
X5783Y3538D01*
X5798Y3522D01*
X5814Y3492D01*
X5814Y3461D01*
X5798Y3431D01*
X5783Y3416D01*
X5753Y3400D01*
X5692Y3385D01*
X5615Y3385D01*
X5555Y3400D01*
X5524Y3416D01*
X5509Y3431D01*
X5494Y3461D01*
G54D14*
X-6789Y2472D02*
X-6530Y2472D01*
X-6499Y2487D01*
X-6484Y2503D01*
X-6469Y2533D01*
X-6469Y2594D01*
X-6484Y2625D01*
X-6499Y2640D01*
X-6530Y2655D01*
X-6789Y2655D01*
X-6789Y2777D02*
X-6789Y2975D01*
X-6667Y2868D01*
X-6667Y2914D01*
X-6652Y2945D01*
X-6637Y2960D01*
X-6606Y2975D01*
X-6530Y2975D01*
X-6499Y2960D01*
X-6484Y2945D01*
X-6469Y2914D01*
X-6469Y2823D01*
X-6484Y2792D01*
X-6499Y2777D01*
G54D18*
X-6257Y2861D02*
X-6241Y2876D01*
X-6211Y2891D01*
X-6135Y2891D01*
X-6104Y2876D01*
X-6089Y2861D01*
X-6074Y2830D01*
X-6074Y2800D01*
X-6089Y2754D01*
X-6272Y2571D01*
X-6074Y2571D01*
X-5921Y2571D02*
X-5861Y2571D01*
X-5830Y2587D01*
X-5815Y2602D01*
X-5784Y2647D01*
X-5769Y2708D01*
X-5769Y2830D01*
X-5784Y2861D01*
X-5800Y2876D01*
X-5830Y2891D01*
X-5891Y2891D01*
X-5921Y2876D01*
X-5937Y2861D01*
X-5952Y2830D01*
X-5952Y2754D01*
X-5937Y2724D01*
X-5921Y2708D01*
X-5891Y2693D01*
X-5830Y2693D01*
X-5800Y2708D01*
X-5784Y2724D01*
X-5769Y2754D01*
X-5586Y2754D02*
X-5617Y2769D01*
X-5632Y2785D01*
X-5647Y2815D01*
X-5647Y2830D01*
X-5632Y2861D01*
X-5617Y2876D01*
X-5586Y2891D01*
X-5525Y2891D01*
X-5495Y2876D01*
X-5480Y2861D01*
X-5464Y2830D01*
X-5464Y2815D01*
X-5480Y2785D01*
X-5495Y2769D01*
X-5525Y2754D01*
X-5586Y2754D01*
X-5617Y2739D01*
X-5632Y2724D01*
X-5647Y2693D01*
X-5647Y2632D01*
X-5632Y2602D01*
X-5617Y2587D01*
X-5586Y2571D01*
X-5525Y2571D01*
X-5495Y2587D01*
X-5480Y2602D01*
X-5464Y2632D01*
X-5464Y2693D01*
X-5480Y2724D01*
X-5495Y2739D01*
X-5525Y2754D01*
X-5175Y2891D02*
X-5327Y2891D01*
X-5342Y2739D01*
X-5327Y2754D01*
X-5297Y2769D01*
X-5221Y2769D01*
X-5190Y2754D01*
X-5175Y2739D01*
X-5160Y2708D01*
X-5160Y2632D01*
X-5175Y2602D01*
X-5190Y2587D01*
X-5221Y2571D01*
X-5297Y2571D01*
X-5327Y2587D01*
X-5342Y2602D01*
G54D14*
X-4817Y3429D02*
X-4832Y3413D01*
X-4878Y3398D01*
X-4908Y3398D01*
X-4954Y3413D01*
X-4984Y3444D01*
X-4999Y3474D01*
X-5015Y3535D01*
X-5015Y3581D01*
X-4999Y3642D01*
X-4984Y3672D01*
X-4954Y3703D01*
X-4908Y3718D01*
X-4878Y3718D01*
X-4832Y3703D01*
X-4817Y3688D01*
X-4512Y3398D02*
X-4695Y3398D01*
X-4603Y3398D02*
X-4603Y3718D01*
X-4634Y3672D01*
X-4664Y3642D01*
X-4695Y3627D01*
X-4107Y2329D02*
X-4107Y2146D01*
X-4107Y2237D02*
X-4427Y2237D01*
X-4381Y2207D01*
X-4351Y2176D01*
X-4335Y2146D01*
X-4320Y2603D02*
X-4107Y2603D01*
X-4320Y2466D02*
X-4152Y2466D01*
X-4122Y2481D01*
X-4107Y2512D01*
X-4107Y2557D01*
X-4122Y2588D01*
X-4137Y2603D01*
X-4274Y2862D02*
X-4274Y2755D01*
X-4107Y2755D02*
X-4427Y2755D01*
X-4427Y2908D01*
X-6785Y1421D02*
X-6800Y1405D01*
X-6846Y1390D01*
X-6877Y1390D01*
X-6922Y1405D01*
X-6953Y1436D01*
X-6968Y1466D01*
X-6983Y1527D01*
X-6983Y1573D01*
X-6968Y1634D01*
X-6953Y1664D01*
X-6922Y1695D01*
X-6877Y1710D01*
X-6846Y1710D01*
X-6800Y1695D01*
X-6785Y1680D01*
X-6678Y1710D02*
X-6480Y1710D01*
X-6587Y1588D01*
X-6541Y1588D01*
X-6511Y1573D01*
X-6496Y1558D01*
X-6480Y1527D01*
X-6480Y1451D01*
X-6496Y1421D01*
X-6511Y1405D01*
X-6541Y1390D01*
X-6633Y1390D01*
X-6663Y1405D01*
X-6678Y1421D01*
X-7256Y2609D02*
X-7256Y2427D01*
X-7256Y2518D02*
X-7576Y2518D01*
X-7531Y2487D01*
X-7500Y2457D01*
X-7485Y2427D01*
X-7576Y2807D02*
X-7576Y2838D01*
X-7561Y2868D01*
X-7546Y2884D01*
X-7515Y2899D01*
X-7454Y2914D01*
X-7378Y2914D01*
X-7317Y2899D01*
X-7287Y2884D01*
X-7272Y2868D01*
X-7256Y2838D01*
X-7256Y2807D01*
X-7272Y2777D01*
X-7287Y2762D01*
X-7317Y2747D01*
X-7378Y2731D01*
X-7454Y2731D01*
X-7515Y2747D01*
X-7546Y2762D01*
X-7561Y2777D01*
X-7576Y2807D01*
X-7470Y3188D02*
X-7256Y3188D01*
X-7470Y3051D02*
X-7302Y3051D01*
X-7272Y3067D01*
X-7256Y3097D01*
X-7256Y3143D01*
X-7272Y3173D01*
X-7287Y3188D01*
X-7424Y3447D02*
X-7424Y3341D01*
X-7256Y3341D02*
X-7576Y3341D01*
X-7576Y3493D01*
X424Y6981D02*
X317Y7133D01*
X241Y6981D02*
X241Y7301D01*
X363Y7301D01*
X393Y7285D01*
X408Y7270D01*
X424Y7240D01*
X424Y7194D01*
X408Y7164D01*
X393Y7148D01*
X363Y7133D01*
X241Y7133D01*
X728Y6981D02*
X546Y6981D01*
X637Y6981D02*
X637Y7301D01*
X607Y7255D01*
X576Y7225D01*
X546Y7209D01*
X1003Y7194D02*
X1003Y6981D01*
X927Y7316D02*
X850Y7087D01*
X1048Y7087D01*
X2585Y2668D02*
X2433Y2561D01*
X2585Y2485D02*
X2265Y2485D01*
X2265Y2607D01*
X2280Y2637D01*
X2296Y2653D01*
X2326Y2668D01*
X2372Y2668D01*
X2402Y2653D01*
X2418Y2637D01*
X2433Y2607D01*
X2433Y2485D01*
X2585Y2973D02*
X2585Y2790D01*
X2585Y2881D02*
X2265Y2881D01*
X2311Y2851D01*
X2341Y2820D01*
X2357Y2790D01*
X2265Y3262D02*
X2265Y3110D01*
X2418Y3094D01*
X2402Y3110D01*
X2387Y3140D01*
X2387Y3216D01*
X2402Y3247D01*
X2418Y3262D01*
X2448Y3277D01*
X2524Y3277D01*
X2555Y3262D01*
X2570Y3247D01*
X2585Y3216D01*
X2585Y3140D01*
X2570Y3110D01*
X2555Y3094D01*
X1714Y2694D02*
X1745Y2694D01*
X1775Y2679D01*
X1790Y2664D01*
X1805Y2633D01*
X1821Y2573D01*
X1821Y2496D01*
X1805Y2435D01*
X1790Y2405D01*
X1775Y2390D01*
X1745Y2374D01*
X1714Y2374D01*
X1684Y2390D01*
X1668Y2405D01*
X1653Y2435D01*
X1638Y2496D01*
X1638Y2573D01*
X1653Y2633D01*
X1668Y2664D01*
X1684Y2679D01*
X1714Y2694D01*
X2141Y2374D02*
X2034Y2527D01*
X1958Y2374D02*
X1958Y2694D01*
X2080Y2694D01*
X2110Y2679D01*
X2125Y2664D01*
X2141Y2633D01*
X2141Y2588D01*
X2125Y2557D01*
X2110Y2542D01*
X2080Y2527D01*
X1958Y2527D01*
X-6899Y9428D02*
X-6899Y9167D01*
X-6884Y9136D01*
X-6868Y9121D01*
X-6837Y9105D01*
X-6776Y9105D01*
X-6745Y9121D01*
X-6730Y9136D01*
X-6715Y9167D01*
X-6715Y9428D01*
X-6576Y9397D02*
X-6561Y9413D01*
X-6530Y9428D01*
X-6453Y9428D01*
X-6423Y9413D01*
X-6407Y9397D01*
X-6392Y9367D01*
X-6392Y9336D01*
X-6407Y9290D01*
X-6592Y9105D01*
X-6392Y9105D01*
X-6672Y5758D02*
X-6672Y5973D01*
X-6350Y5835D01*
X-6565Y6234D02*
X-6350Y6234D01*
X-6688Y6157D02*
X-6457Y6081D01*
X-6457Y6280D01*
X-6350Y6403D02*
X-6672Y6403D01*
X-6519Y6403D02*
X-6519Y6588D01*
X-6350Y6588D02*
X-6672Y6588D01*
X-6380Y6926D02*
X-6365Y6910D01*
X-6350Y6864D01*
X-6350Y6834D01*
X-6365Y6787D01*
X-6396Y6757D01*
X-6426Y6741D01*
X-6488Y6726D01*
X-6534Y6726D01*
X-6595Y6741D01*
X-6626Y6757D01*
X-6657Y6787D01*
X-6672Y6834D01*
X-6672Y6864D01*
X-6657Y6910D01*
X-6642Y6926D01*
X-6672Y7218D02*
X-6672Y7064D01*
X-6519Y7049D01*
X-6534Y7064D01*
X-6549Y7095D01*
X-6549Y7172D01*
X-6534Y7202D01*
X-6519Y7218D01*
X-6488Y7233D01*
X-6411Y7233D01*
X-6380Y7218D01*
X-6365Y7202D01*
X-6350Y7172D01*
X-6350Y7095D01*
X-6365Y7064D01*
X-6380Y7049D01*
X-6350Y7387D02*
X-6350Y7448D01*
X-6365Y7479D01*
X-6380Y7494D01*
X-6426Y7525D01*
X-6488Y7540D01*
X-6611Y7540D01*
X-6642Y7525D01*
X-6657Y7510D01*
X-6672Y7479D01*
X-6672Y7417D01*
X-6657Y7387D01*
X-6642Y7371D01*
X-6611Y7356D01*
X-6534Y7356D01*
X-6503Y7371D01*
X-6488Y7387D01*
X-6473Y7417D01*
X-6473Y7479D01*
X-6488Y7510D01*
X-6503Y7525D01*
X-6534Y7540D01*
X-6672Y7832D02*
X-6672Y7679D01*
X-6519Y7663D01*
X-6534Y7679D01*
X-6549Y7709D01*
X-6549Y7786D01*
X-6534Y7817D01*
X-6519Y7832D01*
X-6488Y7848D01*
X-6411Y7848D01*
X-6380Y7832D01*
X-6365Y7817D01*
X-6350Y7786D01*
X-6350Y7709D01*
X-6365Y7679D01*
X-6380Y7663D01*
X7772Y5096D02*
X7985Y4776D01*
X7985Y5096D02*
X7772Y4776D01*
X8275Y4776D02*
X8092Y4776D01*
X8183Y4776D02*
X8183Y5096D01*
X8153Y5050D01*
X8122Y5020D01*
X8092Y5005D01*
X7551Y2773D02*
X7749Y2773D01*
X7642Y2651D01*
X7688Y2651D01*
X7719Y2636D01*
X7734Y2621D01*
X7749Y2590D01*
X7749Y2514D01*
X7734Y2484D01*
X7719Y2468D01*
X7688Y2453D01*
X7597Y2453D01*
X7566Y2468D01*
X7551Y2484D01*
X7871Y2743D02*
X7886Y2758D01*
X7917Y2773D01*
X7993Y2773D01*
X8023Y2758D01*
X8039Y2743D01*
X8054Y2712D01*
X8054Y2682D01*
X8039Y2636D01*
X7856Y2453D01*
X8054Y2453D01*
X8191Y2453D02*
X8191Y2773D01*
X8374Y2453D02*
X8237Y2636D01*
X8374Y2773D02*
X8191Y2590D01*
X8511Y2453D02*
X8511Y2773D01*
X8511Y2621D02*
X8694Y2621D01*
X8694Y2453D02*
X8694Y2773D01*
X8816Y2666D02*
X8983Y2666D01*
X8816Y2453D01*
X8983Y2453D01*
X6560Y5830D02*
X6545Y5815D01*
X6499Y5800D01*
X6469Y5800D01*
X6423Y5815D01*
X6393Y5845D01*
X6377Y5876D01*
X6362Y5937D01*
X6362Y5982D01*
X6377Y6043D01*
X6393Y6074D01*
X6423Y6104D01*
X6469Y6120D01*
X6499Y6120D01*
X6545Y6104D01*
X6560Y6089D01*
X6850Y6120D02*
X6697Y6120D01*
X6682Y5967D01*
X6697Y5982D01*
X6728Y5998D01*
X6804Y5998D01*
X6835Y5982D01*
X6850Y5967D01*
X6865Y5937D01*
X6865Y5861D01*
X6850Y5830D01*
X6835Y5815D01*
X6804Y5800D01*
X6728Y5800D01*
X6697Y5815D01*
X6682Y5830D01*
X6286Y6620D02*
X6286Y6437D01*
X6286Y6529D02*
X5966Y6529D01*
X6012Y6498D01*
X6042Y6468D01*
X6057Y6437D01*
X6073Y6757D02*
X6286Y6757D01*
X6103Y6757D02*
X6088Y6772D01*
X6073Y6803D01*
X6073Y6849D01*
X6088Y6879D01*
X6118Y6894D01*
X6286Y6894D01*
X6118Y7153D02*
X6118Y7047D01*
X6286Y7047D02*
X5966Y7047D01*
X5966Y7199D01*
G54D19*
X4614Y7646D02*
X4417Y7927D01*
X4277Y7646D02*
X4277Y8236D01*
X4502Y8236D01*
X4558Y8208D01*
X4586Y8180D01*
X4614Y8124D01*
X4614Y8039D01*
X4586Y7983D01*
X4558Y7955D01*
X4502Y7927D01*
X4277Y7927D01*
X4867Y7955D02*
X5064Y7955D01*
X5149Y7646D02*
X4867Y7646D01*
X4867Y8236D01*
X5149Y8236D01*
X5374Y7674D02*
X5458Y7646D01*
X5598Y7646D01*
X5655Y7674D01*
X5683Y7702D01*
X5711Y7758D01*
X5711Y7814D01*
X5683Y7871D01*
X5655Y7899D01*
X5598Y7927D01*
X5486Y7955D01*
X5430Y7983D01*
X5402Y8011D01*
X5374Y8068D01*
X5374Y8124D01*
X5402Y8180D01*
X5430Y8208D01*
X5486Y8236D01*
X5627Y8236D01*
X5711Y8208D01*
X5964Y7955D02*
X6161Y7955D01*
X6245Y7646D02*
X5964Y7646D01*
X5964Y8236D01*
X6245Y8236D01*
X6414Y8236D02*
X6751Y8236D01*
X6583Y7646D02*
X6583Y8236D01*
%LPC*%
G54D20*
X3500Y3905D03*
X2500Y3905D03*
X1500Y3905D03*
X500Y3905D03*
X-500Y3905D03*
X-1500Y3905D03*
X-2500Y3905D03*
X-3500Y3905D03*
X-3500Y7905D03*
X-2500Y7905D03*
X-1500Y7905D03*
X-500Y7905D03*
X500Y7905D03*
X1500Y7905D03*
X2500Y7905D03*
X3500Y7905D03*
G54D21*
X9251Y7011D03*
X9251Y6011D03*
X9251Y5011D03*
X9251Y4011D03*
G54D22*
X-5275Y3897D03*
X-5984Y3897D03*
X4370Y4488D03*
X5078Y4488D03*
G54D23*
X2127Y5314D03*
X3226Y5689D03*
X3226Y4939D03*
G54D24*
X472Y3029D03*
X847Y1931D03*
X97Y1931D03*
X-1496Y3029D03*
X-1121Y1931D03*
X-1871Y1931D03*
X-3503Y3029D03*
X-3128Y1931D03*
X-3878Y1931D03*
G54D22*
X-4212Y4606D03*
G54D25*
X-4921Y4606D03*
G54D22*
X-4212Y5078D03*
X-4921Y5078D03*
X-4212Y5551D03*
X-4921Y5551D03*
X-4212Y6023D03*
X-4921Y6023D03*
X-4212Y6496D03*
X-4921Y6496D03*
X-4212Y6968D03*
X-4921Y6968D03*
X-4212Y7440D03*
X-4921Y7440D03*
X-4212Y7952D03*
X-4921Y7952D03*
X4566Y5314D03*
X3858Y5314D03*
G54D26*
X1377Y2165D03*
X1377Y2874D03*
X-511Y2874D03*
X-511Y2165D03*
X-2480Y2874D03*
X-2480Y2165D03*
X8464Y7165D03*
X8464Y6456D03*
G54D27*
X4881Y4064D03*
X4881Y3809D03*
X4881Y3553D03*
X4881Y3297D03*
X4881Y3041D03*
X4881Y2785D03*
X4881Y2529D03*
X4881Y2273D03*
X4881Y2017D03*
X4881Y1761D03*
X7086Y1761D03*
X7086Y2017D03*
X7086Y2273D03*
X7086Y2529D03*
X7086Y2785D03*
X7086Y3041D03*
X7086Y3297D03*
X7086Y3553D03*
X7086Y3809D03*
X7086Y4064D03*
G54D28*
X-6083Y2167D03*
X-5333Y2167D03*
X-6083Y3265D03*
X-5708Y2167D03*
X-5333Y3265D03*
G54D29*
X-4763Y3011D03*
X-4763Y2106D03*
G54D30*
X-6732Y3533D03*
X-6732Y2135D03*
G54D22*
X-787Y7165D03*
X-78Y7165D03*
G54D26*
X1889Y2874D03*
X1889Y2165D03*
G54D31*
X-5000Y590D03*
X-4000Y590D03*
X-3000Y590D03*
X-2000Y590D03*
X-1000Y590D03*
X0Y590D03*
X1000Y590D03*
X2000Y590D03*
X3000Y590D03*
X4000Y590D03*
X5000Y590D03*
G54D32*
X-5777Y5061D03*
X-5777Y5561D03*
X-5777Y6061D03*
X-5777Y6561D03*
X-5777Y7061D03*
X-5777Y7561D03*
X-5777Y8061D03*
X-5777Y8561D03*
X-7608Y8561D03*
X-7608Y8061D03*
X-7608Y7561D03*
X-7608Y7061D03*
X-7608Y6561D03*
X-7608Y6061D03*
X-7608Y5561D03*
X-7608Y5061D03*
G54D33*
X8031Y4370D03*
X8031Y3188D03*
G54D26*
X6614Y6456D03*
X6614Y7165D03*
G54D34*
X7519Y9251D03*
X7519Y6259D03*
G54D21*
X-9251Y7511D03*
X-9251Y6511D03*
X-9251Y5511D03*
X-9251Y4511D03*
X-9251Y3511D03*
M02*
